<svg width="1422" height="870" viewBox="0 0 1422 870" fill="none" xmlns="http://www.w3.org/2000/svg">
<path d="M1240.24 584.92H169.77V603.34H1240.24V584.92Z" fill="white" stroke="#4A4A4A" stroke-width="2.5" stroke-linecap="round" stroke-linejoin="round"/>
<path d="M1240.24 584.921H169.77L291.77 450.051H1118.24L1240.24 584.921Z" fill="white" stroke="#4A4A4A" stroke-width="2.5" stroke-linecap="round" stroke-linejoin="round"/>
<path d="M610.559 544.299H327.359L364.589 493.199H573.319L610.559 544.299Z" fill="#EBEBEB" stroke="#4A4A4A" stroke-width="2.5" stroke-linecap="round" stroke-linejoin="round"/>
<path d="M368.561 505.301H381.561" stroke="#4A4A4A" stroke-width="2.5" stroke-linecap="round" stroke-linejoin="round"/>
<path d="M395.65 505.301H408.65" stroke="#4A4A4A" stroke-width="2.5" stroke-linecap="round" stroke-linejoin="round"/>
<path d="M421.65 505.301H434.65" stroke="#4A4A4A" stroke-width="2.5" stroke-linecap="round" stroke-linejoin="round"/>
<path d="M448.73 505.301H461.73" stroke="#4A4A4A" stroke-width="2.5" stroke-linecap="round" stroke-linejoin="round"/>
<path d="M362.061 516.131H375.061" stroke="#4A4A4A" stroke-width="2.5" stroke-linecap="round" stroke-linejoin="round"/>
<path d="M389.15 516.131H402.15" stroke="#4A4A4A" stroke-width="2.5" stroke-linecap="round" stroke-linejoin="round"/>
<path d="M415.15 516.131H428.15" stroke="#4A4A4A" stroke-width="2.5" stroke-linecap="round" stroke-linejoin="round"/>
<path d="M442.23 516.131H455.23" stroke="#4A4A4A" stroke-width="2.5" stroke-linecap="round" stroke-linejoin="round"/>
<path d="M353.4 528.051H366.4" stroke="#4A4A4A" stroke-width="2.5" stroke-linecap="round" stroke-linejoin="round"/>
<path d="M380.48 528.051H393.48" stroke="#4A4A4A" stroke-width="2.5" stroke-linecap="round" stroke-linejoin="round"/>
<path d="M406.48 528.051H419.48" stroke="#4A4A4A" stroke-width="2.5" stroke-linecap="round" stroke-linejoin="round"/>
<path d="M433.57 528.051H446.57" stroke="#4A4A4A" stroke-width="2.5" stroke-linecap="round" stroke-linejoin="round"/>
<path d="M554.55 401.84H424.16V464.67H554.55V401.84Z" fill="#EBEBEB" stroke="#4A4A4A" stroke-width="2.5" stroke-linecap="round" stroke-linejoin="round"/>
<path d="M414.66 463H564.05C568.426 463 572.623 464.738 575.717 467.833C578.812 470.927 580.55 475.124 580.55 479.5V480.88H398.16V479.5C398.16 475.124 399.899 470.927 402.993 467.833C406.087 464.738 410.284 463 414.66 463V463Z" fill="#EBEBEB" stroke="#4A4A4A" stroke-width="2.5" stroke-linecap="round" stroke-linejoin="round"/>
<path d="M680.23 175.43H298.49C293.52 175.43 289.49 179.459 289.49 184.43V406.92C289.49 411.89 293.52 415.92 298.49 415.92H680.23C685.201 415.92 689.23 411.89 689.23 406.92V184.43C689.23 179.459 685.201 175.43 680.23 175.43Z" fill="#EBEBEB" stroke="#4A4A4A" stroke-width="2.5" stroke-miterlimit="10"/>
<path d="M665.32 189.51H313.4C309.164 189.51 305.73 192.944 305.73 197.18V394.16C305.73 398.396 309.164 401.83 313.4 401.83H665.32C669.556 401.83 672.99 398.396 672.99 394.16V197.18C672.99 192.944 669.556 189.51 665.32 189.51Z" fill="white" stroke="#4A4A4A" stroke-width="2.5" stroke-miterlimit="10"/>
<path d="M325.23 212.789H664.32" stroke="#4A4A4A" stroke-width="2.5" stroke-linecap="round" stroke-linejoin="round"/>
<path d="M346.9 223.619H381.56" stroke="#FF9500" stroke-width="2.5" stroke-linecap="round" stroke-linejoin="round"/>
<path d="M394.57 224.711H475.82" stroke="#4A4A4A" stroke-width="2.5" stroke-linecap="round" stroke-linejoin="round"/>
<path d="M346.9 236.631H416.23" stroke="#4A4A4A" stroke-width="2.5" stroke-linecap="round" stroke-linejoin="round"/>
<path d="M428.15 235.539H456.32" stroke="#FF9500" stroke-width="2.5" stroke-linecap="round" stroke-linejoin="round"/>
<path d="M470.4 236.631H486.65" stroke="#4A4A4A" stroke-width="2.5" stroke-linecap="round" stroke-linejoin="round"/>
<path d="M501.82 235.539H518.07" stroke="#EBEBEB" stroke-width="2.5" stroke-linecap="round" stroke-linejoin="round"/>
<path d="M370.73 248.539H528.9" stroke="#4A4A4A" stroke-width="2.5" stroke-linecap="round" stroke-linejoin="round"/>
<path d="M394.57 260.461H486.65" stroke="#4A4A4A" stroke-width="2.5" stroke-linecap="round" stroke-linejoin="round"/>
<path d="M498.57 259.381H521.32" stroke="#FF9500" stroke-width="2.5" stroke-linecap="round" stroke-linejoin="round"/>
<path d="M535.4 260.461H581.99" stroke="#4A4A4A" stroke-width="2.5" stroke-linecap="round" stroke-linejoin="round"/>
<path d="M394.57 271.289H462.82" stroke="#FF9500" stroke-width="2.5" stroke-linecap="round" stroke-linejoin="round"/>
<path d="M473.65 272.381H528.9" stroke="#4A4A4A" stroke-width="2.5" stroke-linecap="round" stroke-linejoin="round"/>
<path d="M541.9 271.289H564.65" stroke="#FF9500" stroke-width="2.5" stroke-linecap="round" stroke-linejoin="round"/>
<path d="M575.49 272.381H598.24" stroke="#4A4A4A" stroke-width="2.5" stroke-linecap="round" stroke-linejoin="round"/>
<path d="M448.73 284.289H462.82" stroke="#4A4A4A" stroke-width="2.5" stroke-linecap="round" stroke-linejoin="round"/>
<path d="M480.15 283.211H494.23" stroke="#FF9500" stroke-width="2.5" stroke-linecap="round" stroke-linejoin="round"/>
<path d="M506.15 283.211H546.24" stroke="#EBEBEB" stroke-width="2.5" stroke-linecap="round" stroke-linejoin="round"/>
<path d="M449.82 297.289H490.98" stroke="#4A4A4A" stroke-width="2.5" stroke-linecap="round" stroke-linejoin="round"/>
<path d="M503.98 296.211H522.4" stroke="#FF9500" stroke-width="2.5" stroke-linecap="round" stroke-linejoin="round"/>
<path d="M537.57 297.289H604.74" stroke="#4A4A4A" stroke-width="2.5" stroke-linecap="round" stroke-linejoin="round"/>
<path d="M449.82 309.211H604.74" stroke="#4A4A4A" stroke-width="2.5" stroke-linecap="round" stroke-linejoin="round"/>
<path d="M614.49 309.211H635.07" stroke="#4A4A4A" stroke-width="2.5" stroke-linecap="round" stroke-linejoin="round"/>
<path d="M408.65 320.039H612.32" stroke="#FF9500" stroke-width="2.5" stroke-linecap="round" stroke-linejoin="round"/>
<path d="M624.24 321.131H646.99" stroke="#4A4A4A" stroke-width="2.5" stroke-linecap="round" stroke-linejoin="round"/>
<path d="M408.65 333.039H510.48" stroke="#4A4A4A" stroke-width="2.5" stroke-linecap="round" stroke-linejoin="round"/>
<path d="M525.65 331.961H558.15" stroke="#EBEBEB" stroke-width="2.5" stroke-linecap="round" stroke-linejoin="round"/>
<path d="M573.32 331.961H586.32" stroke="#FF9500" stroke-width="2.5" stroke-linecap="round" stroke-linejoin="round"/>
<path d="M408.65 344.961H449.82" stroke="#4A4A4A" stroke-width="2.5" stroke-linecap="round" stroke-linejoin="round"/>
<path d="M370.73 355.789H427.07" stroke="#FF9500" stroke-width="2.5" stroke-linecap="round" stroke-linejoin="round"/>
<path d="M436.82 356.881H475.82" stroke="#4A4A4A" stroke-width="2.5" stroke-linecap="round" stroke-linejoin="round"/>
<path d="M487.73 356.881H550.57" stroke="#4A4A4A" stroke-width="2.5" stroke-linecap="round" stroke-linejoin="round"/>
<path d="M563.57 356.881H583.07" stroke="#4A4A4A" stroke-width="2.5" stroke-linecap="round" stroke-linejoin="round"/>
<path d="M370.73 368.789H402.15" stroke="#4A4A4A" stroke-width="2.5" stroke-linecap="round" stroke-linejoin="round"/>
<path d="M411.9 368.789H501.82" stroke="#4A4A4A" stroke-width="2.5" stroke-linecap="round" stroke-linejoin="round"/>
<path d="M346.9 379.631H490.98" stroke="#FF9500" stroke-width="2.5" stroke-linecap="round" stroke-linejoin="round"/>
<path d="M785.66 523.71C793.66 514.71 801.3 510.61 806.24 508.55C823.91 501.17 836.36 507.66 877.24 508.55C891.66 508.86 905.44 508.39 905.95 505.3C906.48 502.04 891.86 498.43 892.41 495.01C893.14 490.47 919.69 491.16 921.66 491.21C943.95 491.87 954.97 494.44 968.48 492.39C981.83 490.39 990.01 485.02 989.91 478.21C989.84 473.65 986.77 468.21 979.26 464.67C971.26 460.94 955.39 458.95 939.53 458.17" stroke="#4A4A4A" stroke-width="2.5" stroke-linecap="round" stroke-linejoin="round"/>
<path d="M794.379 523.365L792.866 520.891C787.851 512.687 777.135 510.103 768.931 515.118L753.352 524.643C745.148 529.658 742.564 540.374 747.579 548.578L749.092 551.052C754.107 559.256 764.823 561.84 773.027 556.825L788.606 547.3C796.81 542.285 799.394 531.569 794.379 523.365Z" fill="#EBEBEB" stroke="#4A4A4A" stroke-width="2.5" stroke-linecap="round" stroke-linejoin="round"/>
<path d="M520.5 411.59H600.5C612.26 411.59 623.538 416.261 631.853 424.577C640.169 432.892 644.84 444.17 644.84 455.93V701.93H476.16V455.93C476.16 444.17 480.832 432.892 489.147 424.577C497.462 416.261 508.74 411.59 520.5 411.59V411.59Z" fill="white" stroke="#4A4A4A" stroke-width="2.5" stroke-linecap="round" stroke-linejoin="round"/>
<path d="M644.82 459.63V701.93H476.16V459.63C476.142 447.453 480.766 435.727 489.09 426.84" fill="white"/>
<path d="M644.82 459.63V701.93H476.16V459.63C476.142 447.453 480.766 435.727 489.09 426.84" stroke="#4A4A4A" stroke-width="2.5" stroke-linecap="round" stroke-linejoin="round"/>
<path d="M983.56 401.84H853.17V464.67H983.56V401.84Z" fill="#EBEBEB" stroke="#4A4A4A" stroke-width="2.5" stroke-linecap="round" stroke-linejoin="round"/>
<path d="M843.67 463H993.06C997.436 463 1001.63 464.738 1004.73 467.833C1007.82 470.927 1009.56 475.124 1009.56 479.5V480.88H827.17V479.5C827.17 475.124 828.908 470.927 832.003 467.833C835.097 464.738 839.294 463 843.67 463V463Z" fill="#EBEBEB" stroke="#4A4A4A" stroke-width="2.5" stroke-linecap="round" stroke-linejoin="round"/>
<path d="M1109.24 175.43H727.5C722.529 175.43 718.5 179.459 718.5 184.43V406.92C718.5 411.89 722.529 415.92 727.5 415.92H1109.24C1114.21 415.92 1118.24 411.89 1118.24 406.92V184.43C1118.24 179.459 1114.21 175.43 1109.24 175.43Z" fill="#EBEBEB" stroke="#4A4A4A" stroke-width="2.5" stroke-miterlimit="10"/>
<path d="M1094.33 189.51H742.41C738.174 189.51 734.74 192.944 734.74 197.18V394.16C734.74 398.396 738.174 401.83 742.41 401.83H1094.33C1098.57 401.83 1102 398.396 1102 394.16V197.18C1102 192.944 1098.57 189.51 1094.33 189.51Z" fill="white" stroke="#4A4A4A" stroke-width="2.5" stroke-miterlimit="10"/>
<path d="M745.57 212.789H1084.66" stroke="#4A4A4A" stroke-width="2.5" stroke-linecap="round" stroke-linejoin="round"/>
<path d="M767.24 223.619H801.91" stroke="#FF9500" stroke-width="2.5" stroke-linecap="round" stroke-linejoin="round"/>
<path d="M814.91 224.711H896.16" stroke="#4A4A4A" stroke-width="2.5" stroke-linecap="round" stroke-linejoin="round"/>
<path d="M767.24 236.631H836.57" stroke="#4A4A4A" stroke-width="2.5" stroke-linecap="round" stroke-linejoin="round"/>
<path d="M848.49 235.539H876.66" stroke="#FF9500" stroke-width="2.5" stroke-linecap="round" stroke-linejoin="round"/>
<path d="M890.74 236.631H906.99" stroke="#4A4A4A" stroke-width="2.5" stroke-linecap="round" stroke-linejoin="round"/>
<path d="M922.16 235.539H938.41" stroke="#EBEBEB" stroke-width="2.5" stroke-linecap="round" stroke-linejoin="round"/>
<path d="M791.07 248.539H949.24" stroke="#4A4A4A" stroke-width="2.5" stroke-linecap="round" stroke-linejoin="round"/>
<path d="M827.91 260.461H906.99" stroke="#4A4A4A" stroke-width="2.5" stroke-linecap="round" stroke-linejoin="round"/>
<path d="M918.91 259.381H941.66" stroke="#FF9500" stroke-width="2.5" stroke-linecap="round" stroke-linejoin="round"/>
<path d="M955.74 260.461H1002.33" stroke="#4A4A4A" stroke-width="2.5" stroke-linecap="round" stroke-linejoin="round"/>
<path d="M827.91 271.289H883.16" stroke="#FF9500" stroke-width="2.5" stroke-linecap="round" stroke-linejoin="round"/>
<path d="M893.99 272.381H949.24" stroke="#4A4A4A" stroke-width="2.5" stroke-linecap="round" stroke-linejoin="round"/>
<path d="M962.24 271.289H984.99" stroke="#FF9500" stroke-width="2.5" stroke-linecap="round" stroke-linejoin="round"/>
<path d="M995.83 272.381H1018.58" stroke="#4A4A4A" stroke-width="2.5" stroke-linecap="round" stroke-linejoin="round"/>
<path d="M827.91 284.289H883.16" stroke="#4A4A4A" stroke-width="2.5" stroke-linecap="round" stroke-linejoin="round"/>
<path d="M900.49 283.211H914.58" stroke="#FF9500" stroke-width="2.5" stroke-linecap="round" stroke-linejoin="round"/>
<path d="M926.49 283.211H966.58" stroke="#EBEBEB" stroke-width="2.5" stroke-linecap="round" stroke-linejoin="round"/>
<path d="M861.49 297.289H911.33" stroke="#4A4A4A" stroke-width="2.5" stroke-linecap="round" stroke-linejoin="round"/>
<path d="M924.33 296.211H942.74" stroke="#FF9500" stroke-width="2.5" stroke-linecap="round" stroke-linejoin="round"/>
<path d="M957.91 297.289H1025.08" stroke="#4A4A4A" stroke-width="2.5" stroke-linecap="round" stroke-linejoin="round"/>
<path d="M861.49 309.211H1025.08" stroke="#4A4A4A" stroke-width="2.5" stroke-linecap="round" stroke-linejoin="round"/>
<path d="M1034.83 309.211H1055.41" stroke="#4A4A4A" stroke-width="2.5" stroke-linecap="round" stroke-linejoin="round"/>
<path d="M861.49 320.039H1032.66" stroke="#FF9500" stroke-width="2.5" stroke-linecap="round" stroke-linejoin="round"/>
<path d="M1044.58 321.131H1067.33" stroke="#4A4A4A" stroke-width="2.5" stroke-linecap="round" stroke-linejoin="round"/>
<path d="M828.99 333.039H930.83" stroke="#4A4A4A" stroke-width="2.5" stroke-linecap="round" stroke-linejoin="round"/>
<path d="M945.99 331.961H978.49" stroke="#EBEBEB" stroke-width="2.5" stroke-linecap="round" stroke-linejoin="round"/>
<path d="M993.66 331.961H1006.66" stroke="#FF9500" stroke-width="2.5" stroke-linecap="round" stroke-linejoin="round"/>
<path d="M791.07 344.961H870.16" stroke="#4A4A4A" stroke-width="2.5" stroke-linecap="round" stroke-linejoin="round"/>
<path d="M791.07 355.789H847.41" stroke="#FF9500" stroke-width="2.5" stroke-linecap="round" stroke-linejoin="round"/>
<path d="M857.16 356.881H896.16" stroke="#4A4A4A" stroke-width="2.5" stroke-linecap="round" stroke-linejoin="round"/>
<path d="M908.08 356.881H970.91" stroke="#4A4A4A" stroke-width="2.5" stroke-linecap="round" stroke-linejoin="round"/>
<path d="M983.91 356.881H1003.41" stroke="#4A4A4A" stroke-width="2.5" stroke-linecap="round" stroke-linejoin="round"/>
<path d="M791.07 368.789H822.49" stroke="#4A4A4A" stroke-width="2.5" stroke-linecap="round" stroke-linejoin="round"/>
<path d="M832.24 368.789H922.16" stroke="#4A4A4A" stroke-width="2.5" stroke-linecap="round" stroke-linejoin="round"/>
<path d="M767.24 379.631H911.33" stroke="#FF9500" stroke-width="2.5" stroke-linecap="round" stroke-linejoin="round"/>
<path d="M745.51 465.48L750.27 474.42" stroke="#4A4A4A" stroke-width="2.5" stroke-linecap="round" stroke-linejoin="round"/>
<path d="M763.991 458.17L762.551 474.42" stroke="#4A4A4A" stroke-width="2.5" stroke-linecap="round" stroke-linejoin="round"/>
<path d="M779.88 468.631L774.1 474.421" stroke="#4A4A4A" stroke-width="2.5" stroke-linecap="round" stroke-linejoin="round"/>
<path d="M275.401 494.461H288.401C289.861 494.461 291.307 494.749 292.656 495.307C294.005 495.866 295.231 496.685 296.264 497.718C297.296 498.751 298.115 499.976 298.674 501.326C299.233 502.675 299.521 504.121 299.521 505.581V518.341C299.521 521.293 298.348 524.124 296.261 526.211C294.173 528.298 291.342 529.471 288.391 529.471H275.391V494.471L275.401 494.461Z" stroke="#4A4A4A" stroke-width="2.5" stroke-linecap="round" stroke-linejoin="round"/>
<path d="M283.7 542.669C283.7 542.669 277.83 547.279 258.06 547.279C238.56 547.279 232.42 542.669 232.42 542.669V479.119C232.42 479.119 242.35 483.119 258.06 483.119C274.31 483.119 283.7 479.119 283.7 479.119V542.669Z" fill="white" stroke="#4A4A4A" stroke-width="2.5" stroke-linecap="round" stroke-linejoin="round"/>
<path d="M258.06 483.36C272.221 483.36 283.7 481.175 283.7 478.48C283.7 475.784 272.221 473.6 258.06 473.6C243.899 473.6 232.42 475.784 232.42 478.48C232.42 481.175 243.899 483.36 258.06 483.36Z" fill="#EBEBEB" stroke="#4A4A4A" stroke-width="2.5" stroke-linecap="round" stroke-linejoin="round"/>
<path d="M262.001 541H257.551V533.73H254.231C253.971 533.73 254.021 533.95 254.021 534.1C254.021 536.4 254.021 538.7 254.021 541H249.571V533.6H240.721C240.718 533.56 240.718 533.52 240.721 533.48C240.991 531.84 241.271 530.2 241.541 528.56C241.541 528.32 241.731 528.34 241.901 528.34H244.621C244.873 528.376 245.131 528.352 245.373 528.271C245.615 528.189 245.834 528.052 246.013 527.87C246.192 527.688 246.326 527.466 246.403 527.223C246.481 526.98 246.501 526.722 246.461 526.47V507.37C246.483 507.066 246.442 506.761 246.34 506.474C246.238 506.187 246.078 505.924 245.869 505.702C245.66 505.481 245.408 505.305 245.128 505.185C244.847 505.066 244.545 505.006 244.241 505.01C243.511 505.01 242.781 505.01 242.051 504.96H240.721V500.24H249.601V493H254.051C254.051 495.26 254.051 497.52 254.051 499.79C254.051 500.05 254.131 500.14 254.401 500.13C255.171 500.13 255.941 500.13 256.711 500.13H257.541C257.541 500.03 257.591 500 257.591 499.98V493H262.001C262.001 493.15 262.001 493.3 262.001 493.46C262.001 495.46 262.001 497.55 262.001 499.59C262.001 500.29 262.001 500.29 262.731 500.37C264.706 500.521 266.643 501.001 268.461 501.79C269.308 502.137 270.077 502.649 270.725 503.296C271.372 503.943 271.884 504.713 272.231 505.56C272.701 506.838 272.882 508.204 272.761 509.56C272.713 510.657 272.385 511.723 271.807 512.656C271.229 513.589 270.421 514.358 269.461 514.89L269.001 515.16L269.231 515.27C269.991 515.56 270.791 515.78 271.511 516.14C272.382 516.533 273.154 517.117 273.769 517.85C274.383 518.582 274.825 519.443 275.061 520.37C275.521 522.318 275.486 524.349 274.961 526.28C274.58 527.965 273.673 529.485 272.371 530.62C270.853 531.861 269.036 532.682 267.101 533C265.561 533.3 263.991 533.41 262.431 533.58C262.091 533.58 261.991 533.73 262.011 534.05C262.011 534.64 262.011 535.23 262.011 535.82C262.001 537.55 262.001 539.27 262.001 541ZM254.111 528.35C255.481 528.35 256.791 528.35 258.111 528.35C259.876 528.345 261.628 528.055 263.301 527.49C264.379 527.185 265.316 526.513 265.951 525.59C266.237 525.133 266.428 524.623 266.512 524.09C266.597 523.557 266.572 523.012 266.44 522.489C266.309 521.966 266.072 521.475 265.746 521.045C265.419 520.616 265.01 520.257 264.541 519.99C263.11 519.182 261.503 518.739 259.861 518.7C258.111 518.62 256.361 518.64 254.611 518.6C254.231 518.6 254.121 518.7 254.121 519.09C254.121 522.03 254.121 524.96 254.121 527.9L254.111 528.35ZM254.111 509.7V513.8C254.111 514.01 254.111 514.16 254.411 514.17C256.642 514.292 258.88 514.107 261.061 513.62C262.183 513.364 263.181 512.724 263.881 511.81C264.377 511.03 264.58 510.099 264.454 509.183C264.327 508.268 263.88 507.426 263.191 506.81C262.069 505.94 260.7 505.446 259.281 505.4C257.681 505.28 256.071 505.31 254.461 505.26C254.151 505.26 254.111 505.4 254.111 505.65C254.151 507 254.141 508.36 254.141 509.7H254.111Z" fill="#FF9500"/>
<path d="M956.289 530.76V519.92L1061.37 477.48V488.51L956.289 530.76Z" fill="white" stroke="#4A4A4A" stroke-width="2.5" stroke-linecap="round" stroke-linejoin="round"/>
<path d="M1230.92 523.64L1062.01 488.51V477.48L1231.12 507.73L1230.92 523.64Z" fill="#EBEBEB" stroke="#4A4A4A" stroke-width="2.5" stroke-linecap="round" stroke-linejoin="round"/>
<path d="M1144.21 578.25L957.01 530.74L1062.01 488.51L1230.92 522.81L1144.21 578.25Z" fill="#EBEBEB" stroke="#4A4A4A" stroke-width="2.5" stroke-linecap="round" stroke-linejoin="round"/>
<path d="M1231.12 507.73L1230.92 523.64L1143.41 578.32V565.06L1231.12 507.73Z" fill="white" stroke="#4A4A4A" stroke-width="2.5" stroke-linecap="round" stroke-linejoin="round"/>
<path d="M1062.01 477.48L1132.33 409.42L1300.61 430.18L1231.12 507.73L1062.01 477.48Z" fill="white" stroke="#4A4A4A" stroke-width="2.5" stroke-linecap="round" stroke-linejoin="round"/>
<path d="M1062.01 477.481L1051.08 469.001L1127.78 398.301L1132.33 409.421L1062.01 477.481Z" fill="#EBEBEB" stroke="#4A4A4A" stroke-width="2.5" stroke-linecap="round" stroke-linejoin="round"/>
<path d="M1127.14 398.211L1299.71 414.121V430.001L1131.92 409.421L1127.14 398.211Z" fill="#EBEBEB" stroke="#4A4A4A" stroke-width="2.5" stroke-linecap="round" stroke-linejoin="round"/>
<path d="M1226.31 496.629L1299.71 414.119V429.999L1230.51 507.729L1226.31 496.629Z" fill="white" stroke="#4A4A4A" stroke-width="2.5" stroke-linecap="round" stroke-linejoin="round"/>
<path d="M1204.37 431.24C1205.6 431.423 1206.76 431.889 1207.78 432.6L1219.78 440.6L1233.48 449.73C1235.48 451.04 1237.42 452.36 1239.41 453.67C1240.98 454.67 1240.74 455.99 1238.94 456.45C1232.34 458.16 1225.77 459.9 1219.19 461.62L1204.93 465.36L1199.06 466.91C1198.59 467.03 1198.59 467.03 1198.18 466.76C1194.31 464.18 1190.42 461.6 1186.55 459.01L1175.44 451.6L1167.24 446.14C1165.24 444.81 1163.24 443.47 1161.24 442.14C1160.93 441.94 1160.96 441.86 1161.31 441.77L1177.77 437.46L1194.7 433.02L1201.27 431.3C1202.29 431.063 1203.34 431.042 1204.37 431.24V431.24ZM1200.77 453.24C1206.32 454.15 1211.14 452.95 1211.53 450.4C1211.92 447.85 1207.91 445.27 1202.53 444.31C1196.7 443.31 1191.92 444.62 1191.53 447.08C1191.14 449.54 1195.07 452.22 1200.77 453.2V453.24Z" fill="#FF9500" stroke="#4A4A4A" stroke-width="2.5" stroke-linecap="round" stroke-linejoin="round"/>
<path d="M1112.14 456.4C1112.14 455.78 1112.96 455.4 1113.98 455.17L1122.08 453.05L1131.43 450.61L1141.59 447.93L1148.85 446.04C1150.41 445.63 1151.97 445.23 1153.52 444.81C1153.64 444.767 1153.78 444.755 1153.91 444.776C1154.04 444.797 1154.16 444.85 1154.27 444.93L1169.07 454.8L1182.3 463.61L1191.3 469.61C1191.57 469.8 1191.64 469.89 1191.24 469.99C1188.78 470.61 1186.35 471.26 1183.92 471.9L1178.28 473.39L1172.28 474.97L1167.36 476.26L1162.11 477.62L1156.4 479.14L1151.3 480.47C1150.33 480.687 1149.33 480.71 1148.36 480.54C1147.3 480.419 1146.28 480.078 1145.36 479.54L1138.59 475.02L1132.08 470.69L1127.43 467.59L1118.82 461.85L1113 458C1112.27 457.46 1112 457 1112.14 456.4ZM1137.2 456C1131.71 455 1126.54 456.27 1126.34 459C1126.16 461.37 1130.02 464 1135.49 464.92C1140.96 465.84 1145.99 464.65 1146.29 461.98C1146.55 459.58 1142.59 456.91 1137.2 456ZM1166.52 461.07C1161.01 460.16 1156.39 461.42 1155.84 463.7C1155.21 466.31 1159.4 469.08 1165.01 470.02C1170.36 470.92 1175.08 469.79 1175.67 467.35C1176.26 464.91 1172 462 1166.52 461.07Z" fill="#EBEBEB" stroke="#4A4A4A" stroke-width="2.5" stroke-linecap="round" stroke-linejoin="round"/>
<path d="M1175.51 531.542C1176.25 516.456 1140.24 502.416 1095.08 500.183C1049.91 497.95 1012.69 508.37 1011.95 523.457C1011.2 538.543 1047.21 552.583 1092.38 554.816C1137.54 557.049 1174.76 546.629 1175.51 531.542Z" fill="white" stroke="#4A4A4A" stroke-width="2.5" stroke-linecap="round" stroke-linejoin="round"/>
<path d="M1063.72 519.721C1069.11 519.721 1073.47 518.23 1073.47 516.391C1073.47 514.551 1069.11 513.061 1063.72 513.061C1058.34 513.061 1053.97 514.551 1053.97 516.391C1053.97 518.23 1058.34 519.721 1063.72 519.721Z" fill="#FF9500"/>
<path d="M1114.35 523.641C1120.97 523.641 1126.34 522.016 1126.34 520.011C1126.34 518.006 1120.97 516.381 1114.35 516.381C1107.73 516.381 1102.36 518.006 1102.36 520.011C1102.36 522.016 1107.73 523.641 1114.35 523.641Z" fill="#FF9500"/>
<path d="M1115.72 543.021C1120.1 543.021 1123.66 541.852 1123.66 540.411C1123.66 538.969 1120.1 537.801 1115.72 537.801C1111.33 537.801 1107.78 538.969 1107.78 540.411C1107.78 541.852 1111.33 543.021 1115.72 543.021Z" fill="#FF9500"/>
<path d="M1092.61 533.38C1094.6 533.38 1096.22 532.793 1096.22 532.07C1096.22 531.346 1094.6 530.76 1092.61 530.76C1090.62 530.76 1089 531.346 1089 532.07C1089 532.793 1090.62 533.38 1092.61 533.38Z" fill="#FF9500"/>
<path d="M1054.69 543.021C1061.47 543.021 1066.97 540.863 1066.97 538.201C1066.97 535.539 1061.47 533.381 1054.69 533.381C1047.91 533.381 1042.41 535.539 1042.41 538.201C1042.41 540.863 1047.91 543.021 1054.69 543.021Z" fill="#FF9500"/>
<path d="M1149.67 533.369C1154.06 533.369 1157.61 532.492 1157.61 531.409C1157.61 530.327 1154.06 529.449 1149.67 529.449C1145.29 529.449 1141.73 530.327 1141.73 531.409C1141.73 532.492 1145.29 533.369 1149.67 533.369Z" fill="#FF9500"/>
<path d="M1142.62 578.421V577.801V564.341L956.74 519.711L955.68 530.821L1142.62 578.321V564.341" fill="white"/>
<path d="M1142.62 578.421V577.801V564.341L956.74 519.711L955.68 530.821L1142.62 578.321V564.341" stroke="#4A4A4A" stroke-width="2.5" stroke-linecap="round" stroke-linejoin="round"/>
<path d="M394.571 536C384.811 527.54 383.431 520.39 390.351 513.13C397.271 505.87 413.521 498.29 423.821 501.54C434.121 504.79 437.361 509.02 436.271 513.13C434.717 518.22 431.212 522.488 426.521 525C421.111 528.05 394.571 536 394.571 536Z" fill="white" stroke="#4A4A4A" stroke-width="4" stroke-linecap="round" stroke-linejoin="round"/>
<path d="M727.16 522.09C733.16 507.46 741.24 504.21 751.53 504.76C761.82 505.31 784.03 506.91 788.37 517.48C792.71 528.05 792.16 530.21 788.37 530.76C784.58 531.31 774.28 530.21 771.03 530.76C767.78 531.31 759.29 545.38 759.29 545.38L727.16 522.09Z" fill="white" stroke="#4A4A4A" stroke-width="4" stroke-linecap="round" stroke-linejoin="round"/>
<path d="M555.08 252.33H572.14C588.265 252.33 603.729 258.736 615.132 270.138C626.534 281.54 632.94 297.005 632.94 313.13V364.45H494.27V313.14C494.27 297.015 500.675 281.55 512.077 270.148C523.48 258.746 538.944 252.34 555.07 252.34L555.08 252.33Z" stroke="#4A4A4A" stroke-width="4" stroke-linecap="round" stroke-linejoin="round"/>
<path d="M576.62 268.539H552.76C527.493 268.539 507.01 289.022 507.01 314.289V379.139C507.01 404.406 527.493 424.889 552.76 424.889H576.62C601.887 424.889 622.37 404.406 622.37 379.139V314.289C622.37 289.022 601.887 268.539 576.62 268.539Z" fill="#EBEBEB" stroke="#4A4A4A" stroke-width="4" stroke-linecap="round" stroke-linejoin="round"/>
<path d="M492.663 336.384L501.177 336.067C502.192 336.029 503.181 336.396 503.925 337.087C504.67 337.779 505.109 338.737 505.147 339.752L506.643 379.984C506.681 380.999 506.314 381.988 505.623 382.732C504.932 383.477 503.973 383.916 502.958 383.954L494.444 384.271C489.883 384.44 485.441 382.791 482.096 379.686C478.751 376.58 476.776 372.273 476.606 367.712L476.104 354.222C475.935 349.66 477.584 345.219 480.689 341.873C483.795 338.528 488.102 336.553 492.663 336.384V336.384Z" fill="#EBEBEB" stroke="#4A4A4A" stroke-width="4" stroke-linecap="round" stroke-linejoin="round"/>
<path d="M634.827 384.284L626.313 383.968C625.298 383.93 624.34 383.49 623.649 382.746C622.957 382.001 622.59 381.013 622.628 379.998L624.125 339.766C624.162 338.751 624.602 337.792 625.346 337.101C626.091 336.41 627.079 336.043 628.094 336.081L636.608 336.397C641.17 336.567 645.477 338.542 648.582 341.887C651.687 345.232 653.336 349.674 653.167 354.235L652.665 367.726C652.495 372.287 650.521 376.594 647.176 379.699C643.83 382.805 639.388 384.454 634.827 384.284V384.284Z" fill="#EBEBEB" stroke="#4A4A4A" stroke-width="4" stroke-linecap="round" stroke-linejoin="round"/>
<path d="M642.65 550.8L671.33 589.11C673.657 592.186 676.594 594.75 679.957 596.64C683.319 598.531 687.036 599.708 690.873 600.099C694.711 600.489 698.588 600.084 702.263 598.909C705.937 597.734 709.33 595.815 712.229 593.27L764.14 547.73C765.653 546.491 766.633 544.719 766.879 542.778C767.124 540.838 766.616 538.877 765.46 537.3C759.35 529.08 746.259 515.65 726.789 517.48C721.789 517.95 714.789 522.39 707.789 528.01L630.52 426" fill="white"/>
<path d="M642.65 550.8L671.33 589.11C673.657 592.186 676.594 594.75 679.957 596.64C683.319 598.531 687.036 599.708 690.873 600.099C694.711 600.489 698.588 600.084 702.263 598.909C705.937 597.734 709.33 595.815 712.229 593.27L764.14 547.73C765.653 546.491 766.633 544.719 766.879 542.778C767.124 540.838 766.616 538.877 765.46 537.3C759.35 529.08 746.259 515.65 726.789 517.48C721.789 517.95 714.789 522.39 707.789 528.01L630.52 426" stroke="#4A4A4A" stroke-width="4" stroke-linecap="round" stroke-linejoin="round"/>
<path d="M479.879 550.8L457.409 589.11C449.699 602.11 434.959 604.02 425.349 593.27L392.349 547.73C389.889 545.15 389.659 534.73 391.559 531.51C396.339 523.29 407.789 515.65 423.039 517.51C426.999 518 432.499 522.39 437.999 528L489.399 426" fill="white"/>
<path d="M479.879 550.8L457.409 589.11C449.699 602.11 434.959 604.02 425.349 593.27L392.349 547.73C389.889 545.15 389.659 534.73 391.559 531.51C396.339 523.29 407.789 515.65 423.039 517.51C426.999 518 432.499 522.39 437.999 528L489.399 426" stroke="#4A4A4A" stroke-width="4" stroke-linecap="round" stroke-linejoin="round"/>
<path d="M489.09 426.84C493.578 422.019 499.013 418.177 505.054 415.553C511.095 412.929 517.613 411.58 524.2 411.59H596.78C603.788 411.581 610.712 413.11 617.065 416.068C623.419 419.026 629.046 423.341 633.55 428.71L595.55 468.81L522.42 465.48L489.09 426.84Z" fill="#FF9500" stroke="#4A4A4A" stroke-width="4" stroke-linecap="round" stroke-linejoin="round"/>
<path d="M560.94 456.551C533.86 456.551 509.79 442.981 494.45 421.921C489.1 414.571 478.92 427.021 482.33 439.991C494.23 485.251 524.93 517.481 560.94 517.481C598.78 517.481 630.76 481.891 641.21 432.981C643.56 421.981 634.21 411.691 630.1 418.041C615 441.291 589.64 456.551 560.94 456.551Z" fill="#EBEBEB" stroke="#4A4A4A" stroke-width="2.5" stroke-linecap="round" stroke-linejoin="round"/>
<path d="M560.939 439.75C536.719 439.75 515.699 429.1 499.589 414.2C496.589 411.44 490.17 416.32 494.45 421.92C510.85 443.37 533.859 456.55 560.939 456.55C590.549 456.55 617.199 441.11 630.099 418.04C633.709 411.58 623.36 413.04 622.65 413.83C614.641 422.085 605.046 428.637 594.441 433.091C583.837 437.546 572.441 439.81 560.939 439.75V439.75Z" fill="white" stroke="#4A4A4A" stroke-width="2.5" stroke-linecap="round" stroke-linejoin="round"/>
<path d="M628.439 331.6H625.449C622.136 331.6 619.449 334.286 619.449 337.6V384.82C619.449 388.133 622.136 390.82 625.449 390.82H628.439C631.753 390.82 634.439 388.133 634.439 384.82V337.6C634.439 334.286 631.753 331.6 628.439 331.6Z" fill="#FF9500" stroke="#4A4A4A" stroke-width="2.5" stroke-miterlimit="10"/>
<path d="M502.23 331.42H499.24C495.927 331.42 493.24 334.106 493.24 337.42V384.64C493.24 387.954 495.927 390.64 499.24 390.64H502.23C505.544 390.64 508.23 387.954 508.23 384.64V337.42C508.23 334.106 505.544 331.42 502.23 331.42Z" fill="#FF9500" stroke="#4A4A4A" stroke-width="2.5" stroke-miterlimit="10"/>
<path d="M238.22 399.721C234.55 408.901 245.08 416.101 245.31 421.221C245.67 429.151 236.12 432.111 237.43 441.941C238.14 447.291 241.7 451.201 244.25 453.481" stroke="#4A4A4A" stroke-width="2.5" stroke-linecap="round" stroke-linejoin="round"/>
<path d="M259.179 440.17C257.104 435.784 255.951 431.02 255.789 426.17C255.789 416.26 262.869 412.65 261.559 405.17C260.329 398.17 253.009 394.07 252.609 388C252.099 380.33 266.339 375 257.889 367.15" stroke="#4A4A4A" stroke-width="2.5" stroke-linecap="round" stroke-linejoin="round"/>
<path d="M655.44 713.301H468.98C457.797 713.301 448.73 722.367 448.73 733.551V736.931C448.73 748.115 457.797 757.181 468.98 757.181H655.44C666.624 757.181 675.69 748.115 675.69 736.931V733.551C675.69 722.367 666.624 713.301 655.44 713.301Z" fill="#EBEBEB" stroke="#4A4A4A" stroke-width="2.5" stroke-linecap="round" stroke-linejoin="round"/>
<path d="M553.89 488.09H568.74C592.363 488.09 615.018 497.474 631.722 514.178C648.426 530.882 657.81 553.537 657.81 577.16V697.79C657.81 701.856 656.195 705.755 653.32 708.63C650.445 711.505 646.546 713.12 642.48 713.12H480.16C476.094 713.12 472.195 711.505 469.32 708.63C466.445 705.755 464.83 701.856 464.83 697.79V577.16C464.83 553.537 474.214 530.882 490.918 514.178C507.622 497.474 530.277 488.09 553.9 488.09H553.89Z" fill="#EBEBEB" stroke="#4A4A4A" stroke-width="2.5" stroke-linecap="round" stroke-linejoin="round"/>
<path d="M542.08 676.471H580.55V759.721C580.55 762.352 579.505 764.875 577.645 766.735C575.784 768.596 573.261 769.641 570.63 769.641H552C549.369 769.641 546.846 768.596 544.986 766.735C543.125 764.875 542.08 762.352 542.08 759.721V676.471Z" fill="#EBEBEB" stroke="#4A4A4A" stroke-width="2.5" stroke-linecap="round" stroke-linejoin="round"/>
<path d="M552.18 614.18H570.47C577.456 614.18 584.155 616.955 589.095 621.895C594.035 626.834 596.81 633.534 596.81 640.52V678.18C596.81 680.458 595.905 682.643 594.294 684.254C592.683 685.865 590.498 686.77 588.22 686.77H534.43C533.302 686.77 532.185 686.548 531.143 686.116C530.1 685.684 529.153 685.052 528.356 684.254C527.558 683.456 526.925 682.509 526.494 681.467C526.062 680.425 525.84 679.308 525.84 678.18V640.51C525.84 633.524 528.615 626.824 533.555 621.885C538.494 616.945 545.194 614.17 552.18 614.17V614.18Z" fill="#EBEBEB" stroke="#4A4A4A" stroke-width="2.5" stroke-linecap="round" stroke-linejoin="round"/>
</svg>
