<svg width="1422" height="870" viewBox="0 0 1422 870" fill="none" xmlns="http://www.w3.org/2000/svg">
<path d="M185.82 805.201V804.701C185.82 797.938 188.507 791.452 193.289 786.67C198.071 781.888 204.557 779.201 211.32 779.201H215.15L175.15 650.871C160.49 606.871 173.49 549.201 177.15 541.871C174.15 544.871 164.15 551.871 164.15 551.871L142.82 593.201L140.49 639.531L104.82 628.871L122.49 588.201C129.49 534.201 148.15 482.201 215.82 438.201C213.82 434.201 199.82 370.201 199.82 370.201L155.82 378.531L195.15 353.871L173.82 262.531L282.82 236.531L305.82 326.531L350.15 332.531L308.49 343.201L311.49 348.201L324.82 401.871L335.82 404.871L327.49 413.201C327.49 413.201 336.49 438.871 315.49 454.201C316.286 454.858 316.962 455.646 317.49 456.531L407.15 561.201L419.15 563.531L421.49 548.531C410.82 539.531 417.15 528.531 420.15 524.871C423.15 521.211 435.49 514.531 446.49 526.201C456.15 537.201 444.82 549.531 437.82 551.871C435.82 557.531 398.15 732.871 398.15 732.871L391.49 734.201L413.15 596.531L397.15 574.871L360.49 564.871C366.15 590.531 364.82 626.201 359.49 649.531C359.82 649.871 352.15 650.531 352.15 650.531L322.15 779.531H322.82C329.539 779.534 335.982 782.205 340.732 786.957C345.482 791.709 348.15 798.152 348.15 804.871V806.201L185.82 805.201Z" fill="white"/>
<path d="M732.651 806.33H585.641V246.16L732.651 392.13V806.33Z" fill="#EBEBEB"/>
<path d="M585.871 246.16L499.051 392.13V806.33H585.641" fill="white"/>
<path d="M1153.97 811.611V183.311L1318.05 27.9414V806.331" fill="white"/>
<path d="M1028.85 110.738C912.119 110.738 817.449 200.538 817.449 311.308V806.308H1027.13" fill="white"/>
<path d="M817.469 428.262H766.02V806.332H817.469V428.262Z" fill="#EBEBEB"/>
<path d="M1352.81 806.331V183.311L1318.05 27.9414V806.331" fill="#EBEBEB"/>
<path d="M1028.83 807.648V110.738H1029.13C1044.48 110.738 1058.03 169.738 1063.59 246.868V804.998" fill="#EBEBEB"/>
<path d="M1352.81 806.331V183.311L1318.05 27.9414V806.331" stroke="#4A4A4A" stroke-width="2.57" stroke-linecap="square" stroke-linejoin="round"/>
<path d="M817.471 806.332V311.332C817.471 200.562 912.141 110.762 1028.87 110.762" stroke="#4A4A4A" stroke-width="2.57" stroke-linecap="square" stroke-linejoin="round"/>
<path d="M1028.83 209.711V110.711H1029.13C1044.48 110.711 1058.03 169.711 1063.59 246.841V805.001" stroke="#4A4A4A" stroke-width="2.57" stroke-linecap="square" stroke-linejoin="round"/>
<path d="M1028.83 802.391V568.871" stroke="#4A4A4A" stroke-width="2.57" stroke-linecap="square" stroke-linejoin="round"/>
<path d="M585.871 246.16L499.051 392.13V806.33H585.641" fill="white"/>
<path d="M585.871 246.16L499.051 392.13V806.33H585.641" stroke="#4A4A4A" stroke-width="2.57" stroke-linecap="square" stroke-linejoin="round"/>
<path d="M585.641 589.24V246.16L732.651 392.13V806.33H585.641" stroke="#4A4A4A" stroke-width="2.57" stroke-linecap="square" stroke-linejoin="round"/>
<path d="M732.65 426.941H817.47" stroke="#4A4A4A" stroke-width="2.57" stroke-linecap="square" stroke-linejoin="round"/>
<path d="M584.25 603.762V639.382" stroke="#4A4A4A" stroke-width="2.57" stroke-linecap="square" stroke-linejoin="round"/>
<path d="M877.149 613.87C877.149 563.87 869.149 365.87 940.149 308.87C998.149 262.87 1066.96 231.63 1154.06 229.75V807.87H885.149C879.149 703.87 877.149 613.87 877.149 613.87Z" fill="white"/>
<path d="M1154.75 804.35L1154.06 229.75C1078.7 229.75 953.86 269.14 912.91 342.93" stroke="#4A4A4A" stroke-width="2.57" stroke-linecap="square" stroke-linejoin="round"/>
<path d="M885 806.331C885 806.331 879.7 732.101 878.85 641.461Z" fill="white"/>
<path d="M885 806.331C885 806.331 879.7 732.101 878.85 641.461" stroke="#4A4A4A" stroke-width="2.57" stroke-linecap="square" stroke-linejoin="round"/>
<path d="M1035.38 806.33C1035.38 806.33 1022.62 473.61 1046.81 356.92C1063.97 274.13 1111.47 229.75 1154.38 229.75L1154.75 804.35" fill="#EBEBEB"/>
<path d="M1154.38 229.75L1154.75 804.35" stroke="#4A4A4A" stroke-width="2.57" stroke-linecap="square" stroke-linejoin="round"/>
<path d="M1192.9 199.148H1180.39V229.498H1192.9V199.148Z" fill="#EBEBEB"/>
<path d="M1226.27 199.148H1213.76V229.498H1226.27V199.148Z" fill="#EBEBEB"/>
<path d="M1259.65 199.148H1247.14V229.498H1259.65V199.148Z" fill="#EBEBEB"/>
<path d="M1293.02 199.148H1280.51V229.498H1293.02V199.148Z" fill="#EBEBEB"/>
<path d="M1192.9 246.648H1180.39V278.318H1192.9V246.648Z" fill="#EBEBEB"/>
<path d="M1226.27 246.648H1213.76V278.318H1226.27V246.648Z" fill="#EBEBEB"/>
<path d="M1259.65 246.648H1247.14V278.318H1259.65V246.648Z" fill="#EBEBEB"/>
<path d="M1293.02 246.648H1280.51V278.318H1293.02V246.648Z" fill="#EBEBEB"/>
<path d="M1192.9 302.07H1180.39V332.42H1192.9V302.07Z" fill="#EBEBEB"/>
<path d="M1226.27 302.07H1213.76V332.42H1226.27V302.07Z" fill="#EBEBEB"/>
<path d="M1259.65 302.07H1247.14V332.42H1259.65V302.07Z" fill="#EBEBEB"/>
<path d="M1293.02 302.07H1280.51V332.42H1293.02V302.07Z" fill="#EBEBEB"/>
<path d="M1192.9 353.539H1180.39V385.209H1192.9V353.539Z" fill="#EBEBEB"/>
<path d="M1226.27 353.539H1213.76V385.209H1226.27V353.539Z" fill="#EBEBEB"/>
<path d="M1259.65 353.539H1247.14V385.209H1259.65V353.539Z" fill="#EBEBEB"/>
<path d="M1293.02 353.539H1280.51V385.209H1293.02V353.539Z" fill="#EBEBEB"/>
<path d="M1192.9 408.961H1180.39V440.631H1192.9V408.961Z" fill="#EBEBEB"/>
<path d="M1226.27 408.961H1213.76V440.631H1226.27V408.961Z" fill="#EBEBEB"/>
<path d="M1259.65 408.961H1247.14V440.631H1259.65V408.961Z" fill="#EBEBEB"/>
<path d="M1293.02 408.961H1280.51V440.631H1293.02V408.961Z" fill="#EBEBEB"/>
<path d="M1192.9 463.059H1180.39V494.729H1192.9V463.059Z" fill="#EBEBEB"/>
<path d="M1226.27 463.059H1213.76V494.729H1226.27V463.059Z" fill="#EBEBEB"/>
<path d="M1259.65 463.059H1247.14V494.729H1259.65V463.059Z" fill="#EBEBEB"/>
<path d="M1293.02 463.059H1280.51V494.729H1293.02V463.059Z" fill="#EBEBEB"/>
<path d="M1192.9 514.52H1180.39V546.19H1192.9V514.52Z" fill="#EBEBEB"/>
<path d="M1226.27 514.52H1213.76V546.19H1226.27V514.52Z" fill="#EBEBEB"/>
<path d="M1259.65 514.52H1247.14V546.19H1259.65V514.52Z" fill="#EBEBEB"/>
<path d="M1293.02 514.52H1280.51V546.19H1293.02V514.52Z" fill="#EBEBEB"/>
<path d="M1153.97 804.351V183.311L1318.05 27.9414V806.331" stroke="#4A4A4A" stroke-width="2.57" stroke-linecap="square" stroke-linejoin="round"/>
<path d="M733.131 545.351C733.267 545.933 733.27 546.539 733.142 547.123C733.013 547.707 732.755 548.255 732.386 548.726C732.018 549.197 731.549 549.579 731.013 549.845C730.477 550.111 729.888 550.253 729.291 550.261H678.72C678.176 550.27 677.636 550.15 677.146 549.913C676.655 549.676 676.227 549.327 675.896 548.894C675.564 548.462 675.339 547.958 675.237 547.422C675.135 546.887 675.161 546.335 675.311 545.811L684.881 512.621H725.001L733.131 545.351Z" fill="#EBEBEB"/>
<path d="M733.131 545.351C733.267 545.933 733.27 546.539 733.142 547.123C733.013 547.707 732.755 548.255 732.386 548.726C732.018 549.197 731.549 549.579 731.013 549.845C730.477 550.111 729.888 550.253 729.291 550.261H678.72C678.176 550.27 677.636 550.15 677.146 549.913C676.655 549.676 676.227 549.327 675.896 548.894C675.564 548.462 675.339 547.958 675.237 547.422C675.135 546.887 675.161 546.335 675.311 545.811L684.881 512.621H725.001L733.131 545.351Z" stroke="#4A4A4A" stroke-width="4" stroke-miterlimit="10"/>
<path d="M713.35 522.002H696.35C678.63 522.002 672 507.572 672 489.832V369.632C672 361.113 675.384 352.943 681.408 346.919C687.431 340.896 695.601 337.512 704.12 337.512C712.639 337.512 720.809 340.896 726.832 346.919C732.856 352.943 736.24 361.113 736.24 369.632V489.832C736.27 507.572 731.09 522.002 713.35 522.002Z" fill="#EBEBEB"/>
<path d="M713.35 522.002H696.35C678.63 522.002 672 507.572 672 489.832V369.632C672 361.113 675.384 352.943 681.408 346.919C687.431 340.896 695.601 337.512 704.12 337.512C712.639 337.512 720.809 340.896 726.832 346.919C732.856 352.943 736.24 361.113 736.24 369.632V489.832C736.27 507.572 731.09 522.002 713.35 522.002Z" stroke="#4A4A4A" stroke-width="4" stroke-miterlimit="10"/>
<path d="M828.28 598.89V779.69H837.17C841.944 779.69 846.522 781.586 849.898 784.962C853.273 788.337 855.17 792.916 855.17 797.69V806.11H703.51V779.7V549.25L701.89 545.35C701.457 544.32 701.233 543.216 701.23 542.1V489.1L697.79 483C695.263 478.403 693.936 473.244 693.93 468V388.27C693.93 376.865 698.46 365.928 706.524 357.864C714.588 349.8 725.525 345.27 736.93 345.27H817.07C828.474 345.27 839.411 349.8 847.475 357.864C855.539 365.928 860.07 376.865 860.07 388.27V545.61H854.16V577C854.16 582.797 851.857 588.357 847.757 592.457C843.657 596.556 838.097 598.86 832.3 598.86L828.28 598.89Z" fill="white"/>
<path d="M771.81 345.23H737C725.596 345.23 714.658 349.761 706.594 357.825C698.53 365.889 694 376.826 694 388.23V467.89C694 473.137 695.331 478.299 697.87 482.89L701.29 489.09V542.09C701.289 543.206 701.51 544.311 701.94 545.34L703.57 549.25V779.69H828.28V545.61H860.16V388.27C860.16 376.866 855.63 365.929 847.566 357.865C839.502 349.801 828.564 345.27 817.16 345.27L771.81 345.23Z" stroke="#4A4A4A" stroke-width="4" stroke-linecap="round" stroke-linejoin="round"/>
<path d="M828.28 598.889H832.38C835.253 598.889 838.098 598.323 840.753 597.223C843.407 596.122 845.818 594.509 847.848 592.476C849.878 590.443 851.488 588.03 852.585 585.374C853.682 582.718 854.244 579.873 854.24 576.999V545.609H828.24L828.28 598.889Z" stroke="#4A4A4A" stroke-width="2.5" stroke-linecap="round" stroke-linejoin="round"/>
<path d="M834.201 408.078V544.218H701.221" stroke="#4A4A4A" stroke-width="2.5" stroke-linecap="round" stroke-linejoin="round"/>
<path d="M772.721 579.309V779.689" stroke="#4A4A4A" stroke-width="2.5" stroke-linecap="round" stroke-linejoin="round"/>
<path d="M735.44 423.898V453.278C735.44 456.631 736.772 459.846 739.142 462.216C741.512 464.587 744.727 465.918 748.08 465.918H769.26V499.048H717.34C710.45 499.048 703.7 493.208 701.34 488.488" stroke="#4A4A4A" stroke-width="2.5" stroke-linecap="round" stroke-linejoin="round"/>
<path d="M769.261 471.379L794.911 457.829C796.193 457.152 797.61 456.767 799.059 456.701C800.507 456.636 801.953 456.892 803.291 457.451C804.629 458.011 805.827 458.859 806.799 459.936C807.77 461.012 808.492 462.29 808.911 463.679L813.361 478.359C813.777 479.728 813.889 481.172 813.691 482.589C813.493 484.006 812.988 485.363 812.213 486.566C811.437 487.769 810.409 488.788 809.2 489.554C807.991 490.319 806.63 490.812 805.211 490.999L769.211 495.649" stroke="#4A4A4A" stroke-width="2.5" stroke-linecap="round" stroke-linejoin="round"/>
<path d="M798.911 332.48C787.751 339.31 779.321 339.77 767.711 332.48Z" fill="white"/>
<path d="M798.911 332.48C787.751 339.31 779.321 339.77 767.711 332.48" stroke="#4A4A4A" stroke-width="1.5" stroke-linecap="round" stroke-linejoin="round"/>
<path d="M790.711 310.852C790.711 308.199 791.764 305.656 793.64 303.78C795.515 301.905 798.059 300.852 800.711 300.852C803.363 300.852 805.907 301.905 807.782 303.78C809.657 305.656 810.711 308.199 810.711 310.852" fill="white"/>
<path d="M790.711 310.852C790.711 308.199 791.764 305.656 793.64 303.78C795.515 301.905 798.059 300.852 800.711 300.852C803.363 300.852 805.907 301.905 807.782 303.78C809.657 305.656 810.711 308.199 810.711 310.852" stroke="#4A4A4A" stroke-width="1.5" stroke-linecap="round" stroke-linejoin="round"/>
<path d="M757.689 310.852C757.689 308.199 758.743 305.656 760.618 303.78C762.494 301.905 765.037 300.852 767.689 300.852C770.342 300.852 772.885 301.905 774.76 303.78C776.636 305.656 777.689 308.199 777.689 310.852" fill="white"/>
<path d="M757.689 310.852C757.689 308.199 758.743 305.656 760.618 303.78C762.494 301.905 765.037 300.852 767.689 300.852C770.342 300.852 772.885 301.905 774.76 303.78C776.636 305.656 777.689 308.199 777.689 310.852" stroke="#4A4A4A" stroke-width="1.5" stroke-linecap="round" stroke-linejoin="round"/>
<path d="M855.16 797.688V806.108H785V797.688C784.993 794.091 783.908 790.578 781.885 787.603C779.862 784.628 776.994 782.327 773.65 780.998V779.738H837.17C841.934 779.741 846.502 781.632 849.874 784.996C853.246 788.361 855.147 792.925 855.16 797.688V797.688Z" stroke="#4A4A4A" stroke-width="4" stroke-linecap="round" stroke-linejoin="round"/>
<path d="M703.51 779.691H767C771.774 779.691 776.352 781.588 779.728 784.964C783.103 788.339 785 792.918 785 797.691V806.121H703.51V779.691Z" stroke="#4A4A4A" stroke-width="4" stroke-linecap="round" stroke-linejoin="round"/>
<path d="M801.64 491.532L805.94 490.982C807.357 490.796 808.718 490.304 809.926 489.54C811.135 488.777 812.163 487.759 812.939 486.559C813.715 485.358 814.221 484.003 814.422 482.588C814.622 481.173 814.512 479.73 814.1 478.362L809.66 463.682C809.238 462.295 808.514 461.019 807.542 459.945C806.57 458.87 805.373 458.023 804.036 457.465C802.698 456.906 801.255 456.649 799.807 456.713C798.359 456.776 796.943 457.158 795.66 457.832L784.77 463.592L770 471.382" stroke="#4A4A4A" stroke-width="2.5" stroke-linecap="round" stroke-linejoin="round"/>
<path d="M823.64 429.438L819.64 487.358C819.594 488.075 819.407 488.775 819.089 489.418C818.771 490.062 818.329 490.636 817.788 491.108C817.246 491.579 816.617 491.939 815.936 492.165C815.255 492.392 814.536 492.481 813.82 492.428L800.92 491.528L805.22 490.978C806.637 490.793 807.998 490.301 809.206 489.537C810.415 488.774 811.443 487.756 812.219 486.556C812.995 485.355 813.501 484 813.701 482.585C813.902 481.169 813.792 479.727 813.38 478.358L808.94 463.678C808.518 462.292 807.794 461.016 806.822 459.942C805.85 458.867 804.653 458.02 803.316 457.462C801.978 456.903 800.535 456.646 799.087 456.709C797.639 456.773 796.223 457.155 794.94 457.828L784 463.588L786.53 426.848C786.635 425.403 787.309 424.058 788.403 423.108C789.498 422.157 790.924 421.679 792.37 421.778L818.55 423.608C819.268 423.654 819.97 423.842 820.615 424.16C821.26 424.478 821.836 424.921 822.31 425.463C822.783 426.005 823.144 426.635 823.372 427.318C823.601 428 823.692 428.721 823.64 429.438V429.438Z" fill="#FF9500"/>
<path d="M823.64 429.438L819.64 487.358C819.594 488.075 819.407 488.775 819.089 489.418C818.771 490.062 818.329 490.636 817.788 491.108C817.246 491.579 816.617 491.939 815.936 492.165C815.255 492.392 814.536 492.481 813.82 492.428L800.92 491.528L805.22 490.978C806.637 490.793 807.998 490.301 809.206 489.537C810.415 488.774 811.443 487.756 812.219 486.556C812.995 485.355 813.501 484 813.701 482.585C813.902 481.169 813.792 479.727 813.38 478.358L808.94 463.678C808.518 462.292 807.794 461.016 806.822 459.942C805.85 458.867 804.653 458.02 803.316 457.462C801.978 456.903 800.535 456.646 799.087 456.709C797.639 456.773 796.223 457.155 794.94 457.828L784 463.588L786.53 426.848C786.635 425.403 787.309 424.058 788.403 423.108C789.498 422.157 790.924 421.679 792.37 421.778L818.55 423.608C819.268 423.654 819.97 423.842 820.615 424.16C821.26 424.478 821.836 424.921 822.31 425.463C822.783 426.005 823.144 426.635 823.372 427.318C823.601 428 823.692 428.721 823.64 429.438V429.438Z" stroke="#4A4A4A" stroke-width="2.5" stroke-linecap="round" stroke-linejoin="round"/>
<path d="M704.439 269.46C704.439 233.46 729.979 208.07 766.009 208.07H779.509C815.509 208.07 848.429 233.43 848.429 269.46V337.92C848.429 359.22 815.629 377.77 775.869 377.77C736.109 377.77 704.439 359.22 704.439 337.92V269.46Z" stroke="#4A4A4A" stroke-width="4" stroke-linecap="round" stroke-linejoin="round"/>
<path d="M732.719 330.758C732.719 347.758 747.569 362.338 764.539 362.338H785.189C802.189 362.338 814.999 347.728 814.999 330.758V285.888C814.999 279.441 812.438 273.257 807.879 268.698C803.32 264.139 797.137 261.578 790.689 261.578H756.999C750.552 261.578 744.369 264.139 739.81 268.698C735.251 273.257 732.689 279.441 732.689 285.888L732.719 330.758Z" fill="white"/>
<path d="M732.721 299.351V330.761C732.721 347.761 747.571 362.341 764.541 362.341H785.191C802.191 362.341 815.001 347.731 815.001 330.761V294.211" stroke="#4A4A4A" stroke-width="4" stroke-linecap="round" stroke-linejoin="round"/>
<path d="M732.719 330.758C732.719 347.758 747.569 362.338 764.539 362.338H785.189C802.189 362.338 814.999 347.728 814.999 330.758V285.888C814.999 279.441 812.438 273.257 807.879 268.698C803.32 264.139 797.137 261.578 790.689 261.578H756.999C750.552 261.578 744.369 264.139 739.81 268.698C735.251 273.257 732.689 279.441 732.689 285.888L732.719 330.758Z" stroke="#494949" stroke-width="4" stroke-linecap="round" stroke-linejoin="round"/>
<path d="M732.721 299.351V330.761C732.721 347.761 747.571 362.341 764.541 362.341H785.191C802.191 362.341 815.001 347.731 815.001 330.761V294.211" stroke="#494949" stroke-width="4" stroke-linecap="round" stroke-linejoin="round"/>
<path d="M803.701 307.57C803.701 305.297 802.798 303.117 801.19 301.51C799.583 299.903 797.403 299 795.131 299C792.858 299 790.678 299.903 789.071 301.51C787.463 303.117 786.561 305.297 786.561 307.57" stroke="#4A4A4A" stroke-width="2.5" stroke-linecap="round" stroke-linejoin="round"/>
<path d="M771.21 307.57C771.21 305.297 770.307 303.117 768.7 301.51C767.093 299.903 764.913 299 762.64 299C760.367 299 758.188 299.903 756.58 301.51C754.973 303.117 754.07 305.297 754.07 307.57" stroke="#4A4A4A" stroke-width="2.5" stroke-linecap="round" stroke-linejoin="round"/>
<path d="M793.629 332.352C776.189 348.672 761.279 332.352 761.279 332.352" stroke="#4A4A4A" stroke-width="2.5" stroke-linecap="round" stroke-linejoin="round"/>
<path d="M762.56 230.059C777.13 227.909 786.83 231.319 799.84 239.059C809.93 245.059 819.06 233.939 819.06 233.939C826.35 254.079 820.14 292.799 815 299.489V287.489C815 279.029 809.92 266.269 802.42 267.789C777.04 272.929 773.66 254.789 748.59 266.619C742.01 269.719 740.18 281.289 738.59 290.769C737.87 295.029 733.65 302.819 733.65 302.819V303.819C728.46 296.109 726.65 272.589 728.91 260.309C731.32 247.389 740.55 233.289 762.56 230.059Z" fill="#EBEBEB"/>
<path d="M762.56 230.059C777.13 227.909 786.83 231.319 799.84 239.059C809.93 245.059 819.06 233.939 819.06 233.939C826.35 254.079 820.14 292.799 815 299.489V287.489C815 279.029 809.92 266.269 802.42 267.789C777.04 272.929 773.66 254.789 748.59 266.619C742.01 269.719 740.18 281.289 738.59 290.769C737.87 295.029 733.65 302.819 733.65 302.819V303.819C728.46 296.109 726.65 272.589 728.91 260.309C731.32 247.389 740.55 233.289 762.56 230.059Z" stroke="#4A4A4A" stroke-width="4" stroke-linecap="round" stroke-linejoin="round"/>
<path d="M762.56 230.059C777.13 227.909 786.83 231.319 799.84 239.059C809.93 245.059 819.06 233.939 819.06 233.939C826.35 254.079 820.14 292.799 815 299.489V287.489C815 279.029 809.92 266.269 802.42 267.789C777.04 272.929 773.66 254.789 748.59 266.619C742.01 269.719 740.18 281.289 738.59 290.769C737.87 295.029 733.65 302.819 733.65 302.819V303.819C728.46 296.109 726.65 272.589 728.91 260.309C731.32 247.389 740.55 233.289 762.56 230.059Z" stroke="#494949" stroke-width="4" stroke-linecap="round" stroke-linejoin="round"/>
<path d="M762.56 230.059C777.13 227.909 786.83 231.319 799.84 239.059C809.93 245.059 819.06 233.939 819.06 233.939C826.35 254.079 820.14 292.799 815 299.489V287.489C815 279.029 809.92 266.269 802.42 267.789C777.04 272.929 773.66 254.789 748.59 266.619C742.01 269.719 740.18 281.289 738.59 290.769C737.87 295.029 733.65 302.819 733.65 302.819V303.819C728.46 296.109 726.65 272.589 728.91 260.309C731.32 247.389 740.55 233.289 762.56 230.059Z" stroke="#494949" stroke-width="4" stroke-linecap="round" stroke-linejoin="round"/>
<path d="M1065.84 804.61L1065.69 795.94C1065.65 793.747 1066.05 791.569 1066.87 789.532C1067.68 787.496 1068.89 785.641 1070.43 784.077C1071.97 782.512 1073.8 781.269 1075.82 780.42C1077.85 779.571 1080.02 779.132 1082.21 779.13H1092.15L1089.21 709.54L1086.74 644.65L1084.43 597C1067.15 597.63 1049.12 599.34 1055.43 543.25C1050.43 540.25 1050.33 536.13 1050.33 536.13V428.88L1049.82 391.28C1049.73 384.598 1050.97 377.964 1053.47 371.769C1055.98 365.573 1059.7 359.94 1064.41 355.201C1069.12 350.461 1074.73 346.711 1080.91 344.169C1087.09 341.628 1093.72 340.346 1100.4 340.4L1210.4 341.29C1221.89 341.384 1232.88 345.981 1241.01 354.093C1249.14 362.205 1253.77 373.184 1253.89 384.67L1254.49 441.38C1254.2 459.23 1238.73 475.76 1221.2 479.11C1221.05 479.11 1220.78 478.52 1220.98 479.2C1221.18 479.88 1215.36 778 1215.36 778L1217.27 806.07L1065.84 804.61Z" fill="white"/>
<path d="M1136.25 391.23H1101.36C1097.6 391.23 1094.56 394.275 1094.56 398.03V455.89C1094.56 459.646 1097.6 462.69 1101.36 462.69H1136.25C1140.01 462.69 1143.05 459.646 1143.05 455.89V398.03C1143.05 394.275 1140.01 391.23 1136.25 391.23Z" fill="#EBEBEB" stroke="#4A4A4A" stroke-width="2.5" stroke-miterlimit="10"/>
<path d="M1136.25 391.23H1101.36C1097.6 391.23 1094.56 394.275 1094.56 398.03V455.89C1094.56 459.646 1097.6 462.69 1101.36 462.69H1136.25C1140.01 462.69 1143.05 459.646 1143.05 455.89V398.03C1143.05 394.275 1140.01 391.23 1136.25 391.23Z" stroke="#4A4A4A" stroke-width="2.5" stroke-miterlimit="10"/>
<path d="M1127.74 406.551H1107.33V434.621H1127.74V406.551Z" fill="white" stroke="#4A4A4A" stroke-width="2.5" stroke-linecap="round" stroke-linejoin="round"/>
<path d="M1258.33 288.68L1230.35 347.17L1239.03 353.16L1261.28 290.05L1258.33 288.68Z" fill="#FF9500"/>
<path d="M1254.81 282.86C1254.8 284.444 1255.26 285.996 1256.13 287.318C1257.01 288.64 1258.25 289.674 1259.71 290.287C1261.18 290.9 1262.79 291.065 1264.34 290.762C1265.9 290.459 1267.33 289.702 1268.45 288.585C1269.57 287.468 1270.34 286.043 1270.65 284.489C1270.97 282.936 1270.81 281.325 1270.21 279.86C1269.6 278.396 1268.58 277.143 1267.26 276.262C1265.94 275.381 1264.4 274.91 1262.81 274.91C1260.7 274.91 1258.67 275.746 1257.17 277.236C1255.67 278.725 1254.82 280.747 1254.81 282.86V282.86Z" fill="#FF9500"/>
<path d="M1150.27 465.391L1121.77 458.301C1120.34 457.945 1118.86 457.908 1117.42 458.195C1115.97 458.482 1114.61 459.084 1113.43 459.959C1112.25 460.834 1111.28 461.959 1110.59 463.255C1109.89 464.55 1109.49 465.983 1109.42 467.451L1108.61 482.961C1108.54 484.405 1108.78 485.847 1109.33 487.187C1109.87 488.528 1110.69 489.735 1111.75 490.725C1112.8 491.716 1114.06 492.466 1115.43 492.925C1116.8 493.383 1118.25 493.539 1119.69 493.381L1156.16 489.231" fill="white"/>
<path d="M1150.27 465.391L1121.77 458.301C1120.34 457.945 1118.86 457.908 1117.42 458.195C1115.97 458.482 1114.61 459.084 1113.43 459.959C1112.25 460.834 1111.28 461.959 1110.59 463.255C1109.89 464.55 1109.49 465.983 1109.42 467.451L1108.61 482.961C1108.54 484.405 1108.78 485.847 1109.33 487.187C1109.87 488.528 1110.69 489.735 1111.75 490.725C1112.8 491.716 1114.06 492.466 1115.43 492.925C1116.8 493.383 1118.25 493.539 1119.69 493.381L1156.16 489.231" stroke="#4A4A4A" stroke-width="2.5" stroke-linecap="round" stroke-linejoin="round"/>
<path d="M1123.34 493.06L1118.98 493.56C1117.54 493.72 1116.09 493.565 1114.71 493.107C1113.34 492.649 1112.09 491.899 1111.03 490.909C1109.98 489.918 1109.15 488.711 1108.61 487.369C1108.07 486.028 1107.82 484.585 1107.89 483.14L1108.69 467.63C1108.77 466.164 1109.18 464.733 1109.88 463.441C1110.57 462.148 1111.55 461.025 1112.73 460.152C1113.91 459.278 1115.27 458.676 1116.71 458.387C1118.15 458.098 1119.63 458.13 1121.06 458.48L1133.16 461.48L1149.56 465.55" stroke="#4A4A4A" stroke-width="2.5" stroke-linecap="round" stroke-linejoin="round"/>
<path d="M1086.63 437.371L1104.63 493.371C1104.85 494.068 1105.21 494.714 1105.68 495.271C1106.15 495.829 1106.73 496.287 1107.38 496.619C1108.04 496.951 1108.75 497.151 1109.48 497.206C1110.2 497.261 1110.94 497.171 1111.63 496.941L1124.09 492.941L1119.72 493.441C1118.28 493.604 1116.82 493.451 1115.44 492.994C1114.07 492.536 1112.81 491.785 1111.75 490.791C1110.69 489.798 1109.86 488.587 1109.32 487.242C1108.78 485.897 1108.54 484.449 1108.61 483.001L1109.41 467.491C1109.49 466.024 1109.9 464.594 1110.6 463.301C1111.29 462.009 1112.27 460.886 1113.45 460.013C1114.63 459.139 1115.99 458.536 1117.43 458.247C1118.87 457.959 1120.35 457.99 1121.78 458.341L1133.87 461.341L1122.46 425.851C1122.24 425.156 1121.88 424.512 1121.41 423.956C1120.93 423.4 1120.35 422.944 1119.7 422.613C1119.05 422.282 1118.34 422.083 1117.61 422.028C1116.89 421.972 1116.15 422.062 1115.46 422.291L1090.16 430.441C1088.78 430.899 1087.63 431.883 1086.97 433.181C1086.31 434.478 1086.19 435.984 1086.63 437.371V437.371Z" fill="#FF9500"/>
<path d="M1086.63 437.371L1104.63 493.371C1104.85 494.068 1105.21 494.714 1105.68 495.271C1106.15 495.829 1106.73 496.287 1107.38 496.619C1108.04 496.951 1108.75 497.151 1109.48 497.206C1110.2 497.261 1110.94 497.171 1111.63 496.941L1124.09 492.941L1119.72 493.441C1118.28 493.604 1116.82 493.451 1115.44 492.994C1114.07 492.536 1112.81 491.785 1111.75 490.791C1110.69 489.798 1109.86 488.587 1109.32 487.242C1108.78 485.897 1108.54 484.449 1108.61 483.001L1109.41 467.491C1109.49 466.024 1109.9 464.594 1110.6 463.301C1111.29 462.009 1112.27 460.886 1113.45 460.013C1114.63 459.139 1115.99 458.536 1117.43 458.247C1118.87 457.959 1120.35 457.99 1121.78 458.341L1133.87 461.341L1122.46 425.851C1122.24 425.156 1121.88 424.512 1121.41 423.956C1120.93 423.4 1120.35 422.944 1119.7 422.613C1119.05 422.282 1118.34 422.083 1117.61 422.028C1116.89 421.972 1116.15 422.062 1115.46 422.291L1090.16 430.441C1088.78 430.899 1087.63 431.883 1086.97 433.181C1086.31 434.478 1086.19 435.984 1086.63 437.371V437.371Z" stroke="#4A4A4A" stroke-width="2.5" stroke-linecap="round" stroke-linejoin="round"/>
<path d="M1187.31 341.641H1208.31C1234.1 341.641 1254.42 362.741 1254.42 388.521V435.051C1254.42 445.52 1250.76 455.661 1244.08 463.722C1237.4 471.782 1228.12 477.257 1217.83 479.201L1155.43 491.001L1150 460.611L1188 446.061C1193.3 444.009 1197.86 440.399 1201.08 435.706C1204.29 431.013 1206.01 425.458 1206 419.771V403.931" stroke="#4A4A4A" stroke-width="4" stroke-linecap="round" stroke-linejoin="round"/>
<path d="M1080.44 543.25H1055.38V577.69C1055.38 588.63 1063.68 597 1078.03 597H1084.43" stroke="#4A4A4A" stroke-width="2.5" stroke-linecap="round" stroke-linejoin="round"/>
<path d="M1050.28 447.552V388.552C1050.35 376.119 1055.33 364.216 1064.13 355.436C1072.93 346.656 1084.85 341.709 1097.28 341.672H1117" stroke="#4A4A4A" stroke-width="4" stroke-linecap="round" stroke-linejoin="round"/>
<path d="M1248.63 461.502L1249.08 462.612C1250.2 465.404 1250.17 468.529 1248.99 471.298C1247.81 474.067 1245.58 476.255 1242.79 477.382L1222 485.742C1220.62 486.298 1219.14 486.577 1217.65 486.561C1216.16 486.546 1214.68 486.237 1213.31 485.651C1211.94 485.066 1210.7 484.217 1209.66 483.151C1208.62 482.086 1207.79 480.825 1207.24 479.442L1207.01 478.892C1206.43 477.435 1206.45 475.808 1207.06 474.366C1207.68 472.923 1208.84 471.782 1210.29 471.192L1241.7 458.552C1242.35 458.289 1243.04 458.158 1243.74 458.164C1244.44 458.171 1245.13 458.315 1245.78 458.589C1246.42 458.863 1247 459.261 1247.49 459.761C1247.98 460.261 1248.37 460.852 1248.63 461.502Z" fill="#EBEAEA" stroke="#4A4A4A" stroke-width="2.5" stroke-miterlimit="10"/>
<path d="M1081.06 543.25H1055.38C1052.64 543.25 1050.28 542 1050.28 539.25V486" stroke="#4A4A4A" stroke-width="4" stroke-linecap="round" stroke-linejoin="round"/>
<path d="M1066 806.111H1153.69L1151.71 778.001H1084.89C1082.2 777.972 1079.54 778.505 1077.07 779.564C1074.61 780.623 1072.39 782.186 1070.56 784.152C1068.73 786.118 1067.33 788.445 1066.45 790.983C1065.57 793.521 1065.23 796.214 1065.45 798.891L1066 806.111Z" fill="#EBEAEA" stroke="#4A4A4A" stroke-width="4" stroke-linecap="round" stroke-linejoin="round"/>
<path d="M1082.89 543.25L1091.81 778.04H1151.01" stroke="#4A4A4A" stroke-width="4" stroke-linecap="round" stroke-linejoin="round"/>
<path d="M1120 710.24L1092 709.88C1088.5 709.769 1085.18 708.322 1082.72 705.837C1080.25 703.353 1078.83 700.019 1078.75 696.52L1077.75 661.84C1077.68 660.152 1077.95 658.466 1078.54 656.886C1079.14 655.305 1080.05 653.863 1081.23 652.646C1082.4 651.43 1083.81 650.465 1085.37 649.811C1086.93 649.157 1088.6 648.826 1090.29 648.84L1108.06 649.06C1123.8 649.26 1136.91 662.48 1137.35 678.58L1137.71 691.84C1137.82 694.227 1137.44 696.611 1136.6 698.847C1135.76 701.083 1134.47 703.124 1132.81 704.846C1131.15 706.567 1129.16 707.933 1126.96 708.861C1124.76 709.788 1122.39 710.258 1120 710.24Z" fill="#EBEAEA" stroke="#4A4A4A" stroke-width="2.5" stroke-miterlimit="10"/>
<path d="M1132 806.111H1217.24L1215.33 778.001H1151C1148.31 777.971 1145.65 778.502 1143.18 779.561C1140.71 780.62 1138.49 782.182 1136.66 784.149C1134.83 786.115 1133.43 788.443 1132.55 790.981C1131.68 793.52 1131.34 796.214 1131.56 798.891L1132 806.111Z" fill="#EBEAEA" stroke="#4A4A4A" stroke-width="4" stroke-linecap="round" stroke-linejoin="round"/>
<path d="M1220.94 479.199L1215.36 778.039H1153.8L1146.84 616.699" stroke="#4A4A4A" stroke-width="4" stroke-linecap="round" stroke-linejoin="round"/>
<path d="M1186.08 710.24L1158.08 709.88C1154.58 709.769 1151.26 708.322 1148.8 705.837C1146.33 703.353 1144.91 700.019 1144.83 696.52L1143.83 661.84C1143.76 660.152 1144.03 658.466 1144.62 656.886C1145.22 655.305 1146.13 653.863 1147.31 652.646C1148.48 651.43 1149.89 650.465 1151.45 649.811C1153.01 649.157 1154.68 648.826 1156.37 648.84L1174.14 649.06C1189.87 649.26 1202.98 662.48 1203.42 678.58L1203.78 691.84C1203.89 694.227 1203.51 696.611 1202.67 698.847C1201.83 701.082 1200.54 703.124 1198.89 704.845C1197.23 706.567 1195.24 707.933 1193.04 708.861C1190.84 709.788 1188.47 710.258 1186.08 710.24Z" fill="#EBEAEA" stroke="#4A4A4A" stroke-width="2.5" stroke-miterlimit="10"/>
<path d="M1217.69 539.132H1082.9V517.552L1218.44 516.512L1217.69 539.132Z" fill="#EBEAEA"/>
<path d="M1082.18 541.048V424.578" stroke="#4A4A4A" stroke-width="2.5" stroke-miterlimit="10" stroke-linecap="round"/>
<path d="M1082.18 516.461H1102.6" stroke="#4A4A4A" stroke-width="2.5" stroke-miterlimit="10"/>
<path d="M1102.6 539.422H1082.18" stroke="#4A4A4A" stroke-width="2.5" stroke-miterlimit="10"/>
<path d="M1172.93 539.422H1114.66" stroke="#4A4A4A" stroke-width="2.5" stroke-miterlimit="10"/>
<path d="M1219.1 539.422H1172.93" stroke="#4A4A4A" stroke-width="2.5" stroke-linecap="round" stroke-linejoin="round"/>
<path d="M1172.93 516.461H1219.1" stroke="#4A4A4A" stroke-width="2.5" stroke-linecap="round" stroke-linejoin="round"/>
<path d="M1114.66 516.461H1172.93" stroke="#4A4A4A" stroke-width="2.5" stroke-miterlimit="10"/>
<path d="M1100.74 498.59H1108.4C1109.75 498.59 1111.05 499.127 1112.01 500.084C1112.96 501.04 1113.5 502.337 1113.5 503.69V562.39C1113.5 563.061 1113.37 563.725 1113.11 564.345C1112.86 564.965 1112.48 565.529 1112 566.003C1111.53 566.478 1110.97 566.854 1110.35 567.111C1109.73 567.368 1109.06 567.5 1108.39 567.5H1100.74C1099.39 567.5 1098.09 566.961 1097.13 566.003C1096.17 565.045 1095.63 563.745 1095.63 562.39V503.69C1095.63 503.019 1095.76 502.355 1096.02 501.736C1096.28 501.116 1096.65 500.554 1097.13 500.08C1097.6 499.606 1098.17 499.231 1098.79 498.975C1099.41 498.719 1100.07 498.589 1100.74 498.59V498.59Z" fill="#EBEAEA" stroke="#4A4A4A" stroke-width="2.5" stroke-miterlimit="10"/>
<path d="M1158.94 498.59H1166.59C1167.94 498.59 1169.24 499.127 1170.2 500.084C1171.15 501.04 1171.69 502.337 1171.69 503.69V562.39C1171.69 563.742 1171.15 565.04 1170.2 565.996C1169.24 566.952 1167.94 567.49 1166.59 567.49H1158.93C1157.58 567.49 1156.28 566.952 1155.32 565.996C1154.37 565.04 1153.83 563.742 1153.83 562.39V503.7C1153.83 503.029 1153.96 502.364 1154.22 501.744C1154.48 501.124 1154.85 500.561 1155.33 500.087C1155.8 499.612 1156.36 499.236 1156.98 498.979C1157.6 498.722 1158.27 498.59 1158.94 498.59V498.59Z" fill="#EBEAEA" stroke="#4A4A4A" stroke-width="2.5" stroke-miterlimit="10"/>
<path d="M1223.82 267.309C1223.82 231.539 1198.48 206.379 1162.71 206.379H1149.31C1113.54 206.379 1080.91 231.539 1080.91 267.309V335.259C1080.91 356.399 1113.46 374.819 1152.91 374.819C1192.36 374.819 1223.81 356.399 1223.81 335.259L1223.82 267.309Z" stroke="#4A4A4A" stroke-width="4" stroke-linecap="round" stroke-linejoin="round"/>
<path d="M1108.64 299.531C1109.76 296.771 1109.64 285.531 1109.86 278.791C1110.08 272.051 1111.86 270.921 1114 267.001C1116.14 263.081 1121.14 259.101 1126.27 259.451C1131.4 259.801 1139.56 265.081 1141.43 267.511C1143.3 269.941 1146.36 269.511 1155.43 266.791C1164.5 264.071 1163.73 261.791 1172.43 261.891C1181.13 261.991 1184.51 264.891 1188.94 271.251C1193.37 277.611 1191.23 308.961 1191.23 308.961V326.331C1191.23 343.171 1176.34 357.651 1159.5 357.651H1139C1122.16 357.651 1109.5 343.171 1109.5 326.331V307.001H1108.5C1108.5 307.001 1107.52 302.291 1108.64 299.531Z" fill="white" stroke="#4A5999" stroke-miterlimit="10"/>
<path d="M1109.68 294.418V326.328C1109.68 343.168 1122.21 356.948 1139.05 356.948H1159.55C1176.39 356.948 1191.35 343.168 1191.35 326.328V289.328" stroke="#4A4A4A" stroke-width="4" stroke-linecap="round" stroke-linejoin="round"/>
<path d="M1142.83 224.238H1159.83C1181.83 224.238 1196.44 240.318 1196.44 262.308V271.248C1196.44 279.818 1196.44 288.638 1191.34 295.248V283.358C1191.34 274.958 1188.83 268.028 1182.81 263.358C1176.79 258.688 1166.63 258.598 1160.97 263.678C1157.71 266.332 1153.64 267.789 1149.43 267.808C1145.29 267.808 1141.02 266.598 1138.21 263.978C1132.67 258.808 1126.8 257.908 1120.09 261.458C1113.71 264.828 1109.67 272.618 1109.67 282.168V298.538L1108.67 299.538C1103.51 291.888 1102.05 281.148 1102.05 271.888V262.998C1102 240.868 1120.74 224.238 1142.83 224.238Z" fill="#EBEAEA" stroke="#4A4A4A" stroke-width="4" stroke-miterlimit="10"/>
<path d="M1169 304.211C1169.06 303.061 1168.88 301.91 1168.48 300.83C1168.07 299.751 1167.46 298.763 1166.66 297.929C1165.87 297.095 1164.91 296.431 1163.85 295.977C1162.79 295.523 1161.65 295.289 1160.5 295.289C1159.35 295.289 1158.21 295.523 1157.15 295.977C1156.09 296.431 1155.13 297.095 1154.34 297.929C1153.54 298.763 1152.93 299.751 1152.52 300.83C1152.12 301.91 1151.94 303.061 1152 304.211" stroke="#4A4A4A" stroke-width="2.5" stroke-linecap="round" stroke-linejoin="round"/>
<path d="M1135.82 304.211C1135.88 303.061 1135.7 301.91 1135.3 300.83C1134.89 299.751 1134.28 298.763 1133.48 297.929C1132.69 297.095 1131.73 296.431 1130.67 295.977C1129.61 295.523 1128.47 295.289 1127.32 295.289C1126.17 295.289 1125.03 295.523 1123.97 295.977C1122.91 296.431 1121.95 297.095 1121.16 297.929C1120.36 298.763 1119.75 299.751 1119.35 300.83C1118.94 301.91 1118.76 303.061 1118.82 304.211" stroke="#4A4A4A" stroke-width="2.5" stroke-linecap="round" stroke-linejoin="round"/>
<path d="M1126.82 333.13C1137.67 336.13 1157.24 335.26 1162.98 326.75" stroke="#4A4A4A" stroke-width="2.5" stroke-linecap="round" stroke-linejoin="round"/>
<path d="M306.611 425.23C308.171 433.56 304.131 441.31 297.611 442.54C291.091 443.77 284.501 438.01 282.941 429.67C281.381 421.33 285.411 413.59 291.941 412.37C298.471 411.15 305.001 416.9 306.611 425.23Z" stroke="#4A4A4A" stroke-width="2.5" stroke-linecap="round" stroke-linejoin="round"/>
<path d="M279.44 717.43L289.88 731.45L279.69 778.35H266.01L279.44 717.43Z" fill="#EDEDED"/>
<path d="M190.77 651.148H177.33L215.84 779.238H229.28L190.77 651.148Z" fill="#EDEDED"/>
<path d="M316.619 453.629L406.949 560.729L396.579 575.019L362.759 563.879" stroke="#4A4A4A" stroke-width="4" stroke-linecap="round" stroke-linejoin="round"/>
<path d="M177.33 650.25H360.06C367.72 605.25 366.86 576.94 352.43 527.16" stroke="#4A4A4A" stroke-width="4" stroke-linecap="round" stroke-linejoin="round"/>
<path d="M123.891 586.711C132.761 585.651 142.301 591.411 142.341 593.351C142.521 602.861 142.071 631.821 142.071 631.821C142.071 631.821 141.921 639.021 137.501 638.821" stroke="#4A4A4A" stroke-width="2.5" stroke-linecap="round" stroke-linejoin="round"/>
<path d="M216.84 436.219C182.84 461.609 129.84 497.929 122.65 585.219" stroke="#4A4A4A" stroke-width="4" stroke-linecap="round" stroke-linejoin="round"/>
<path d="M328.821 418.252C329.881 422.614 330.072 427.143 329.382 431.579C328.692 436.016 327.135 440.272 324.799 444.107C322.464 447.941 319.396 451.278 315.77 453.926C312.145 456.574 308.033 458.483 303.671 459.542L258.451 470.542C249.639 472.681 240.338 471.231 232.595 466.513C224.851 461.795 219.3 454.193 217.161 445.382L201.481 380.792C200.42 376.428 200.23 371.899 200.92 367.462C201.611 363.025 203.169 358.768 205.506 354.934C207.842 351.099 210.911 347.763 214.538 345.115C218.164 342.467 222.277 340.56 226.641 339.502L271.861 328.502C280.671 326.366 289.969 327.816 297.71 332.535C305.451 337.253 311.001 344.852 313.141 353.662L328.821 418.252Z" stroke="#4A4A4A" stroke-width="4" stroke-linecap="round" stroke-linejoin="round"/>
<path d="M354.31 332.761L153.57 380.181L195.3 353.751L305.17 327.801L354.31 332.761Z" fill="white"/>
<path d="M281.34 501.09L249.91 513.25L248.59 488.73L281.12 496.95L281.34 501.09Z" fill="#FF9500" stroke="#4A4A4A" stroke-width="2.5" stroke-linecap="round" stroke-linejoin="round"/>
<path d="M290.22 500.741L321.79 505.211L317.45 481.051L289.49 496.651L290.22 500.741Z" fill="#FF9500" stroke="#4A4A4A" stroke-width="2.5" stroke-linecap="round" stroke-linejoin="round"/>
<path d="M293.539 498.301C293.299 496.338 292.482 494.49 291.192 492.991C289.901 491.492 288.195 490.41 286.29 489.88C284.384 489.351 282.364 489.399 280.485 490.017C278.607 490.636 276.954 491.798 275.735 493.356C274.517 494.914 273.788 496.799 273.641 498.771C273.494 500.744 273.935 502.715 274.908 504.437C275.882 506.159 277.344 507.553 279.11 508.444C280.876 509.335 282.866 509.682 284.829 509.441C287.455 509.104 289.841 507.745 291.472 505.66C293.102 503.575 293.845 500.931 293.539 498.301V498.301Z" fill="#FF9500" stroke="#4A4A4A" stroke-width="2.5" stroke-linecap="round" stroke-linejoin="round"/>
<path d="M247.551 423.669C260.091 422.329 258.551 396.129 291.001 410.009C316.301 386.719 321.451 404.859 336.231 404.629C325.481 418.519 313.171 425.239 302.421 419.189C291.671 413.139 286.421 421.109 282.711 425.239C278.461 429.939 262.561 434.189 247.551 423.669Z" fill="#EBEBEB" stroke="#4A4A4A" stroke-width="2.5" stroke-linecap="round" stroke-linejoin="round"/>
<path d="M354.31 332.761L153.57 380.181L195.3 353.751L305.17 327.801L354.31 332.761Z" stroke="#4A4A4A" stroke-width="4" stroke-linecap="round" stroke-linejoin="round"/>
<path d="M230.039 345.039L196.099 353.249L174.539 262.589L208.469 254.379L230.039 345.039Z" fill="#F9F9F9"/>
<path d="M283.501 236.536L174.51 262.582L196.165 353.2L305.156 327.155L283.501 236.536Z" stroke="#4A4A4A" stroke-width="4" stroke-linecap="round" stroke-linejoin="round"/>
<path d="M297.484 295.144L188.475 321.113L196.122 353.215L305.132 327.245L297.484 295.144Z" fill="#FF9500" stroke="#4A4A4A" stroke-width="2.5" stroke-linecap="round" stroke-linejoin="round"/>
<path d="M214.5 777.889C214.5 777.889 183.21 682.779 175.44 650.249C169.17 624.009 163.26 583.129 177.33 542.379" stroke="#4A4A4A" stroke-width="4" stroke-linecap="round" stroke-linejoin="round"/>
<path d="M352.451 652.039L322.891 776.999" stroke="#4A4A4A" stroke-width="4" stroke-linecap="round" stroke-linejoin="round"/>
<path d="M278.99 712.512L266.9 776.112" stroke="#4A4A4A" stroke-width="2.5" stroke-linecap="round" stroke-linejoin="round"/>
<path d="M348.001 806.108C348.057 799.039 345.303 792.237 340.345 787.199C335.386 782.16 328.63 779.296 321.561 779.238H212.271C208.771 779.267 205.311 779.985 202.089 781.351C198.867 782.717 195.945 784.704 193.491 787.199C191.036 789.694 189.097 792.648 187.785 795.893C186.472 799.137 185.812 802.609 185.841 806.108H348.001Z" stroke="#4A4A4A" stroke-width="4" stroke-linecap="round" stroke-linejoin="round"/>
<path d="M265.561 779.691V806.111" stroke="#4A4A4A" stroke-width="2.5" stroke-linecap="round" stroke-linejoin="round"/>
<path d="M219 449.149C228 449.149 240.5 443.329 237.36 395.859" stroke="#4A4A4A" stroke-width="2.5" stroke-linecap="round" stroke-linejoin="round"/>
<path d="M274.071 386.792C274.073 383.047 272.964 379.386 270.886 376.272C268.807 373.158 265.851 370.73 262.392 369.295C258.933 367.861 255.127 367.485 251.454 368.214C247.781 368.943 244.407 370.745 241.759 373.392C239.111 376.04 237.307 379.412 236.575 383.085C235.844 386.757 236.218 390.564 237.651 394.023C239.083 397.483 241.51 400.44 244.623 402.521C247.736 404.601 251.397 405.712 255.141 405.712C257.626 405.713 260.088 405.224 262.384 404.274C264.681 403.324 266.768 401.931 268.526 400.174C270.284 398.417 271.678 396.33 272.63 394.034C273.581 391.738 274.071 389.277 274.071 386.792Z" fill="#EBEBEB" stroke="#4A4A4A" stroke-width="2.5" stroke-linecap="round" stroke-linejoin="round"/>
<path d="M396.58 575.02L413.55 596.95L415.7 580.81" stroke="#4A4A4A" stroke-width="4" stroke-linecap="round" stroke-linejoin="round"/>
<path d="M406.939 560.68L422.289 564.15C423.685 564.462 424.907 565.301 425.7 566.491C426.493 567.681 426.798 569.131 426.549 570.54L425.979 573.75C425.862 574.425 425.583 575.062 425.167 575.607C424.751 576.151 424.21 576.588 423.589 576.88L415.269 580.81" stroke="#4A4A4A" stroke-width="4" stroke-linecap="round" stroke-linejoin="round"/>
<path d="M414.41 591.571L392 734.001L398 733.571L437.17 552.381C437.6 544.631 424.26 542.481 422.11 548.071L420.17 561.411" stroke="#4A4A4A" stroke-width="2.5" stroke-linecap="round" stroke-linejoin="round"/>
<path d="M438.91 551.729C442.284 550.437 445.152 548.093 447.088 545.044C449.024 541.994 449.926 538.402 449.66 534.799C449.393 531.197 447.973 527.776 445.609 525.044C443.245 522.313 440.063 520.416 436.536 519.635C433.009 518.855 429.325 519.232 426.029 520.71C422.733 522.189 420.001 524.69 418.239 527.844C416.477 530.997 415.779 534.635 416.247 538.217C416.716 541.799 418.326 545.134 420.84 547.729" stroke="#4A4A4A" stroke-width="2.5" stroke-linecap="round" stroke-linejoin="round"/>
<path d="M142.34 593.35L163.86 551.4L206.54 522.82" stroke="#4A4A4A" stroke-width="2.5" stroke-linecap="round" stroke-linejoin="round"/>
<path d="M137.5 638.859L110.65 631.69C109.858 631.495 109.119 631.13 108.483 630.62C107.847 630.11 107.329 629.468 106.967 628.738C106.604 628.008 106.405 627.208 106.383 626.393C106.361 625.578 106.517 624.768 106.84 624.02L122.16 587.02" stroke="#4A4A4A" stroke-width="2.5" stroke-linecap="round" stroke-linejoin="round"/>
<path d="M305.461 373.292C306.581 378.082 304.041 382.762 299.801 383.752C295.561 384.742 291.211 381.672 290.091 376.882C288.971 372.092 291.511 367.422 295.751 366.432C299.991 365.442 304.341 368.512 305.461 373.292Z" fill="#EBEBEB" stroke="#4A4A4A" stroke-width="2.5" stroke-linecap="round" stroke-linejoin="round"/>
<path d="M266.42 382.39C267.59 387.16 265.11 391.87 260.88 392.91C256.65 393.95 252.26 390.91 251.09 386.15C249.92 381.39 252.4 376.67 256.63 375.63C260.86 374.59 265.25 377.62 266.42 382.39Z" stroke="#4A4A4A" stroke-width="2.5" stroke-linecap="round" stroke-linejoin="round"/>
<path d="M89.1699 806.012H1386.6" stroke="#4A4A4A" stroke-width="4" stroke-linecap="round" stroke-linejoin="round"/>
<path d="M609 201.898C609 201.898 599.55 187.738 586.17 187.738H544.49L557.87 201.118H593.29" stroke="#4A4A4A" stroke-width="1.2" stroke-linecap="round" stroke-linejoin="round"/>
<path d="M580.7 208.99L575.19 213.71H545.27L525.99 194.43" stroke="#4A4A4A" stroke-width="1.2" stroke-linecap="round" stroke-linejoin="round"/>
<path d="M523.229 184.59H509.059C509.059 184.59 503.559 193.25 510.639 199.54H523.229" stroke="#4A4A4A" stroke-width="1.2" stroke-linecap="round" stroke-linejoin="round"/>
<path d="M486.241 192.199H427.461" stroke="#4A4A4A" stroke-width="1.2" stroke-linecap="round" stroke-linejoin="round"/>
<path d="M498.831 199.539H473.641" stroke="#4A4A4A" stroke-width="1.2" stroke-linecap="round" stroke-linejoin="round"/>
<path d="M609 201.898C609 201.898 599.55 187.738 586.17 187.738H544.49L557.87 201.118H593.29" stroke="#FF9500" stroke-width="2.5" stroke-linecap="round" stroke-linejoin="round"/>
<path d="M609 201.898C609 201.898 599.55 187.738 586.17 187.738H544.49L557.87 201.118H593.29" stroke="#FF9500" stroke-width="2.5" stroke-linecap="round" stroke-linejoin="round"/>
<path d="M580.7 208.99L575.19 213.71H545.27L525.99 194.43" stroke="#FF9500" stroke-width="2.5" stroke-linecap="round" stroke-linejoin="round"/>
<path d="M580.7 208.99L575.19 213.71H545.27L525.99 194.43" stroke="#FF9500" stroke-width="2.5" stroke-linecap="round" stroke-linejoin="round"/>
<path d="M523.229 184.59H509.059C509.059 184.59 503.559 193.25 510.639 199.54H523.229" stroke="#FF9500" stroke-width="2.5" stroke-linecap="round" stroke-linejoin="round"/>
<path d="M523.229 184.59H509.059C509.059 184.59 503.559 193.25 510.639 199.54H523.229" stroke="#FF9500" stroke-width="2.5" stroke-linecap="round" stroke-linejoin="round"/>
<path d="M486.241 192.199H427.461" stroke="#FF9500" stroke-width="2.5" stroke-linecap="round" stroke-linejoin="round"/>
<path d="M486.241 192.199H427.461" stroke="#FF9500" stroke-width="2.5" stroke-linecap="round" stroke-linejoin="round"/>
<path d="M498.831 199.539H473.641" stroke="#FF9500" stroke-width="2.5" stroke-linecap="round" stroke-linejoin="round"/>
<path d="M498.831 199.539H473.641" stroke="#FF9500" stroke-width="2.5" stroke-linecap="round" stroke-linejoin="round"/>
<path d="M1036 61.7403C1036 61.7403 1045.44 47.5703 1058.83 47.5703H1100.55L1087.2 61.0003H1051.78" stroke="#4A4A4A" stroke-width="1.2" stroke-linecap="round" stroke-linejoin="round"/>
<path d="M1064.38 68.8217L1069.89 73.5517H1099.8L1119.08 54.2617" stroke="#4A4A4A" stroke-width="1.2" stroke-linecap="round" stroke-linejoin="round"/>
<path d="M1121.84 44.4219H1136C1136 44.4219 1141.51 53.0819 1134.42 59.4219H1121.83" stroke="#4A4A4A" stroke-width="1.2" stroke-linecap="round" stroke-linejoin="round"/>
<path d="M1158.84 52.0312H1217.61" stroke="#4A4A4A" stroke-width="1.2" stroke-linecap="round" stroke-linejoin="round"/>
<path d="M1146.24 59.3789H1171.43" stroke="#4A4A4A" stroke-width="1.2" stroke-linecap="round" stroke-linejoin="round"/>
<path d="M1036 61.7403C1036 61.7403 1045.44 47.5703 1058.83 47.5703H1100.55L1087.2 61.0003H1051.78" stroke="#FF9500" stroke-width="2.5" stroke-linecap="round" stroke-linejoin="round"/>
<path d="M1036 61.7403C1036 61.7403 1045.44 47.5703 1058.83 47.5703H1100.55L1087.2 61.0003H1051.78" stroke="#FF9500" stroke-width="2.5" stroke-linecap="round" stroke-linejoin="round"/>
<path d="M1064.38 68.8217L1069.89 73.5517H1099.8L1119.08 54.2617" stroke="#FF9500" stroke-width="2.5" stroke-linecap="round" stroke-linejoin="round"/>
<path d="M1064.38 68.8217L1069.89 73.5517H1099.8L1119.08 54.2617" stroke="#FF9500" stroke-width="2.5" stroke-linecap="round" stroke-linejoin="round"/>
<path d="M1121.84 44.4219H1136C1136 44.4219 1141.51 53.0819 1134.42 59.4219H1121.83" stroke="#FF9500" stroke-width="2.5" stroke-linecap="round" stroke-linejoin="round"/>
<path d="M1121.84 44.4219H1136C1136 44.4219 1141.51 53.0819 1134.42 59.4219H1121.83" stroke="#FF9500" stroke-width="2.5" stroke-linecap="round" stroke-linejoin="round"/>
<path d="M1158.84 52.0312H1217.61" stroke="#FF9500" stroke-width="2.5" stroke-linecap="round" stroke-linejoin="round"/>
<path d="M1158.84 52.0312H1217.61" stroke="#FF9500" stroke-width="2.5" stroke-linecap="round" stroke-linejoin="round"/>
<path d="M1146.24 59.3789H1171.43" stroke="#FF9500" stroke-width="2.5" stroke-linecap="round" stroke-linejoin="round"/>
<path d="M1146.24 59.3789H1171.43" stroke="#FF9500" stroke-width="2.5" stroke-linecap="round" stroke-linejoin="round"/>
<path d="M970.699 514.76H957.999C957.999 509.847 957.999 504.933 957.999 500.02H949.999C949.999 505.02 949.999 509.88 949.999 514.77H937.309V499.88H910.529C910.529 495.65 910.529 491.54 910.529 487.34H911.639C913.299 487.34 914.969 487.34 916.639 487.25C919.519 487.1 920.929 485.63 921.039 482.76C921.089 481.48 921.149 480.21 921.149 478.93C921.149 463.597 921.149 448.247 921.149 432.88C921.149 430.8 921.149 428.72 921.039 426.64C920.959 423.81 919.499 422.28 916.659 422.11C914.969 422 913.269 422.03 911.569 421.99L910.569 421.94C910.569 417.73 910.569 413.63 910.569 409.39H937.349V394.59H949.999C949.999 399.497 949.999 404.413 949.999 409.34H958.069V394.61H970.739C970.739 394.99 970.739 395.37 970.739 395.76C970.739 400.07 970.739 404.39 970.739 408.76C970.739 409.76 970.949 410.22 971.999 410.26C972.827 410.323 973.649 410.447 974.459 410.63C978.901 411.349 983.09 413.175 986.639 415.94C988.888 417.672 990.731 419.874 992.04 422.392C993.349 424.911 994.093 427.684 994.219 430.52C994.471 434.6 993.42 438.655 991.219 442.1C988.219 446.8 983.919 449.69 978.839 451.62C978.469 451.76 978.119 451.92 977.759 452.07C978.046 452.321 978.389 452.499 978.759 452.59C982.117 453.39 985.324 454.724 988.259 456.54C990.456 457.929 992.354 459.742 993.843 461.873C995.331 464.003 996.381 466.409 996.929 468.95C999.059 478.77 995.779 486.75 987.929 492.88C983.209 496.56 977.649 498.21 971.819 499.01C970.899 499.14 970.679 499.44 970.689 500.32C970.749 505.1 970.719 509.93 970.699 514.76ZM943.519 459.43C943.519 459.73 943.519 459.92 943.519 460.11C943.519 466.47 943.519 472.84 943.519 479.2C943.519 480.57 943.619 481.95 943.759 483.31C943.755 483.554 943.8 483.796 943.891 484.023C943.981 484.25 944.116 484.456 944.287 484.63C944.459 484.804 944.663 484.943 944.888 485.037C945.113 485.131 945.355 485.18 945.599 485.18C948.659 485.32 951.719 485.45 954.789 485.41C957.44 485.373 960.087 485.196 962.719 484.88C965.475 484.583 968.059 483.396 970.079 481.5C971.358 480.29 972.38 478.835 973.085 477.222C973.789 475.609 974.161 473.87 974.179 472.11C974.349 469.73 973.741 467.359 972.446 465.355C971.151 463.351 969.239 461.822 966.999 461C964.233 459.982 961.307 459.471 958.359 459.49C953.689 459.36 949.019 459.41 944.359 459.38C944.089 459.36 943.839 459.4 943.519 459.43V459.43ZM943.519 446.04C943.829 446.04 944.079 446.11 944.329 446.11C947.429 446.11 950.529 446.11 953.629 446.11C957.163 446.2 960.693 445.827 964.129 445C966.811 444.401 969.168 442.811 970.729 440.55C974.249 435.16 972.449 426.46 964.539 424.9C962.6 424.493 960.63 424.248 958.649 424.17C953.889 424.04 949.119 424.06 944.359 424.03C944.109 424.03 943.869 424.03 943.569 424.1C943.559 431.43 943.559 438.67 943.559 446L943.519 446.04Z" fill="#FF9500"/>
<path d="M899.861 443.27C902.12 443.27 904.287 444.167 905.885 445.765C907.483 447.363 908.381 449.53 908.381 451.79V460.6C908.381 462.859 907.483 465.026 905.885 466.624C904.287 468.222 902.12 469.12 899.861 469.12H876.451C875.605 469.12 874.793 469.456 874.195 470.054C873.597 470.652 873.261 471.464 873.261 472.31V480.11C873.259 480.706 873.091 481.291 872.775 481.797C872.459 482.304 872.007 482.711 871.472 482.975C870.936 483.238 870.337 483.346 869.743 483.287C869.149 483.227 868.584 483.003 868.111 482.64L843.171 463.33C842.072 462.49 841.181 461.407 840.568 460.167C839.956 458.927 839.637 457.563 839.637 456.18C839.637 454.796 839.956 453.432 840.568 452.192C841.181 450.952 842.072 449.87 843.171 449.03L868.171 429.74C868.643 429.375 869.208 429.15 869.802 429.09C870.395 429.031 870.994 429.139 871.529 429.402C872.065 429.666 872.516 430.074 872.83 430.581C873.145 431.088 873.312 431.673 873.311 432.27V440.08C873.311 440.499 873.394 440.915 873.554 441.303C873.715 441.69 873.951 442.042 874.249 442.339C874.546 442.635 874.899 442.87 875.287 443.03C875.675 443.189 876.091 443.271 876.511 443.27H899.861Z" fill="white" stroke="#FF9500" stroke-width="2.5" stroke-linecap="round" stroke-linejoin="round"/>
<path d="M1016 443.271C1013.74 443.274 1011.58 444.172 1009.98 445.77C1008.39 447.367 1007.49 449.533 1007.49 451.791V460.601C1007.49 462.859 1008.39 465.024 1009.98 466.622C1011.58 468.219 1013.74 469.118 1016 469.121H1039.41C1039.83 469.12 1040.25 469.201 1040.63 469.361C1041.02 469.521 1041.38 469.755 1041.67 470.052C1041.97 470.348 1042.21 470.7 1042.37 471.088C1042.53 471.476 1042.61 471.891 1042.61 472.311V480.111C1042.61 480.708 1042.78 481.293 1043.09 481.8C1043.41 482.306 1043.86 482.715 1044.39 482.978C1044.93 483.242 1045.53 483.35 1046.12 483.29C1046.71 483.231 1047.28 483.006 1047.75 482.641L1072.69 463.331C1073.79 462.491 1074.68 461.409 1075.29 460.169C1075.91 458.929 1076.22 457.564 1076.22 456.181C1076.22 454.798 1075.91 453.433 1075.29 452.193C1074.68 450.953 1073.79 449.871 1072.69 449.031L1047.69 429.741C1047.22 429.377 1046.65 429.153 1046.06 429.094C1045.46 429.035 1044.86 429.143 1044.33 429.406C1043.79 429.669 1043.34 430.077 1043.03 430.583C1042.71 431.089 1042.54 431.674 1042.54 432.271V440.081C1042.54 440.927 1042.2 441.738 1041.61 442.337C1041.01 442.935 1040.2 443.271 1039.35 443.271H1016Z" fill="white" stroke="#FF9500" stroke-width="2.5" stroke-linecap="round" stroke-linejoin="round"/>
</svg>
