<svg width="1422" height="870" viewBox="0 0 1422 870" fill="none" xmlns="http://www.w3.org/2000/svg">
<path d="M883.999 422.371C884.018 419.697 883.509 417.045 882.502 414.567C881.495 412.089 880.01 409.833 878.132 407.93C876.253 406.026 874.018 404.511 871.553 403.471C869.089 402.432 866.444 401.888 863.769 401.871H476.999C474.325 401.888 471.681 402.432 469.217 403.472C466.753 404.511 464.518 406.026 462.64 407.93C460.763 409.834 459.278 412.09 458.273 414.567C457.267 417.045 456.76 419.697 456.779 422.371V684.871L373.669 785.631C373.336 786.032 373.093 786.5 372.956 787.003C372.82 787.506 372.794 788.033 372.879 788.547C372.965 789.061 373.16 789.551 373.451 789.983C373.743 790.415 374.124 790.78 374.569 791.051L381.229 795.131C388.325 799.501 396.305 802.234 404.589 803.131L424.499 805.251C427.489 805.57 430.493 805.73 433.499 805.731L911.649 804.971C913.855 804.971 916.059 804.841 918.249 804.581L942.999 801.581C946.952 801.107 950.814 800.053 954.459 798.451L968.349 792.331C968.998 792.045 969.571 791.61 970.023 791.063C970.474 790.515 970.791 789.87 970.948 789.178C971.106 788.486 971.099 787.767 970.929 787.079C970.759 786.39 970.43 785.75 969.969 785.211L883.999 684.871V422.371Z" fill="white"/>
<path d="M1211.4 374.609H1014.4C1006.67 374.609 1000.4 380.877 1000.4 388.609V711.109C1000.4 718.841 1006.67 725.109 1014.4 725.109H1211.4C1219.13 725.109 1225.4 718.841 1225.4 711.109V388.609C1225.4 380.877 1219.13 374.609 1211.4 374.609Z" fill="white"/>
<path d="M333.06 450.578H231.73C225.655 450.578 220.73 455.503 220.73 461.578V687.578C220.73 693.653 225.655 698.578 231.73 698.578H333.06C339.136 698.578 344.06 693.653 344.06 687.578V461.578C344.06 455.503 339.136 450.578 333.06 450.578Z" fill="white"/>
<path d="M344.06 655.578V685.578C344.06 688.496 342.902 691.293 340.839 693.356C338.776 695.419 335.978 696.578 333.06 696.578H231.73C228.813 696.578 226.015 695.419 223.952 693.356C221.889 691.293 220.73 688.496 220.73 685.578V655.578H344.06Z" fill="#EBEBEB"/>
<path d="M1225.06 684.078V714.078C1225.06 716.996 1223.9 719.793 1221.84 721.856C1219.78 723.919 1216.98 725.078 1214.06 725.078H1012.72C1009.8 725.078 1007.01 723.919 1004.94 721.856C1002.88 719.793 1001.72 716.996 1001.72 714.078V684.078H1225.06Z" fill="#EBEBEB"/>
<path d="M887.4 421.578V413.578C887.4 410.661 886.241 407.863 884.179 405.8C882.116 403.737 879.318 402.578 876.4 402.578H468.4C465.483 402.578 462.685 403.737 460.622 405.8C458.559 407.863 457.4 410.661 457.4 413.578V421.578H887.4Z" fill="#EBEBEB"/>
<path d="M884.89 668.078H456.23V686.578H884.89V668.078Z" fill="#EBEBEB"/>
<path d="M703.82 252.898V379.708" stroke="#FF9500" stroke-width="2.5" stroke-linecap="round" stroke-linejoin="round"/>
<path d="M693.76 366.892C693.76 366.676 693.831 366.467 693.96 366.294C694.09 366.122 694.271 365.996 694.478 365.935C694.685 365.874 694.906 365.882 695.108 365.957C695.31 366.032 695.483 366.171 695.6 366.352L703.82 379.252L712.04 366.352C712.11 366.241 712.201 366.145 712.309 366.069C712.416 365.994 712.537 365.94 712.666 365.911C712.794 365.882 712.926 365.879 713.056 365.901C713.185 365.924 713.309 365.972 713.42 366.042C713.531 366.112 713.627 366.204 713.702 366.311C713.778 366.418 713.832 366.539 713.861 366.668C713.889 366.796 713.893 366.928 713.87 367.058C713.848 367.187 713.8 367.311 713.73 367.422L704.67 381.652C704.58 381.796 704.454 381.915 704.306 381.997C704.157 382.079 703.99 382.122 703.82 382.122C703.652 382.12 703.486 382.077 703.339 381.995C703.193 381.912 703.069 381.795 702.98 381.652L693.92 367.422C693.814 367.265 693.759 367.081 693.76 366.892V366.892Z" fill="#FF9500"/>
<path d="M636.1 317.499V173.039" stroke="#FF9500" stroke-width="2.5" stroke-linecap="round" stroke-linejoin="round"/>
<path d="M658.68 362.581V252.901L680.29 231.281V68.6914" stroke="#FF9500" stroke-width="2.5" stroke-linecap="round" stroke-linejoin="round"/>
<path d="M681.25 314.948V262.578" stroke="#FF9500" stroke-width="2.5" stroke-linecap="round" stroke-linejoin="round"/>
<path d="M590.961 317.501V68.6914" stroke="#FF9500" stroke-width="2.5" stroke-linecap="round" stroke-linejoin="round"/>
<path d="M726.399 324.271V188.581L703.609 165.791V68.6914" stroke="#FF9500" stroke-width="2.5" stroke-linecap="round" stroke-linejoin="round"/>
<path d="M613.529 377.161V165.581L636.099 149.581V68.6914" stroke="#FF9500" stroke-width="2.5" stroke-linecap="round" stroke-linejoin="round"/>
<path d="M623.59 364.339C623.59 364.123 623.52 363.914 623.39 363.741C623.261 363.569 623.079 363.443 622.872 363.382C622.665 363.321 622.444 363.329 622.242 363.404C622.04 363.479 621.867 363.618 621.75 363.799L613.53 376.699L605.31 363.799C605.247 363.676 605.158 363.567 605.05 363.48C604.942 363.392 604.817 363.329 604.682 363.292C604.548 363.256 604.408 363.248 604.271 363.269C604.133 363.29 604.002 363.34 603.885 363.414C603.767 363.489 603.667 363.587 603.59 363.703C603.513 363.818 603.461 363.949 603.437 364.086C603.413 364.223 603.418 364.363 603.451 364.498C603.484 364.633 603.546 364.759 603.63 364.869L612.69 379.099C612.78 379.242 612.903 379.36 613.05 379.442C613.197 379.524 613.362 379.568 613.53 379.569C613.7 379.569 613.868 379.526 614.016 379.444C614.165 379.362 614.29 379.243 614.38 379.099L623.44 364.869C623.539 364.71 623.591 364.526 623.59 364.339V364.339Z" fill="#FF9500"/>
<path d="M726.4 161.581V68.6914" stroke="#FF9500" stroke-width="2.5" stroke-linecap="round" stroke-linejoin="round"/>
<path d="M658.68 221.071V68.6914" stroke="#FF9500" stroke-width="2.5" stroke-linecap="round" stroke-linejoin="round"/>
<path d="M613.529 68.6914V143.041" stroke="#FF9500" stroke-width="2.5" stroke-linecap="round" stroke-linejoin="round"/>
<path d="M234.779 72.5781V257.858" stroke="#FF9500" stroke-width="2.5" stroke-linecap="round" stroke-linejoin="round"/>
<path d="M224.721 244.999C224.723 244.784 224.795 244.576 224.925 244.405C225.056 244.235 225.238 244.11 225.444 244.051C225.65 243.991 225.87 244 226.072 244.075C226.273 244.151 226.444 244.289 226.561 244.469L234.781 257.369L243.001 244.499C243.071 244.388 243.162 244.292 243.27 244.217C243.377 244.141 243.498 244.087 243.627 244.058C243.755 244.03 243.887 244.026 244.017 244.049C244.146 244.071 244.27 244.119 244.381 244.189C244.492 244.26 244.588 244.351 244.663 244.458C244.739 244.566 244.793 244.687 244.822 244.815C244.85 244.943 244.854 245.076 244.831 245.205C244.809 245.335 244.761 245.458 244.691 245.569L235.621 259.799C235.53 259.94 235.406 260.055 235.259 260.135C235.112 260.215 234.948 260.257 234.781 260.257C234.614 260.257 234.449 260.215 234.303 260.135C234.156 260.055 234.031 259.94 233.941 259.799L224.871 245.569C224.77 245.407 224.718 245.22 224.721 245.029V244.999Z" fill="#FF9500"/>
<path d="M328.391 420.938V305.508L306.131 285.248V131.038L286.631 109.538V72.5781" stroke="#FF9500" stroke-width="2.5" stroke-linecap="round" stroke-linejoin="round"/>
<path d="M338.45 408.108C338.45 407.941 338.408 407.776 338.327 407.63C338.247 407.483 338.131 407.359 337.99 407.268C337.767 407.125 337.497 407.077 337.238 407.133C336.979 407.189 336.754 407.346 336.61 407.568L328.39 420.478L320.17 407.568C320.099 407.457 320.007 407.361 319.899 407.286C319.791 407.211 319.669 407.157 319.541 407.129C319.412 407.101 319.279 407.098 319.15 407.121C319.02 407.144 318.896 407.192 318.785 407.263C318.674 407.334 318.578 407.426 318.503 407.534C318.427 407.642 318.374 407.764 318.346 407.893C318.317 408.021 318.315 408.154 318.338 408.284C318.361 408.413 318.409 408.537 318.48 408.648L327.54 422.878C327.631 423.021 327.757 423.137 327.906 423.218C328.054 423.298 328.221 423.34 328.39 423.338C328.557 423.338 328.722 423.296 328.869 423.215C329.015 423.135 329.14 423.019 329.23 422.878L338.29 408.648C338.394 408.487 338.45 408.3 338.45 408.108V408.108Z" fill="#FF9500"/>
<path d="M258.18 387.588V322.578" stroke="#FF9500" stroke-width="2.5" stroke-linecap="round" stroke-linejoin="round"/>
<path d="M281.32 423.341V210.141" stroke="#FF9500" stroke-width="2.5" stroke-linecap="round" stroke-linejoin="round"/>
<path d="M304.99 423.339V319.609" stroke="#FF9500" stroke-width="2.5" stroke-linecap="round" stroke-linejoin="round"/>
<path d="M234.779 420.938V305.508L258.179 295.738V72.5781" stroke="#FF9500" stroke-width="2.5" stroke-linecap="round" stroke-linejoin="round"/>
<path d="M244.841 408.108C244.84 407.941 244.798 407.776 244.718 407.63C244.637 407.483 244.522 407.359 244.381 407.268C244.158 407.125 243.887 407.077 243.629 407.133C243.37 407.189 243.144 407.346 243.001 407.568L234.781 420.478L226.561 407.568C226.417 407.344 226.191 407.186 225.931 407.129C225.672 407.072 225.4 407.12 225.176 407.263C224.952 407.407 224.794 407.633 224.736 407.893C224.679 408.152 224.727 408.424 224.871 408.648L233.941 422.878C234.031 423.019 234.156 423.134 234.302 423.214C234.449 423.294 234.614 423.336 234.781 423.336C234.948 423.336 235.112 423.294 235.259 423.214C235.406 423.134 235.53 423.019 235.621 422.878L244.691 408.648C244.787 408.485 244.839 408.298 244.841 408.108V408.108Z" fill="#FF9500"/>
<path d="M281.32 194.202V127.922" stroke="#FF9500" stroke-width="2.5" stroke-linecap="round" stroke-linejoin="round"/>
<path d="M326.061 72.5781V276.918" stroke="#FF9500" stroke-width="2.5" stroke-linecap="round" stroke-linejoin="round"/>
<path d="M1149.4 345.061V224.901V193.431L1128.22 175.251V68.6914" stroke="#FF9500" stroke-width="2.5" stroke-linecap="round" stroke-linejoin="round"/>
<path d="M1159.46 332.24C1159.46 332.071 1159.42 331.905 1159.34 331.756C1159.26 331.607 1159.14 331.481 1159 331.39C1158.89 331.318 1158.77 331.269 1158.63 331.246C1158.5 331.223 1158.37 331.226 1158.24 331.254C1158.11 331.283 1157.99 331.338 1157.88 331.414C1157.77 331.491 1157.68 331.588 1157.61 331.7L1149.4 344.6L1141.18 331.7C1141.11 331.589 1141.02 331.493 1140.91 331.418C1140.8 331.342 1140.68 331.288 1140.56 331.259C1140.43 331.231 1140.29 331.227 1140.17 331.25C1140.04 331.272 1139.91 331.32 1139.8 331.39C1139.69 331.46 1139.59 331.552 1139.52 331.659C1139.44 331.767 1139.39 331.888 1139.36 332.016C1139.33 332.144 1139.33 332.277 1139.35 332.406C1139.37 332.536 1139.42 332.659 1139.49 332.77L1148.55 347C1148.64 347.142 1148.77 347.259 1148.92 347.34C1149.07 347.42 1149.23 347.462 1149.4 347.46C1149.57 347.46 1149.73 347.418 1149.88 347.337C1150.03 347.257 1150.15 347.141 1150.24 347L1159.3 332.77C1159.41 332.614 1159.46 332.429 1159.46 332.24V332.24Z" fill="#FF9500"/>
<path d="M1063.39 68.6914V345.061" stroke="#FF9500" stroke-width="2.5" stroke-linecap="round" stroke-linejoin="round"/>
<path d="M1053.33 332.24C1053.33 332.024 1053.4 331.814 1053.53 331.642C1053.66 331.469 1053.84 331.343 1054.05 331.283C1054.26 331.222 1054.48 331.23 1054.68 331.305C1054.88 331.38 1055.05 331.518 1055.17 331.7L1063.39 344.6L1071.61 331.7C1071.68 331.589 1071.77 331.493 1071.88 331.417C1071.99 331.341 1072.11 331.287 1072.24 331.259C1072.36 331.23 1072.5 331.227 1072.63 331.249C1072.76 331.272 1072.88 331.319 1072.99 331.39C1073.1 331.46 1073.2 331.551 1073.27 331.659C1073.35 331.766 1073.4 331.887 1073.43 332.015C1073.46 332.143 1073.46 332.276 1073.44 332.405C1073.42 332.535 1073.37 332.659 1073.3 332.77L1064.23 347C1064.14 347.14 1064.02 347.255 1063.87 347.335C1063.72 347.415 1063.56 347.457 1063.39 347.457C1063.22 347.457 1063.06 347.415 1062.91 347.335C1062.77 347.255 1062.64 347.14 1062.55 347L1053.48 332.77C1053.38 332.61 1053.33 332.427 1053.33 332.24Z" fill="#FF9500"/>
<path d="M1127.89 294.948V218.578" stroke="#FF9500" stroke-width="2.5" stroke-linecap="round" stroke-linejoin="round"/>
<path d="M1106.39 276.711V218.581L1084.39 196.581V68.6914" stroke="#FF9500" stroke-width="2.5" stroke-linecap="round" stroke-linejoin="round"/>
<path d="M1084.89 347.458V224.898" stroke="#FF9500" stroke-width="2.5" stroke-linecap="round" stroke-linejoin="round"/>
<path d="M1106.39 185.271V68.6914" stroke="#FF9500" stroke-width="2.5" stroke-linecap="round" stroke-linejoin="round"/>
<path d="M220.73 655.25H344.06" stroke="#4A4A4A" stroke-width="2.5" stroke-linecap="round" stroke-linejoin="round"/>
<path d="M282.06 689.83C288.847 689.83 294.35 684.328 294.35 677.54C294.35 670.752 288.847 665.25 282.06 665.25C275.272 665.25 269.77 670.752 269.77 677.54C269.77 684.328 275.272 689.83 282.06 689.83Z" fill="#FF9500"/>
<path d="M333.06 450.578H231.73C225.655 450.578 220.73 455.503 220.73 461.578V687.578C220.73 693.653 225.655 698.578 231.73 698.578H333.06C339.136 698.578 344.06 693.653 344.06 687.578V461.578C344.06 455.503 339.136 450.578 333.06 450.578Z" stroke="#4A4A4A" stroke-width="4" stroke-linecap="round" stroke-linejoin="round"/>
<path d="M318.4 569.708V583.328C318.4 584.919 317.768 586.446 316.643 587.571C315.518 588.696 313.992 589.328 312.4 589.328H252.48C250.889 589.328 249.363 588.696 248.238 587.571C247.113 586.446 246.48 584.919 246.48 583.328V536.828C246.48 535.237 247.113 533.711 248.238 532.585C249.363 531.46 250.889 530.828 252.48 530.828H312.4C313.992 530.828 315.518 531.46 316.643 532.585C317.768 533.711 318.4 535.237 318.4 536.828V549.328" stroke="#FF9500" stroke-width="2.5" stroke-linecap="round" stroke-linejoin="round"/>
<path d="M318.4 550.578H310.65C308.263 550.578 305.974 551.526 304.286 553.214C302.599 554.902 301.65 557.191 301.65 559.578C301.65 561.965 302.599 564.254 304.286 565.942C305.974 567.63 308.263 568.578 310.65 568.578H322.39V550.578H318.39" stroke="#FF9500" stroke-width="2.5" stroke-linecap="round" stroke-linejoin="round"/>
<path d="M311.021 562.709C312.749 562.709 314.151 561.308 314.151 559.579C314.151 557.851 312.749 556.449 311.021 556.449C309.292 556.449 307.891 557.851 307.891 559.579C307.891 561.308 309.292 562.709 311.021 562.709Z" stroke="#FF9500" stroke-width="2.5" stroke-linecap="round" stroke-linejoin="round"/>
<path d="M246.48 536.002C246.48 531.002 248.8 528.572 251.66 527.742L301.4 513.742C304.26 512.912 307.33 514.812 308.26 517.992L311.4 530.912" stroke="#FF9500" stroke-width="2.5" stroke-linecap="round" stroke-linejoin="round"/>
<path d="M246.75 535.94C245.49 531.14 246.91 528.42 249.22 527.13L289.39 505.18C291.7 503.89 294.88 505.18 296.5 508.09L298.73 513.46" stroke="#FF9500" stroke-width="2.5" stroke-linecap="round" stroke-linejoin="round"/>
<path d="M287.8 580.09H283.5C283.5 578.42 283.5 576.76 283.5 575.09H280.76V580.09H276.47V575.09H267.4V570.84H267.77C268.34 570.84 268.9 570.84 269.46 570.84C269.663 570.856 269.866 570.827 270.056 570.755C270.246 570.684 270.418 570.572 270.56 570.427C270.701 570.282 270.81 570.108 270.878 569.917C270.945 569.726 270.97 569.522 270.95 569.32C270.95 568.89 270.95 568.45 270.95 568.02C270.95 562.82 270.95 557.617 270.95 552.41C270.95 551.71 270.95 551 270.95 550.3C270.968 550.099 270.942 549.896 270.874 549.705C270.807 549.514 270.7 549.34 270.559 549.195C270.419 549.049 270.25 548.935 270.062 548.86C269.874 548.785 269.672 548.751 269.47 548.76C268.9 548.76 268.32 548.76 267.74 548.76H267.4V544.5H276.48V539.5H280.78C280.78 541.16 280.78 542.83 280.78 544.5H283.51C283.51 542.81 283.51 541.16 283.51 539.5H287.8C287.8 539.63 287.8 539.76 287.8 539.89C287.8 541.36 287.8 542.82 287.8 544.28C287.8 544.62 287.87 544.78 288.23 544.79C288.51 544.808 288.788 544.852 289.06 544.92C290.567 545.16 291.989 545.78 293.19 546.72C293.952 547.307 294.576 548.053 295.02 548.907C295.464 549.76 295.717 550.699 295.76 551.66C295.85 553.039 295.5 554.412 294.76 555.58C293.76 557.095 292.281 558.232 290.56 558.81L290.2 558.96C290.296 559.049 290.413 559.111 290.54 559.14C291.679 559.41 292.767 559.862 293.76 560.48C294.506 560.948 295.151 561.561 295.656 562.282C296.161 563.004 296.516 563.819 296.7 564.68C297.08 566.177 296.996 567.753 296.46 569.201C295.925 570.649 294.962 571.9 293.7 572.79C292.097 573.962 290.207 574.68 288.23 574.87C287.92 574.87 287.85 575.01 287.85 575.31C287.81 576.82 287.8 578.45 287.8 580.09ZM278.59 561.34C278.586 561.417 278.586 561.493 278.59 561.57C278.59 563.73 278.59 565.88 278.59 568.04C278.592 568.504 278.619 568.968 278.67 569.43C278.668 569.513 278.682 569.595 278.712 569.672C278.742 569.749 278.787 569.819 278.845 569.878C278.903 569.937 278.973 569.983 279.049 570.015C279.126 570.046 279.208 570.061 279.29 570.06C280.29 570.11 281.37 570.16 282.4 570.14C283.3 570.13 284.198 570.07 285.09 569.96C286.025 569.861 286.903 569.461 287.59 568.82C288.024 568.411 288.37 567.918 288.607 567.372C288.844 566.825 288.968 566.236 288.97 565.64C289.03 564.833 288.827 564.028 288.39 563.347C287.954 562.665 287.308 562.143 286.55 561.86C285.612 561.516 284.62 561.344 283.62 561.35C282.04 561.35 280.46 561.35 278.87 561.35L278.59 561.34ZM278.59 556.8H278.86H282C283.194 556.836 284.388 556.715 285.55 556.44C286.46 556.235 287.259 555.696 287.79 554.93C288.113 554.467 288.316 553.931 288.381 553.37C288.446 552.809 288.371 552.241 288.163 551.716C287.955 551.192 287.62 550.726 287.189 550.362C286.758 549.998 286.243 549.747 285.69 549.63C285.032 549.492 284.363 549.408 283.69 549.38C282.08 549.38 280.46 549.38 278.85 549.38H278.58L278.59 556.8Z" fill="#FF9500"/>
<path d="M972.58 789.578C964 798.058 944.64 804.578 928.91 804.578H413.91C398.17 804.578 378.82 798.058 370.24 789.578" stroke="#4A4A4A" stroke-width="4" stroke-linecap="round" stroke-linejoin="round"/>
<path d="M961.09 791.578H381.71C373.07 791.578 368.28 789.018 370.96 785.908L456.73 686.578V413.578C456.73 410.661 457.889 407.863 459.952 405.8C462.015 403.737 464.813 402.578 467.73 402.578H875.07C877.988 402.578 880.786 403.737 882.848 405.8C884.911 407.863 886.07 410.661 886.07 413.578V686.578L971.84 785.908C974.52 788.998 969.73 791.578 961.09 791.578Z" stroke="#4A4A4A" stroke-width="4" stroke-linecap="round" stroke-linejoin="round"/>
<path d="M456.73 686.578H886.07" stroke="#4A4A4A" stroke-width="2.5" stroke-linecap="round" stroke-linejoin="round"/>
<path d="M477.4 708.578H861.4" stroke="#4A4A4A" stroke-width="2.5" stroke-linecap="round" stroke-linejoin="round"/>
<path d="M861.4 708.578L908.4 770.578" stroke="#4A4A4A" stroke-width="2.5" stroke-linecap="round" stroke-linejoin="round"/>
<path d="M459.4 668.078H881.9" stroke="#4A4A4A" stroke-width="2.5" stroke-linecap="round" stroke-linejoin="round"/>
<path d="M459.4 421.078H881.9" stroke="#4A4A4A" stroke-width="2.5" stroke-linecap="round" stroke-linejoin="round"/>
<path d="M671.4 412.578H672.9" stroke="#4A4A4A" stroke-width="2.5" stroke-linecap="round" stroke-linejoin="round"/>
<path d="M886.07 770.578H425.4" stroke="#4A4A4A" stroke-width="2.5" stroke-linecap="round" stroke-linejoin="round"/>
<path d="M425.4 770.582L467.4 717.922" stroke="#4A4A4A" stroke-width="2.5" stroke-linecap="round" stroke-linejoin="round"/>
<path d="M488.4 727.078H842.9" stroke="#4A4A4A" stroke-width="2.5" stroke-linecap="round" stroke-linejoin="round"/>
<path d="M809.9 739.578L815.4 753.078" stroke="#4A4A4A" stroke-width="2.5" stroke-linecap="round" stroke-linejoin="round"/>
<path d="M590.4 770.578L596.9 746.328" stroke="#4A4A4A" stroke-width="2.5" stroke-linecap="round" stroke-linejoin="round"/>
<path d="M722.599 565.829V587.109C722.597 589.594 721.609 591.975 719.852 593.732C718.095 595.489 715.714 596.477 713.229 596.479H619.649C617.165 596.477 614.783 595.489 613.027 593.732C611.27 591.975 610.282 589.594 610.279 587.109V514.479C610.282 511.995 611.27 509.613 613.027 507.857C614.783 506.1 617.165 505.112 619.649 505.109H713.229C715.714 505.112 718.095 506.1 719.852 507.857C721.609 509.613 722.597 511.995 722.599 514.479V533.999" stroke="#FF9500" stroke-width="2.5" stroke-linecap="round" stroke-linejoin="round"/>
<path d="M722.6 536H710.49C706.777 536 703.216 537.475 700.591 540.101C697.965 542.726 696.49 546.287 696.49 550C696.488 553.719 697.96 557.288 700.584 559.924C703.209 562.559 706.771 564.047 710.49 564.06H728.83V536H722.6Z" stroke="#FF9500" stroke-width="2.5" stroke-linecap="round" stroke-linejoin="round"/>
<path d="M716 549.999C715.998 549.034 715.71 548.092 715.173 547.29C714.636 546.489 713.873 545.865 712.981 545.498C712.089 545.13 711.108 545.034 710.162 545.224C709.216 545.413 708.347 545.879 707.666 546.562C706.985 547.245 706.521 548.114 706.333 549.061C706.146 550.007 706.243 550.988 706.613 551.879C706.982 552.77 707.608 553.531 708.41 554.067C709.212 554.603 710.155 554.889 711.12 554.889C712.415 554.886 713.657 554.37 714.572 553.453C715.486 552.536 716 551.294 716 549.999Z" stroke="#FF9500" stroke-width="2.5" stroke-linecap="round" stroke-linejoin="round"/>
<path d="M610.279 513.12C610.279 505.31 613.899 501.51 618.369 500.21L696.049 478.29C700.509 476.99 705.319 479.96 706.769 484.93L711.659 505.11" stroke="#FF9500" stroke-width="2.5" stroke-linecap="round" stroke-linejoin="round"/>
<path d="M610.691 513.092C608.691 505.602 610.951 501.342 614.551 499.332L677.301 465.052C680.901 463.052 685.871 465.052 688.401 469.592L691.881 477.982" stroke="#FF9500" stroke-width="2.5" stroke-linecap="round" stroke-linejoin="round"/>
<path d="M672.08 570.381H667.79V565.381H665.06V570.381H660.76C660.76 568.711 660.76 567.051 660.76 565.381H651.68V561.131H652.06C652.62 561.131 653.19 561.131 653.75 561.131C653.952 561.145 654.154 561.115 654.343 561.043C654.532 560.971 654.703 560.859 654.845 560.714C654.987 560.57 655.095 560.396 655.163 560.206C655.231 560.015 655.257 559.812 655.24 559.611C655.24 559.171 655.24 558.741 655.24 558.311V542.621C655.24 541.921 655.24 541.211 655.24 540.511C655.255 540.309 655.228 540.106 655.16 539.915C655.091 539.725 654.983 539.551 654.842 539.405C654.701 539.26 654.531 539.146 654.342 539.071C654.154 538.996 653.952 538.962 653.75 538.971C653.18 538.971 652.6 538.971 652.03 538.971H651.69V534.711H660.76C660.76 533.011 660.76 531.351 660.76 529.711H665.05V534.711H667.78V529.711H672.07C672.07 529.841 672.07 529.971 672.07 530.101C672.07 531.561 672.07 533.031 672.07 534.491C672.07 534.821 672.14 534.991 672.5 535.001C672.782 535.021 673.063 535.061 673.34 535.121C674.843 535.369 676.26 535.991 677.46 536.931C678.771 537.952 679.656 539.426 679.94 541.064C680.225 542.701 679.89 544.387 679 545.791C678.001 547.304 676.527 548.44 674.81 549.021C674.68 549.021 674.56 549.121 674.44 549.171C674.538 549.253 674.655 549.311 674.78 549.341C675.917 549.615 677.004 550.067 678 550.681C678.746 551.151 679.391 551.765 679.896 552.488C680.401 553.211 680.756 554.028 680.94 554.891C681.322 556.387 681.239 557.965 680.703 559.413C680.168 560.862 679.204 562.113 677.94 563.001C676.34 564.174 674.454 564.892 672.48 565.081C672.17 565.081 672.09 565.221 672.1 565.521C672.1 567.101 672.09 568.741 672.08 570.381ZM662.87 551.631C662.865 551.708 662.865 551.784 662.87 551.861C662.87 554.011 662.87 556.171 662.87 558.331C662.872 558.795 662.898 559.259 662.95 559.721C662.95 559.886 663.015 560.045 663.131 560.163C663.247 560.281 663.404 560.348 663.57 560.351C664.57 560.351 665.65 560.451 666.69 560.431C667.589 560.421 668.487 560.361 669.38 560.251C670.314 560.155 671.19 559.75 671.87 559.101C672.303 558.692 672.65 558.199 672.889 557.653C673.128 557.106 673.254 556.517 673.26 555.921C673.317 555.114 673.111 554.311 672.673 553.631C672.234 552.952 671.588 552.432 670.83 552.151C669.891 551.807 668.899 551.635 667.9 551.641C666.32 551.641 664.74 551.641 663.16 551.641L662.87 551.631ZM662.87 547.091H663.15H666.3C667.49 547.126 668.681 547.005 669.84 546.731C670.75 546.529 671.551 545.989 672.08 545.221C672.402 544.757 672.604 544.22 672.669 543.659C672.734 543.098 672.659 542.529 672.452 542.004C672.244 541.478 671.909 541.012 671.478 540.647C671.047 540.282 670.532 540.029 669.98 539.911C669.32 539.781 668.651 539.7 667.98 539.671C666.36 539.621 664.75 539.671 663.13 539.621H662.86L662.87 547.091Z" fill="#FF9500"/>
<path d="M1124.3 705.579C1124.3 703.149 1123.58 700.773 1122.23 698.752C1120.88 696.731 1118.96 695.156 1116.72 694.226C1114.47 693.295 1112 693.051 1109.62 693.524C1107.23 693.998 1105.04 695.167 1103.32 696.885C1101.6 698.603 1100.43 700.792 1099.96 703.175C1099.48 705.559 1099.72 708.029 1100.65 710.275C1101.58 712.521 1103.16 714.441 1105.18 715.793C1107.2 717.145 1109.57 717.867 1112 717.869C1113.62 717.87 1115.21 717.553 1116.71 716.936C1118.2 716.319 1119.56 715.414 1120.7 714.273C1121.84 713.132 1122.75 711.776 1123.36 710.284C1123.98 708.793 1124.3 707.194 1124.3 705.579V705.579Z" fill="#FF9500"/>
<path d="M1211.4 374.609H1014.4C1006.67 374.609 1000.4 380.877 1000.4 388.609V711.109C1000.4 718.841 1006.67 725.109 1014.4 725.109H1211.4C1219.13 725.109 1225.4 718.841 1225.4 711.109V388.609C1225.4 380.877 1219.13 374.609 1211.4 374.609Z" stroke="#4A4A4A" stroke-width="4" stroke-linecap="round" stroke-linejoin="round"/>
<path d="M1000.4 684.828H1223.63" stroke="#4A4A4A" stroke-width="2.5" stroke-linecap="round" stroke-linejoin="round"/>
<path d="M1151 542.999V556.629C1151 558.22 1150.37 559.746 1149.24 560.872C1148.12 561.997 1146.59 562.629 1145 562.629H1085C1083.41 562.629 1081.88 561.997 1080.76 560.872C1079.63 559.746 1079 558.22 1079 556.629V510.129C1079 508.538 1079.63 507.011 1080.76 505.886C1081.88 504.761 1083.41 504.129 1085 504.129H1145C1146.59 504.129 1148.12 504.761 1149.24 505.886C1150.37 507.011 1151 508.538 1151 510.129V522.629" stroke="#FF9500" stroke-width="2.5" stroke-linecap="round" stroke-linejoin="round"/>
<path d="M1151 523.891H1143.25C1140.86 523.891 1138.57 524.839 1136.89 526.527C1135.2 528.214 1134.25 530.504 1134.25 532.891C1134.25 535.278 1135.2 537.567 1136.89 539.255C1138.57 540.942 1140.86 541.891 1143.25 541.891H1155V523.891H1151Z" stroke="#FF9500" stroke-width="2.5" stroke-linecap="round" stroke-linejoin="round"/>
<path d="M1143.58 536.022C1145.31 536.022 1146.71 534.62 1146.71 532.892C1146.71 531.163 1145.31 529.762 1143.58 529.762C1141.85 529.762 1140.45 531.163 1140.45 532.892C1140.45 534.62 1141.85 536.022 1143.58 536.022Z" stroke="#FF9500" stroke-width="2.5" stroke-linecap="round" stroke-linejoin="round"/>
<path d="M1079 509.259C1079 504.259 1081.32 501.829 1084.18 500.999L1134 486.999C1136.86 486.169 1139.93 488.069 1140.86 491.249L1144 504.179" stroke="#FF9500" stroke-width="2.5" stroke-linecap="round" stroke-linejoin="round"/>
<path d="M1079.3 509.248C1078.04 504.448 1079.47 501.718 1081.78 500.438L1122 478.488C1124.31 477.198 1127.49 478.488 1129.11 481.388L1131.34 486.768" stroke="#FF9500" stroke-width="2.5" stroke-linecap="round" stroke-linejoin="round"/>
<path d="M1120.54 554.75H1116.24C1116.24 553.08 1116.24 551.42 1116.24 549.75H1113.5V554.75H1109.21V549.75H1100.14V545.5H1100.51C1101.08 545.5 1101.64 545.5 1102.2 545.5C1102.4 545.516 1102.61 545.487 1102.8 545.415C1102.99 545.344 1103.16 545.232 1103.3 545.087C1103.44 544.942 1103.55 544.768 1103.62 544.577C1103.69 544.386 1103.71 544.182 1103.69 543.98C1103.69 543.54 1103.69 543.11 1103.69 542.68C1103.69 537.48 1103.69 532.277 1103.69 527.07C1103.69 526.37 1103.69 525.66 1103.69 524.96C1103.71 524.759 1103.68 524.556 1103.61 524.365C1103.55 524.175 1103.44 524.001 1103.3 523.855C1103.16 523.709 1102.99 523.595 1102.8 523.52C1102.61 523.445 1102.41 523.411 1102.21 523.42C1101.64 523.42 1101.06 523.42 1100.48 523.42H1100.14C1100.14 521.99 1100.14 520.6 1100.14 519.16H1109.21V514.16H1113.51C1113.51 515.82 1113.51 517.49 1113.51 519.16H1116.24C1116.24 517.47 1116.24 515.81 1116.24 514.16H1120.53C1120.53 514.29 1120.53 514.42 1120.53 514.55C1120.53 516.02 1120.53 517.48 1120.53 518.94C1120.53 519.28 1120.6 519.44 1120.96 519.45C1121.24 519.47 1121.52 519.51 1121.79 519.57C1123.3 519.816 1124.72 520.438 1125.92 521.38C1126.68 521.968 1127.31 522.714 1127.75 523.567C1128.19 524.42 1128.45 525.36 1128.49 526.32C1128.58 527.7 1128.23 529.072 1127.49 530.24C1126.49 531.755 1125.01 532.892 1123.29 533.47L1122.93 533.62C1123.03 533.709 1123.14 533.771 1123.27 533.8C1124.41 534.071 1125.49 534.52 1126.49 535.13C1127.24 535.602 1127.88 536.217 1128.38 536.939C1128.89 537.662 1129.24 538.478 1129.43 539.34C1129.81 540.837 1129.73 542.413 1129.19 543.861C1128.65 545.309 1127.69 546.561 1126.43 547.45C1124.83 548.622 1122.94 549.341 1120.96 549.53C1120.65 549.53 1120.58 549.67 1120.58 549.97C1120.55 551.48 1120.54 553.11 1120.54 554.75ZM1111.33 536C1111.32 536.077 1111.32 536.154 1111.33 536.23C1111.33 538.377 1111.33 540.534 1111.33 542.7C1111.33 543.165 1111.36 543.629 1111.41 544.09C1111.41 544.173 1111.42 544.255 1111.45 544.332C1111.48 544.409 1111.53 544.479 1111.59 544.538C1111.64 544.597 1111.71 544.644 1111.79 544.675C1111.87 544.706 1111.95 544.722 1112.03 544.72C1113.03 544.72 1114.11 544.82 1115.14 544.8C1116.04 544.79 1116.94 544.73 1117.83 544.62C1118.77 544.521 1119.64 544.121 1120.33 543.48C1120.76 543.068 1121.11 542.574 1121.35 542.026C1121.59 541.478 1121.71 540.888 1121.72 540.29C1121.78 539.484 1121.57 538.681 1121.13 538.002C1120.69 537.322 1120.05 536.803 1119.29 536.52C1118.35 536.177 1117.36 536.004 1116.36 536.01C1114.78 536.01 1113.2 536.01 1111.62 536.01C1111.52 535.997 1111.43 535.993 1111.33 536V536ZM1111.33 531.46H1111.6H1114.75C1115.94 531.496 1117.14 531.375 1118.3 531.1C1119.21 530.895 1120.01 530.356 1120.54 529.59C1120.86 529.127 1121.07 528.591 1121.13 528.03C1121.2 527.469 1121.12 526.901 1120.91 526.377C1120.71 525.852 1120.37 525.387 1119.94 525.023C1119.51 524.658 1118.99 524.407 1118.44 524.29C1117.78 524.152 1117.11 524.069 1116.44 524.04C1114.83 524.04 1113.21 524.04 1111.6 524.04H1111.33V531.46Z" fill="#FF9500"/>
<path d="M95.6699 636.578H220.73" stroke="#4A4A4A" stroke-width="2.5" stroke-linecap="round" stroke-linejoin="round"/>
<path d="M344.17 636.578H456.23" stroke="#4A4A4A" stroke-width="2.5" stroke-linecap="round" stroke-linejoin="round"/>
<path d="M886.5 636.578H998.56" stroke="#4A4A4A" stroke-width="2.5" stroke-linecap="round" stroke-linejoin="round"/>
<path d="M1225.92 636.578H1337.98" stroke="#4A4A4A" stroke-width="2.5" stroke-linecap="round" stroke-linejoin="round"/>
</svg>
