<svg width="1422" height="870" viewBox="0 0 1422 870" fill="none" xmlns="http://www.w3.org/2000/svg">
<path d="M1128.15 553.18L1196.15 610.02V684.02L1103.15 615.18L1128.15 553.18Z" fill="white"/>
<path d="M1181.15 597.348L1197.15 611.018V685.018L1181.15 673.348V597.348Z" fill="#EBEBEB"/>
<path d="M1163.15 351.68V581.68L1146.15 566.68V360.81L1163.15 351.68Z" fill="#EBEBEB"/>
<path d="M1163.15 577.679V738.679H1096.15V387.679L1146.15 360.809V577.679H1163.15Z" fill="white"/>
<path d="M391.37 290.777L207.67 442.427V737.667H391.13" fill="white"/>
<path d="M888.051 743.148V308.598L1058.51 147.188V737.667" fill="white"/>
<path d="M758.069 233.207C636.799 233.207 538.449 326.487 538.449 441.567V737.667H756.149" fill="white"/>
<path d="M538.479 479.949H485.029V737.659H538.479V479.949Z" fill="#EBEBEB"/>
<path d="M1094.62 737.667V308.598L1058.51 147.188V737.667" fill="#EBEBEB"/>
<path d="M758 738.997V233.207H758.31C774.31 233.207 788.31 294.537 794.12 374.627V736.297" fill="#EBEBEB"/>
<path d="M450.361 737.667H391.131V290.777L450.361 442.427V737.667Z" fill="#EBEBEB"/>
<path d="M1094.62 737.667V308.598L1058.51 147.188V737.667" stroke="#4A4A4A" stroke-width="2.5" stroke-linecap="square" stroke-linejoin="round"/>
<path d="M758.069 233.207C636.799 233.207 538.449 326.487 538.449 441.567V737.667H758.999" stroke="#4A4A4A" stroke-width="2.5" stroke-linecap="square" stroke-linejoin="round"/>
<path d="M758 335.997V233.207H758.31C774.31 233.207 788.31 294.537 794.12 374.627V736.297" stroke="#4A4A4A" stroke-width="2.5" stroke-linecap="square" stroke-linejoin="round"/>
<path d="M758.039 733.58V393.59" stroke="#4A4A4A" stroke-width="2.5" stroke-linecap="square" stroke-linejoin="round"/>
<path d="M391.37 290.777L207.67 442.427V737.667H391.13" fill="white"/>
<path d="M391.37 290.777L207.67 442.427V737.667H391.13" stroke="#4A4A4A" stroke-width="2.5" stroke-linecap="square" stroke-linejoin="round"/>
<path d="M391.131 647.187V290.777L450.361 442.427V737.667H391.131" stroke="#4A4A4A" stroke-width="2.5" stroke-linecap="square" stroke-linejoin="round"/>
<path d="M450.359 478.578H538.469" stroke="#4A4A4A" stroke-width="2.5" stroke-linecap="square" stroke-linejoin="round"/>
<path d="M389.689 662.27V699.289" stroke="#4A4A4A" stroke-width="2.5" stroke-linecap="square" stroke-linejoin="round"/>
<path d="M657.67 737.67C657.67 737.67 633 610.18 679.81 489C713 402.94 805 356.84 888.14 356.84L888.86 735.61" fill="white"/>
<path d="M657.67 737.67C657.67 737.67 633 610.18 679.81 489C713 402.94 805 356.84 888.14 356.84L888.86 735.61" stroke="#4A4A4A" stroke-width="2.5" stroke-linecap="square" stroke-linejoin="round"/>
<path d="M764.85 737.671C764.85 737.671 751.6 610.181 776.73 489.001C794.55 403.001 843.9 356.891 888.48 356.891L888.86 735.661" fill="#EBEBEB"/>
<path d="M800.199 422.67C823.639 379.49 857.199 356.84 888.479 356.84L888.859 735.61" stroke="#4A4A4A" stroke-width="2.5" stroke-linecap="round" stroke-linejoin="round"/>
<path d="M792.15 439.258C793.33 436.524 794.547 433.858 795.8 431.258" stroke="#4A4A4A" stroke-width="2.5" stroke-linecap="round" stroke-linejoin="round"/>
<path d="M764.849 737.668C764.849 737.668 761.589 706.278 761.369 659.828" stroke="#4A4A4A" stroke-width="2.5" stroke-linecap="square" stroke-linejoin="round"/>
<path d="M928.5 325.051H915.5V356.581H928.5V325.051Z" fill="#EBEBEB"/>
<path d="M963.17 325.051H950.17V356.581H963.17V325.051Z" fill="#EBEBEB"/>
<path d="M997.84 325.051H984.84V356.581H997.84V325.051Z" fill="#EBEBEB"/>
<path d="M1032.51 325.051H1019.51V356.581H1032.51V325.051Z" fill="#EBEBEB"/>
<path d="M928.5 374.398H915.5V407.298H928.5V374.398Z" fill="#EBEBEB"/>
<path d="M963.17 374.398H950.17V407.298H963.17V374.398Z" fill="#EBEBEB"/>
<path d="M997.84 374.398H984.84V407.298H997.84V374.398Z" fill="#EBEBEB"/>
<path d="M1032.51 374.398H1019.51V407.298H1032.51V374.398Z" fill="#EBEBEB"/>
<path d="M928.5 431.969H915.5V463.499H928.5V431.969Z" fill="#EBEBEB"/>
<path d="M963.17 431.969H950.17V463.499H963.17V431.969Z" fill="#EBEBEB"/>
<path d="M997.84 431.969H984.84V463.499H997.84V431.969Z" fill="#EBEBEB"/>
<path d="M1032.51 431.969H1019.51V463.499H1032.51V431.969Z" fill="#EBEBEB"/>
<path d="M928.5 485.438H915.5V518.338H928.5V485.438Z" fill="#EBEBEB"/>
<path d="M963.17 485.438H950.17V518.338H963.17V485.438Z" fill="#EBEBEB"/>
<path d="M997.84 485.438H984.84V518.338H997.84V485.438Z" fill="#EBEBEB"/>
<path d="M1032.51 485.438H1019.51V518.338H1032.51V485.438Z" fill="#EBEBEB"/>
<path d="M928.5 543.008H915.5V575.908H928.5V543.008Z" fill="#EBEBEB"/>
<path d="M963.17 543.008H950.17V575.908H963.17V543.008Z" fill="#EBEBEB"/>
<path d="M997.84 543.008H984.84V575.908H997.84V543.008Z" fill="#EBEBEB"/>
<path d="M1032.51 543.008H1019.51V575.908H1032.51V543.008Z" fill="#EBEBEB"/>
<path d="M928.5 599.207H915.5V632.107H928.5V599.207Z" fill="#EBEBEB"/>
<path d="M963.17 599.207H950.17V632.107H963.17V599.207Z" fill="#EBEBEB"/>
<path d="M997.84 599.207H984.84V632.107H997.84V599.207Z" fill="#EBEBEB"/>
<path d="M1032.51 599.207H1019.51V632.107H1032.51V599.207Z" fill="#EBEBEB"/>
<path d="M928.5 652.68H915.5V685.58H928.5V652.68Z" fill="#EBEBEB"/>
<path d="M963.17 652.68H950.17V685.58H963.17V652.68Z" fill="#EBEBEB"/>
<path d="M997.84 652.68H984.84V685.58H997.84V652.68Z" fill="#EBEBEB"/>
<path d="M1032.51 652.68H1019.51V685.58H1032.51V652.68Z" fill="#EBEBEB"/>
<path d="M261.961 502.148H244.631V535.048H261.961V502.148Z" fill="#EBEBEB"/>
<path d="M308.18 502.148H290.85V535.048H308.18V502.148Z" fill="#EBEBEB"/>
<path d="M354.41 502.148H338.52V535.048H354.41V502.148Z" fill="#EBEBEB"/>
<path d="M261.961 559.719H244.631V592.619H261.961V559.719Z" fill="#EBEBEB"/>
<path d="M308.18 559.719H290.85V592.619H308.18V559.719Z" fill="#EBEBEB"/>
<path d="M354.41 559.719H338.52V592.619H354.41V559.719Z" fill="#EBEBEB"/>
<path d="M261.961 615.918H244.631V648.818H261.961V615.918Z" fill="#EBEBEB"/>
<path d="M308.18 615.918H290.85V648.818H308.18V615.918Z" fill="#EBEBEB"/>
<path d="M354.41 615.918H338.52V648.818H354.41V615.918Z" fill="#EBEBEB"/>
<path d="M261.961 669.391H244.631V702.291H261.961V669.391Z" fill="#EBEBEB"/>
<path d="M308.18 669.391H290.85V702.291H308.18V669.391Z" fill="#EBEBEB"/>
<path d="M354.41 669.391H338.52V702.291H354.41V669.391Z" fill="#EBEBEB"/>
<path d="M888.051 735.607V308.598L1058.51 147.188V737.667" stroke="#4A4A4A" stroke-width="2.5" stroke-linecap="square" stroke-linejoin="round"/>
<path d="M307.4 269.272C307.4 269.272 298 255.102 284.57 255.102H242.85L256.23 268.482H291.65" stroke="#4A4A4A" stroke-width="1.2" stroke-linecap="round" stroke-linejoin="round"/>
<path d="M279.06 276.349L273.55 281.079H243.64L224.35 261.789" stroke="#4A4A4A" stroke-width="1.2" stroke-linecap="round" stroke-linejoin="round"/>
<path d="M221.599 252H207.429C207.429 252 201.919 260.66 208.999 267H221.599" stroke="#4A4A4A" stroke-width="1.2" stroke-linecap="round" stroke-linejoin="round"/>
<path d="M184.6 259.559H125.83" stroke="#4A4A4A" stroke-width="1.2" stroke-linecap="round" stroke-linejoin="round"/>
<path d="M197.19 266.91H172.01" stroke="#4A4A4A" stroke-width="1.2" stroke-linecap="round" stroke-linejoin="round"/>
<path d="M307.4 269.272C307.4 269.272 298 255.102 284.57 255.102H242.85L256.23 268.482H291.65" stroke="#FF9500" stroke-width="2.5" stroke-linecap="round" stroke-linejoin="round"/>
<path d="M307.4 269.272C307.4 269.272 298 255.102 284.57 255.102H242.85L256.23 268.482H291.65" stroke="#FF9500" stroke-width="2.5" stroke-linecap="round" stroke-linejoin="round"/>
<path d="M279.06 276.349L273.55 281.079H243.64L224.35 261.789" stroke="#FF9500" stroke-width="2.5" stroke-linecap="round" stroke-linejoin="round"/>
<path d="M279.06 276.349L273.55 281.079H243.64L224.35 261.789" stroke="#FF9500" stroke-width="2.5" stroke-linecap="round" stroke-linejoin="round"/>
<path d="M221.599 252H207.429C207.429 252 201.919 260.66 208.999 267H221.599" stroke="#FF9500" stroke-width="2.5" stroke-linecap="round" stroke-linejoin="round"/>
<path d="M221.599 252H207.429C207.429 252 201.919 260.66 208.999 267H221.599" stroke="#FF9500" stroke-width="2.5" stroke-linecap="round" stroke-linejoin="round"/>
<path d="M184.6 259.559H125.83" stroke="#FF9500" stroke-width="2.5" stroke-linecap="round" stroke-linejoin="round"/>
<path d="M184.6 259.559H125.83" stroke="#FF9500" stroke-width="2.5" stroke-linecap="round" stroke-linejoin="round"/>
<path d="M197.19 266.91H172.01" stroke="#FF9500" stroke-width="2.5" stroke-linecap="round" stroke-linejoin="round"/>
<path d="M197.19 266.91H172.01" stroke="#FF9500" stroke-width="2.5" stroke-linecap="round" stroke-linejoin="round"/>
<path d="M840.16 109.447C840.16 109.447 849.61 95.2773 863 95.2773H904.72L891.34 108.657H855.91" stroke="#4A4A4A" stroke-width="1.2" stroke-linecap="round" stroke-linejoin="round"/>
<path d="M868.5 116.529L874.01 121.259H903.92L923.21 101.969" stroke="#4A4A4A" stroke-width="1.2" stroke-linecap="round" stroke-linejoin="round"/>
<path d="M926 92.1289H940.17C940.17 92.1289 945.67 100.789 938.59 107.129H926" stroke="#4A4A4A" stroke-width="1.2" stroke-linecap="round" stroke-linejoin="round"/>
<path d="M962.961 99.7383H1021.74" stroke="#4A4A4A" stroke-width="1.2" stroke-linecap="round" stroke-linejoin="round"/>
<path d="M950.371 107.09H975.561" stroke="#4A4A4A" stroke-width="1.2" stroke-linecap="round" stroke-linejoin="round"/>
<path d="M840.16 109.447C840.16 109.447 849.61 95.2773 863 95.2773H904.72L891.34 108.657H855.91" stroke="#FF9500" stroke-width="2.5" stroke-linecap="round" stroke-linejoin="round"/>
<path d="M840.16 109.447C840.16 109.447 849.61 95.2773 863 95.2773H904.72L891.34 108.657H855.91" stroke="#FF9500" stroke-width="2.5" stroke-linecap="round" stroke-linejoin="round"/>
<path d="M868.5 116.529L874.01 121.259H903.92L923.21 101.969" stroke="#FF9500" stroke-width="2.5" stroke-linecap="round" stroke-linejoin="round"/>
<path d="M868.5 116.529L874.01 121.259H903.92L923.21 101.969" stroke="#FF9500" stroke-width="2.5" stroke-linecap="round" stroke-linejoin="round"/>
<path d="M926 92.1289H940.17C940.17 92.1289 945.67 100.789 938.59 107.129H926" stroke="#FF9500" stroke-width="2.5" stroke-linecap="round" stroke-linejoin="round"/>
<path d="M926 92.1289H940.17C940.17 92.1289 945.67 100.789 938.59 107.129H926" stroke="#FF9500" stroke-width="2.5" stroke-linecap="round" stroke-linejoin="round"/>
<path d="M962.961 99.7383H1021.74" stroke="#FF9500" stroke-width="2.5" stroke-linecap="round" stroke-linejoin="round"/>
<path d="M962.961 99.7383H1021.74" stroke="#FF9500" stroke-width="2.5" stroke-linecap="round" stroke-linejoin="round"/>
<path d="M950.371 107.09H975.561" stroke="#FF9500" stroke-width="2.5" stroke-linecap="round" stroke-linejoin="round"/>
<path d="M950.371 107.09H975.561" stroke="#FF9500" stroke-width="2.5" stroke-linecap="round" stroke-linejoin="round"/>
<path d="M529.788 530.109C529.958 530.79 529.971 531.5 529.825 532.186C529.68 532.872 529.38 533.516 528.948 534.069C528.516 534.621 527.963 535.068 527.332 535.375C526.702 535.682 526.009 535.841 525.308 535.839H466.208C465.57 535.851 464.938 535.714 464.363 535.437C463.788 535.161 463.286 534.753 462.897 534.248C462.508 533.742 462.243 533.152 462.123 532.526C462.004 531.899 462.032 531.253 462.208 530.639L473.398 491.859H520.258L529.788 530.109Z" fill="#EBEBEB"/>
<path d="M529.788 530.109C529.958 530.79 529.971 531.5 529.825 532.186C529.68 532.872 529.38 533.516 528.948 534.069C528.516 534.621 527.963 535.068 527.332 535.375C526.702 535.682 526.009 535.841 525.308 535.839H466.208C465.57 535.851 464.938 535.714 464.363 535.437C463.788 535.161 463.286 534.753 462.897 534.248C462.508 533.742 462.243 533.152 462.123 532.526C462.004 531.899 462.032 531.253 462.208 530.639L473.398 491.859H520.258L529.788 530.109Z" stroke="#4A4A4A" stroke-width="4" stroke-miterlimit="10"/>
<path d="M506.679 502.771H486.839C466.099 502.771 458.389 485.961 458.389 465.221V324.751C458.389 314.795 462.344 305.246 469.384 298.206C476.424 291.166 485.972 287.211 495.929 287.211V287.211C505.885 287.211 515.433 291.166 522.473 298.206C529.514 305.246 533.469 314.795 533.469 324.751V465.221C533.469 486.001 527.409 502.771 506.679 502.771Z" fill="#EBEBEB"/>
<path d="M506.679 502.771H486.839C466.099 502.771 458.389 485.961 458.389 465.221V324.751C458.389 314.795 462.344 305.246 469.384 298.206C476.424 291.166 485.972 287.211 495.929 287.211V287.211C505.885 287.211 515.433 291.166 522.473 298.206C529.514 305.246 533.469 314.795 533.469 324.751V465.221C533.469 486.001 527.409 502.771 506.679 502.771Z" stroke="#4A4A4A" stroke-width="4" stroke-miterlimit="10"/>
<path d="M640.998 592.678V803.998H651.388C656.958 803.998 662.299 806.211 666.237 810.149C670.176 814.087 672.388 819.429 672.388 824.998V834.848H495.178V803.998V534.668L493.278 530.108C492.777 528.904 492.519 527.613 492.518 526.308V464.418L488.518 457.178C485.557 451.802 484.002 445.766 483.998 439.628V346.538C483.998 339.933 485.299 333.392 487.827 327.289C490.355 321.187 494.06 315.642 498.731 310.971C503.401 306.3 508.946 302.595 515.049 300.067C521.152 297.539 527.693 296.238 534.298 296.238H627.958C634.564 296.237 641.105 297.537 647.209 300.064C653.312 302.592 658.857 306.297 663.528 310.968C668.199 315.639 671.905 321.184 674.432 327.288C676.959 333.391 678.259 339.932 678.258 346.538V530.408H671.358V567.128C671.358 573.905 668.666 580.403 663.875 585.195C659.083 589.986 652.584 592.678 645.808 592.678H640.998Z" fill="white"/>
<path d="M574.998 296.238H534.278C520.943 296.244 508.156 301.544 498.727 310.974C489.299 320.405 484.001 333.193 483.998 346.528V439.628C484.002 445.766 485.557 451.802 488.518 457.178L492.518 464.418V526.308C492.518 527.613 492.776 528.904 493.278 530.108L495.178 534.668V803.998H640.998V530.408H678.258V346.528C678.255 333.197 672.96 320.411 663.536 310.981C654.112 301.552 641.33 296.249 627.998 296.238H574.998Z" stroke="#4A4A4A" stroke-width="4" stroke-linecap="round" stroke-linejoin="round"/>
<path d="M640.998 592.678H645.788C649.143 592.679 652.465 592.02 655.565 590.737C658.665 589.454 661.481 587.573 663.854 585.201C666.227 582.829 668.109 580.013 669.393 576.914C670.677 573.815 671.338 570.493 671.338 567.138V530.418H640.998V592.678Z" stroke="#4A4A4A" stroke-width="2.5" stroke-linecap="round" stroke-linejoin="round"/>
<path d="M647.908 369.676V528.776H492.498" stroke="#4A4A4A" stroke-width="2.5" stroke-linecap="round" stroke-linejoin="round"/>
<path d="M634.647 481.998C634.045 484.032 632.659 485.744 630.795 486.756C628.931 487.769 626.741 488 624.707 487.398L580.787 474.398C578.753 473.796 577.042 472.41 576.029 470.546C575.016 468.682 574.785 466.492 575.387 464.458L603.057 370.998C603.659 368.964 605.045 367.253 606.909 366.24C608.773 365.227 610.963 364.996 612.997 365.598L656.907 378.598C658.941 379.2 660.653 380.586 661.665 382.45C662.678 384.314 662.909 386.504 662.307 388.538L634.647 481.998Z" fill="#FF9500" stroke="#4A4A4A" stroke-width="2.5" stroke-linecap="round" stroke-linejoin="round"/>
<path d="M620.506 439.108L616.186 437.828L618.276 430.768L615.046 429.818C614.796 429.738 614.786 429.958 614.736 430.118L612.736 436.818L608.416 435.538C609.126 433.158 609.826 430.778 610.546 428.348L601.996 425.808C601.988 425.765 601.988 425.721 601.996 425.678C602.736 424.158 603.476 422.678 604.206 421.138C604.316 420.908 604.456 420.968 604.616 421.018L607.256 421.798C607.491 421.907 607.748 421.959 608.007 421.95C608.265 421.941 608.518 421.872 608.745 421.747C608.972 421.623 609.166 421.447 609.312 421.233C609.458 421.019 609.552 420.774 609.586 420.518L615.066 401.998C615.175 401.708 615.222 401.4 615.206 401.091C615.189 400.782 615.109 400.48 614.97 400.204C614.831 399.928 614.636 399.683 614.398 399.486C614.16 399.289 613.884 399.143 613.586 399.058C612.896 398.818 612.186 398.608 611.476 398.388C611.056 398.248 610.616 398.128 610.186 397.998L611.546 393.418L620.156 395.968L622.246 388.918L626.566 390.198C625.9 392.391 625.233 394.588 624.566 396.788C624.486 397.048 624.566 397.158 624.806 397.228C625.556 397.418 626.306 397.638 627.056 397.838L627.866 398.088C627.901 398.044 627.931 397.997 627.956 397.948C628.623 395.708 629.29 393.461 629.956 391.208L634.276 392.488C634.226 392.638 634.166 392.778 634.126 392.928L632.356 398.928C632.156 399.618 632.156 399.608 632.836 399.928C634.71 400.636 636.454 401.649 637.996 402.928C638.718 403.51 639.317 404.23 639.758 405.045C640.199 405.861 640.474 406.755 640.566 407.678C640.661 409.065 640.442 410.456 639.926 411.748C639.568 412.8 638.944 413.742 638.116 414.483C637.287 415.224 636.282 415.739 635.196 415.978L634.666 416.108L634.856 416.278C635.548 416.743 636.216 417.244 636.856 417.778C637.588 418.412 638.167 419.202 638.553 420.09C638.939 420.978 639.121 421.941 639.086 422.908C638.972 424.935 638.354 426.901 637.286 428.628C636.432 430.153 635.115 431.368 633.526 432.098C631.69 432.871 629.682 433.144 627.706 432.888C626.136 432.738 624.566 432.398 623.006 432.118C622.676 432.058 622.546 432.118 622.466 432.458C622.316 433.028 622.136 433.598 621.966 434.168L620.506 439.108ZM616.506 424.538C617.836 424.938 619.086 425.348 620.366 425.678C622.082 426.186 623.869 426.409 625.656 426.338C626.791 426.354 627.895 425.972 628.776 425.258C629.181 424.893 629.509 424.45 629.74 423.956C629.972 423.463 630.102 422.928 630.125 422.383C630.147 421.839 630.061 421.295 629.87 420.784C629.68 420.273 629.39 419.805 629.016 419.408C627.855 418.215 626.42 417.323 624.836 416.808C623.166 416.228 621.456 415.748 619.776 415.208C619.406 415.078 619.266 415.208 619.156 415.538C618.326 418.398 617.476 421.248 616.636 424.108L616.506 424.538ZM621.866 406.428C621.476 407.758 621.076 409.088 620.686 410.428C620.626 410.638 620.586 410.788 620.866 410.878C622.998 411.642 625.226 412.104 627.486 412.248C628.646 412.322 629.795 411.989 630.736 411.308C631.43 410.696 631.886 409.86 632.024 408.946C632.163 408.032 631.976 407.098 631.496 406.308C630.662 405.141 629.478 404.269 628.116 403.818C626.596 403.238 625.016 402.818 623.476 402.288C623.176 402.188 623.086 402.288 623.016 402.578C622.616 403.818 622.236 405.128 621.846 406.428H621.866Z" fill="white"/>
<path d="M571.998 443.659L601.998 427.829C603.498 427.037 605.154 426.585 606.848 426.508C608.543 426.431 610.233 426.729 611.799 427.382C613.364 428.035 614.766 429.026 615.903 430.284C617.041 431.542 617.886 433.036 618.378 434.659L623.578 451.819C624.063 453.422 624.192 455.111 623.956 456.768C623.72 458.426 623.125 460.012 622.213 461.415C621.301 462.819 620.093 464.007 618.674 464.895C617.255 465.784 615.659 466.352 613.998 466.559L571.998 471.999" fill="white"/>
<path d="M571.998 443.659L601.998 427.829C603.498 427.037 605.154 426.585 606.848 426.508C608.543 426.431 610.233 426.729 611.799 427.382C613.364 428.035 614.766 429.026 615.903 430.284C617.041 431.542 617.886 433.036 618.378 434.659L623.578 451.819C624.063 453.422 624.192 455.111 623.956 456.768C623.72 458.426 623.125 460.012 622.213 461.415C621.301 462.819 620.093 464.007 618.674 464.895C617.255 465.784 615.659 466.352 613.998 466.559L571.998 471.999" stroke="#4A4A4A" stroke-width="2.5" stroke-linecap="round" stroke-linejoin="round"/>
<path d="M576.059 569.797V803.967" stroke="#4A4A4A" stroke-width="2.5" stroke-linecap="round" stroke-linejoin="round"/>
<path d="M532.498 388.176V422.506C532.498 426.423 534.054 430.18 536.824 432.95C539.594 435.72 543.351 437.276 547.268 437.276H571.998V475.996H511.338C503.338 475.996 495.398 469.176 492.658 463.646" stroke="#4A4A4A" stroke-width="2.5" stroke-linecap="round" stroke-linejoin="round"/>
<path d="M606.659 281.336C593.659 289.336 583.769 289.856 570.209 281.336Z" fill="white"/>
<path d="M606.659 281.336C593.659 289.336 583.769 289.856 570.209 281.336" stroke="#4A4A4A" stroke-width="1.5" stroke-linecap="round" stroke-linejoin="round"/>
<path d="M597.078 256.058C597.078 252.952 598.312 249.973 600.508 247.777C602.704 245.581 605.682 244.348 608.788 244.348C611.894 244.348 614.872 245.581 617.068 247.777C619.264 249.973 620.498 252.952 620.498 256.058" fill="white"/>
<path d="M597.078 256.058C597.078 252.952 598.312 249.973 600.508 247.777C602.704 245.581 605.682 244.348 608.788 244.348C611.894 244.348 614.872 245.581 617.068 247.777C619.264 249.973 620.498 252.952 620.498 256.058" stroke="#4A4A4A" stroke-width="1.5" stroke-linecap="round" stroke-linejoin="round"/>
<path d="M558.488 256.057C558.577 253.01 559.851 250.117 562.038 247.992C564.225 245.868 567.154 244.68 570.203 244.68C573.252 244.68 576.181 245.868 578.369 247.992C580.556 250.117 581.829 253.01 581.918 256.057" fill="white"/>
<path d="M558.488 256.057C558.577 253.01 559.851 250.117 562.038 247.992C564.225 245.868 567.154 244.68 570.203 244.68C573.252 244.68 576.181 245.868 578.369 247.992C580.556 250.117 581.829 253.01 581.918 256.057" stroke="#4A4A4A" stroke-width="1.5" stroke-linecap="round" stroke-linejoin="round"/>
<path d="M672.399 824.996V834.846H590.449V824.996C590.45 820.778 589.182 816.656 586.807 813.169C584.433 809.682 581.064 806.991 577.139 805.446V803.996H651.379C654.138 803.993 656.871 804.535 659.421 805.589C661.971 806.643 664.289 808.189 666.241 810.14C668.193 812.09 669.742 814.406 670.798 816.955C671.855 819.504 672.399 822.237 672.399 824.996V824.996Z" stroke="#4A4A4A" stroke-width="4" stroke-linecap="round" stroke-linejoin="round"/>
<path d="M495.178 803.996H569.418C574.987 803.996 580.329 806.209 584.267 810.147C588.205 814.085 590.418 819.427 590.418 824.996V834.846H495.178V803.996Z" stroke="#4A4A4A" stroke-width="4" stroke-linecap="round" stroke-linejoin="round"/>
<path d="M496.258 207.689C496.258 165.579 526.108 135.949 568.258 135.949H583.998C626.108 135.949 664.538 165.579 664.538 207.689V287.689C664.538 312.589 626.208 334.259 579.738 334.259C533.268 334.259 496.258 312.589 496.258 287.689V207.689Z" stroke="#4A4A4A" stroke-width="4" stroke-linecap="round" stroke-linejoin="round"/>
<path d="M529.316 279.33C529.316 299.16 546.666 316.24 566.496 316.24H590.626C610.466 316.24 625.466 299.16 625.466 279.33V226.89C625.466 219.356 622.473 212.129 617.145 206.802C611.817 201.474 604.591 198.48 597.056 198.48H557.726C550.192 198.48 542.965 201.474 537.638 206.802C532.31 212.129 529.316 219.356 529.316 226.89V279.33Z" fill="white"/>
<path d="M529.316 242.619V279.329C529.316 299.159 546.666 316.239 566.496 316.239H590.626C610.466 316.239 625.466 299.159 625.466 279.329V236.609" stroke="#4A4A4A" stroke-width="4" stroke-linecap="round" stroke-linejoin="round"/>
<path d="M529.316 279.33C529.316 299.16 546.666 316.24 566.496 316.24H590.626C610.466 316.24 625.466 299.16 625.466 279.33V226.89C625.466 219.356 622.473 212.129 617.145 206.802C611.817 201.474 604.591 198.48 597.056 198.48H557.726C550.192 198.48 542.965 201.474 537.638 206.802C532.31 212.129 529.316 219.356 529.316 226.89V279.33Z" stroke="#494949" stroke-width="4" stroke-linecap="round" stroke-linejoin="round"/>
<path d="M529.316 242.619V279.329C529.316 299.159 546.666 316.239 566.496 316.239H590.626C610.466 316.239 625.466 299.159 625.466 279.329V236.609" stroke="#494949" stroke-width="4" stroke-linecap="round" stroke-linejoin="round"/>
<path d="M612.268 252.223C612.268 249.57 611.214 247.027 609.339 245.152C607.463 243.276 604.92 242.223 602.268 242.223C599.615 242.223 597.072 243.276 595.196 245.152C593.321 247.027 592.268 249.57 592.268 252.223" stroke="#4A4A4A" stroke-width="2.5" stroke-linecap="round" stroke-linejoin="round"/>
<path d="M574.297 252.223C574.297 249.57 573.243 247.027 571.368 245.152C569.493 243.276 566.949 242.223 564.297 242.223C561.645 242.223 559.101 243.276 557.226 245.152C555.35 247.027 554.297 249.57 554.297 252.223" stroke="#4A4A4A" stroke-width="2.5" stroke-linecap="round" stroke-linejoin="round"/>
<path d="M600.497 281.191C580.117 300.261 562.688 281.191 562.688 281.191" stroke="#4A4A4A" stroke-width="2.5" stroke-linecap="round" stroke-linejoin="round"/>
<path d="M564.187 161.641C581.187 159.131 592.547 163.111 607.757 172.161C619.547 179.161 630.217 166.161 630.217 166.161C638.737 189.691 631.477 234.941 625.467 242.761V228.761C625.467 218.871 619.527 203.951 610.767 205.761C581.107 211.761 577.157 190.591 547.857 204.391C540.167 208.011 538.037 221.531 536.137 232.621C535.297 237.621 530.367 246.701 530.367 246.701V247.831C524.297 238.831 522.137 211.331 524.827 196.971C527.667 181.901 538.467 165.421 564.187 161.641Z" fill="#EBEBEB"/>
<path d="M564.187 161.641C581.187 159.131 592.547 163.111 607.757 172.161C619.547 179.161 630.217 166.161 630.217 166.161C638.737 189.691 631.477 234.941 625.467 242.761V228.761C625.467 218.871 619.527 203.951 610.767 205.761C581.107 211.761 577.157 190.591 547.857 204.391C540.167 208.011 538.037 221.531 536.137 232.621C535.297 237.621 530.367 246.701 530.367 246.701V247.831C524.297 238.831 522.137 211.331 524.827 196.971C527.667 181.901 538.467 165.421 564.187 161.641Z" stroke="#4A4A4A" stroke-width="4" stroke-linecap="round" stroke-linejoin="round"/>
<path d="M564.187 161.641C581.187 159.131 592.547 163.111 607.757 172.161C619.547 179.161 630.217 166.161 630.217 166.161C638.737 189.691 631.477 234.941 625.467 242.761V228.761C625.467 218.871 619.527 203.951 610.767 205.761C581.107 211.761 577.157 190.591 547.857 204.391C540.167 208.011 538.037 221.531 536.137 232.621C535.297 237.621 530.367 246.701 530.367 246.701V247.831C524.297 238.831 522.137 211.331 524.827 196.971C527.667 181.901 538.467 165.421 564.187 161.641Z" stroke="#494949" stroke-width="4" stroke-linecap="round" stroke-linejoin="round"/>
<path d="M564.187 161.641C581.187 159.131 592.547 163.111 607.757 172.161C619.547 179.161 630.217 166.161 630.217 166.161C638.737 189.691 631.477 234.941 625.467 242.761V228.761C625.467 218.871 619.527 203.951 610.767 205.761C581.107 211.761 577.157 190.591 547.857 204.391C540.167 208.011 538.037 221.531 536.137 232.621C535.297 237.621 530.367 246.701 530.367 246.701V247.831C524.297 238.831 522.137 211.331 524.827 196.971C527.667 181.901 538.467 165.421 564.187 161.641Z" stroke="#494949" stroke-width="4" stroke-linecap="round" stroke-linejoin="round"/>
<path d="M72.1094 738.949H492.499" stroke="#4A4A4A" stroke-width="4" stroke-linecap="round" stroke-linejoin="round"/>
<path d="M641.639 738.949H1354.54" stroke="#4A4A4A" stroke-width="4" stroke-linecap="round" stroke-linejoin="round"/>
<path d="M849 417.5L765.34 499.83L729 465.58" stroke="#FF9500" stroke-width="20" stroke-linecap="round" stroke-linejoin="round"/>
<path d="M1094.62 388.59L1163.33 351.84V579.33" stroke="#4A4A4A" stroke-width="2.5" stroke-linecap="round" stroke-linejoin="round"/>
<path d="M1142.67 565.539L1198 610.659V686.889L1142.67 644.669" stroke="#4A4A4A" stroke-width="2.5" stroke-linecap="round" stroke-linejoin="round"/>
<path d="M1112.24 622.129L1267.33 738.149H1151.15" fill="white"/>
<path d="M1112.24 622.129L1267.33 738.149H1151.15" stroke="#4A4A4A" stroke-width="2.5" stroke-linecap="round" stroke-linejoin="round"/>
</svg>
