<?xml version="1.0" encoding="UTF-8"?>
<svg id="Layer_1" data-name="Layer 1" xmlns="http://www.w3.org/2000/svg" viewBox="0 0 385.82 538.58">
  <defs>
    <style>
      .cls-1 {
        fill: #ff8c3b;
      }

      .cls-2 {
        fill: #8b8b8b;
      }

      .cls-3 {
        fill: #333;
      }
    </style>
  </defs>
  <path class="cls-3" d="m385.82,192.91c0,5.86-.26,11.66-.78,17.39-5.77,64.57-43.35,119.99-96.97,150.46-5.02,2.85-8.09,8.2-8.09,13.97v18.07c0,4.37-2.51,8.39-6.48,10.22-24.53,11.29-51.82,17.59-80.59,17.59-21.78,0-42.73-3.61-62.26-10.27-2.2-.75-3.39-3.13-2.62-5.33l9.55-27.24c17.52,5.24,36.11,8.06,55.34,8.06,15.45,0,30.46-1.82,44.86-5.25,3.42-.81,5.83-3.87,5.83-7.39v-17.22c0-10,5.76-19.1,14.81-23.35,47.46-22.28,81.71-68.04,87.8-122.32.65-5.7.97-11.51.97-17.39,0-47.03-21.04-89.13-54.22-117.42-2.45-2.09-3.3-5.49-2.13-8.48l1.76-4.5,7.31-18.64c1.82-4.64,7.6-6.24,11.52-3.18,45.27,35.3,74.39,90.36,74.39,152.22Z"/>
  <path class="cls-3" d="m266.9,14.71c2.06.86,2.93,3.31,1.84,5.26l-13.95,24.97-2.99,5.35c-18.14-7.51-38.04-11.64-58.89-11.64-85.21,0-154.29,69.06-154.29,154.27,0,5.87.33,11.68.97,17.39,5.37,47.88,32.65,89.12,71.58,113.47,3.03,1.89,4.32,5.63,3.07,8.97l-8.38,22.33-.09.24c-1.64,4.37-6.83,6.18-10.85,3.8C42.81,328.33,6.44,273.73.78,210.3c-.47-5.29-.73-10.63-.77-16.03C-.72,89.47,83.36,2.59,188.13.06c27.96-.68,54.6,4.59,78.78,14.65Z"/>
  <path class="cls-3" d="m268.74,19.97l-59.2,147.41c-1.47,3.65,1.22,7.62,5.15,7.62h82.18c7.08,0,10.99,8.23,6.51,13.71l-174.54,213.96,56.78-160.79c1.29-3.66-1.42-7.51-5.3-7.52l-69.06-.23c-7.04-.02-10.9-8.21-6.45-13.66L268.74,19.97Z"/>
  <path class="cls-1" d="m268.74,19.97l-107.73,175.25c-2.3,3.75.39,8.57,4.79,8.57h76.78c4.4.01,7.08,4.84,4.75,8.57l-118.5,190.31,174.67-214.11c4.43-5.43.57-13.56-6.44-13.56h-82.3c-3.97,0-6.68-4.01-5.2-7.69l59.18-147.34Z"/>
  <g>
    <path class="cls-2" d="m269.84,426.03c-51.79,12.58-102.09,12.58-153.87,0-5.66-1.37-11.12,2.85-11.12,8.67v8.73c0,5.69,3.86,10.67,9.38,12.04,52.97,13.14,104.36,13.15,157.34,0,5.52-1.37,9.38-6.36,9.38-12.04v-8.73c0-5.82-5.46-10.05-11.12-8.67Z"/>
    <path class="cls-2" d="m271.18,467.82c-52.71,13.01-103.85,13.01-156.54,0-4.97-1.23-9.78,2.5-9.78,7.62v5.15c0,6.41,4.35,12.03,10.57,13.56,52.16,12.76,102.81,12.76,154.98,0,6.22-1.52,10.57-7.15,10.57-13.56v-5.15c0-5.12-4.81-8.85-9.78-7.62Z"/>
    <path class="cls-2" d="m243.77,512.33c-34.36,5.13-67.35,5.13-101.71,0-3.99-.6-7.58,2.48-7.58,6.52v5.72c0,5.19,3.79,9.62,8.93,10.37,33.43,4.87,65.59,4.87,99.02,0,5.13-.75,8.93-5.18,8.93-10.37v-5.72c0-4.03-3.59-7.11-7.58-6.52Z"/>
  </g>
</svg>