<svg width="1422" height="870" viewBox="0 0 1422 870" fill="none" xmlns="http://www.w3.org/2000/svg">
<path d="M533.369 636.34V622.65H756.569V723.45H742.489V640.26C742.489 639.221 742.076 638.224 741.341 637.489C740.606 636.753 739.609 636.34 738.569 636.34H533.369Z" fill="#EBEBEB"/>
<path d="M704.199 396.961H858.189" stroke="#4A4A4A" stroke-width="4" stroke-linecap="round" stroke-linejoin="round"/>
<path d="M668.529 407.15H725.139" stroke="#4A4A4A" stroke-width="4" stroke-linecap="round" stroke-linejoin="round"/>
<path d="M732.42 407.15H749.49" stroke="#4A4A4A" stroke-width="4" stroke-linecap="round" stroke-linejoin="round"/>
<path d="M704.199 493.201H839.689" stroke="#4A4A4A" stroke-width="4" stroke-linecap="round" stroke-linejoin="round"/>
<path d="M820.068 384.13V364.79C820.067 363.579 820.398 362.39 821.027 361.353C821.656 360.317 822.557 359.474 823.633 358.915C824.708 358.357 825.916 358.105 827.126 358.187C828.335 358.269 829.498 358.682 830.488 359.38L945.428 440.31V451.1L830.528 533.28C829.539 533.985 828.375 534.404 827.164 534.491C825.952 534.578 824.74 534.33 823.66 533.775C822.58 533.219 821.674 532.378 821.041 531.341C820.407 530.305 820.071 529.115 820.068 527.9V507.54" stroke="#4A4A4A" stroke-width="4" stroke-linecap="round" stroke-linejoin="round"/>
<path d="M1024.65 186.351C1027.03 183.401 1033.65 172.721 1050.54 179.691L1247.29 254.001C1250.1 255.064 1252.47 257.056 1254 259.647C1255.53 262.238 1256.13 265.273 1255.7 268.251L1191.58 712.701C1191.35 714.291 1190.74 715.802 1189.8 717.103C1188.85 718.405 1187.61 719.457 1186.17 720.171L1178.06 724.171" fill="#EBEBEB"/>
<path d="M1240.14 261.461C1242.62 262.135 1244.78 263.695 1246.19 265.846C1247.61 267.998 1248.19 270.592 1247.82 273.141L1184.71 715.001C1184.43 716.955 1183.68 718.812 1182.52 720.412C1181.36 722.011 1179.83 723.304 1178.06 724.181L1171.96 727.181C1169.74 728.286 1167.3 728.913 1164.82 729.022C1162.34 729.13 1159.86 728.718 1157.55 727.811L997.47 665.001C993.01 663.256 989.247 660.094 986.76 656.001L979.05 643.281C977.122 640.102 976.29 636.378 976.68 632.681L1023.45 189.841C1023.59 188.56 1024.03 187.331 1024.74 186.259C1025.46 185.186 1026.42 184.302 1027.54 183.68C1028.67 183.059 1029.93 182.719 1031.22 182.69C1032.51 182.66 1033.78 182.942 1034.94 183.511C1070.94 201.301 1063.86 198.221 1078.35 203.671C1079.54 204.118 1080.59 204.897 1081.36 205.915C1082.12 206.933 1082.59 208.149 1082.69 209.421L1083.34 217.601C1083.44 218.867 1083.9 220.079 1084.66 221.095C1085.43 222.11 1086.46 222.889 1087.65 223.341L1176.81 257.341C1178.3 257.909 1179.94 257.93 1181.44 257.401C1182.94 256.871 1184.21 255.826 1185.01 254.451L1187.01 251.061C1187.82 249.682 1189.09 248.637 1190.6 248.111C1192.1 247.585 1193.75 247.613 1195.24 248.191C1208 253.121 1202.32 251.181 1240.14 261.461Z" fill="white"/>
<path d="M1120.75 570.08L1102.08 562.29C1102.92 553.81 1103.77 545.317 1104.62 536.81L1092.73 531.81C1091.88 540.4 1091.04 548.81 1090.19 557.29L1071.52 549.5C1072.37 541.01 1073.21 532.5 1074.08 523.82L1034.6 507.34C1035.33 500.04 1036.04 492.94 1036.76 485.67C1037.38 485.93 1037.88 486.16 1038.39 486.36C1040.85 487.36 1043.3 488.36 1045.76 489.26C1050.02 490.76 1052.35 489.09 1053.01 484.2C1053.3 482.02 1053.61 479.85 1053.84 477.64C1056.51 451.107 1059.15 424.573 1061.77 398.04C1062.12 394.45 1062.41 390.83 1062.68 387.2C1063.04 382.25 1061.15 378.71 1056.99 376.66C1054.52 375.44 1051.99 374.45 1049.52 373.34C1049.02 373.12 1048.52 372.87 1048.04 372.64C1048.76 365.35 1049.47 358.26 1050.2 350.94L1089.67 367.41C1090.54 358.73 1091.38 350.29 1092.22 341.84L1110.89 349.63C1110.05 358.11 1109.2 366.607 1108.35 375.12L1120.24 380.12C1121.09 371.52 1121.93 363.07 1122.78 354.63L1141.45 362.42C1141.45 363.08 1141.37 363.76 1141.3 364.42C1140.56 371.89 1139.86 379.37 1139.04 386.8C1138.85 388.49 1139.04 389.46 1140.64 390.17C1141.88 390.798 1143.07 391.514 1144.21 392.31C1150.97 396.627 1156.76 402.304 1161.21 408.98C1167.39 418.24 1170.42 428.23 1169.9 438.83C1169.53 446.24 1167.31 452.23 1163.44 456.98C1158.29 463.3 1151.38 465.62 1143.56 465.85C1143 465.85 1142.45 465.92 1141.9 465.96C1142.25 466.556 1142.73 467.073 1143.29 467.48C1148.28 471.087 1152.76 475.349 1156.62 480.15C1162.73 487.83 1166.44 497.142 1167.28 506.92C1168.73 525.21 1162.53 537 1149.94 542.78C1142.35 546.26 1133.87 545.69 1125.13 543.49C1123.76 543.14 1123.38 543.49 1123.24 545.05C1122.47 553.42 1121.6 561.74 1120.75 570.08ZM1090.16 457.74C1090.09 458.25 1090.04 458.57 1090 458.9C1088.91 469.9 1087.79 480.9 1086.73 491.9C1086.5 494.28 1086.41 496.72 1086.38 499.16C1086.29 500.04 1086.47 500.927 1086.9 501.703C1087.32 502.479 1087.97 503.109 1088.76 503.51C1093.25 505.62 1097.76 507.75 1102.28 509.56C1106.13 511.099 1110.06 512.418 1114.06 513.51C1118.21 514.63 1122.06 514.3 1125.49 512.17C1129.9 509.41 1132.3 504.75 1133.15 498.46C1133.71 494.115 1133.22 489.7 1131.72 485.585C1130.21 481.471 1127.74 477.778 1124.51 474.82C1120.81 471.507 1116.59 468.834 1112.02 466.91C1105.16 463.83 1098.27 461.04 1091.39 458.13C1091 458 1090.65 457.89 1090.16 457.74ZM1092.51 434.61C1092.97 434.85 1093.33 435.08 1093.69 435.23C1098.27 437.15 1102.83 439.08 1107.41 440.94C1112.6 443.05 1117.81 445.04 1123.02 445.52C1127.12 445.89 1130.81 445.04 1133.51 441.87C1139.62 434.71 1138.51 418.57 1127.06 411C1124.34 409.157 1121.48 407.532 1118.51 406.14C1111.51 402.99 1104.51 400.14 1097.51 397.14C1097.14 396.99 1096.77 396.91 1096.33 396.78C1095 409.35 1093.78 421.87 1092.51 434.61Z" fill="#FF9500"/>
<path d="M1240.14 261.461C1242.62 262.135 1244.78 263.695 1246.19 265.846C1247.61 267.998 1248.19 270.592 1247.82 273.141L1184.71 715.001C1184.43 716.955 1183.68 718.812 1182.52 720.412C1181.36 722.011 1179.83 723.304 1178.06 724.181L1171.96 727.181C1169.74 728.286 1167.3 728.913 1164.82 729.022C1162.34 729.13 1159.86 728.718 1157.55 727.811L997.47 665.001C993.01 663.256 989.247 660.094 986.76 656.001L979.05 643.281C977.122 640.102 976.29 636.378 976.68 632.681L1023.45 189.841C1023.59 188.56 1024.03 187.331 1024.74 186.259C1025.46 185.186 1026.42 184.302 1027.54 183.68C1028.67 183.059 1029.93 182.719 1031.22 182.69C1032.51 182.66 1033.78 182.942 1034.94 183.511C1070.94 201.301 1063.86 198.221 1078.35 203.671C1079.54 204.118 1080.59 204.897 1081.36 205.915C1082.12 206.933 1082.59 208.149 1082.69 209.421L1083.34 217.601C1083.44 218.867 1083.9 220.079 1084.66 221.095C1085.43 222.11 1086.46 222.889 1087.65 223.341L1176.81 257.341C1178.3 257.909 1179.94 257.93 1181.44 257.401C1182.94 256.871 1184.21 255.826 1185.01 254.451L1187.01 251.061C1187.82 249.682 1189.09 248.637 1190.6 248.111C1192.1 247.585 1193.75 247.613 1195.24 248.191C1208 253.121 1202.32 251.181 1240.14 261.461Z" stroke="#4A4A4A" stroke-width="4" stroke-linecap="round" stroke-linejoin="round"/>
<path d="M1024.65 186.351C1027.03 183.401 1033.65 172.721 1050.54 179.691L1247.29 254.001C1250.1 255.064 1252.47 257.056 1254 259.647C1255.53 262.238 1256.13 265.273 1255.7 268.251L1191.58 712.701C1191.35 714.291 1190.74 715.802 1189.8 717.103C1188.85 718.405 1187.61 719.457 1186.17 720.171L1178.06 724.171" stroke="#4A4A4A" stroke-width="4" stroke-linecap="round" stroke-linejoin="round"/>
<path d="M1083.87 672.071C1090.06 669.541 1094.42 662.941 1094.62 654.491C1094.89 642.551 1086.74 631.491 1076.42 629.711C1066.1 627.931 1057.49 636.231 1057.22 648.171C1056.95 660.111 1065.1 671.171 1075.42 672.951C1078.26 673.454 1081.19 673.149 1083.87 672.071" fill="#EBEBEB"/>
<path d="M1083.1 672.34C1083.37 672.282 1083.62 672.191 1083.87 672.07" stroke="#4A4A4A" stroke-width="2.5" stroke-linecap="round" stroke-linejoin="round"/>
<path d="M1090.75 666.601C1093.25 663.054 1094.6 658.828 1094.62 654.491C1094.89 642.551 1086.74 631.491 1076.42 629.711C1066.1 627.931 1057.49 636.231 1057.22 648.171C1056.95 660.111 1065.1 671.171 1075.42 672.951C1076.97 673.216 1078.54 673.253 1080.1 673.061" stroke="#4A4A4A" stroke-width="2.5" stroke-linecap="round" stroke-linejoin="round"/>
<path d="M569.289 309.961H662.289" stroke="#4A4A4A" stroke-width="2.5" stroke-linecap="round" stroke-linejoin="round"/>
<path d="M536.629 317.32H629.629" stroke="#4A4A4A" stroke-width="2.5" stroke-linecap="round" stroke-linejoin="round"/>
<path d="M558.809 590.08H621.809" stroke="#4A4A4A" stroke-width="2.5" stroke-linecap="round" stroke-linejoin="round"/>
<path d="M512.32 590.08H535.32" stroke="#4A4A4A" stroke-width="2.5" stroke-linecap="round" stroke-linejoin="round"/>
<path d="M193.879 298.42H216.879" stroke="#4A4A4A" stroke-width="2.5" stroke-linecap="round" stroke-linejoin="round"/>
<path d="M382.869 688.061H405.869" stroke="#4A4A4A" stroke-width="2.5" stroke-linecap="round" stroke-linejoin="round"/>
<path d="M485.94 160.76H262.74V261.56H485.94V160.76Z" fill="white" stroke="#4A4A4A" stroke-width="4" stroke-linecap="round" stroke-linejoin="round"/>
<path d="M340.771 261.56C332.35 256.12 325.426 248.658 320.632 239.854C315.838 231.05 313.326 221.185 313.326 211.16C313.326 201.135 315.838 191.27 320.632 182.466C325.426 173.662 332.35 166.199 340.771 160.76" stroke="#4A4A4A" stroke-width="2.5" stroke-linecap="round" stroke-linejoin="round"/>
<path d="M405.881 160.76C414.302 166.199 421.225 173.662 426.02 182.466C430.814 191.27 433.326 201.135 433.326 211.16C433.326 221.185 430.814 231.05 426.02 239.854C421.225 248.658 414.302 256.12 405.881 261.56" stroke="#4A4A4A" stroke-width="2.5" stroke-linecap="round" stroke-linejoin="round"/>
<path d="M290.557 219.405C295.12 218.665 298.219 214.365 297.478 209.802C296.737 205.239 292.438 202.141 287.875 202.882C283.312 203.622 280.214 207.922 280.954 212.485C281.695 217.047 285.994 220.146 290.557 219.405Z" stroke="#4A4A4A" stroke-width="2.5" stroke-linecap="round" stroke-linejoin="round"/>
<path d="M459.989 219.397C464.552 218.657 467.65 214.357 466.91 209.795C466.169 205.232 461.87 202.133 457.307 202.874C452.744 203.614 449.645 207.914 450.386 212.477C451.127 217.04 455.426 220.138 459.989 219.397Z" stroke="#4A4A4A" stroke-width="2.5" stroke-linecap="round" stroke-linejoin="round"/>
<path d="M393.55 234.67C390.25 237.89 385.486 239.89 379.26 240.67V249.93H371V240.93C367.039 240.73 363.121 240.007 359.35 238.78C356.143 237.816 353.125 236.307 350.43 234.32L355 224.21C357.259 225.845 359.736 227.155 362.36 228.1C365.147 229.153 368.063 229.826 371.03 230.1V216.3C367.644 215.533 364.329 214.482 361.12 213.16C358.477 212.049 356.149 210.304 354.34 208.08C352.415 205.529 351.448 202.382 351.61 199.19C351.585 196.989 352.017 194.808 352.878 192.782C353.738 190.756 355.009 188.931 356.61 187.42C359.943 184.14 364.75 182.14 371.03 181.42V172.24H379.3V181.24C386.066 181.787 391.656 183.454 396.07 186.24L391.94 196.41C388.064 194.129 383.762 192.666 379.3 192.11V206.11C382.642 206.831 385.917 207.835 389.09 209.11C391.713 210.197 394.028 211.915 395.83 214.11C397.738 216.635 398.7 219.749 398.55 222.91C398.593 225.112 398.17 227.298 397.308 229.325C396.446 231.352 395.166 233.174 393.55 234.67ZM366.45 201.9C367.8 202.938 369.343 203.697 370.99 204.13V192.4C369.251 192.709 367.643 193.527 366.37 194.75C365.4 195.76 364.865 197.11 364.88 198.51C364.864 199.158 364.997 199.801 365.269 200.388C365.541 200.976 365.945 201.494 366.45 201.9V201.9ZM383.72 227.6C384.198 227.142 384.577 226.59 384.833 225.98C385.089 225.369 385.217 224.712 385.21 224.05C385.227 223.406 385.098 222.767 384.833 222.18C384.568 221.593 384.174 221.073 383.68 220.66C382.362 219.623 380.864 218.839 379.26 218.35V229.75C380.919 229.469 382.466 228.723 383.72 227.6V227.6Z" fill="#FF9500"/>
<path d="M297.309 335.98H74.1094V436.78H297.309V335.98Z" fill="white" stroke="#4A4A4A" stroke-width="4" stroke-linecap="round" stroke-linejoin="round"/>
<path d="M152.14 436.78C143.719 431.341 136.796 423.879 132.001 415.074C127.207 406.27 124.695 396.405 124.695 386.38C124.695 376.356 127.207 366.491 132.001 357.686C136.796 348.882 143.719 341.42 152.14 335.98" stroke="#4A4A4A" stroke-width="2.5" stroke-linecap="round" stroke-linejoin="round"/>
<path d="M217.25 336C225.671 341.439 232.595 348.902 237.389 357.706C242.183 366.51 244.695 376.375 244.695 386.4C244.695 396.425 242.183 406.29 237.389 415.094C232.595 423.898 225.671 431.361 217.25 436.8" stroke="#4A4A4A" stroke-width="2.5" stroke-linecap="round" stroke-linejoin="round"/>
<path d="M109 386.38C109.002 384.724 108.513 383.105 107.594 381.727C106.676 380.349 105.369 379.275 103.84 378.64C102.311 378.005 100.627 377.838 99.003 378.16C97.3787 378.481 95.8864 379.278 94.7148 380.448C93.5433 381.618 92.7451 383.11 92.4213 384.733C92.0976 386.357 92.2627 388.041 92.8959 389.571C93.5291 391.101 94.6019 392.409 95.9786 393.329C97.3553 394.249 98.9739 394.74 100.63 394.74C101.728 394.741 102.817 394.526 103.832 394.107C104.848 393.687 105.77 393.071 106.548 392.295C107.325 391.519 107.942 390.596 108.362 389.582C108.783 388.567 109 387.479 109 386.38V386.38Z" stroke="#4A4A4A" stroke-width="2.5" stroke-linecap="round" stroke-linejoin="round"/>
<path d="M278.369 386.38C278.371 384.724 277.881 383.104 276.962 381.726C276.044 380.348 274.736 379.274 273.207 378.639C271.677 378.004 269.993 377.838 268.368 378.16C266.744 378.483 265.252 379.28 264.08 380.452C262.909 381.623 262.112 383.115 261.789 384.74C261.467 386.364 261.633 388.048 262.268 389.578C262.903 391.107 263.977 392.415 265.355 393.334C266.733 394.253 268.353 394.742 270.009 394.74C272.226 394.74 274.353 393.859 275.92 392.291C277.488 390.724 278.369 388.597 278.369 386.38V386.38Z" stroke="#4A4A4A" stroke-width="2.5" stroke-linecap="round" stroke-linejoin="round"/>
<path d="M195.58 390.72H208V397.58H192.53V402.12H208V409H192.53V416.44H179.14V409H163.69V402.14H179.14V397.6H163.69V390.74H176.16L154.26 358.59H168.56L186.25 384.46L204.1 358.59H217.48L195.58 390.72Z" fill="#FF9500"/>
<path d="M617.438 399.941H394.238V500.741H617.438V399.941Z" fill="white" stroke="#4A4A4A" stroke-width="4" stroke-linecap="round" stroke-linejoin="round"/>
<path d="M472.257 500.741C463.836 495.302 456.913 487.839 452.119 479.035C447.324 470.231 444.812 460.366 444.812 450.341C444.812 440.317 447.324 430.452 452.119 421.647C456.913 412.843 463.836 405.381 472.257 399.941" stroke="#4A4A4A" stroke-width="2.5" stroke-linecap="round" stroke-linejoin="round"/>
<path d="M537.379 399.941C545.8 405.381 552.724 412.843 557.518 421.647C562.312 430.452 564.824 440.317 564.824 450.341C564.824 460.366 562.312 470.231 557.518 479.035C552.724 487.839 545.8 495.302 537.379 500.741" stroke="#4A4A4A" stroke-width="2.5" stroke-linecap="round" stroke-linejoin="round"/>
<path d="M429.068 450.341C429.068 448.685 428.577 447.066 427.657 445.69C426.737 444.313 425.429 443.24 423.899 442.607C422.369 441.974 420.685 441.808 419.062 442.132C417.438 442.456 415.946 443.254 414.776 444.426C413.606 445.597 412.81 447.09 412.488 448.714C412.166 450.338 412.333 452.021 412.968 453.551C413.603 455.08 414.678 456.386 416.055 457.305C417.433 458.223 419.052 458.713 420.708 458.711C421.807 458.711 422.895 458.494 423.91 458.073C424.925 457.653 425.847 457.036 426.623 456.259C427.399 455.481 428.015 454.558 428.435 453.543C428.854 452.528 429.069 451.439 429.068 450.341V450.341Z" stroke="#4A4A4A" stroke-width="2.5" stroke-linecap="round" stroke-linejoin="round"/>
<path d="M598.498 450.341C598.498 448.685 598.007 447.067 597.087 445.691C596.168 444.314 594.86 443.241 593.331 442.608C591.801 441.974 590.118 441.809 588.495 442.132C586.871 442.454 585.38 443.252 584.209 444.422C583.039 445.593 582.242 447.084 581.919 448.708C581.596 450.331 581.761 452.014 582.395 453.544C583.028 455.073 584.101 456.38 585.478 457.3C586.854 458.22 588.472 458.711 590.128 458.711C591.227 458.712 592.316 458.496 593.332 458.076C594.348 457.656 595.272 457.04 596.049 456.262C596.827 455.485 597.443 454.561 597.863 453.545C598.284 452.529 598.499 451.44 598.498 450.341Z" stroke="#4A4A4A" stroke-width="2.5" stroke-linecap="round" stroke-linejoin="round"/>
<path d="M500.168 467.241H528.518V478.001H478.438V467.241H486.698V453.001H478.438V445.001H486.698V442.851C486.698 435.471 489.054 429.671 493.767 425.451C498.481 421.231 505.077 419.124 513.557 419.131C520.164 419.131 525.701 420.398 530.167 422.931L526.167 433.511C522.384 431.401 518.097 430.363 513.768 430.511C509.358 430.511 506.007 431.511 503.688 433.561C501.368 435.611 500.217 438.561 500.217 442.561V445.001H519.997V453.001H500.168V467.241Z" fill="#FF9500"/>
<path d="M596.569 393.67V370H373.369V470.8H387.439V397.6C387.439 396.559 387.852 395.561 388.587 394.825C389.322 394.088 390.319 393.673 391.359 393.67H596.569Z" fill="#EFEFEF"/>
<path d="M387.439 470.78H373.369V369.98H596.569V393.58" stroke="#4A4A4A" stroke-width="2.5" stroke-linecap="round" stroke-linejoin="round"/>
<path d="M440.589 539.67H217.389V640.47H440.589V539.67Z" fill="white" stroke="#4A4A4A" stroke-width="4" stroke-linecap="round" stroke-linejoin="round"/>
<path d="M295.408 640.47C286.987 635.031 280.063 627.568 275.269 618.764C270.475 609.96 267.963 600.095 267.963 590.07C267.963 580.045 270.475 570.18 275.269 561.376C280.063 552.572 286.987 545.109 295.408 539.67" stroke="#4A4A4A" stroke-width="2.5" stroke-linecap="round" stroke-linejoin="round"/>
<path d="M360.52 539.67C368.94 545.109 375.864 552.572 380.658 561.376C385.453 570.18 387.964 580.045 387.964 590.07C387.964 600.095 385.453 609.96 380.658 618.764C375.864 627.568 368.94 635.031 360.52 640.47" stroke="#4A4A4A" stroke-width="2.5" stroke-linecap="round" stroke-linejoin="round"/>
<path d="M252.219 590.069C252.219 588.413 251.727 586.795 250.807 585.418C249.887 584.041 248.579 582.969 247.049 582.335C245.519 581.702 243.836 581.537 242.212 581.861C240.588 582.185 239.097 582.983 237.927 584.154C236.756 585.326 235.96 586.818 235.638 588.442C235.316 590.067 235.483 591.75 236.119 593.279C236.754 594.808 237.828 596.115 239.206 597.033C240.583 597.952 242.203 598.441 243.859 598.439C244.957 598.439 246.045 598.223 247.06 597.802C248.075 597.381 248.997 596.764 249.773 595.987C250.55 595.21 251.165 594.287 251.585 593.271C252.005 592.256 252.22 591.168 252.219 590.069V590.069Z" stroke="#4A4A4A" stroke-width="2.5" stroke-linecap="round" stroke-linejoin="round"/>
<path d="M421.638 590.069C421.638 588.413 421.147 586.795 420.227 585.418C419.307 584.041 417.999 582.969 416.469 582.335C414.939 581.702 413.256 581.537 411.632 581.861C410.008 582.185 408.517 582.983 407.346 584.154C406.176 585.326 405.38 586.818 405.058 588.442C404.736 590.067 404.903 591.75 405.538 593.279C406.173 594.808 407.248 596.115 408.626 597.033C410.003 597.952 411.623 598.441 413.278 598.439C414.377 598.439 415.465 598.223 416.48 597.802C417.495 597.381 418.417 596.764 419.193 595.987C419.97 595.21 420.585 594.287 421.005 593.271C421.424 592.256 421.64 591.168 421.638 590.069Z" stroke="#4A4A4A" stroke-width="2.5" stroke-linecap="round" stroke-linejoin="round"/>
<path d="M346.999 614.78C343.666 618 338.899 620 332.699 620.78V630H324.439V621C320.475 620.8 316.554 620.077 312.779 618.85C309.573 617.883 306.556 616.375 303.859 614.39L308.399 604.31C310.662 605.936 313.139 607.242 315.759 608.19C318.55 609.243 321.469 609.916 324.439 610.19V596.39C321.05 595.627 317.731 594.577 314.519 593.25C311.878 592.136 309.551 590.392 307.739 588.17C305.816 585.622 304.85 582.479 305.009 579.29C304.987 577.088 305.42 574.905 306.28 572.878C307.141 570.851 308.41 569.024 310.009 567.51C313.343 564.23 318.153 562.23 324.439 561.51V552.33H332.699V561.33C339.479 561.877 345.069 563.543 349.469 566.33L345.339 576.5C341.464 574.217 337.162 572.754 332.699 572.2V586.2C336.043 586.916 339.318 587.92 342.489 589.2C345.113 590.286 347.429 592.004 349.229 594.2C351.141 596.724 352.107 599.838 351.959 603C352.008 605.202 351.592 607.39 350.737 609.419C349.882 611.449 348.609 613.276 346.999 614.78V614.78ZM319.889 582C321.243 583.038 322.79 583.796 324.439 584.23V572.51C322.697 572.816 321.085 573.634 319.809 574.86C318.842 575.876 318.308 577.228 318.319 578.63C318.306 579.274 318.44 579.913 318.712 580.498C318.984 581.082 319.387 581.596 319.889 582V582ZM337.159 607.7C337.637 607.242 338.016 606.69 338.273 606.08C338.529 605.469 338.657 604.812 338.649 604.15C338.667 603.506 338.538 602.867 338.273 602.28C338.008 601.693 337.614 601.173 337.119 600.76C335.803 599.721 334.304 598.937 332.699 598.45V609.85C334.359 609.576 335.907 608.833 337.159 607.71V607.7Z" fill="#FF9500"/>
<path d="M736.27 640.971H513.07V741.771H736.27V640.971Z" fill="white" stroke="#4A4A4A" stroke-width="4" stroke-linecap="round" stroke-linejoin="round"/>
<path d="M591.089 741.771C582.669 736.331 575.745 728.869 570.951 720.065C566.156 711.261 563.645 701.396 563.645 691.371C563.645 681.346 566.156 671.481 570.951 662.677C575.745 653.873 582.669 646.41 591.089 640.971" stroke="#4A4A4A" stroke-width="2.5" stroke-linecap="round" stroke-linejoin="round"/>
<path d="M656.201 641C664.622 646.439 671.546 653.902 676.34 662.706C681.134 671.51 683.646 681.375 683.646 691.4C683.646 701.425 681.134 711.29 676.34 720.094C671.546 728.898 664.622 736.361 656.201 741.8" stroke="#4A4A4A" stroke-width="2.5" stroke-linecap="round" stroke-linejoin="round"/>
<path d="M547.9 691.37C547.9 689.714 547.409 688.095 546.489 686.719C545.569 685.342 544.261 684.269 542.731 683.636C541.201 683.003 539.518 682.838 537.894 683.162C536.27 683.485 534.778 684.284 533.608 685.455C532.438 686.627 531.642 688.119 531.32 689.743C530.998 691.368 531.165 693.051 531.8 694.58C532.435 696.109 533.51 697.416 534.887 698.334C536.265 699.253 537.884 699.742 539.54 699.74C540.639 699.74 541.727 699.523 542.742 699.103C543.757 698.682 544.679 698.065 545.455 697.288C546.232 696.511 546.847 695.588 547.267 694.572C547.686 693.557 547.902 692.469 547.9 691.37V691.37Z" stroke="#4A4A4A" stroke-width="2.5" stroke-linecap="round" stroke-linejoin="round"/>
<path d="M717.33 691.37C717.33 689.715 716.839 688.096 715.919 686.72C714.999 685.343 713.692 684.271 712.163 683.637C710.633 683.004 708.951 682.838 707.327 683.161C705.703 683.484 704.212 684.281 703.041 685.452C701.871 686.622 701.074 688.113 700.751 689.737C700.428 691.361 700.593 693.044 701.227 694.573C701.86 696.102 702.933 697.41 704.31 698.329C705.686 699.249 707.304 699.74 708.96 699.74C710.059 699.741 711.148 699.526 712.164 699.106C713.181 698.685 714.104 698.069 714.881 697.291C715.659 696.514 716.275 695.591 716.695 694.575C717.116 693.559 717.331 692.47 717.33 691.37V691.37Z" stroke="#4A4A4A" stroke-width="2.5" stroke-linecap="round" stroke-linejoin="round"/>
<path d="M642.001 702.941L650.511 710.871C647.775 714.217 644.272 716.855 640.301 718.561C636.002 720.372 631.375 721.271 626.711 721.201C622.135 721.245 617.597 720.374 613.361 718.641C609.383 717.021 605.814 714.538 602.911 711.371C600.053 708.245 597.934 704.517 596.711 700.461H587.371V693.521H595.471C595.421 693.021 595.391 692.281 595.391 691.291C595.391 690.301 595.391 689.551 595.471 689.051H587.371V682.111H596.711C597.934 678.056 600.053 674.328 602.911 671.201C605.814 668.035 609.383 665.552 613.361 663.931C617.597 662.199 622.135 661.328 626.711 661.371C631.378 661.297 636.009 662.193 640.311 664.001C644.268 665.696 647.767 668.304 650.521 671.611L642.001 679.551C640.214 677.411 637.976 675.693 635.446 674.521C632.917 673.349 630.159 672.751 627.371 672.771C623.958 672.716 620.593 673.572 617.621 675.251C614.804 676.855 612.509 679.237 611.011 682.111H631.921V689.051H609.001C608.951 689.551 608.921 690.291 608.921 691.291C608.921 692.291 608.921 693.021 609.001 693.521H632.001V700.461H611.001C612.496 703.338 614.792 705.721 617.611 707.321C620.583 709.001 623.948 709.857 627.361 709.801C630.16 709.83 632.929 709.229 635.464 708.041C637.998 706.854 640.232 705.111 642.001 702.941V702.941Z" fill="#FF9500"/>
<path d="M742.331 724.21H756.411V623.41H533.211V637.01" stroke="#4A4A4A" stroke-width="2.5" stroke-linecap="round" stroke-linejoin="round"/>
<path d="M917.85 337.311C917.85 336.124 917.498 334.964 916.838 333.977C916.179 332.99 915.242 332.221 914.146 331.767C913.049 331.313 911.843 331.194 910.679 331.426C909.515 331.657 908.446 332.229 907.607 333.068C906.768 333.907 906.196 334.976 905.965 336.14C905.733 337.304 905.852 338.51 906.306 339.607C906.76 340.703 907.53 341.64 908.516 342.299C909.503 342.959 910.663 343.311 911.85 343.311C913.441 343.311 914.967 342.678 916.092 341.553C917.217 340.428 917.85 338.902 917.85 337.311V337.311Z" fill="#FF9500"/>
<path d="M1296.07 208.891C1296.07 208.001 1295.81 207.131 1295.31 206.391C1294.82 205.651 1294.11 205.074 1293.29 204.733C1292.47 204.393 1291.57 204.303 1290.69 204.477C1289.82 204.651 1289.02 205.079 1288.39 205.709C1287.76 206.338 1287.33 207.14 1287.16 208.013C1286.98 208.886 1287.07 209.79 1287.41 210.613C1287.75 211.435 1288.33 212.138 1289.07 212.632C1289.81 213.127 1290.68 213.391 1291.57 213.391C1292.76 213.391 1293.91 212.917 1294.75 212.073C1295.6 211.229 1296.07 210.084 1296.07 208.891Z" fill="#FF9500"/>
<path d="M1300.56 510.391C1300.56 509.5 1300.3 508.63 1299.8 507.89C1299.31 507.149 1298.6 506.573 1297.78 506.232C1296.96 505.892 1296.05 505.803 1295.18 505.978C1294.31 506.152 1293.5 506.582 1292.88 507.212C1292.25 507.843 1291.82 508.645 1291.65 509.519C1291.47 510.392 1291.56 511.298 1291.91 512.12C1292.25 512.942 1292.83 513.644 1293.57 514.137C1294.31 514.63 1295.18 514.893 1296.07 514.891C1296.66 514.891 1297.25 514.774 1297.79 514.548C1298.34 514.322 1298.83 513.99 1299.25 513.572C1299.67 513.154 1300 512.658 1300.22 512.112C1300.45 511.566 1300.56 510.981 1300.56 510.391Z" fill="#FF9500"/>
<path d="M1055.2 115C1055.2 114.223 1054.97 113.463 1054.54 112.817C1054.11 112.171 1053.49 111.667 1052.77 111.369C1052.06 111.072 1051.27 110.994 1050.5 111.146C1049.74 111.297 1049.04 111.672 1048.49 112.221C1047.94 112.771 1047.57 113.471 1047.42 114.234C1047.26 114.996 1047.34 115.786 1047.64 116.504C1047.94 117.222 1048.44 117.836 1049.09 118.268C1049.73 118.7 1050.49 118.93 1051.27 118.93C1052.31 118.93 1053.31 118.516 1054.05 117.779C1054.79 117.042 1055.2 116.043 1055.2 115Z" fill="#FF9500"/>
<path d="M1055.76 777.391C1055.76 776.5 1055.5 775.63 1055 774.89C1054.51 774.149 1053.8 773.572 1052.98 773.232C1052.16 772.892 1051.25 772.803 1050.38 772.978C1049.51 773.152 1048.7 773.582 1048.07 774.212C1047.45 774.842 1047.02 775.645 1046.84 776.519C1046.67 777.392 1046.76 778.298 1047.11 779.12C1047.45 779.942 1048.03 780.644 1048.77 781.137C1049.51 781.63 1050.38 781.893 1051.27 781.891C1051.86 781.891 1052.44 781.774 1052.99 781.548C1053.54 781.322 1054.03 780.99 1054.45 780.572C1054.87 780.154 1055.2 779.658 1055.42 779.112C1055.65 778.566 1055.76 777.981 1055.76 777.391Z" fill="#FF9500"/>
<path d="M951.801 519.359C951.801 518.469 951.537 517.599 951.042 516.859C950.548 516.119 949.845 515.542 949.023 515.202C948.201 514.861 947.296 514.772 946.423 514.946C945.55 515.119 944.748 515.548 944.119 516.177C943.489 516.807 943.061 517.609 942.887 518.481C942.714 519.354 942.803 520.259 943.143 521.081C943.484 521.904 944.061 522.607 944.801 523.101C945.541 523.595 946.411 523.859 947.301 523.859C947.892 523.861 948.478 523.745 949.024 523.52C949.571 523.294 950.068 522.962 950.486 522.544C950.904 522.126 951.235 521.63 951.461 521.083C951.687 520.536 951.802 519.951 951.801 519.359V519.359Z" fill="#FF9500"/>
<path d="M889.32 192.62H906.38M897.84 184.1V201.16V184.1Z" stroke="#FF9500" stroke-width="3" stroke-linecap="round" stroke-linejoin="round"/>
<path d="M1195.35 127.43H1212.41M1203.87 118.91V135.97V118.91Z" stroke="#FF9500" stroke-width="3" stroke-linecap="round" stroke-linejoin="round"/>
<path d="M1319.99 701.581H1337.05M1328.51 693.061V710.121V693.061Z" stroke="#FF9500" stroke-width="3" stroke-linecap="round" stroke-linejoin="round"/>
<path d="M1328.5 337.27L1340.5 349.35M1340.58 337.33L1328.5 349.33L1340.58 337.33Z" stroke="#FF9500" stroke-width="3" stroke-linecap="round" stroke-linejoin="round"/>
<path d="M891.791 615.02L903.791 627.099M903.871 615.08L891.791 627.08L903.871 615.08Z" stroke="#FF9500" stroke-width="3" stroke-linecap="round" stroke-linejoin="round"/>
</svg>
