<svg width="1422" height="870" viewBox="0 0 1422 870" fill="none" xmlns="http://www.w3.org/2000/svg">
<path d="M705.65 38.6891C710.308 34.7254 715.735 31.7669 721.59 29.9991C710.676 29.0572 699.715 31.1546 689.92 36.0591C693.378 38.6255 696.966 41.012 700.67 43.2091C702.29 41.6091 704 40.0791 705.65 38.6891Z" fill="#FF9500"/>
<path d="M681.68 72.9101C685.23 63.9462 690.137 55.5817 696.23 48.1101C691.932 45.5132 687.792 42.6649 683.83 39.5801C674.061 45.9649 666.405 55.1035 661.83 65.8401C662.227 65.8182 662.624 65.8725 663 66.0001L681.68 72.9101Z" fill="#FF9500"/>
<path d="M758.269 64.1701C762.466 64.8529 766.695 65.3201 770.939 65.5701C766.651 55.6552 759.736 47.1004 750.939 40.8301C754.253 45.9681 756.469 51.7353 757.449 57.7701C757.833 59.8879 758.107 62.024 758.269 64.1701V64.1701Z" fill="#FF9500"/>
<path d="M679.44 78.9991L660.76 72.1191C660.395 71.9861 660.056 71.7897 659.76 71.5391C656.419 82.2162 656.183 93.623 659.08 104.429C664.237 104.64 669.376 105.164 674.47 105.999C674.808 96.8056 676.482 87.7103 679.44 78.9991V78.9991Z" fill="#FF9500"/>
<path d="M719.711 86.9095L747.431 97.1195C750.437 88.2696 752.007 78.9956 752.081 69.6495C744.094 68.0576 736.231 65.8988 728.551 63.1895C726.001 69.9995 723.001 77.9995 719.711 86.9095Z" fill="#FF9500"/>
<path d="M711.389 90.7505L685.519 81.2305C682.692 89.5851 681.125 98.3142 680.869 107.13C688.431 108.7 695.88 110.768 703.169 113.32C705.609 106.55 708.379 98.9205 711.389 90.7505Z" fill="#FF9500"/>
<path d="M732.121 35.5691C731.24 35.4421 730.351 35.3753 729.461 35.3691C723.281 35.3691 716.461 38.2091 709.751 43.7091C708.661 44.5991 707.601 45.5491 706.551 46.5391C712.447 49.6799 718.524 52.4682 724.751 54.8891C728.171 45.8491 730.691 39.2691 732.121 35.5691Z" fill="#FF9500"/>
<path d="M693.621 140.129C695.031 136.129 697.621 128.859 700.981 119.409C694.461 117.131 687.809 115.255 681.061 113.789C682.001 125.899 686.351 135.549 693.621 140.129Z" fill="#FF9500"/>
<path d="M722.47 60.9992C715.425 58.2676 708.567 55.0775 701.94 51.4492C695.97 58.5541 691.182 66.5732 687.76 75.1992L713.63 84.7292C716.93 75.7592 719.9 67.7992 722.47 60.9992Z" fill="#FF9500"/>
<path d="M709.25 115.56C716.988 118.552 724.501 122.098 731.73 126.17C737.351 119.226 741.89 111.472 745.19 103.17L717.47 93C714.46 101.16 711.69 108.79 709.25 115.56Z" fill="#FF9500"/>
<path d="M674.549 112.54C670.154 111.783 665.721 111.269 661.27 111C665.473 121.656 672.673 130.868 682 137.52C678.682 132.388 676.465 126.623 675.49 120.59C675.009 117.929 674.695 115.24 674.549 112.54V112.54Z" fill="#FF9500"/>
<path d="M699.631 142.57C708.351 144.42 718.331 139.95 727.261 131.09C720.742 127.498 713.99 124.344 707.051 121.65C703.601 131.29 701.001 138.64 699.631 142.57Z" fill="#FF9500"/>
<path d="M751.27 105.439C747.818 114.108 743.1 122.216 737.27 129.499C741.593 132.182 745.742 135.138 749.69 138.349C759.118 132.016 766.517 123.095 771 112.659C770.85 112.633 770.703 112.597 770.56 112.549L751.27 105.439Z" fill="#FF9500"/>
<path d="M753.51 99.3595L772.81 106.47C772.95 106.525 773.087 106.588 773.22 106.66C776.7 95.423 776.748 83.4039 773.36 72.1395C768.387 71.9824 763.428 71.5249 758.51 70.7695C758.338 80.5014 756.652 90.1472 753.51 99.3595V99.3595Z" fill="#FF9500"/>
<path d="M727.301 139.66C722.644 143.61 717.226 146.561 711.381 148.33C722.572 149.3 733.808 147.07 743.781 141.9C740.328 139.21 736.729 136.713 733.001 134.42C731.208 136.279 729.304 138.029 727.301 139.66Z" fill="#FF9500"/>
<path d="M730.83 57.1306C737.662 59.5383 744.643 61.4991 751.73 63.0006C750.47 51.0906 745.84 41.7506 738.28 37.6406C736.88 41.2206 734.32 47.8906 730.83 57.1306Z" fill="#FF9500"/>
<path d="M716.47 148.561C749.264 148.561 775.85 121.975 775.85 89.1808C775.85 56.3861 749.264 29.8008 716.47 29.8008C683.675 29.8008 657.09 56.3861 657.09 89.1808C657.09 121.975 683.675 148.561 716.47 148.561Z" stroke="#4A4A4A" stroke-width="4" stroke-linecap="round" stroke-linejoin="round"/>
<path d="M1053.78 268.35H980.2L958.6 273.45L954 277C953.9 277.1 953.75 277.19 953.66 277.29C947.25 284.1 942.66 293.29 942.66 303.47V438.17C942.66 441.46 946.49 443.85 949.66 443.85H949.04V470.01C949.04 481.18 957.61 489.07 970.46 489.59V638H969.46C958.68 638 949.07 646.39 949.07 657.36V666.36H1079.77V454.79H1121.41C1122.27 454.862 1123.14 454.723 1123.93 454.385C1124.72 454.047 1125.43 453.52 1125.97 452.85C1126.51 452.163 1126.87 451.359 1127.03 450.503C1127.19 449.647 1127.15 448.765 1126.9 447.93L1119.18 420.93L1118.99 420.55C1124.22 415.02 1126.91 407.3 1126.91 399.04V290.58C1126.91 273.71 1114.62 260.72 1098.05 260.72H1095C1091.91 260.72 1079.92 262.55 1074.55 272.84L1074.32 272.65C1074.06 272.46 1073.88 272.25 1073.62 272.07L1073.06 271.67L1073.62 272.07L1053.78 268.35ZM1047.62 268.35V235.35C1047.62 235.25 1047.87 235.16 1047.95 235.04C1048.03 234.92 1048.26 234.52 1048.41 234.26C1052.81 226.62 1054.29 207.5 1052.32 196.96C1051 189.96 1045.42 173.19 1022.18 169.77C1009.09 167.85 1000.28 171.17 989.5 177.58C983.18 181.34 976.77 174.18 976.5 173.88C976.195 173.53 975.804 173.266 975.366 173.114C974.927 172.961 974.457 172.926 974 173.011C973.544 173.095 973.118 173.298 972.764 173.597C972.409 173.897 972.139 174.284 971.98 174.72C965.91 191.5 969.98 222.72 974.76 230.79C974.94 231.1 974.91 231.39 975.1 231.63C975.1 231.63 975.1 231.63 975.1 231.69V256C975.1 259 977.88 265.77 978.77 268.52" fill="white"/>
<path d="M1076.81 439.529H1059.36V640.149H1076.81V439.529Z" fill="#EBEBEB"/>
<path d="M1020.12 470.061H1002.67V640.151H1020.12V470.061Z" fill="#EBEBEB"/>
<path d="M1075.31 275.35C1079.49 265.35 1091.14 262.9 1094.46 262.9H1097.59C1112.98 262.9 1124.79 275.19 1124.79 290.58V399.07C1124.86 402.668 1124.2 406.243 1122.86 409.582C1121.52 412.922 1119.52 415.958 1116.98 418.51C1114.44 421.063 1111.42 423.08 1108.09 424.442C1104.76 425.804 1101.19 426.484 1097.59 426.44H1094.46C1089.76 426.55 1085.11 425.456 1080.95 423.26" fill="#EBEBEB"/>
<path d="M1044.1 268.35H1052.48C1070.81 268.35 1086.62 283.35 1086.62 301.67V376.84C1086.62 382.24 1083.04 387.25 1080.08 391.31" fill="white"/>
<path d="M1044.1 268.35H1052.48C1070.81 268.35 1086.62 283.35 1086.62 301.67V376.84C1086.62 382.24 1083.04 387.25 1080.08 391.31" stroke="#4A4A4A" stroke-width="4" stroke-miterlimit="10"/>
<path d="M1075.31 274.801C1079.49 264.801 1091.14 261.801 1094.46 261.801H1097.59C1112.98 261.801 1125.88 275.181 1125.88 290.571V399.071C1125.88 414.461 1112.98 427.531 1097.59 427.531H1094.46C1089.69 427.362 1085.04 425.986 1080.95 423.531" stroke="#4A4A4A" stroke-width="4" stroke-linecap="round" stroke-linejoin="round"/>
<path d="M1076.81 453.7H1121.37C1121.85 453.721 1122.33 453.626 1122.76 453.425C1123.2 453.223 1123.58 452.92 1123.87 452.541C1124.17 452.162 1124.36 451.718 1124.45 451.246C1124.54 450.774 1124.51 450.289 1124.37 449.83L1116 421H1081.15" fill="#EBEBEB"/>
<path d="M1076.81 453.7H1121.37C1121.85 453.721 1122.33 453.626 1122.76 453.425C1123.2 453.223 1123.58 452.92 1123.87 452.541C1124.17 452.162 1124.36 451.718 1124.45 451.246C1124.54 450.774 1124.51 450.289 1124.37 449.83L1116 421H1081.15" stroke="#4A4A4A" stroke-width="4" stroke-miterlimit="10"/>
<path d="M982.581 390.999C981.68 391.07 980.786 390.787 980.091 390.209C979.747 389.921 979.464 389.568 979.258 389.169C979.052 388.771 978.927 388.336 978.891 387.889L974.891 342.189C974.816 341.288 975.099 340.394 975.68 339.702C976.26 339.009 977.091 338.573 977.991 338.489L1000.7 336.489C1001.6 336.411 1002.5 336.694 1003.19 337.275C1003.88 337.856 1004.32 338.688 1004.4 339.589L1006.83 367.589L999.831 363.539C998.268 362.693 996.534 362.211 994.758 362.128C992.983 362.046 991.212 362.366 989.577 363.064C987.943 363.762 986.487 364.82 985.319 366.159C984.151 367.499 983.3 369.085 982.831 370.799L980.531 379.179C980.109 380.707 980.001 382.305 980.214 383.876C980.427 385.447 980.957 386.959 981.771 388.319C982.348 389.266 983.059 390.125 983.881 390.869L982.581 390.999Z" fill="#FF9500" stroke="#FF9500" stroke-width="2.5" stroke-miterlimit="10"/>
<path d="M968.59 486.539C956.33 486.539 949.24 479.389 949.24 470.049V440.619H972.14" stroke="#4A4A4A" stroke-width="4" stroke-linecap="round" stroke-linejoin="round"/>
<path d="M1020.11 641.23H966.73C957.24 641.23 949.24 647.83 949.24 657.32V665.22H1007" stroke="#4A4A4A" stroke-width="4" stroke-linecap="round" stroke-linejoin="round"/>
<path d="M1017.71 641.231H1077.9V665.231H1005.9V653.001C1005.9 651.452 1006.21 649.918 1006.8 648.487C1007.39 647.057 1008.26 645.757 1009.36 644.664C1010.46 643.57 1011.76 642.704 1013.19 642.115C1014.63 641.526 1016.16 641.225 1017.71 641.231V641.231Z" stroke="#4A4A4A" stroke-width="4" stroke-linecap="round" stroke-linejoin="round"/>
<path d="M1071.36 204.839C1071.36 174.279 1049.7 152.779 1019.14 152.779H1007.69C977.13 152.779 949.24 174.279 949.24 204.839V262.899C949.24 280.959 977.05 296.699 1010.78 296.699C1044.51 296.699 1071.36 280.959 1071.36 262.899V204.839Z" stroke="#4A4A4A" stroke-width="4" stroke-linecap="round" stroke-linejoin="round"/>
<path d="M1047.37 230.19V256.83C1047.37 271.22 1034.78 283.61 1020.37 283.61H1002.86C988.47 283.61 977.58 271.22 977.58 256.83V225.83" stroke="#4A4A4A" stroke-width="4" stroke-linecap="round" stroke-linejoin="round"/>
<path d="M1022.06 171.42C1009.71 169.6 1001.48 172.49 990.44 179.05C981.89 184.14 974.14 174.72 974.14 174.72C967.97 191.8 973.23 224.63 977.59 230.31V220.11C977.59 212.94 981.9 202.11 988.26 203.4C1009.78 207.77 1012.65 192.4 1033.91 202.4C1039.49 205.03 1041.04 214.84 1042.42 222.89C1043.03 226.5 1046.61 233.11 1046.61 233.11V233.92C1051.02 227.38 1052.61 207.43 1050.61 197.02C1048.56 186.12 1040.73 174.17 1022.06 171.42Z" fill="#EBEBEB" stroke="#4A4A4A" stroke-width="4" stroke-linecap="round" stroke-linejoin="round"/>
<path d="M987.17 236.37C987.17 234.441 987.936 232.592 989.299 231.229C990.663 229.866 992.512 229.1 994.44 229.1C996.368 229.1 998.217 229.866 999.581 231.229C1000.94 232.592 1001.71 234.441 1001.71 236.37" stroke="#4A4A4A" stroke-width="2.5" stroke-linecap="round" stroke-linejoin="round"/>
<path d="M1015.52 236.37C1015.52 234.441 1016.29 232.592 1017.65 231.229C1019.01 229.866 1020.86 229.1 1022.79 229.1C1024.72 229.1 1026.57 229.866 1027.93 231.229C1029.29 232.592 1030.06 234.441 1030.06 236.37" stroke="#4A4A4A" stroke-width="2.5" stroke-linecap="round" stroke-linejoin="round"/>
<path d="M1077.9 441.71V641.23H971.049V440.62H946.609C944.819 440.62 942.699 440 942.699 438.22V303.51C942.699 284.09 959.259 268.51 978.699 268.51" stroke="#4A4A4A" stroke-width="4" stroke-linecap="round" stroke-linejoin="round"/>
<path d="M969.961 439.529H1076.81" stroke="#4A4A4A" stroke-width="2.5" stroke-miterlimit="10"/>
<path d="M1020.11 641.23H1077.9V441.44C1080.08 441.22 1080.08 439.33 1080.08 437.03V391.31C1082.13 389.495 1083.77 387.268 1084.9 384.774C1086.02 382.281 1086.61 379.576 1086.62 376.84V301.67C1086.62 283.34 1070.81 268.35 1052.48 268.35H1045.18" stroke="#4A4A4A" stroke-width="4" stroke-linecap="round" stroke-linejoin="round"/>
<path d="M1020.11 470.061V640.141" stroke="#4A4A4A" stroke-width="2.5" stroke-linecap="round" stroke-linejoin="round"/>
<path d="M1080.89 389.999C1078.64 393.147 1075.67 395.717 1072.24 397.5C1068.81 399.284 1065 400.229 1061.13 400.259H1021.42C1020.11 400.259 1020.11 398.889 1020.11 397.579V374.709C1020.11 373.399 1020.11 371.929 1021.42 371.929H1039.87C1041.27 371.972 1042.67 371.732 1043.98 371.224C1045.28 370.716 1046.48 369.949 1047.48 368.97C1048.49 367.991 1049.28 366.82 1049.83 365.526C1050.37 364.232 1050.65 362.842 1050.64 361.439V334.859" stroke="#4A4A4A" stroke-width="2.5" stroke-linecap="round" stroke-linejoin="round"/>
<path d="M1018 397.08L989.62 392.24C988.292 391.925 987.041 391.346 985.942 390.537C984.843 389.728 983.917 388.706 983.221 387.533C982.525 386.359 982.072 385.057 981.89 383.704C981.708 382.352 981.799 380.977 982.16 379.66L984.46 371.28C984.863 369.805 985.593 368.44 986.597 367.286C987.6 366.133 988.851 365.22 990.256 364.617C991.661 364.013 993.184 363.734 994.712 363.801C996.239 363.867 997.732 364.277 999.08 365L1018 376" stroke="#4A4A4A" stroke-width="2.5" stroke-linecap="round" stroke-linejoin="round"/>
<path d="M989.581 392.07L982.721 392.66C982.06 392.723 981.393 392.654 980.759 392.457C980.125 392.259 979.537 391.937 979.028 391.51C978.52 391.083 978.102 390.559 977.799 389.968C977.495 389.377 977.312 388.732 977.261 388.07L973.261 342.37C973.198 341.709 973.267 341.042 973.464 340.408C973.662 339.774 973.984 339.186 974.411 338.678C974.838 338.17 975.362 337.751 975.953 337.448C976.544 337.145 977.189 336.962 977.851 336.91L1000.56 334.91C1001.22 334.846 1001.89 334.914 1002.53 335.111C1003.16 335.308 1003.75 335.629 1004.26 336.057C1004.77 336.484 1005.19 337.009 1005.49 337.6C1005.8 338.191 1005.98 338.837 1006.03 339.5L1008.7 370.24" stroke="#4A4A4A" stroke-width="2.5" stroke-linecap="round" stroke-linejoin="round"/>
<path d="M965.6 441.709V321.779" stroke="#4A4A4A" stroke-width="2.5" stroke-linecap="round" stroke-linejoin="round"/>
<path d="M995.711 255.811C1010.51 269.641 1023.15 255.811 1023.15 255.811" stroke="#4A4A4A" stroke-width="2.5" stroke-linecap="round" stroke-linejoin="round"/>
<path d="M530.16 392.12C526.006 394.318 521.359 395.416 516.66 395.31H513.53C498.13 395.31 486.33 383.31 486.33 367.94V259.45C486.33 244.06 498.13 231.77 513.53 231.77H516.66C519.97 231.77 531.66 234.22 535.81 244.22L537.43 248.65" fill="#EBEBEB"/>
<path d="M544.84 242.38C538.36 245.82 531.38 252.83 525.94 266.31C523.01 273.6 522.4 306.12 524.49 348.18C524.68 352.04 530.84 357.82 531.03 361.55C532.39 387.27 530.93 401.65 530.4 405.77C530.352 406.167 530.392 406.57 530.517 406.95C530.641 407.33 530.847 407.678 531.12 407.97L533.55 410.54C534.032 411.055 534.297 411.735 534.29 412.44L531.29 606.29V632.46C531.29 633.182 531.577 633.874 532.087 634.384C532.597 634.894 533.289 635.18 534.01 635.18H659.27C659.627 635.18 659.981 635.11 660.311 634.973C660.641 634.837 660.941 634.636 661.194 634.384C661.446 634.131 661.647 633.831 661.783 633.501C661.92 633.171 661.99 632.818 661.99 632.46V626.18C661.99 615.18 652.37 606.83 641.59 606.83H640.59V459.94C640.592 459.268 640.842 458.621 641.292 458.122C641.743 457.624 642.362 457.31 643.03 457.24C654.52 456 662.03 449.37 662.03 438.92V412.76C661.999 412.227 662.128 411.696 662.401 411.236C662.673 410.777 663.077 410.409 663.56 410.18C664.948 409.364 666.118 408.226 666.971 406.861C667.824 405.496 668.335 403.945 668.46 402.34V272.34C668.46 262.34 664.03 253.25 657.77 246.48L656.96 245.73L653 242.68C652.685 242.44 652.325 242.266 651.94 242.17L631.24 237.29C631.034 237.242 630.822 237.219 630.61 237.22H557.61C557.457 237.205 557.303 237.205 557.15 237.22C555.73 237.5 551.11 239.05 544.84 242.38Z" fill="white"/>
<path d="M534.3 609.01H551.75V408.39H534.3V609.01Z" fill="#EBEBEB"/>
<path d="M590.999 609.02H608.449V438.93H590.999V609.02Z" fill="#EBEBEB"/>
<path d="M530.16 392.4C526.16 394.62 521.56 396.4 516.66 396.4H513.53C498.13 396.4 485.24 383.33 485.24 367.94V259.45C485.24 244.06 498.13 230.68 513.53 230.68H516.66C519.97 230.68 531.66 233.68 535.81 243.68L537.43 247.93" stroke="#4A4A4A" stroke-width="4" stroke-linecap="round" stroke-linejoin="round"/>
<path d="M534.299 422.569H489.739C489.26 422.59 488.783 422.496 488.348 422.294C487.913 422.092 487.532 421.789 487.238 421.41C486.945 421.031 486.746 420.587 486.659 420.116C486.572 419.644 486.6 419.158 486.739 418.699L495.059 389.859H529.899" fill="#EBEBEB"/>
<path d="M534.299 422.569H489.739C489.26 422.59 488.783 422.496 488.348 422.294C487.913 422.092 487.532 421.789 487.238 421.41C486.945 421.031 486.746 420.587 486.659 420.116C486.572 419.644 486.6 419.158 486.739 418.699L495.059 389.859H529.899" stroke="#4A4A4A" stroke-width="4" stroke-miterlimit="10"/>
<path d="M627.21 359.79C628.03 359.041 628.743 358.183 629.33 357.24C630.142 355.879 630.67 354.367 630.882 352.796C631.093 351.225 630.983 349.627 630.56 348.1L628.26 339.72C627.79 338.006 626.94 336.42 625.772 335.08C624.603 333.741 623.148 332.682 621.513 331.984C619.879 331.286 618.107 330.967 616.332 331.049C614.557 331.131 612.823 331.614 611.26 332.46L604.26 336.51L606.7 308.51C606.738 308.064 606.863 307.629 607.069 307.232C607.275 306.834 607.558 306.481 607.901 306.193C608.244 305.905 608.64 305.688 609.067 305.553C609.494 305.419 609.944 305.37 610.39 305.41L633.1 307.41C634.002 307.491 634.835 307.926 635.417 308.619C636 309.312 636.285 310.208 636.21 311.11L632.21 356.81C632.171 357.257 632.045 357.693 631.837 358.091C631.629 358.489 631.345 358.842 631 359.13C630.304 359.707 629.41 359.987 628.51 359.91L627.21 359.79Z" fill="#FF9500" stroke="#FF9500" stroke-width="2.5" stroke-miterlimit="10"/>
<path d="M642.52 455.41C654.79 455.41 661.87 448.25 661.87 438.92V409.49H645.52" stroke="#4A4A4A" stroke-width="4" stroke-linecap="round" stroke-linejoin="round"/>
<path d="M591 610.1H644.39C653.87 610.1 661.87 616.7 661.87 626.18V634.09H604.09" stroke="#4A4A4A" stroke-width="4" stroke-linecap="round" stroke-linejoin="round"/>
<path d="M605.18 634.09H533.18V610.09H593.39C596.511 610.09 599.505 611.33 601.712 613.537C603.92 615.744 605.16 618.738 605.16 621.86V634.09H605.18Z" stroke="#4A4A4A" stroke-width="4" stroke-linecap="round" stroke-linejoin="round"/>
<path d="M539.76 173.711C539.76 143.151 561.42 121.641 591.98 121.641H603.42C633.99 121.641 661.87 143.151 661.87 173.711V231.771C661.87 249.831 634.06 265.571 600.34 265.571C566.62 265.571 539.76 249.831 539.76 231.771V173.711Z" stroke="#4A4A4A" stroke-width="4" stroke-linecap="round" stroke-linejoin="round"/>
<path d="M623.94 205.231C623.94 203.303 623.174 201.454 621.811 200.09C620.448 198.727 618.598 197.961 616.67 197.961C614.742 197.961 612.893 198.727 611.53 200.09C610.166 201.454 609.4 203.303 609.4 205.231" stroke="#4A4A4A" stroke-width="2.5" stroke-linecap="round" stroke-linejoin="round"/>
<path d="M595.591 205.231C595.521 203.351 594.725 201.571 593.37 200.265C592.015 198.96 590.207 198.23 588.326 198.23C586.444 198.23 584.636 198.96 583.281 200.265C581.926 201.571 581.13 203.351 581.061 205.231" stroke="#4A4A4A" stroke-width="2.5" stroke-linecap="round" stroke-linejoin="round"/>
<path d="M641.59 409.491H664.51C666.29 409.491 668.42 408.871 668.42 407.081V272.381C668.42 252.961 651.86 237.381 632.42 237.381" stroke="#4A4A4A" stroke-width="4" stroke-linecap="round" stroke-linejoin="round"/>
<path d="M533.211 410.58V610.1H640.071V409.49" stroke="#4A4A4A" stroke-width="4" stroke-linecap="round" stroke-linejoin="round"/>
<path d="M642.239 409.471H531.619" stroke="#4A4A4A" stroke-width="2.5" stroke-miterlimit="10"/>
<path d="M591 610.1H533.21V410.31C531.03 410.08 531.03 408.2 531.03 405.9V360.18C528.98 358.364 527.337 356.136 526.21 353.64C525.083 351.144 524.497 348.438 524.49 345.7V278.7C524.522 267.719 528.898 257.197 536.663 249.432C544.427 241.668 554.949 237.291 565.93 237.26H632.44" stroke="#4A4A4A" stroke-width="4" stroke-linecap="round" stroke-linejoin="round"/>
<path d="M591 438.92V609.01" stroke="#4A4A4A" stroke-width="2.5" stroke-linecap="round" stroke-linejoin="round"/>
<path d="M530.23 358.89C532.483 362.038 535.449 364.608 538.885 366.389C542.321 368.171 546.13 369.114 550 369.14H589.701C591.001 369.14 591 367.78 591 366.47V343.57C591 342.27 591.001 340.8 589.701 340.8H571.24C569.838 340.843 568.441 340.604 567.134 340.095C565.826 339.587 564.634 338.82 563.629 337.841C562.624 336.862 561.826 335.691 561.284 334.397C560.741 333.103 560.464 331.713 560.47 330.31V303.73" stroke="#4A4A4A" stroke-width="2.5" stroke-linecap="round" stroke-linejoin="round"/>
<path d="M592.06 366L621.52 361.16C622.855 360.848 624.113 360.269 625.219 359.457C626.324 358.646 627.254 357.62 627.953 356.44C628.652 355.26 629.105 353.951 629.285 352.592C629.465 351.233 629.368 349.851 629 348.53L626.71 340.15C626.307 338.665 625.572 337.291 624.561 336.131C623.55 334.971 622.288 334.056 620.872 333.454C619.456 332.853 617.922 332.58 616.385 332.657C614.848 332.735 613.349 333.16 612 333.9L592 344.84" stroke="#4A4A4A" stroke-width="2.5" stroke-linecap="round" stroke-linejoin="round"/>
<path d="M621.53 360.941L628.39 361.531C629.052 361.595 629.72 361.527 630.355 361.33C630.99 361.133 631.58 360.812 632.089 360.384C632.598 359.957 633.017 359.432 633.321 358.841C633.625 358.25 633.809 357.604 633.86 356.941L637.86 311.241C637.924 310.579 637.856 309.911 637.659 309.276C637.463 308.641 637.141 308.051 636.714 307.542C636.286 307.032 635.762 306.613 635.17 306.309C634.579 306.005 633.933 305.822 633.27 305.771L610.56 303.771C609.899 303.708 609.232 303.777 608.598 303.974C607.964 304.172 607.376 304.493 606.867 304.921C606.359 305.348 605.941 305.872 605.638 306.463C605.334 307.054 605.151 307.699 605.1 308.361L602.42 339.101" stroke="#4A4A4A" stroke-width="2.5" stroke-linecap="round" stroke-linejoin="round"/>
<path d="M645.52 409.501V290.641" stroke="#4A4A4A" stroke-width="2.5" stroke-linecap="round" stroke-linejoin="round"/>
<path d="M615.401 224.67C600.611 238.51 587.961 224.67 587.961 224.67" stroke="#4A4A4A" stroke-width="2.5" stroke-linecap="round" stroke-linejoin="round"/>
<path d="M400.929 573.721H268.139V431.781C268.139 422.498 271.827 413.596 278.391 407.032C284.954 400.468 293.857 396.781 303.139 396.781H365.939C375.222 396.781 384.124 400.468 390.688 407.032C397.252 413.596 400.939 422.498 400.939 431.781V573.721H400.929Z" fill="white" stroke="#4A4A4A" stroke-width="4" stroke-linecap="round" stroke-linejoin="round"/>
<path d="M329.74 406.5H338.65C358.02 406.5 373.72 399 373.72 379.63V339.79C373.717 330.491 370.021 321.573 363.445 314.999C356.868 308.424 347.949 304.73 338.65 304.73H329.74C320.44 304.73 311.522 308.424 304.945 314.999C298.369 321.573 294.673 330.491 294.67 339.79V379.63C294.67 399 310.37 406.5 329.74 406.5Z" fill="white" stroke="#4A4A4A" stroke-width="4" stroke-linecap="round" stroke-linejoin="round"/>
<path d="M330.541 357.9C330.541 357.9 341.071 339.74 352.261 335.05C352.741 334.844 353.231 334.664 353.731 334.51L347.811 346.63C347.811 346.63 384.521 347.82 381.281 328.75C378.041 309.68 371.891 292.4 353.731 291C335.571 289.6 302.351 282.72 294.671 302.87C286.991 323.02 283.971 367.12 295.491 394.1C305.801 418.25 307.601 399.76 307.601 399.76L316.141 377C316.141 377 308.371 365 313.621 358.29C321.541 348.2 330.541 357.9 330.541 357.9Z" fill="#EBEBEB" stroke="#4A4A4A" stroke-width="4" stroke-linecap="round" stroke-linejoin="round"/>
<path d="M304.629 284.129C320.059 288.819 328.019 307.519 308.949 324.429C299.849 332.499 315.419 335.949 307.869 354.299C298.089 377.999 291.819 376.999 282.929 378.409C284.554 375.298 285.022 371.712 284.251 368.288C283.481 364.864 281.52 361.824 278.719 359.709C268.639 351.419 281.959 345.709 278.719 336.709C275.479 327.709 263.399 313.709 277.639 293.879C288.469 278.779 304.629 284.129 304.629 284.129Z" fill="#EBEBEB" stroke="#4A4A4A" stroke-width="4" stroke-linecap="round" stroke-linejoin="round"/>
<path d="M282.93 574.811V800.501H413.63V791.501C413.63 780.501 404.02 772.151 393.24 772.151H392.24V574.811" fill="white"/>
<path d="M325.82 604.24V774.33H343.26V604.24" fill="#EBEBEB"/>
<path d="M284.859 575.901V775.421H391.709V574.811" stroke="#4A4A4A" stroke-width="4" stroke-linecap="round" stroke-linejoin="round"/>
<path d="M285.949 573.721V774.331H303.389V573.721" fill="#EBEBEB"/>
<path d="M342.649 775.421H284.859V575.631" stroke="#4A4A4A" stroke-width="4" stroke-linecap="round" stroke-linejoin="round"/>
<path d="M327.16 604.24V774.33" stroke="#4A4A4A" stroke-width="2.5" stroke-linecap="round" stroke-linejoin="round"/>
<path d="M356.82 799.41H284.82V775.41H345.05C348.172 775.41 351.166 776.65 353.373 778.857C355.58 781.065 356.82 784.059 356.82 787.18V799.41Z" stroke="#4A4A4A" stroke-width="4" stroke-linecap="round" stroke-linejoin="round"/>
<path d="M414.07 799.41H327.17V775.41H402.3C405.422 775.41 408.416 776.65 410.623 778.857C412.83 781.065 414.07 784.059 414.07 787.18V799.41Z" fill="white" stroke="#4A4A4A" stroke-width="4" stroke-linecap="round" stroke-linejoin="round"/>
<path d="M415.733 456.688L442.81 467.321C444.584 468.017 446.586 467.144 447.283 465.371L466.052 417.574C466.749 415.801 465.876 413.798 464.102 413.102L437.025 402.469C435.252 401.772 433.249 402.645 432.553 404.419L413.783 452.215C413.087 453.989 413.96 455.991 415.733 456.688Z" fill="#FF9500" stroke="#4A4A4A" stroke-width="2.5" stroke-linecap="round" stroke-linejoin="round"/>
<path d="M453.481 490.689C453.481 490.689 463.371 475.689 464.991 466.159C466.611 456.629 463.731 443.729 462.111 440.309C460.491 436.889 454.561 439.589 453.481 445.709C452.401 451.829 449.341 452.899 446.281 452.539C443.221 452.179 441.061 446.069 438.181 446.969C435.301 447.869 431.711 454.879 430.091 459.199C428.471 463.519 432.781 480.999 432.781 480.999L453.481 490.689Z" fill="white" stroke="#4A4A4A" stroke-width="4" stroke-linecap="round" stroke-linejoin="round"/>
<path d="M369.631 483.13L395.711 533.82C404.961 547.53 429.441 546.07 437.641 531.71L457.741 491.4C458.34 490.44 458.556 489.289 458.345 488.177C458.133 487.065 457.511 486.073 456.601 485.4C450.601 480.92 437.101 475.66 431.971 477.4C426.341 479.4 418.161 491.32 418.161 491.32L420.551 501.78L399.141 423" fill="white"/>
<path d="M369.631 483.13L395.711 533.82C404.961 547.53 429.441 546.07 437.641 531.71L457.741 491.4C458.34 490.44 458.556 489.289 458.345 488.177C458.133 487.065 457.511 486.073 456.601 485.4C450.601 480.92 437.101 475.66 431.971 477.4C426.341 479.4 418.161 491.32 418.161 491.32L420.551 501.78L399.141 423" stroke="#4A4A4A" stroke-width="4" stroke-linecap="round" stroke-linejoin="round"/>
<path d="M308.111 577.87C308.237 578.376 308.246 578.904 308.138 579.413C308.029 579.923 307.806 580.402 307.485 580.812C307.164 581.223 306.754 581.555 306.285 581.783C305.817 582.012 305.302 582.13 304.781 582.13H260.831C260.352 582.151 259.875 582.056 259.44 581.855C259.004 581.653 258.624 581.35 258.33 580.971C258.036 580.592 257.838 580.148 257.751 579.676C257.664 579.204 257.691 578.719 257.831 578.26L266.141 549.42H301.001L308.111 577.87Z" fill="#EBEBEB" stroke="#4A4A4A" stroke-width="4" stroke-miterlimit="10"/>
<path d="M351 577.87C351.126 578.377 351.135 578.905 351.026 579.416C350.917 579.926 350.693 580.405 350.371 580.816C350.049 581.227 349.637 581.559 349.167 581.787C348.697 582.014 348.182 582.132 347.66 582.13H303.72C303.24 582.151 302.763 582.056 302.328 581.855C301.893 581.653 301.513 581.35 301.219 580.971C300.925 580.592 300.726 580.148 300.639 579.676C300.553 579.204 300.58 578.719 300.72 578.26L309.03 549.42H343.88L351 577.87Z" fill="#EBEBEB" stroke="#4A4A4A" stroke-width="4" stroke-miterlimit="10"/>
<path d="M264.811 329.17C264.811 294.58 286.471 270.24 317.031 270.24H328.481C336.196 270.243 343.835 271.772 350.957 274.74C358.078 277.709 364.542 282.057 369.976 287.535C375.409 293.013 379.704 299.512 382.614 306.658C385.524 313.804 386.991 321.455 386.931 329.17V394.89C386.931 415.34 359.111 423.03 325.391 423.03C291.671 423.03 264.811 415.34 264.811 394.89V329.17Z" stroke="#4A4A4A" stroke-width="4" stroke-linecap="round" stroke-linejoin="round"/>
<path d="M290.92 549.42H276.17C260.75 549.42 255.02 536.93 255.02 521.51V417.06C255.018 413.395 255.739 409.765 257.141 406.378C258.544 402.991 260.599 399.914 263.191 397.322C265.783 394.73 268.86 392.674 272.247 391.272C275.634 389.87 279.264 389.149 282.93 389.15V389.15C286.595 389.149 290.225 389.87 293.612 391.272C296.999 392.674 300.076 394.73 302.668 397.322C305.26 399.914 307.316 402.991 308.718 406.378C310.12 409.765 310.841 413.395 310.84 417.06V521.51C310.84 536.93 306.34 549.42 290.92 549.42Z" fill="#EBEBEB" stroke="#4A4A4A" stroke-width="4" stroke-miterlimit="10"/>
<path d="M333.81 549.42H319.06C303.64 549.42 297.91 536.93 297.91 521.51V417.06C297.909 413.395 298.63 409.765 300.032 406.378C301.434 402.991 303.49 399.914 306.082 397.322C308.674 394.73 311.751 392.674 315.138 391.272C318.525 389.87 322.155 389.149 325.82 389.15V389.15C329.485 389.15 333.115 389.872 336.501 391.275C339.887 392.678 342.964 394.733 345.556 397.325C348.147 399.917 350.203 402.994 351.606 406.38C353.008 409.766 353.73 413.395 353.73 417.06V521.51C353.73 536.93 349.23 549.42 333.81 549.42Z" fill="#EBEBEB" stroke="#4A4A4A" stroke-width="4" stroke-miterlimit="10"/>
<path d="M602.62 143.189H596.82C576.678 143.189 560.35 159.518 560.35 179.659V216.269C560.35 236.411 576.678 252.739 596.82 252.739H602.62C622.761 252.739 639.09 236.411 639.09 216.269V179.659C639.09 159.518 622.761 143.189 602.62 143.189Z" fill="#EBEBEB" stroke="#4A4A4A" stroke-width="4" stroke-linecap="round" stroke-linejoin="round"/>
<path d="M623.94 166.809C615.82 193.599 573.45 201.089 571.29 203.519C569.13 205.949 568.21 233.089 563.65 235.879C562.02 236.879 558.24 237.179 554.01 237.799C549.78 238.419 551.01 193.169 552.39 182.649C557.25 145.219 575.24 139.819 586.93 137.989C599.32 135.989 612.03 136.109 620.12 139.079C628.21 142.049 645.52 151.699 646.28 177.239C646.73 191.929 647.28 240.539 647.28 240.539C647.28 240.539 642.4 238.839 639.1 237.219C635.8 235.599 638.93 226.429 639.03 210.939C639.13 195.449 640.46 191.099 637.85 186.239C635.24 181.379 623.94 166.809 623.94 166.809Z" fill="white" stroke="#4A4A4A" stroke-width="4" stroke-linecap="round" stroke-linejoin="round"/>
<path d="M775.861 81.289C804.611 92.829 822.411 105.379 820.321 114.509C816.991 129.039 764.581 129.439 703.251 115.389C641.921 101.339 594.921 78.179 598.251 63.649C600.671 53.069 629.111 49.989 668.061 54.509" stroke="#4A4A4A" stroke-width="4" stroke-linecap="round" stroke-linejoin="round"/>
<path d="M766.351 52.8605C791.731 49.5605 809.581 51.4105 811.811 58.8605C815.401 70.8605 777.151 92.9405 726.381 108.11C675.611 123.28 631.521 125.82 627.931 113.79C625.931 107.05 637.031 97.1605 656.131 87.1105" stroke="#4A4A4A" stroke-width="4" stroke-linecap="round" stroke-linejoin="round"/>
<path d="M584.811 204.139C584.811 203.184 584.999 202.239 585.364 201.357C585.729 200.475 586.265 199.674 586.94 198.998C587.615 198.323 588.416 197.788 589.298 197.423C590.18 197.057 591.126 196.869 592.081 196.869C593.035 196.869 593.981 197.057 594.863 197.423C595.745 197.788 596.546 198.323 597.221 198.998C597.896 199.674 598.432 200.475 598.797 201.357C599.163 202.239 599.351 203.184 599.351 204.139" stroke="#4A4A4A" stroke-width="2.5" stroke-linecap="round" stroke-linejoin="round"/>
<path d="M613.16 204.139C613.16 202.211 613.926 200.362 615.289 198.998C616.653 197.635 618.502 196.869 620.43 196.869C622.358 196.869 624.207 197.635 625.571 198.998C626.934 200.362 627.7 202.211 627.7 204.139" stroke="#4A4A4A" stroke-width="2.5" stroke-linecap="round" stroke-linejoin="round"/>
<path d="M593.35 223.58C608.14 237.42 620.79 223.58 620.79 223.58" stroke="#4A4A4A" stroke-width="2.5" stroke-linecap="round" stroke-linejoin="round"/>
<path d="M745.641 158.18V338.11C745.641 344.074 748.01 349.795 752.228 354.013C756.445 358.23 762.166 360.6 768.131 360.6H955.621" stroke="#FF9500" stroke-width="5" stroke-linecap="round" stroke-linejoin="round"/>
<path d="M722.971 158.18V442.11" stroke="#FF9500" stroke-width="5" stroke-linecap="round" stroke-linejoin="round"/>
<path d="M703.539 158.18V404C703.534 406.954 702.947 409.878 701.811 412.606C700.676 415.333 699.014 417.81 696.92 419.894C694.827 421.979 692.344 423.631 689.612 424.756C686.88 425.881 683.954 426.456 680.999 426.45H478.439" stroke="#FF9500" stroke-width="5" stroke-linecap="round" stroke-linejoin="round"/>
<path d="M681.94 158.18V307.88C681.94 310.833 681.358 313.758 680.228 316.486C679.098 319.215 677.441 321.694 675.353 323.783C673.264 325.871 670.785 327.528 668.056 328.658C665.328 329.788 662.403 330.37 659.45 330.37H652.26" stroke="#FF9500" stroke-width="5" stroke-linecap="round" stroke-linejoin="round"/>
<path d="M858.141 339.551H838.281C820.343 339.551 805.801 354.093 805.801 372.031V425.071C805.801 443.009 820.343 457.551 838.281 457.551H858.141C876.079 457.551 890.621 443.009 890.621 425.071V372.031C890.621 354.093 876.079 339.551 858.141 339.551Z" fill="white" stroke="#4A4A4A" stroke-width="4" stroke-linecap="round" stroke-linejoin="round"/>
<path d="M805.8 349.259C823.91 324.969 864.93 327.669 880.05 339.549C895.17 351.429 892.55 373.159 890.62 422.479C888.69 471.799 848.21 450.899 848.21 450.899C848.21 450.899 832.55 451.159 830.93 437.729C829.31 424.299 836.33 387.729 829.31 381.729C822.29 375.729 806.64 378.999 803.4 372.999C800.16 366.999 800.31 356.629 805.8 349.259Z" fill="#EBEBEB" stroke="#4A4A4A" stroke-width="4" stroke-linecap="round" stroke-linejoin="round"/>
<path d="M780.82 623.391V820.731H779.82C769.04 820.731 759.42 829.111 759.42 840.091V849.091H890.1V623.391" fill="white"/>
<path d="M847.21 652.83V822.91H829.76V652.83" fill="#EBEBEB"/>
<path d="M888.171 624.481V824.001H781.311V623.391" stroke="#4A4A4A" stroke-width="4" stroke-linecap="round" stroke-linejoin="round"/>
<path d="M887.081 622.301V822.911H869.631V622.301" fill="#EBEBEB"/>
<path d="M830.381 824.001H888.171V624.211" stroke="#4A4A4A" stroke-width="4" stroke-linecap="round" stroke-linejoin="round"/>
<path d="M845.859 652.83V822.91" stroke="#4A4A4A" stroke-width="2.5" stroke-linecap="round" stroke-linejoin="round"/>
<path d="M827.999 824H888.189V848H816.189V835.77C816.189 834.221 816.495 832.687 817.089 831.257C817.683 829.826 818.554 828.527 819.651 827.433C820.748 826.34 822.05 825.474 823.483 824.885C824.916 824.295 826.45 823.995 827.999 824V824Z" stroke="#4A4A4A" stroke-width="4" stroke-linecap="round" stroke-linejoin="round"/>
<path d="M770.73 824H845.86V848H759V835.77C759 832.655 760.235 829.668 762.433 827.461C764.632 825.255 767.615 824.011 770.73 824V824Z" fill="white" stroke="#4A4A4A" stroke-width="4" stroke-linecap="round" stroke-linejoin="round"/>
<path d="M735.993 451.073L708.916 461.706C707.143 462.402 706.27 464.405 706.966 466.178L725.736 513.975C726.432 515.748 728.435 516.621 730.208 515.925L757.285 505.292C759.059 504.595 759.932 502.593 759.235 500.819L740.466 453.023C739.769 451.249 737.767 450.376 735.993 451.073Z" fill="#FF9500" stroke="#4A4A4A" stroke-width="2.5" stroke-linecap="round" stroke-linejoin="round"/>
<path d="M807.08 445.359H869.88C879.162 445.359 888.065 449.047 894.629 455.611C901.192 462.174 904.88 471.077 904.88 480.359V622.299H772.09V480.349C772.092 471.07 775.78 462.172 782.341 455.611C788.902 449.049 797.801 445.362 807.08 445.359V445.359Z" fill="white" stroke="#4A4A4A" stroke-width="4" stroke-linecap="round" stroke-linejoin="round"/>
<path d="M719.549 539.269C719.549 539.269 709.649 524.269 708.029 514.749C706.409 505.229 709.289 492.309 710.909 488.889C712.529 485.469 718.469 488.169 719.549 494.289C720.629 500.409 723.689 501.489 726.749 501.129C729.809 500.769 731.969 494.649 734.839 495.549C737.709 496.449 741.319 503.459 742.939 507.779C744.559 512.099 740.239 529.549 740.239 529.549L719.549 539.269Z" fill="white" stroke="#4A4A4A" stroke-width="4" stroke-linecap="round" stroke-linejoin="round"/>
<path d="M908.219 377.75C908.219 343.16 886.559 318.82 855.999 318.82H844.549C836.834 318.823 829.195 320.352 822.073 323.32C814.952 326.289 808.488 330.637 803.054 336.115C797.621 341.593 793.326 348.092 790.416 355.238C787.506 362.384 786.039 370.035 786.099 377.75V443.48C786.099 463.92 829.24 466.41 862.96 466.41C896.68 466.41 908.219 463.92 908.219 443.48V377.75Z" stroke="#4A4A4A" stroke-width="4" stroke-linecap="round" stroke-linejoin="round"/>
<path d="M803.401 531.71L777.321 582.4C768.071 596.11 743.591 594.65 735.381 580.3L715.291 540C714.694 539.04 714.479 537.889 714.691 536.778C714.902 535.667 715.523 534.675 716.431 534C722.431 529.52 735.921 524.27 741.051 526C746.691 528 754.861 540 754.861 540L752.481 550.47L773.881 471.65" fill="white"/>
<path d="M803.401 531.71L777.321 582.4C768.071 596.11 743.591 594.65 735.381 580.3L715.291 540C714.694 539.04 714.479 537.889 714.691 536.778C714.902 535.667 715.523 534.675 716.431 534C722.431 529.52 735.921 524.27 741.051 526C746.691 528 754.861 540 754.861 540L752.481 550.47L773.881 471.65" stroke="#4A4A4A" stroke-width="4" stroke-linecap="round" stroke-linejoin="round"/>
<path d="M864.92 626.45C864.794 626.956 864.785 627.484 864.893 627.993C865.002 628.503 865.225 628.982 865.546 629.392C865.867 629.803 866.277 630.135 866.746 630.363C867.215 630.592 867.729 630.71 868.25 630.71H912.25C912.728 630.73 913.204 630.636 913.638 630.435C914.072 630.233 914.452 629.931 914.746 629.554C915.039 629.176 915.238 628.733 915.326 628.263C915.414 627.793 915.388 627.308 915.25 626.85L906.84 598H872L864.92 626.45Z" fill="#EBEBEB" stroke="#4A4A4A" stroke-width="4" stroke-miterlimit="10"/>
<path d="M882.099 598H896.859C912.269 598 918.009 585.51 918.009 570.09V465.64C918.007 458.239 915.065 451.142 909.832 445.908C904.598 440.674 897.501 437.733 890.099 437.73V437.73C882.697 437.73 875.598 440.671 870.364 445.905C865.13 451.139 862.189 458.238 862.189 465.64V570.09C862.189 585.51 866.689 598 882.099 598Z" fill="#EBEBEB" stroke="#4A4A4A" stroke-width="4" stroke-miterlimit="10"/>
<path d="M822 626.45C821.874 626.956 821.865 627.484 821.973 627.993C822.082 628.503 822.305 628.982 822.626 629.392C822.947 629.803 823.357 630.135 823.826 630.363C824.295 630.592 824.809 630.71 825.33 630.71H869.28C869.758 630.73 870.234 630.636 870.668 630.435C871.103 630.233 871.482 629.931 871.776 629.554C872.069 629.176 872.268 628.733 872.356 628.263C872.444 627.793 872.418 627.308 872.28 626.85L864 598H829.11L822 626.45Z" fill="#EBEBEB" stroke="#4A4A4A" stroke-width="4" stroke-miterlimit="10"/>
<path d="M839.22 598H854C869.42 598 875.15 585.51 875.15 570.09V465.64C875.148 458.239 872.206 451.142 866.973 445.908C861.739 440.674 854.642 437.733 847.24 437.73V437.73C839.838 437.73 832.739 440.671 827.505 445.905C822.271 451.139 819.33 458.238 819.33 465.64V570.09C819.3 585.51 823.8 598 839.22 598Z" fill="#EBEBEB" stroke="#4A4A4A" stroke-width="4" stroke-miterlimit="10"/>
</svg>
