<svg width="1422" height="870" viewBox="0 0 1422 870" fill="none" xmlns="http://www.w3.org/2000/svg">
<path d="M491.809 247C496.059 282.72 490.139 320.431 472.429 345.421C456.309 368.161 429.919 379.68 402.559 382.94C345.139 389.79 291.999 340 283.869 271.79C279.369 234.02 285.599 196.51 305.369 171.17C321.319 150.73 347.479 138.9 373.119 135.84C382.659 134.71 391.119 133.13 400.209 134.95C445.999 144.06 484.999 190.11 491.809 247Z" fill="white"/>
<path d="M883.771 247.001C879.521 282.721 885.441 320.431 903.151 345.421C919.271 368.171 945.661 379.691 973.001 383.001C1030.42 389.841 1083.56 340.071 1091.69 271.841C1096.19 234.071 1089.96 196.561 1070.19 171.221C1054.19 150.781 1028.08 138.951 1002.44 135.891C992.901 134.761 984.441 133.181 975.351 135.001C929.621 144.061 890.551 190.111 883.771 247.001Z" fill="white"/>
<path d="M142.651 742.4C132.271 706.4 126.221 663.08 126.221 616.52C126.221 491.15 170.091 389.52 224.221 389.52C244.521 389.52 263.371 403.81 279.011 428.29L308.151 295.23L436.151 419.23V450.94H436.221C436.221 450.94 657.221 447.52 611.221 741.52" fill="white"/>
<path d="M739.51 741.519V518.519L783.51 408.219V740.229L739.51 741.519Z" fill="white"/>
<path d="M925.51 741.519V518.519L783.51 408.219L888.51 424.999L926.55 518.519" fill="white"/>
<path d="M479.91 114.771C480.985 124.391 485.837 133.19 493.398 139.233C500.958 145.277 510.61 148.071 520.23 147.001L567.12 141.791C571.159 141.351 575.043 139.988 578.471 137.808C581.899 135.629 584.781 132.69 586.893 129.219C589.005 125.749 590.292 121.839 590.652 117.792C591.013 113.746 590.439 109.67 588.975 105.881C587.51 102.091 585.194 98.6888 582.206 95.9366C579.217 93.1844 575.636 91.1559 571.739 90.0079C567.841 88.8598 563.733 88.6228 559.729 89.3152C555.726 90.0076 551.935 91.6109 548.65 94.0012C544.733 86.425 538.288 80.4587 530.432 77.1372C522.576 73.8156 513.806 73.3483 505.642 75.8163C497.478 78.2843 490.435 83.5319 485.735 90.649C481.035 97.7661 478.974 106.304 479.91 114.781V114.771Z" fill="white"/>
<path d="M479.91 114.771C480.985 124.391 485.837 133.19 493.398 139.233C500.958 145.277 510.61 148.071 520.23 147.001L567.12 141.791C571.159 141.351 575.043 139.988 578.471 137.808C581.899 135.629 584.781 132.69 586.893 129.219C589.005 125.749 590.292 121.839 590.652 117.792C591.013 113.746 590.439 109.67 588.975 105.881C587.51 102.091 585.194 98.6888 582.206 95.9366C579.217 93.1844 575.636 91.1559 571.739 90.0079C567.841 88.8598 563.733 88.6228 559.729 89.3152C555.726 90.0076 551.935 91.6109 548.65 94.0012C544.733 86.425 538.288 80.4587 530.432 77.1372C522.576 73.8156 513.806 73.3483 505.642 75.8163C497.478 78.2843 490.435 83.5319 485.735 90.649C481.035 97.7661 478.974 106.304 479.91 114.781V114.771Z" stroke="#4A4A4A" stroke-width="3" stroke-miterlimit="10"/>
<path d="M549.191 126.379C545.038 135.125 537.584 141.864 528.466 145.118C519.348 148.371 509.311 147.871 500.561 143.729" stroke="#4A4A4A" stroke-width="3" stroke-linecap="round" stroke-linejoin="round"/>
<path d="M547.79 129C545.389 133.149 542.193 136.784 538.387 139.697C534.58 142.611 530.237 144.747 525.605 145.982C520.973 147.217 516.143 147.527 511.391 146.895C506.639 146.264 502.059 144.702 497.91 142.3" stroke="#4A4A4A" stroke-width="3" stroke-linecap="round" stroke-linejoin="round"/>
<path d="M978.56 329.431L967.34 325.821C968.51 320.051 969.68 314.291 970.86 308.501L963.86 306.371C962.68 312.171 961.53 317.871 960.37 323.561L949.56 320.081L953 302.941L930.83 296.221C931.83 291.451 932.74 286.821 933.69 282.081C934.03 282.181 934.31 282.271 934.59 282.341C935.95 282.701 937.31 283.111 938.69 283.401C941.08 283.911 942.58 282.571 943.33 279.321C943.67 277.881 944.02 276.441 944.33 274.991C947.883 257.497 951.427 239.991 954.96 222.471C955.44 220.101 955.87 217.721 956.3 215.341C956.88 212.091 956.01 210.091 953.68 209.411C952.29 209.001 950.88 208.741 949.48 208.411L948.66 208.181C949.66 203.411 950.56 198.771 951.53 193.971L974.23 198.291C975.41 192.471 976.56 186.811 977.7 181.141L988.86 183.061C987.687 188.821 986.517 194.584 985.35 200.351L992.56 201.721L996.09 184.311L1007.68 186.311C1007.59 186.771 1007.52 187.231 1007.43 187.691C1006.43 192.851 1005.36 198.011 1004.26 203.161C1004.01 204.331 1004.09 204.951 1005.06 205.161C1005.81 205.382 1006.54 205.677 1007.24 206.041C1011.39 207.849 1014.9 210.845 1017.35 214.651C1020.82 220.051 1022.13 226.461 1020.96 233.851C1020.24 238.752 1018.26 243.383 1015.21 247.291C1011.77 251.789 1006.83 254.904 1001.29 256.071C1000.92 256.151 1000.55 256.261 1000.19 256.361C1000.37 256.713 1000.65 257.007 1000.99 257.211C1004.02 259.032 1006.69 261.383 1008.88 264.151C1012.52 269.108 1014.34 275.176 1014.01 281.321C1013.6 293.851 1008.51 302.701 999.65 308.011C994.39 311.161 988.89 311.621 983.41 311.011C982.56 310.911 982.29 311.211 982.08 312.251C980.92 318.001 979.73 323.701 978.56 329.431ZM967.79 257.551C967.71 257.901 967.65 258.121 967.61 258.341C966.11 265.741 964.61 273.131 963.12 280.531C962.8 282.121 962.56 283.741 962.36 285.361C962.19 286.701 962.56 287.651 963.5 287.971C966.12 288.891 968.75 289.801 971.44 290.511C973.785 291.132 976.171 291.59 978.58 291.881C979.897 292.034 981.231 291.922 982.504 291.551C983.776 291.18 984.962 290.558 985.99 289.721C988.99 287.351 990.99 283.921 991.99 279.551C993.41 273.501 991.99 267.931 988.19 264.611C986.036 262.829 983.511 261.551 980.8 260.871C976.7 259.681 972.59 258.711 968.53 257.661C968.3 257.611 968.08 257.601 967.79 257.551ZM971 242.001C971.225 242.096 971.456 242.18 971.69 242.251C974.4 242.891 977.11 243.551 979.86 244.161C982.98 245.017 986.224 245.331 989.45 245.091C990.834 244.958 992.175 244.543 993.391 243.87C994.608 243.198 995.672 242.282 996.52 241.181C1001.05 235.461 1001.52 224.711 994.65 221.331C993.018 220.48 991.297 219.81 989.52 219.331C985.29 218.331 981.06 217.441 976.88 216.531C976.645 216.498 976.408 216.478 976.17 216.471L971 242.001Z" fill="#FF9500"/>
<path d="M1065.33 275.001C1079.86 207.921 1051.45 144.841 1001.89 134.101C952.331 123.361 900.361 169.001 885.831 236.101C871.301 303.201 899.701 366.261 949.271 377.001C998.841 387.741 1050.8 342.051 1065.33 275.001Z" stroke="#4A4A4A" stroke-width="4" stroke-linecap="round" stroke-linejoin="round"/>
<path d="M1012 136.41C1016.11 136.54 1021.78 139.41 1025.89 140.31C1075.45 151.04 1104.07 213.15 1089.54 280.23C1075.01 347.31 1023.26 392 973.7 381.23C969.59 380.34 959.12 380.74 955.32 379.16" stroke="#4A4A4A" stroke-width="4" stroke-linecap="round" stroke-linejoin="round"/>
<path d="M1051.59 272.001C1038.76 331.211 999.681 371.261 956.591 364.531C955.421 364.361 954.271 364.141 953.111 363.891C908.971 354.331 883.451 299.251 896.621 238.441C909.791 177.631 956.031 137.061 1000.17 146.621C1001.33 146.871 1002.47 147.151 1003.6 147.481C1045.62 159.171 1064.41 212.781 1051.59 272.001Z" stroke="#4A4A4A" stroke-width="2.5" stroke-linecap="round" stroke-linejoin="round"/>
<path d="M1051.59 272C1038.76 331.21 999.26 371.17 955.67 364.33C913.16 352.52 888.85 298.75 901.67 239.54C914.49 180.33 959.08 140.43 1002.67 147.28C1045.2 159.08 1064.42 212.78 1051.59 272Z" stroke="#4A4A4A" stroke-width="4" stroke-linecap="round" stroke-linejoin="round"/>
<path d="M1050.99 167.66L1072.44 172.3" stroke="#4A4A4A" stroke-width="2.5" stroke-linecap="round" stroke-linejoin="round"/>
<path d="M1058.72 181.539L1080.17 186.179" stroke="#4A4A4A" stroke-width="2.5" stroke-linecap="round" stroke-linejoin="round"/>
<path d="M1064.39 195.941L1085.84 200.591" stroke="#4A4A4A" stroke-width="2.5" stroke-linecap="round" stroke-linejoin="round"/>
<path d="M1045.66 326.359L1067.11 331.009" stroke="#4A4A4A" stroke-width="2.5" stroke-linecap="round" stroke-linejoin="round"/>
<path d="M1037.37 338.719L1058.81 343.369" stroke="#4A4A4A" stroke-width="2.5" stroke-linecap="round" stroke-linejoin="round"/>
<path d="M1029.4 348.469L1050.85 353.109" stroke="#4A4A4A" stroke-width="2.5" stroke-linecap="round" stroke-linejoin="round"/>
<path d="M1019.9 357.391L1041.35 362.041" stroke="#4A4A4A" stroke-width="2.5" stroke-linecap="round" stroke-linejoin="round"/>
<path d="M1010.52 364.629L1031.97 369.279" stroke="#4A4A4A" stroke-width="2.5" stroke-linecap="round" stroke-linejoin="round"/>
<path d="M1068.52 212.949L1089.96 217.589" stroke="#4A4A4A" stroke-width="2.5" stroke-linecap="round" stroke-linejoin="round"/>
<path d="M1069.97 233.27L1091.42 237.92" stroke="#4A4A4A" stroke-width="2.5" stroke-linecap="round" stroke-linejoin="round"/>
<path d="M1070.49 253.398L1091.94 258.038" stroke="#4A4A4A" stroke-width="2.5" stroke-linecap="round" stroke-linejoin="round"/>
<path d="M1067.05 272.672L1088.5 277.312" stroke="#4A4A4A" stroke-width="2.5" stroke-linecap="round" stroke-linejoin="round"/>
<path d="M1063.61 291.93L1085.06 296.58" stroke="#4A4A4A" stroke-width="2.5" stroke-linecap="round" stroke-linejoin="round"/>
<path d="M1055.51 310.191L1076.95 314.841" stroke="#4A4A4A" stroke-width="2.5" stroke-linecap="round" stroke-linejoin="round"/>
<path d="M312.001 278.219C295.621 211.559 322.281 147.719 371.531 135.619C420.781 123.519 474.001 167.749 490.361 234.399C506.721 301.049 480.081 364.889 430.831 376.999C381.581 389.109 328.371 344.869 312.001 278.219Z" stroke="#4A4A4A" stroke-width="4" stroke-linecap="round" stroke-linejoin="round"/>
<path d="M361.46 138.23C357.35 138.47 351.76 141.51 347.67 142.51C298.43 154.61 271.54 217.51 287.91 284.14C304.28 350.77 357.25 394.04 406.49 381.94C410.58 380.94 421.06 381.05 424.81 379.36" stroke="#4A4A4A" stroke-width="4" stroke-linecap="round" stroke-linejoin="round"/>
<path d="M325.65 274.87C340.11 333.7 380.28 372.65 423.15 364.73C424.31 364.54 425.46 364.28 426.61 364C470.46 353.23 494.46 297.46 479.61 237C464.76 176.54 417.42 137.3 373.61 148.07C372.46 148.35 371.33 148.66 370.21 149.07C328.51 161.91 311.2 216 325.65 274.87Z" stroke="#4A4A4A" stroke-width="2.5" stroke-linecap="round" stroke-linejoin="round"/>
<path d="M325.65 274.87C340.1 333.7 380.7 372.55 424.08 364.5C466.25 351.5 489.08 297.1 474.61 238.27C460.14 179.44 414.48 140.79 371.1 148.84C328.92 161.81 311.2 216 325.65 274.87Z" stroke="#4A4A4A" stroke-width="4" stroke-linecap="round" stroke-linejoin="round"/>
<path d="M323.371 170.539L302.061 175.779" stroke="#4A4A4A" stroke-width="2.5" stroke-linecap="round" stroke-linejoin="round"/>
<path d="M316.021 184.629L294.711 189.859" stroke="#4A4A4A" stroke-width="2.5" stroke-linecap="round" stroke-linejoin="round"/>
<path d="M310.759 199.191L289.449 204.421" stroke="#4A4A4A" stroke-width="2.5" stroke-linecap="round" stroke-linejoin="round"/>
<path d="M333.08 329.039L311.77 334.269" stroke="#4A4A4A" stroke-width="2.5" stroke-linecap="round" stroke-linejoin="round"/>
<path d="M341.71 341.16L320.4 346.4" stroke="#4A4A4A" stroke-width="2.5" stroke-linecap="round" stroke-linejoin="round"/>
<path d="M349.941 350.691L328.631 355.921" stroke="#4A4A4A" stroke-width="2.5" stroke-linecap="round" stroke-linejoin="round"/>
<path d="M359.679 359.34L338.369 364.58" stroke="#4A4A4A" stroke-width="2.5" stroke-linecap="round" stroke-linejoin="round"/>
<path d="M369.259 366.328L347.949 371.558" stroke="#4A4A4A" stroke-width="2.5" stroke-linecap="round" stroke-linejoin="round"/>
<path d="M307.099 216.289L285.789 221.529" stroke="#4A4A4A" stroke-width="2.5" stroke-linecap="round" stroke-linejoin="round"/>
<path d="M306.21 236.66L284.9 241.89" stroke="#4A4A4A" stroke-width="2.5" stroke-linecap="round" stroke-linejoin="round"/>
<path d="M306.24 256.789L284.93 262.019" stroke="#4A4A4A" stroke-width="2.5" stroke-linecap="round" stroke-linejoin="round"/>
<path d="M310.21 275.949L288.9 281.189" stroke="#4A4A4A" stroke-width="2.5" stroke-linecap="round" stroke-linejoin="round"/>
<path d="M314.179 295.121L292.869 300.351" stroke="#4A4A4A" stroke-width="2.5" stroke-linecap="round" stroke-linejoin="round"/>
<path d="M322.79 313.141L301.48 318.381" stroke="#4A4A4A" stroke-width="2.5" stroke-linecap="round" stroke-linejoin="round"/>
<path d="M441.099 285.469C438.569 292.469 433.799 298.289 426.629 302.939L430.459 318.499L415.459 324.649L411.679 309.259C406.03 310.949 400.175 311.851 394.279 311.939C388.925 312.117 383.581 311.372 378.479 309.739L381.559 280.289C386.455 282.042 391.585 283.053 396.779 283.289C401.542 283.592 406.321 283.057 410.899 281.709C414.459 280.609 416.873 279.382 418.139 278.029C418.746 277.431 419.181 276.681 419.399 275.858C419.617 275.035 419.61 274.168 419.379 273.349C419.171 272.378 418.67 271.494 417.944 270.817C417.218 270.139 416.302 269.7 415.319 269.559C411.756 268.988 408.145 268.774 404.539 268.919C398.851 269.018 393.165 268.644 387.539 267.799C382.357 266.847 377.523 264.527 373.539 261.079C368.999 257.339 365.739 251.529 363.819 243.689C361.589 234.619 362.459 226.369 366.369 219.059C370.189 211.919 376.759 206.919 385.869 204.059L381.979 188.229L398.139 186.719L401.829 201.719C410.689 201.629 418.369 203.339 424.979 206.719L423.449 230.999C415.199 227.629 407.669 226.519 400.919 227.759C394.169 228.999 391.049 231.809 392.099 236.079C392.346 237.078 392.88 237.984 393.635 238.684C394.39 239.384 395.334 239.848 396.349 240.019C399.892 240.732 403.495 241.101 407.109 241.119C412.309 241.174 417.492 241.719 422.589 242.749C426.963 243.794 430.982 245.978 434.239 249.079C437.819 252.339 440.429 257.339 442.069 264.079C443.913 271.143 443.575 278.6 441.099 285.469V285.469Z" fill="#FF9500"/>
<path d="M558.09 436.289C558.09 436.289 567.54 422.129 580.92 422.129H622.64L609.26 435.509H573.83" stroke="#4A4A4A" stroke-width="1.2" stroke-linecap="round" stroke-linejoin="round"/>
<path d="M586.43 443.38L591.94 448.1H621.85L641.13 428.82" stroke="#4A4A4A" stroke-width="1.2" stroke-linecap="round" stroke-linejoin="round"/>
<path d="M643.891 419H658.061C658.061 419 663.571 427.66 656.481 433.95H643.891" stroke="#4A4A4A" stroke-width="1.2" stroke-linecap="round" stroke-linejoin="round"/>
<path d="M680.891 426.59H739.661" stroke="#4A4A4A" stroke-width="1.2" stroke-linecap="round" stroke-linejoin="round"/>
<path d="M668.289 433.93H693.479" stroke="#4A4A4A" stroke-width="1.2" stroke-linecap="round" stroke-linejoin="round"/>
<path d="M558.09 436.289C558.09 436.289 567.54 422.129 580.92 422.129H622.64L609.26 435.509H573.83" stroke="#494949" stroke-width="2.5" stroke-linecap="round" stroke-linejoin="round"/>
<path d="M586.43 443.38L591.94 448.1H621.85L641.13 428.82" stroke="#494949" stroke-width="2.5" stroke-linecap="round" stroke-linejoin="round"/>
<path d="M643.891 419H658.061C658.061 419 663.571 427.66 656.481 433.95H643.891" stroke="#494949" stroke-width="2.5" stroke-linecap="round" stroke-linejoin="round"/>
<path d="M680.891 426.59H739.661" stroke="#494949" stroke-width="2.5" stroke-linecap="round" stroke-linejoin="round"/>
<path d="M668.289 433.93H693.479" stroke="#494949" stroke-width="2.5" stroke-linecap="round" stroke-linejoin="round"/>
<path d="M328.001 98.0802C328.001 98.0802 318.551 83.9102 305.171 83.9102H263.471L276.851 97.2902H312.271" stroke="#4A4A4A" stroke-width="1.2" stroke-linecap="round" stroke-linejoin="round"/>
<path d="M299.681 105.162L294.171 109.882H264.261L244.971 90.6016" stroke="#4A4A4A" stroke-width="1.2" stroke-linecap="round" stroke-linejoin="round"/>
<path d="M242.22 80.7617H228.05C228.05 80.7617 222.54 89.4217 229.62 95.7617H242.22" stroke="#4A4A4A" stroke-width="1.2" stroke-linecap="round" stroke-linejoin="round"/>
<path d="M205.219 88.3711H146.439" stroke="#4A4A4A" stroke-width="1.2" stroke-linecap="round" stroke-linejoin="round"/>
<path d="M217.809 95.7188H192.619" stroke="#4A4A4A" stroke-width="1.2" stroke-linecap="round" stroke-linejoin="round"/>
<path d="M328.001 98.0802C328.001 98.0802 318.551 83.9102 305.171 83.9102H263.471L276.851 97.2902H312.271" stroke="#494949" stroke-width="2.5" stroke-linecap="round" stroke-linejoin="round"/>
<path d="M299.681 105.162L294.171 109.882H264.261L244.971 90.6016" stroke="#494949" stroke-width="2.5" stroke-linecap="round" stroke-linejoin="round"/>
<path d="M242.22 80.7617H228.05C228.05 80.7617 222.54 89.4217 229.62 95.7617H242.22" stroke="#494949" stroke-width="2.5" stroke-linecap="round" stroke-linejoin="round"/>
<path d="M205.219 88.3711H146.439" stroke="#494949" stroke-width="2.5" stroke-linecap="round" stroke-linejoin="round"/>
<path d="M217.809 95.7188H192.619" stroke="#494949" stroke-width="2.5" stroke-linecap="round" stroke-linejoin="round"/>
<path d="M1048.51 742.4V247.52C1048.51 186.52 1243.51 124.52 1243.51 160.52V741.39L1048.51 742.4Z" fill="white"/>
<path d="M993.51 742.4V580.52C993.51 518.52 1022.51 402.52 1048.51 364.52C1000.51 380.52 945.51 438.52 926.51 507.52V742.4H993.51Z" fill="white"/>
<path d="M1146 238.12C1195.77 215.85 1216.5 207.66 1243.5 170.52V245.13C1197.66 281.63 1163.62 308.08 1163.62 308.08L1146 238.12Z" fill="#EBEBEB"/>
<path d="M1289.68 324.691L1296.39 738.521H1331.76V685.271L1318.51 674.521L1318.01 508.021L1299.18 491.851L1298.51 333.521L1289.68 324.691Z" fill="#EBEBEB"/>
<path d="M1146 740.518C1146 740.518 1090.49 422.518 1271.5 227.828V741.518L1146 740.518Z" fill="#EBEBEB"/>
<path d="M994.51 741.52C994.51 741.52 979.83 463.85 1048.51 364.52V741.52H994.51Z" fill="#EBEBEB"/>
<path d="M783.51 409.191V738.521H925.51V518.521L783.51 409.191Z" fill="#EBEBEB"/>
<path d="M739.51 741.519V518.519L783.51 408.219V676.519" stroke="#4A4A4A" stroke-width="3" stroke-linecap="round" stroke-linejoin="round"/>
<path d="M783.51 689.52V722.52" stroke="#4A4A4A" stroke-width="3" stroke-linecap="round" stroke-linejoin="round"/>
<path d="M925.51 741.519V518.519L783.51 408.219L888.51 424.999L926.55 518.519" stroke="#4A4A4A" stroke-width="3" stroke-linecap="round" stroke-linejoin="round"/>
<path d="M926.551 507.52C945.551 438.52 1000.55 380.52 1048.55 364.52C1022.55 402.52 993.551 518.52 993.551 580.52" stroke="#4A4A4A" stroke-width="3" stroke-linecap="round" stroke-linejoin="round"/>
<path d="M994.51 671.52V738.52" stroke="#4A4A4A" stroke-width="3" stroke-linecap="round" stroke-linejoin="round"/>
<path d="M1048.51 742.4V247.52C1048.51 186.52 1243.51 124.52 1243.51 160.52V237.52" stroke="#4A4A4A" stroke-width="3" stroke-linecap="round" stroke-linejoin="round"/>
<path d="M1048.51 247.52C1048.51 273.52 1240.51 226.52 1243.51 160.52" stroke="#4A4A4A" stroke-width="3" stroke-linecap="round" stroke-linejoin="round"/>
<path d="M1134.51 738.52C1134.51 738.52 1077.51 476.52 1134.51 329.52C1169.51 305.52 1271.51 222.52 1271.51 222.52V374.52" stroke="#4A4A4A" stroke-width="3" stroke-linecap="round" stroke-linejoin="round"/>
<path d="M1146 738.518C1142.5 730.518 1100.5 396.128 1271.5 227.828" stroke="#4A4A4A" stroke-width="3" stroke-linecap="round" stroke-linejoin="round"/>
<path d="M1271.51 389.52V738.52" stroke="#4A4A4A" stroke-width="3" stroke-linecap="round" stroke-linejoin="round"/>
<path d="M1278.51 313.52L1298.51 333.52V488.52L1318.01 508.02V671.52L1331.76 685.27V738.52" stroke="#4A4A4A" stroke-width="3" stroke-linecap="round" stroke-linejoin="round"/>
<path d="M436.58 450.941C436.58 450.941 544.22 446.521 531.22 741.521H611.22C640.89 581.191 572.93 458.001 436.58 450.941Z" fill="#EBEBEB"/>
<path d="M308.221 295.52L436.221 418.52V738.52H308.221V295.52Z" fill="#EBEBEB"/>
<path d="M211.711 391.351C200.091 396.351 273.551 395.851 241.181 741.521H277.181V428.521C256.891 385.851 222.431 386.771 211.711 391.351Z" fill="#EBEBEB"/>
<path d="M279.001 428.29C263.361 403.81 244.511 389.52 224.211 389.52C170.081 389.52 126.211 491.15 126.211 616.52C126.211 663.08 132.261 706.37 142.641 742.4" stroke="#4A4A4A" stroke-width="3" stroke-linecap="round" stroke-linejoin="round"/>
<path d="M277.221 741.52V428.52L308.221 295.52V712.52" stroke="#4A4A4A" stroke-width="3" stroke-linecap="round" stroke-linejoin="round"/>
<path d="M308.221 295.52L436.221 418.52V738.52" stroke="#4A4A4A" stroke-width="3" stroke-linecap="round" stroke-linejoin="round"/>
<path d="M146.221 492.23C161.801 461.3 236.791 458.09 277.221 474.12" stroke="#4A4A4A" stroke-width="3" stroke-linecap="round" stroke-linejoin="round"/>
<path d="M506.141 518.519C506.141 518.519 493.221 464.369 436.221 450.939C436.221 450.939 657.221 447.519 611.221 741.519" stroke="#4A4A4A" stroke-width="3" stroke-linecap="round" stroke-linejoin="round"/>
<path d="M531.221 681.52C531.221 681.52 533.221 720.52 531.221 741.52" stroke="#4A4A4A" stroke-width="3" stroke-linecap="round" stroke-linejoin="round"/>
<path d="M122.141 645.16C112.058 655.11 101.277 664.327 89.8809 672.74" stroke="#4A4A4A" stroke-width="3" stroke-linecap="round" stroke-linejoin="round"/>
<path d="M80.2207 742.398H173.181" stroke="#4A4A4A" stroke-width="3" stroke-linecap="round" stroke-linejoin="round"/>
<path d="M711.23 741.52H1352.12" stroke="#4A4A4A" stroke-width="3" stroke-linecap="round" stroke-linejoin="round"/>
<path d="M221.18 741.52H645.23" stroke="#4A4A4A" stroke-width="3" stroke-linecap="round" stroke-linejoin="round"/>
<path d="M314.35 818.798C312.15 820.952 308.973 822.285 304.82 822.798V828.998H299.3V822.998C296.658 822.863 294.045 822.379 291.53 821.558C289.39 820.904 287.378 819.89 285.58 818.558L288.58 811.828C290.086 812.914 291.735 813.786 293.48 814.418C295.344 815.113 297.29 815.56 299.27 815.748V806.538C297.012 806.029 294.801 805.33 292.66 804.448C290.901 803.701 289.35 802.537 288.14 801.058C286.86 799.355 286.216 797.257 286.32 795.128C286.303 793.659 286.59 792.203 287.163 790.85C287.736 789.497 288.583 788.278 289.65 787.268C291.883 785.088 295.09 783.755 299.27 783.268V777.148H304.79V783.148C308.746 783.345 312.595 784.505 316 786.528L313.25 793.308C310.665 791.787 307.796 790.81 304.82 790.438V799.808C307.05 800.285 309.235 800.954 311.35 801.808C313.103 802.537 314.647 803.692 315.84 805.168C317.117 806.851 317.761 808.929 317.66 811.038C317.68 812.491 317.396 813.932 316.826 815.269C316.256 816.605 315.413 817.808 314.35 818.798ZM296.27 796.998C297.164 797.684 298.183 798.19 299.27 798.488V790.658C298.11 790.865 297.038 791.411 296.19 792.228C295.539 792.901 295.18 793.803 295.19 794.738C295.184 795.173 295.278 795.603 295.465 795.995C295.653 796.387 295.928 796.73 296.27 796.998V796.998ZM307.79 814.138C308.11 813.833 308.364 813.465 308.536 813.057C308.708 812.65 308.795 812.211 308.79 811.768C308.804 811.341 308.721 810.916 308.548 810.524C308.375 810.133 308.116 809.786 307.79 809.508C306.915 808.815 305.918 808.293 304.85 807.968V815.568C305.95 815.363 306.97 814.85 307.79 814.088V814.138Z" fill="#FF9500"/>
<path d="M329.34 820.649C326.765 818.974 324.727 816.592 323.47 813.789C320.643 806.922 320.643 799.216 323.47 792.349C324.722 789.54 326.761 787.154 329.34 785.479C331.92 783.929 334.874 783.109 337.885 783.109C340.896 783.109 343.849 783.929 346.43 785.479C349.011 787.152 351.051 789.538 352.3 792.349C355.127 799.216 355.127 806.922 352.3 813.789C351.048 816.595 349.009 818.978 346.43 820.649C343.849 822.2 340.896 823.019 337.885 823.019C334.874 823.019 331.92 822.2 329.34 820.649V820.649ZM343.43 812.439C344.77 810.439 345.43 807.289 345.43 803.069C345.43 798.849 344.76 795.719 343.43 793.699C342.841 792.774 342.028 792.013 341.067 791.485C340.105 790.957 339.027 790.681 337.93 790.681C336.833 790.681 335.754 790.957 334.793 791.485C333.832 792.013 333.019 792.774 332.43 793.699C331.097 795.699 330.43 798.823 330.43 803.069C330.43 807.289 331.1 810.419 332.43 812.439C333.021 813.362 333.834 814.122 334.795 814.648C335.756 815.174 336.834 815.449 337.93 815.449C339.026 815.449 340.104 815.174 341.065 814.648C342.026 814.122 342.839 813.362 343.43 812.439V812.439Z" fill="#FF9500"/>
<path d="M359.33 821.259C358.823 820.754 358.426 820.152 358.161 819.488C357.896 818.824 357.77 818.113 357.79 817.399C357.759 816.688 357.881 815.978 358.146 815.317C358.412 814.657 358.815 814.061 359.33 813.569C360.374 812.629 361.73 812.109 363.135 812.109C364.54 812.109 365.895 812.629 366.94 813.569C367.452 814.063 367.854 814.659 368.119 815.319C368.384 815.979 368.507 816.688 368.48 817.399C368.498 818.113 368.37 818.823 368.106 819.487C367.841 820.15 367.444 820.753 366.94 821.259C365.92 822.247 364.555 822.799 363.135 822.799C361.715 822.799 360.35 822.247 359.33 821.259V821.259Z" fill="#FF9500"/>
<path d="M379.779 820.649C377.201 818.978 375.162 816.595 373.909 813.789C371.082 806.922 371.082 799.216 373.909 792.349C375.158 789.538 377.198 787.152 379.779 785.479C382.36 783.929 385.314 783.109 388.324 783.109C391.335 783.109 394.289 783.929 396.869 785.479C399.448 787.154 401.487 789.54 402.739 792.349C405.566 799.216 405.566 806.922 402.739 813.789C401.482 816.592 399.444 818.974 396.869 820.649C394.289 822.2 391.335 823.019 388.324 823.019C385.314 823.019 382.36 822.2 379.779 820.649V820.649ZM393.859 812.439C395.209 810.439 395.859 807.289 395.859 803.069C395.859 798.849 395.189 795.719 393.859 793.699C393.272 792.772 392.46 792.008 391.498 791.479C390.537 790.95 389.457 790.672 388.359 790.672C387.262 790.672 386.182 790.95 385.22 791.479C384.259 792.008 383.447 792.772 382.859 793.699C381.526 795.699 380.859 798.823 380.859 803.069C380.859 807.289 381.529 810.419 382.859 812.439C383.448 813.364 384.261 814.126 385.222 814.654C386.184 815.181 387.263 815.458 388.359 815.458C389.456 815.458 390.535 815.181 391.496 814.654C392.458 814.126 393.27 813.364 393.859 812.439V812.439Z" fill="#FF9500"/>
<path d="M423.769 783.77V822.359H414.839V790.94H407.119V783.77H423.769Z" fill="#FF9500"/>
<path d="M863.77 776.52V786.19" stroke="#FF9500" stroke-width="7" stroke-miterlimit="10"/>
<path d="M878.43 805.799C879.477 807.622 879.996 809.699 879.93 811.799C879.93 815.179 878.88 817.779 876.78 819.599C874.67 821.419 871.61 822.33 867.58 822.33H851.58V783.77H866.7C870.46 783.77 873.35 784.679 875.36 786.479C876.368 787.406 877.16 788.543 877.678 789.81C878.197 791.077 878.43 792.442 878.36 793.81C878.389 795.537 878.02 797.248 877.28 798.81C876.617 800.222 875.579 801.425 874.28 802.289C876.02 802.958 877.482 804.195 878.43 805.799V805.799ZM858.72 790.5V799.59H865.82C867.247 799.69 868.664 799.282 869.82 798.44C870.296 798.008 870.668 797.475 870.907 796.879C871.146 796.283 871.246 795.64 871.2 795C871.247 794.367 871.147 793.733 870.91 793.145C870.672 792.557 870.303 792.032 869.83 791.609C868.667 790.782 867.254 790.383 865.83 790.479L858.72 790.5ZM871.31 814.5C871.808 814.051 872.197 813.494 872.445 812.872C872.693 812.249 872.794 811.578 872.74 810.909C872.74 807.723 870.843 806.126 867.05 806.12H858.72V815.65H867.05C868.561 815.752 870.063 815.34 871.31 814.479V814.5Z" fill="#FF9500"/>
<path d="M891.83 820.649C889.255 818.974 887.218 816.592 885.96 813.789C883.133 806.922 883.133 799.216 885.96 792.349C887.212 789.54 889.251 787.154 891.83 785.479C894.411 783.929 897.364 783.109 900.375 783.109C903.386 783.109 906.34 783.929 908.92 785.479C911.502 787.152 913.541 789.538 914.79 792.349C916.199 795.748 916.924 799.39 916.924 803.069C916.924 806.748 916.199 810.391 914.79 813.789C913.538 816.595 911.499 818.978 908.92 820.649C906.34 822.2 903.386 823.019 900.375 823.019C897.364 823.019 894.411 822.2 891.83 820.649V820.649ZM905.92 812.439C907.26 810.439 907.92 807.289 907.92 803.069C907.92 798.849 907.25 795.719 905.92 793.699C905.331 792.774 904.518 792.013 903.557 791.485C902.596 790.957 901.517 790.681 900.42 790.681C899.323 790.681 898.245 790.957 897.283 791.485C896.322 792.013 895.509 792.774 894.92 793.699C893.587 795.699 892.92 798.823 892.92 803.069C892.92 807.289 893.59 810.419 894.92 812.439C895.511 813.362 896.324 814.122 897.285 814.648C898.246 815.174 899.324 815.449 900.42 815.449C901.516 815.449 902.594 815.174 903.555 814.648C904.516 814.122 905.329 813.362 905.92 812.439V812.439Z" fill="#FF9500"/>
<path d="M921.82 821.259C921.314 820.754 920.916 820.152 920.651 819.488C920.386 818.824 920.26 818.113 920.28 817.399C920.249 816.688 920.371 815.978 920.636 815.317C920.902 814.657 921.305 814.061 921.82 813.569C922.865 812.629 924.22 812.109 925.625 812.109C927.03 812.109 928.385 812.629 929.43 813.569C929.95 814.058 930.359 814.653 930.63 815.314C930.901 815.974 931.027 816.685 931 817.399C931.02 818.113 930.894 818.824 930.629 819.488C930.364 820.152 929.966 820.754 929.46 821.259C928.44 822.247 927.075 822.799 925.655 822.799C924.235 822.799 922.87 822.247 921.85 821.259H921.82Z" fill="#FF9500"/>
<path d="M942.27 820.649C939.695 818.974 937.657 816.592 936.4 813.789C933.573 806.922 933.573 799.216 936.4 792.349C937.652 789.54 939.69 787.154 942.27 785.479C944.85 783.929 947.804 783.109 950.815 783.109C953.825 783.109 956.779 783.929 959.36 785.479C961.939 787.154 963.977 789.54 965.23 792.349C968.057 799.216 968.057 806.922 965.23 813.789C963.972 816.592 961.934 818.974 959.36 820.649C956.779 822.2 953.825 823.019 950.815 823.019C947.804 823.019 944.85 822.2 942.27 820.649V820.649ZM956.35 812.439C957.7 810.439 958.35 807.289 958.35 803.069C958.35 798.849 957.68 795.719 956.35 793.699C955.762 792.772 954.95 792.008 953.989 791.479C953.027 790.95 951.947 790.672 950.85 790.672C949.752 790.672 948.672 790.95 947.711 791.479C946.749 792.008 945.937 792.772 945.35 793.699C944.016 795.699 943.35 798.823 943.35 803.069C943.35 807.289 944.02 810.419 945.35 812.439C945.938 813.364 946.751 814.126 947.713 814.654C948.674 815.181 949.753 815.458 950.85 815.458C951.946 815.458 953.025 815.181 953.986 814.654C954.948 814.126 955.761 813.364 956.35 812.439V812.439Z" fill="#FF9500"/>
<path d="M979.699 820.649C977.12 818.978 975.081 816.595 973.829 813.789C971.002 806.922 971.002 799.216 973.829 792.349C975.078 789.538 977.118 787.152 979.699 785.479C982.28 783.929 985.234 783.109 988.244 783.109C991.255 783.109 994.209 783.929 996.789 785.479C999.368 787.154 1001.41 789.54 1002.66 792.349C1005.49 799.216 1005.49 806.922 1002.66 813.789C1001.4 816.592 999.364 818.974 996.789 820.649C994.209 822.2 991.255 823.019 988.244 823.019C985.234 823.019 982.28 822.2 979.699 820.649V820.649ZM993.779 812.439C995.119 810.439 995.779 807.289 995.779 803.069C995.779 798.849 995.109 795.719 993.779 793.699C993.192 792.772 992.38 792.008 991.418 791.479C990.457 790.95 989.377 790.672 988.279 790.672C987.182 790.672 986.102 790.95 985.14 791.479C984.179 792.008 983.366 792.772 982.779 793.699C981.446 795.699 980.779 798.823 980.779 803.069C980.779 807.289 981.449 810.419 982.779 812.439C983.368 813.364 984.181 814.126 985.142 814.654C986.104 815.181 987.183 815.458 988.279 815.458C989.376 815.458 990.455 815.181 991.416 814.654C992.378 814.126 993.19 813.364 993.779 812.439V812.439Z" fill="#FF9500"/>
<path d="M1017.13 820.65C1014.55 818.975 1012.51 816.594 1011.25 813.79C1008.42 806.923 1008.42 799.217 1011.25 792.35C1012.5 789.54 1014.55 787.154 1017.13 785.48C1019.71 783.929 1022.66 783.109 1025.67 783.109C1028.68 783.109 1031.63 783.929 1034.21 785.48C1036.79 787.152 1038.83 789.539 1040.08 792.35C1041.49 795.748 1042.21 799.391 1042.21 803.07C1042.21 806.748 1041.49 810.391 1040.08 813.79C1038.83 816.596 1036.79 818.979 1034.21 820.65C1031.63 822.201 1028.68 823.02 1025.67 823.02C1022.66 823.02 1019.71 822.201 1017.13 820.65V820.65ZM1031.21 812.44C1032.55 810.44 1033.21 807.29 1033.21 803.07C1033.21 798.85 1032.54 795.72 1031.21 793.7C1030.62 792.775 1029.81 792.013 1028.85 791.485C1027.88 790.958 1026.81 790.681 1025.71 790.681C1024.61 790.681 1023.53 790.958 1022.57 791.485C1021.61 792.013 1020.8 792.775 1020.21 793.7C1018.88 795.7 1018.21 798.823 1018.21 803.07C1018.21 807.29 1018.88 810.42 1020.21 812.44C1020.8 813.362 1021.61 814.122 1022.57 814.648C1023.54 815.174 1024.61 815.45 1025.71 815.45C1026.8 815.45 1027.88 815.174 1028.84 814.648C1029.81 814.122 1030.62 813.362 1031.21 812.44V812.44Z" fill="#FF9500"/>
<path d="M1054.55 820.649C1051.98 818.974 1049.94 816.592 1048.68 813.789C1045.85 806.922 1045.85 799.216 1048.68 792.349C1049.93 789.54 1051.97 787.154 1054.55 785.479C1057.13 783.929 1060.09 783.109 1063.1 783.109C1066.11 783.109 1069.06 783.929 1071.64 785.479C1074.22 787.152 1076.26 789.538 1077.51 792.349C1080.34 799.216 1080.34 806.922 1077.51 813.789C1076.26 816.595 1074.22 818.978 1071.64 820.649C1069.06 822.2 1066.11 823.019 1063.1 823.019C1060.09 823.019 1057.13 822.2 1054.55 820.649V820.649ZM1068.64 812.439C1069.98 810.439 1070.64 807.289 1070.64 803.069C1070.64 798.849 1069.97 795.719 1068.64 793.699C1068.05 792.774 1067.24 792.013 1066.28 791.485C1065.32 790.957 1064.24 790.681 1063.14 790.681C1062.04 790.681 1060.97 790.957 1060 791.485C1059.04 792.013 1058.23 792.774 1057.64 793.699C1056.31 795.699 1055.64 798.823 1055.64 803.069C1055.64 807.289 1056.31 810.419 1057.64 812.439C1058.23 813.362 1059.04 814.122 1060.01 814.648C1060.97 815.174 1062.05 815.449 1063.14 815.449C1064.24 815.449 1065.31 815.174 1066.28 814.648C1067.24 814.122 1068.05 813.362 1068.64 812.439V812.439Z" fill="#FF9500"/>
<path d="M1092 820.649C1089.42 818.978 1087.38 816.595 1086.13 813.789C1083.3 806.922 1083.3 799.216 1086.13 792.349C1087.38 789.538 1089.42 787.152 1092 785.479C1094.58 783.929 1097.53 783.109 1100.55 783.109C1103.56 783.109 1106.51 783.929 1109.09 785.479C1111.67 787.154 1113.71 789.54 1114.96 792.349C1117.79 799.216 1117.79 806.922 1114.96 813.789C1113.7 816.592 1111.66 818.974 1109.09 820.649C1106.51 822.2 1103.56 823.019 1100.55 823.019C1097.53 823.019 1094.58 822.2 1092 820.649V820.649ZM1106.08 812.439C1107.42 810.439 1108.08 807.289 1108.08 803.069C1108.08 798.849 1107.4 795.719 1106.08 793.699C1105.49 792.772 1104.68 792.008 1103.72 791.479C1102.76 790.95 1101.68 790.672 1100.58 790.672C1099.48 790.672 1098.4 790.95 1097.44 791.479C1096.48 792.008 1095.67 792.772 1095.08 793.699C1093.75 795.699 1093.08 798.823 1093.08 803.069C1093.08 807.289 1093.75 810.419 1095.08 812.439C1095.67 813.364 1096.48 814.126 1097.44 814.654C1098.4 815.181 1099.48 815.458 1100.58 815.458C1101.68 815.458 1102.76 815.181 1103.72 814.654C1104.68 814.126 1105.49 813.364 1106.08 812.439V812.439Z" fill="#FF9500"/>
<path d="M1129.41 820.65C1126.83 818.979 1124.79 816.596 1123.54 813.79C1122.13 810.391 1121.41 806.748 1121.41 803.07C1121.41 799.391 1122.13 795.748 1123.54 792.35C1124.79 789.539 1126.83 787.152 1129.41 785.48C1131.99 783.929 1134.94 783.109 1137.95 783.109C1140.96 783.109 1143.91 783.929 1146.49 785.48C1149.07 787.152 1151.11 789.539 1152.36 792.35C1153.77 795.748 1154.49 799.391 1154.49 803.07C1154.49 806.748 1153.77 810.391 1152.36 813.79C1151.11 816.596 1149.07 818.979 1146.49 820.65C1143.91 822.201 1140.96 823.02 1137.95 823.02C1134.94 823.02 1131.99 822.201 1129.41 820.65ZM1143.49 812.44C1144.83 810.44 1145.49 807.29 1145.49 803.07C1145.49 798.85 1144.82 795.72 1143.49 793.7C1142.9 792.775 1142.09 792.013 1141.13 791.485C1140.17 790.958 1139.09 790.681 1137.99 790.681C1136.89 790.681 1135.81 790.958 1134.85 791.485C1133.89 792.013 1133.08 792.775 1132.49 793.7C1131.16 795.7 1130.49 798.823 1130.49 803.07C1130.49 807.29 1131.16 810.42 1132.49 812.44C1133.08 813.362 1133.89 814.122 1134.85 814.648C1135.82 815.174 1136.89 815.45 1137.99 815.45C1139.09 815.45 1140.16 815.174 1141.12 814.648C1142.09 814.122 1142.9 813.362 1143.49 812.44V812.44Z" fill="#FF9500"/>
<path d="M1166.83 820.649C1164.26 818.974 1162.22 816.592 1160.96 813.789C1158.13 806.922 1158.13 799.216 1160.96 792.349C1162.21 789.54 1164.25 787.154 1166.83 785.479C1169.41 783.929 1172.36 783.109 1175.38 783.109C1178.39 783.109 1181.34 783.929 1183.92 785.479C1186.5 787.152 1188.54 789.538 1189.79 792.349C1192.62 799.216 1192.62 806.922 1189.79 813.789C1188.54 816.595 1186.5 818.978 1183.92 820.649C1181.34 822.2 1178.39 823.019 1175.38 823.019C1172.36 823.019 1169.41 822.2 1166.83 820.649V820.649ZM1180.92 812.439C1182.26 810.439 1182.92 807.289 1182.92 803.069C1182.92 798.849 1182.25 795.719 1180.92 793.699C1180.33 792.774 1179.52 792.013 1178.56 791.485C1177.6 790.957 1176.52 790.681 1175.42 790.681C1174.32 790.681 1173.24 790.957 1172.28 791.485C1171.32 792.013 1170.51 792.774 1169.92 793.699C1168.59 795.699 1167.92 798.823 1167.92 803.069C1167.92 807.289 1168.59 810.419 1169.92 812.439C1170.51 813.362 1171.32 814.122 1172.29 814.648C1173.25 815.174 1174.32 815.449 1175.42 815.449C1176.52 815.449 1177.59 815.174 1178.56 814.648C1179.52 814.122 1180.33 813.362 1180.92 812.439V812.439Z" fill="#FF9500"/>
<path d="M1210.82 783.77V822.359H1201.89V790.94H1194.17V783.77H1210.82Z" fill="#FF9500"/>
<path d="M863.77 819.191V828.851" stroke="#FF9500" stroke-width="7" stroke-miterlimit="10"/>
<path d="M1123.89 138.761C1123.89 144.466 1125.01 150.115 1127.2 155.385C1129.38 160.656 1132.58 165.444 1136.61 169.478C1144.76 177.625 1155.81 182.201 1167.33 182.201H1262.17C1268.38 182.201 1274.34 179.733 1278.74 175.339C1283.13 170.945 1285.6 164.985 1285.6 158.771C1285.6 152.557 1283.13 146.598 1278.74 142.204C1274.34 137.81 1268.38 135.341 1262.17 135.341C1258.71 135.334 1255.29 136.103 1252.17 137.591C1250.36 133.606 1247.74 130.042 1244.48 127.125C1241.21 124.209 1237.38 122.004 1233.21 120.652C1229.05 119.3 1224.65 118.83 1220.3 119.273C1215.94 119.715 1211.73 121.06 1207.92 123.221C1204.28 113.757 1197.44 105.866 1188.59 100.913C1179.74 95.9604 1169.44 94.2592 1159.47 96.104C1149.49 97.9487 1140.48 103.223 1133.99 111.014C1127.5 118.805 1123.94 128.621 1123.92 138.761H1123.89Z" fill="white"/>
<path d="M1123.89 138.761C1123.89 144.466 1125.01 150.115 1127.2 155.385C1129.38 160.656 1132.58 165.444 1136.61 169.478C1144.76 177.625 1155.81 182.201 1167.33 182.201H1262.17C1268.38 182.201 1274.34 179.733 1278.74 175.339C1283.13 170.945 1285.6 164.985 1285.6 158.771C1285.6 152.557 1283.13 146.598 1278.74 142.204C1274.34 137.81 1268.38 135.341 1262.17 135.341C1258.71 135.334 1255.29 136.103 1252.17 137.591C1250.36 133.606 1247.74 130.042 1244.48 127.125C1241.21 124.209 1237.38 122.004 1233.21 120.652C1229.05 119.3 1224.65 118.83 1220.3 119.273C1215.94 119.715 1211.73 121.06 1207.92 123.221C1204.28 113.757 1197.44 105.866 1188.59 100.913C1179.74 95.9604 1169.44 94.2592 1159.47 96.104C1149.49 97.9487 1140.48 103.223 1133.99 111.014C1127.5 118.805 1123.94 128.621 1123.92 138.761H1123.89Z" stroke="#4A4A4A" stroke-width="3" stroke-linecap="round" stroke-linejoin="round"/>
<path d="M1202.56 164.18C1195.82 173.519 1185.64 179.799 1174.27 181.638C1162.9 183.478 1151.26 180.727 1141.92 173.99" stroke="#4A4A4A" stroke-width="3" stroke-linecap="round" stroke-linejoin="round"/>
<path d="M1243.21 175.301C1237.64 179.762 1230.72 182.202 1223.59 182.221" stroke="#4A4A4A" stroke-width="3" stroke-linecap="round" stroke-linejoin="round"/>
</svg>
