<svg width="1422" height="870" viewBox="0 0 1422 870" fill="none" xmlns="http://www.w3.org/2000/svg">
<path d="M468.08 92.2812H321.38C317.033 92.2812 313.51 95.8048 313.51 100.151V325.791C313.51 330.138 317.033 333.661 321.38 333.661H468.08C472.426 333.661 475.95 330.138 475.95 325.791V100.151C475.95 95.8048 472.426 92.2812 468.08 92.2812Z" fill="#EBEBEB" stroke="#4A4A4A" stroke-width="2.5" stroke-linecap="round" stroke-linejoin="round"/>
<path d="M454.131 148.28L469.431 135.98V286.77L454.131 275.53V148.28Z" fill="white"/>
<path d="M469.321 146.353L460.891 153.812V192.413L469.631 183.682V193.842L460.891 201.423V235.232L468.971 227.073L469.321 234.482L460.481 244.353V279.612L454.131 275.643L454.541 149.753L469.321 134.812V146.353Z" fill="#EBEBEB"/>
<path d="M475.95 130.871L454.82 148.841V275.641L475.39 291.251" stroke="#4A4A4A" stroke-width="2.5" stroke-linecap="round" stroke-linejoin="round"/>
<path d="M469.322 136.82V182.41L455.021 197.12" stroke="#4A4A4A" stroke-width="2.5" stroke-linecap="round" stroke-linejoin="round"/>
<path d="M469.322 182.68V225.36L455.021 240.07" stroke="#4A4A4A" stroke-width="2.5" stroke-linecap="round" stroke-linejoin="round"/>
<path d="M469.32 225.359V285.799" stroke="#4A4A4A" stroke-width="2.5" stroke-linecap="round" stroke-linejoin="round"/>
<path d="M331.88 113.202C331.88 112.027 331.532 110.878 330.879 109.902C330.226 108.925 329.299 108.163 328.213 107.714C327.128 107.264 325.933 107.147 324.781 107.376C323.629 107.605 322.571 108.171 321.74 109.002C320.909 109.832 320.343 110.891 320.114 112.043C319.885 113.195 320.003 114.389 320.452 115.475C320.902 116.56 321.663 117.488 322.64 118.141C323.617 118.793 324.765 119.142 325.94 119.142C327.515 119.142 329.026 118.516 330.14 117.402C331.254 116.288 331.88 114.777 331.88 113.202Z" fill="white" stroke="#4A4A4A" stroke-width="2.5" stroke-linecap="round" stroke-linejoin="round"/>
<path d="M331.88 134.811C331.88 133.636 331.532 132.488 330.879 131.511C330.226 130.534 329.299 129.773 328.213 129.323C327.128 128.874 325.933 128.756 324.781 128.985C323.629 129.214 322.571 129.78 321.74 130.611C320.909 131.442 320.343 132.5 320.114 133.652C319.885 134.805 320.003 135.999 320.452 137.084C320.902 138.17 321.663 139.097 322.64 139.75C323.617 140.403 324.765 140.751 325.94 140.751C327.515 140.751 329.026 140.125 330.14 139.011C331.254 137.897 331.88 136.386 331.88 134.811Z" fill="white" stroke="#4A4A4A" stroke-width="2.5" stroke-linecap="round" stroke-linejoin="round"/>
<path d="M331.88 156.51C331.88 155.335 331.532 154.187 330.879 153.21C330.226 152.233 329.299 151.472 328.213 151.022C327.128 150.573 325.933 150.455 324.781 150.684C323.629 150.914 322.571 151.479 321.74 152.31C320.909 153.141 320.343 154.199 320.114 155.351C319.885 156.504 320.003 157.698 320.452 158.783C320.902 159.869 321.663 160.797 322.64 161.449C323.617 162.102 324.765 162.45 325.94 162.45C327.515 162.45 329.026 161.825 330.14 160.711C331.254 159.597 331.88 158.086 331.88 156.51Z" fill="white" stroke="#4A4A4A" stroke-width="2.5" stroke-linecap="round" stroke-linejoin="round"/>
<path d="M331.88 178.17C331.88 176.996 331.532 175.847 330.879 174.87C330.226 173.894 329.299 173.132 328.213 172.683C327.128 172.233 325.933 172.115 324.781 172.345C323.629 172.574 322.571 173.14 321.74 173.97C320.909 174.801 320.343 175.859 320.114 177.012C319.885 178.164 320.003 179.358 320.452 180.444C320.902 181.529 321.663 182.457 322.64 183.109C323.617 183.762 324.765 184.11 325.94 184.11C327.515 184.11 329.026 183.485 330.14 182.371C331.254 181.257 331.88 179.746 331.88 178.17Z" fill="white" stroke="#4A4A4A" stroke-width="2.5" stroke-linecap="round" stroke-linejoin="round"/>
<path d="M331.88 199.78C331.88 198.605 331.532 197.457 330.879 196.48C330.226 195.503 329.299 194.742 328.213 194.292C327.128 193.842 325.933 193.725 324.781 193.954C323.629 194.183 322.571 194.749 321.74 195.58C320.909 196.41 320.343 197.469 320.114 198.621C319.885 199.773 320.003 200.968 320.452 202.053C320.902 203.138 321.663 204.066 322.64 204.719C323.617 205.371 324.765 205.72 325.94 205.72C327.515 205.72 329.026 205.094 330.14 203.98C331.254 202.866 331.88 201.355 331.88 199.78Z" fill="white" stroke="#4A4A4A" stroke-width="2.5" stroke-linecap="round" stroke-linejoin="round"/>
<path d="M331.88 221.483C331.88 220.308 331.532 219.16 330.879 218.183C330.226 217.206 329.299 216.445 328.213 215.995C327.128 215.546 325.933 215.428 324.781 215.657C323.629 215.886 322.571 216.452 321.74 217.283C320.909 218.113 320.343 219.172 320.114 220.324C319.885 221.476 320.003 222.671 320.452 223.756C320.902 224.842 321.663 225.769 322.64 226.422C323.617 227.075 324.765 227.423 325.94 227.423C327.515 227.423 329.026 226.797 330.14 225.683C331.254 224.569 331.88 223.058 331.88 221.483Z" fill="white" stroke="#4A4A4A" stroke-width="2.5" stroke-linecap="round" stroke-linejoin="round"/>
<path d="M331.88 243.003C331.88 241.828 331.532 240.679 330.879 239.702C330.226 238.726 329.299 237.964 328.213 237.515C327.128 237.065 325.933 236.947 324.781 237.177C323.629 237.406 322.571 237.972 321.74 238.802C320.909 239.633 320.343 240.691 320.114 241.844C319.885 242.996 320.003 244.19 320.452 245.276C320.902 246.361 321.663 247.289 322.64 247.941C323.617 248.594 324.765 248.943 325.94 248.943C327.515 248.94 329.024 248.313 330.137 247.2C331.251 246.086 331.877 244.577 331.88 243.003V243.003Z" fill="white" stroke="#4A4A4A" stroke-width="2.5" stroke-linecap="round" stroke-linejoin="round"/>
<path d="M331.88 264.651C331.88 263.476 331.532 262.328 330.879 261.351C330.226 260.374 329.299 259.613 328.213 259.163C327.128 258.714 325.933 258.596 324.781 258.825C323.629 259.054 322.571 259.62 321.74 260.451C320.909 261.281 320.343 262.34 320.114 263.492C319.885 264.644 320.003 265.839 320.452 266.924C320.902 268.009 321.663 268.937 322.64 269.59C323.617 270.243 324.765 270.591 325.94 270.591C326.72 270.592 327.493 270.44 328.215 270.141C328.936 269.843 329.591 269.406 330.143 268.854C330.695 268.302 331.132 267.647 331.431 266.926C331.729 266.204 331.881 265.431 331.88 264.651V264.651Z" fill="white" stroke="#4A4A4A" stroke-width="2.5" stroke-linecap="round" stroke-linejoin="round"/>
<path d="M331.88 286.362C331.88 285.187 331.532 284.039 330.879 283.062C330.226 282.085 329.299 281.324 328.213 280.874C327.128 280.424 325.933 280.307 324.781 280.536C323.629 280.765 322.571 281.331 321.74 282.162C320.909 282.992 320.343 284.051 320.114 285.203C319.885 286.355 320.003 287.55 320.452 288.635C320.902 289.72 321.663 290.648 322.64 291.301C323.617 291.953 324.765 292.302 325.94 292.302C327.515 292.302 329.026 291.676 330.14 290.562C331.254 289.448 331.88 287.937 331.88 286.362Z" fill="white" stroke="#4A4A4A" stroke-width="2.5" stroke-linecap="round" stroke-linejoin="round"/>
<path d="M331.88 308.003C331.88 306.828 331.532 305.679 330.879 304.702C330.226 303.726 329.299 302.964 328.213 302.515C327.128 302.065 325.933 301.947 324.781 302.177C323.629 302.406 322.571 302.972 321.74 303.802C320.909 304.633 320.343 305.691 320.114 306.844C319.885 307.996 320.003 309.19 320.452 310.276C320.902 311.361 321.663 312.289 322.64 312.941C323.617 313.594 324.765 313.943 325.94 313.943C327.515 313.943 329.026 313.317 330.14 312.203C331.254 311.089 331.88 309.578 331.88 308.003Z" fill="white" stroke="#4A4A4A" stroke-width="2.5" stroke-linecap="round" stroke-linejoin="round"/>
<path d="M310.061 111.543H327.191" stroke="#4A4A4A" stroke-width="2.5" stroke-linecap="round" stroke-linejoin="round"/>
<path d="M310.061 115.145H327.191" stroke="#4A4A4A" stroke-width="2.5" stroke-linecap="round" stroke-linejoin="round"/>
<path d="M310.061 133.121H327.191" stroke="#4A4A4A" stroke-width="2.5" stroke-linecap="round" stroke-linejoin="round"/>
<path d="M310.061 136.715H327.191" stroke="#4A4A4A" stroke-width="2.5" stroke-linecap="round" stroke-linejoin="round"/>
<path d="M310.061 154.703H327.191" stroke="#4A4A4A" stroke-width="2.5" stroke-linecap="round" stroke-linejoin="round"/>
<path d="M310.061 158.293H327.191" stroke="#4A4A4A" stroke-width="2.5" stroke-linecap="round" stroke-linejoin="round"/>
<path d="M310.061 176.281H327.191" stroke="#4A4A4A" stroke-width="2.5" stroke-linecap="round" stroke-linejoin="round"/>
<path d="M310.061 179.871H327.191" stroke="#4A4A4A" stroke-width="2.5" stroke-linecap="round" stroke-linejoin="round"/>
<path d="M310.061 197.863H327.191" stroke="#4A4A4A" stroke-width="2.5" stroke-linecap="round" stroke-linejoin="round"/>
<path d="M310.061 201.453H327.191" stroke="#4A4A4A" stroke-width="2.5" stroke-linecap="round" stroke-linejoin="round"/>
<path d="M310.061 219.441H327.191" stroke="#4A4A4A" stroke-width="2.5" stroke-linecap="round" stroke-linejoin="round"/>
<path d="M310.061 223.031H327.191" stroke="#4A4A4A" stroke-width="2.5" stroke-linecap="round" stroke-linejoin="round"/>
<path d="M310.061 241.023H327.191" stroke="#4A4A4A" stroke-width="2.5" stroke-linecap="round" stroke-linejoin="round"/>
<path d="M310.061 244.613H327.191" stroke="#4A4A4A" stroke-width="2.5" stroke-linecap="round" stroke-linejoin="round"/>
<path d="M310.061 262.602H327.191" stroke="#4A4A4A" stroke-width="2.5" stroke-linecap="round" stroke-linejoin="round"/>
<path d="M310.061 266.191H327.191" stroke="#4A4A4A" stroke-width="2.5" stroke-linecap="round" stroke-linejoin="round"/>
<path d="M310.061 284.184H327.191" stroke="#4A4A4A" stroke-width="2.5" stroke-linecap="round" stroke-linejoin="round"/>
<path d="M310.061 287.773H327.191" stroke="#4A4A4A" stroke-width="2.5" stroke-linecap="round" stroke-linejoin="round"/>
<path d="M310.061 305.754H327.191" stroke="#4A4A4A" stroke-width="2.5" stroke-linecap="round" stroke-linejoin="round"/>
<path d="M310.061 309.352H327.191" stroke="#4A4A4A" stroke-width="2.5" stroke-linecap="round" stroke-linejoin="round"/>
<path d="M404.79 271.851H393.52V253.431H385.1C384.43 253.431 384.57 253.971 384.57 254.361C384.57 260.181 384.57 266.008 384.57 271.841H373.31V253.111H350.89C350.84 252.911 350.8 252.851 350.82 252.791C351.51 248.641 352.23 244.501 352.9 240.341C353 239.721 353.38 239.771 353.8 239.771H360.7C363.86 239.771 365.37 238.221 365.37 235.031V186.651C365.427 185.879 365.322 185.104 365.064 184.374C364.805 183.644 364.398 182.976 363.868 182.412C363.338 181.848 362.696 181.401 361.984 181.097C361.271 180.794 360.504 180.642 359.73 180.651C357.89 180.551 356.04 180.561 354.19 180.531C353.07 180.531 351.95 180.531 350.83 180.531V168.581H373.31V150.191H384.58C384.58 155.921 384.58 161.651 384.58 167.381C384.58 168.061 384.79 168.281 385.47 168.261C387.41 168.191 389.35 168.181 391.3 168.161H393.42C393.468 168.035 393.505 167.904 393.53 167.771C393.53 161.911 393.53 156.051 393.53 150.191H404.8C404.8 150.571 404.8 150.961 404.8 151.351C404.8 156.531 404.8 161.711 404.8 166.891C404.8 168.671 404.8 168.661 406.64 168.891C411.645 169.276 416.552 170.489 421.16 172.481C425.52 174.481 428.92 177.481 430.7 182.041C431.888 185.295 432.332 188.774 432 192.221C431.881 195 431.051 197.701 429.589 200.067C428.127 202.432 426.082 204.383 423.65 205.731L422.47 206.411C422.79 206.551 422.92 206.631 423.06 206.681C425.023 207.318 426.952 208.056 428.84 208.891C433.34 211.161 436.55 214.591 437.84 219.611C439.018 224.553 438.928 229.713 437.58 234.611C436.62 238.878 434.33 242.73 431.04 245.611C427.172 248.745 422.553 250.813 417.64 251.611C413.75 252.361 409.76 252.671 405.81 253.101C404.96 253.191 404.71 253.461 404.74 254.281C404.81 255.771 404.74 257.281 404.74 258.751C404.76 263.118 404.776 267.485 404.79 271.851ZM384.79 239.791C388.27 239.791 391.57 239.871 394.86 239.791C399.329 239.769 403.765 239.03 408 237.601C410.67 236.601 413.18 235.331 414.71 232.781C415.423 231.62 415.897 230.328 416.104 228.98C416.31 227.633 416.244 226.258 415.91 224.936C415.577 223.615 414.982 222.373 414.161 221.285C413.34 220.197 412.309 219.285 411.13 218.601C407.508 216.554 403.439 215.428 399.28 215.321C394.85 215.121 390.42 215.181 385.99 215.071C384.99 215.071 384.74 215.321 384.74 216.311C384.74 223.751 384.74 231.191 384.74 238.641L384.79 239.791ZM384.79 192.551C384.79 196.011 384.79 199.481 384.79 202.941C384.79 203.481 384.79 203.851 385.54 203.871C391.21 203.961 396.87 203.951 402.41 202.471C405.247 201.828 407.77 200.211 409.54 197.901C412.21 194.251 411.3 188.211 407.79 185.281C404.95 183.074 401.484 181.824 397.89 181.711C393.84 181.391 389.75 181.471 385.68 181.351C384.89 181.351 384.78 181.701 384.79 182.351C384.81 185.751 384.8 189.151 384.8 192.551H384.79Z" fill="#FF9500"/>
<path d="M766.08 34.0117H619.38C615.033 34.0117 611.51 37.5352 611.51 41.8817V267.522C611.51 271.868 615.033 275.392 619.38 275.392H766.08C770.426 275.392 773.95 271.868 773.95 267.522V41.8817C773.95 37.5352 770.426 34.0117 766.08 34.0117Z" fill="#EBEBEB" stroke="#4A4A4A" stroke-width="2.5" stroke-linecap="round" stroke-linejoin="round"/>
<path d="M752.131 90.0227L767.431 77.7227V228.503L752.131 217.273V90.0227Z" fill="white"/>
<path d="M767.321 88.0908L758.891 95.5508V134.151L767.631 125.421V135.571L758.891 143.161V176.971L766.971 168.811L767.321 176.221L758.481 186.091V221.341L752.131 217.381L752.541 91.4808L767.321 76.5508V88.0908Z" fill="#EBEBEB"/>
<path d="M773.95 72.6133L752.82 90.5833V217.383L773.39 232.983" stroke="#4A4A4A" stroke-width="2.5" stroke-linecap="round" stroke-linejoin="round"/>
<path d="M767.321 78.5625V124.143L753.021 138.853" stroke="#4A4A4A" stroke-width="2.5" stroke-linecap="round" stroke-linejoin="round"/>
<path d="M767.321 124.422V167.102L753.021 181.812" stroke="#4A4A4A" stroke-width="2.5" stroke-linecap="round" stroke-linejoin="round"/>
<path d="M767.32 167.102V227.532" stroke="#4A4A4A" stroke-width="2.5" stroke-linecap="round" stroke-linejoin="round"/>
<path d="M629.88 54.94C629.88 53.7652 629.532 52.6167 628.879 51.6399C628.226 50.6631 627.299 49.9017 626.213 49.4522C625.128 49.0026 623.933 48.8849 622.781 49.1141C621.629 49.3433 620.571 49.9091 619.74 50.7398C618.909 51.5705 618.343 52.6289 618.114 53.7812C617.885 54.9334 618.003 56.1277 618.452 57.2131C618.902 58.2985 619.663 59.2262 620.64 59.8789C621.617 60.5316 622.765 60.88 623.94 60.88C625.515 60.88 627.026 60.2542 628.14 59.1402C629.254 58.0262 629.88 56.5154 629.88 54.94V54.94Z" fill="white" stroke="#4A4A4A" stroke-width="2.5" stroke-linecap="round" stroke-linejoin="round"/>
<path d="M629.88 76.5533C629.88 75.3785 629.532 74.23 628.879 73.2532C628.226 72.2764 627.299 71.515 626.213 71.0654C625.128 70.6159 623.933 70.4982 622.781 70.7274C621.629 70.9566 620.571 71.5223 619.74 72.3531C618.909 73.1838 618.343 74.2422 618.114 75.3944C617.885 76.5467 618.003 77.741 618.452 78.8264C618.902 79.9118 619.663 80.8395 620.64 81.4922C621.617 82.1449 622.765 82.4933 623.94 82.4933C625.515 82.4933 627.026 81.8675 628.14 80.7535C629.254 79.6395 629.88 78.1287 629.88 76.5533V76.5533Z" fill="white" stroke="#4A4A4A" stroke-width="2.5" stroke-linecap="round" stroke-linejoin="round"/>
<path d="M629.88 98.2525C629.88 97.0777 629.532 95.9292 628.879 94.9524C628.226 93.9756 627.299 93.2142 626.213 92.7647C625.128 92.3151 623.933 92.1974 622.781 92.4266C621.629 92.6558 620.571 93.2216 619.74 94.0523C618.909 94.883 618.343 95.9414 618.114 97.0937C617.885 98.2459 618.003 99.4403 618.452 100.526C618.902 101.611 619.663 102.539 620.64 103.191C621.617 103.844 622.765 104.193 623.94 104.193C625.515 104.193 627.026 103.567 628.14 102.453C629.254 101.339 629.88 99.8279 629.88 98.2525V98.2525Z" fill="white" stroke="#4A4A4A" stroke-width="2.5" stroke-linecap="round" stroke-linejoin="round"/>
<path d="M629.88 119.901C629.88 118.726 629.532 117.578 628.879 116.601C628.226 115.624 627.299 114.863 626.213 114.413C625.128 113.964 623.933 113.846 622.781 114.075C621.629 114.304 620.571 114.87 619.74 115.701C618.909 116.531 618.343 117.59 618.114 118.742C617.885 119.894 618.003 121.089 618.452 122.174C618.902 123.259 619.663 124.187 620.64 124.84C621.617 125.493 622.765 125.841 623.94 125.841C624.72 125.842 625.493 125.69 626.215 125.391C626.936 125.093 627.591 124.656 628.143 124.104C628.695 123.552 629.132 122.897 629.431 122.176C629.729 121.454 629.881 120.681 629.88 119.901Z" fill="white" stroke="#4A4A4A" stroke-width="2.5" stroke-linecap="round" stroke-linejoin="round"/>
<path d="M629.88 141.52C629.882 140.345 629.535 139.196 628.884 138.218C628.232 137.239 627.305 136.476 626.22 136.025C625.135 135.574 623.94 135.455 622.787 135.683C621.634 135.911 620.575 136.476 619.743 137.307C618.912 138.137 618.345 139.195 618.115 140.348C617.885 141.5 618.002 142.695 618.451 143.781C618.901 144.867 619.662 145.795 620.639 146.449C621.616 147.102 622.765 147.45 623.94 147.45C624.72 147.452 625.492 147.299 626.212 147.002C626.933 146.704 627.588 146.268 628.14 145.717C628.691 145.166 629.129 144.512 629.428 143.792C629.726 143.072 629.88 142.3 629.88 141.52Z" fill="white" stroke="#4A4A4A" stroke-width="2.5" stroke-linecap="round" stroke-linejoin="round"/>
<path d="M629.88 163.221C629.88 162.046 629.532 160.898 628.879 159.921C628.226 158.944 627.299 158.183 626.213 157.733C625.128 157.284 623.933 157.166 622.781 157.395C621.629 157.625 620.571 158.19 619.74 159.021C618.909 159.852 618.343 160.91 618.114 162.062C617.885 163.215 618.003 164.409 618.452 165.494C618.902 166.58 619.663 167.507 620.64 168.16C621.617 168.813 622.765 169.161 623.94 169.161C625.515 169.161 627.026 168.535 628.14 167.421C629.254 166.307 629.88 164.797 629.88 163.221V163.221Z" fill="white" stroke="#4A4A4A" stroke-width="2.5" stroke-linecap="round" stroke-linejoin="round"/>
<path d="M629.88 184.78C629.88 183.605 629.532 182.457 628.879 181.48C628.226 180.503 627.299 179.742 626.213 179.292C625.128 178.842 623.933 178.725 622.781 178.954C621.629 179.183 620.571 179.749 619.74 180.58C618.909 181.41 618.343 182.469 618.114 183.621C617.885 184.773 618.003 185.968 618.452 187.053C618.902 188.138 619.663 189.066 620.64 189.719C621.617 190.371 622.765 190.72 623.94 190.72C625.515 190.72 627.026 190.094 628.14 188.98C629.254 187.866 629.88 186.355 629.88 184.78V184.78Z" fill="white" stroke="#4A4A4A" stroke-width="2.5" stroke-linecap="round" stroke-linejoin="round"/>
<path d="M629.88 206.393C629.88 205.218 629.532 204.07 628.879 203.093C628.226 202.116 627.299 201.355 626.213 200.905C625.128 200.456 623.933 200.338 622.781 200.567C621.629 200.796 620.571 201.362 619.74 202.193C618.909 203.024 618.343 204.082 618.114 205.234C617.885 206.387 618.003 207.581 618.452 208.666C618.902 209.752 619.663 210.679 620.64 211.332C621.617 211.985 622.765 212.333 623.94 212.333C625.515 212.333 627.026 211.707 628.14 210.593C629.254 209.479 629.88 207.969 629.88 206.393V206.393Z" fill="white" stroke="#4A4A4A" stroke-width="2.5" stroke-linecap="round" stroke-linejoin="round"/>
<path d="M629.88 228.092C629.88 226.918 629.532 225.769 628.879 224.792C628.226 223.815 627.299 223.054 626.213 222.605C625.128 222.155 623.933 222.037 622.781 222.266C621.629 222.496 620.571 223.061 619.74 223.892C618.909 224.723 618.343 225.781 618.114 226.934C617.885 228.086 618.003 229.28 618.452 230.365C618.902 231.451 619.663 232.379 620.64 233.031C621.617 233.684 622.765 234.032 623.94 234.032C625.515 234.032 627.026 233.407 628.14 232.293C629.254 231.179 629.88 229.668 629.88 228.092V228.092Z" fill="white" stroke="#4A4A4A" stroke-width="2.5" stroke-linecap="round" stroke-linejoin="round"/>
<path d="M629.88 249.753C629.88 248.578 629.532 247.429 628.879 246.452C628.226 245.476 627.299 244.714 626.213 244.265C625.128 243.815 623.933 243.697 622.781 243.927C621.629 244.156 620.571 244.722 619.74 245.552C618.909 246.383 618.343 247.441 618.114 248.594C617.885 249.746 618.003 250.94 618.452 252.026C618.902 253.111 619.663 254.039 620.64 254.691C621.617 255.344 622.765 255.693 623.94 255.693C625.515 255.693 627.026 255.067 628.14 253.953C629.254 252.839 629.88 251.328 629.88 249.753V249.753Z" fill="white" stroke="#4A4A4A" stroke-width="2.5" stroke-linecap="round" stroke-linejoin="round"/>
<path d="M608.061 53.2812H625.191" stroke="#4A4A4A" stroke-width="2.5" stroke-linecap="round" stroke-linejoin="round"/>
<path d="M608.061 56.8711H625.191" stroke="#4A4A4A" stroke-width="2.5" stroke-linecap="round" stroke-linejoin="round"/>
<path d="M608.061 74.8594H625.191" stroke="#4A4A4A" stroke-width="2.5" stroke-linecap="round" stroke-linejoin="round"/>
<path d="M608.061 78.4531H625.191" stroke="#4A4A4A" stroke-width="2.5" stroke-linecap="round" stroke-linejoin="round"/>
<path d="M608.061 96.4414H625.191" stroke="#4A4A4A" stroke-width="2.5" stroke-linecap="round" stroke-linejoin="round"/>
<path d="M608.061 100.031H625.191" stroke="#4A4A4A" stroke-width="2.5" stroke-linecap="round" stroke-linejoin="round"/>
<path d="M608.061 118.02H625.191" stroke="#4A4A4A" stroke-width="2.5" stroke-linecap="round" stroke-linejoin="round"/>
<path d="M608.061 121.609H625.191" stroke="#4A4A4A" stroke-width="2.5" stroke-linecap="round" stroke-linejoin="round"/>
<path d="M608.061 139.602H625.191" stroke="#4A4A4A" stroke-width="2.5" stroke-linecap="round" stroke-linejoin="round"/>
<path d="M608.061 143.191H625.191" stroke="#4A4A4A" stroke-width="2.5" stroke-linecap="round" stroke-linejoin="round"/>
<path d="M608.061 161.18H625.191" stroke="#4A4A4A" stroke-width="2.5" stroke-linecap="round" stroke-linejoin="round"/>
<path d="M608.061 164.77H625.191" stroke="#4A4A4A" stroke-width="2.5" stroke-linecap="round" stroke-linejoin="round"/>
<path d="M608.061 182.75H625.191" stroke="#4A4A4A" stroke-width="2.5" stroke-linecap="round" stroke-linejoin="round"/>
<path d="M608.061 186.352H625.191" stroke="#4A4A4A" stroke-width="2.5" stroke-linecap="round" stroke-linejoin="round"/>
<path d="M608.061 204.332H625.191" stroke="#4A4A4A" stroke-width="2.5" stroke-linecap="round" stroke-linejoin="round"/>
<path d="M608.061 207.93H625.191" stroke="#4A4A4A" stroke-width="2.5" stroke-linecap="round" stroke-linejoin="round"/>
<path d="M608.061 225.91H625.191" stroke="#4A4A4A" stroke-width="2.5" stroke-linecap="round" stroke-linejoin="round"/>
<path d="M608.061 229.5H625.191" stroke="#4A4A4A" stroke-width="2.5" stroke-linecap="round" stroke-linejoin="round"/>
<path d="M608.061 247.492H625.191" stroke="#4A4A4A" stroke-width="2.5" stroke-linecap="round" stroke-linejoin="round"/>
<path d="M608.061 251.082H625.191" stroke="#4A4A4A" stroke-width="2.5" stroke-linecap="round" stroke-linejoin="round"/>
<path d="M702.791 213.582H691.521V195.172H683.101C682.431 195.172 682.571 195.702 682.571 196.102C682.571 201.922 682.571 207.745 682.571 213.572H671.311V194.852H648.891C648.891 194.652 648.801 194.582 648.821 194.522C649.511 190.382 650.231 186.232 650.901 182.082C651.001 181.452 651.381 181.502 651.801 181.502H658.701C661.861 181.502 663.371 179.962 663.371 176.772V128.392C663.428 127.62 663.324 126.844 663.065 126.115C662.807 125.385 662.4 124.717 661.869 124.153C661.339 123.589 660.698 123.141 659.985 122.838C659.273 122.535 658.505 122.383 657.731 122.392C655.891 122.282 654.041 122.292 652.191 122.272C651.071 122.272 649.951 122.272 648.831 122.272V110.272H671.311V91.9219H682.581C682.581 97.6519 682.581 103.392 682.581 109.122C682.581 109.802 682.791 110.022 683.471 109.992C685.411 109.932 687.351 109.922 689.301 109.892C690.031 109.892 690.751 109.892 691.421 109.892C691.47 109.769 691.507 109.642 691.531 109.512C691.531 103.652 691.531 97.7885 691.531 91.9219H702.801C702.801 92.3119 702.801 92.6919 702.801 93.0819C702.801 98.2619 702.801 103.442 702.801 108.622C702.801 110.412 702.801 110.392 704.641 110.622C709.646 111.015 714.552 112.231 719.161 114.222C723.521 116.222 726.921 119.222 728.701 123.772C729.895 127.041 730.339 130.538 730.001 134.002C729.884 136.782 729.055 139.485 727.593 141.853C726.131 144.22 724.085 146.172 721.651 147.522L720.471 148.192C720.791 148.342 720.921 148.422 721.061 148.472C723.028 149.1 724.958 149.837 726.841 150.682C729.048 151.681 731.003 153.163 732.56 155.018C734.118 156.874 735.239 159.055 735.841 161.402C737.019 166.344 736.93 171.504 735.581 176.402C734.624 180.67 732.333 184.522 729.041 187.402C725.174 190.535 720.554 192.604 715.641 193.402C711.751 194.162 707.761 194.462 703.811 194.892C702.961 194.982 702.711 195.262 702.741 196.082C702.811 197.562 702.741 199.082 702.741 200.552C702.761 204.842 702.781 209.222 702.791 213.582ZM682.791 181.522C686.271 181.522 689.571 181.602 692.861 181.522C697.331 181.504 701.768 180.765 706.001 179.332C708.661 178.332 711.181 177.062 712.711 174.522C713.425 173.361 713.899 172.068 714.105 170.721C714.311 169.373 714.246 167.998 713.912 166.677C713.578 165.355 712.983 164.114 712.162 163.026C711.341 161.938 710.311 161.025 709.131 160.342C705.511 158.29 701.441 157.163 697.281 157.062C692.851 156.862 688.421 156.922 683.991 156.802C682.991 156.802 682.741 157.062 682.741 158.042C682.741 165.492 682.741 172.932 682.741 180.372L682.791 181.522ZM682.791 134.282C682.791 137.752 682.791 141.212 682.791 144.682C682.791 145.212 682.791 145.592 683.541 145.612C689.211 145.702 694.871 145.692 700.411 144.212C703.249 143.569 705.772 141.952 707.541 139.642C710.211 135.982 709.301 129.942 705.791 127.022C702.952 124.815 699.486 123.565 695.891 123.452C691.891 123.132 687.751 123.212 683.681 123.082C682.891 123.082 682.781 123.432 682.791 124.082C682.811 127.482 682.801 130.882 682.801 134.282H682.791Z" fill="#FF9500"/>
<path d="M1048.08 98.75H901.38C897.033 98.75 893.51 102.274 893.51 106.62V332.26C893.51 336.606 897.033 340.13 901.38 340.13H1048.08C1052.43 340.13 1055.95 336.606 1055.95 332.26V106.62C1055.95 102.274 1052.43 98.75 1048.08 98.75Z" fill="#EBEBEB" stroke="#4A4A4A" stroke-width="2.5" stroke-linecap="round" stroke-linejoin="round"/>
<path d="M1034.13 154.749L1049.43 142.449V293.239L1034.13 281.999V154.749Z" fill="white"/>
<path d="M1049.32 152.819L1040.89 160.289V198.879L1049.63 190.149V200.309L1040.89 207.889V241.709L1048.97 233.539L1049.32 240.949L1040.48 250.819V286.079L1034.13 282.119L1034.54 156.219L1049.32 141.289V152.819Z" fill="#EBEBEB"/>
<path d="M1055.95 137.352L1034.82 155.312V282.122L1055.39 297.722" stroke="#4A4A4A" stroke-width="2.5" stroke-linecap="round" stroke-linejoin="round"/>
<path d="M1049.32 143.289V188.879L1035.03 203.589" stroke="#4A4A4A" stroke-width="2.5" stroke-linecap="round" stroke-linejoin="round"/>
<path d="M1049.32 189.148V231.838L1035.03 246.548" stroke="#4A4A4A" stroke-width="2.5" stroke-linecap="round" stroke-linejoin="round"/>
<path d="M1049.32 231.84V292.27" stroke="#4A4A4A" stroke-width="2.5" stroke-linecap="round" stroke-linejoin="round"/>
<path d="M911.88 119.68C911.882 118.505 911.535 117.356 910.884 116.378C910.232 115.4 909.305 114.637 908.22 114.186C907.135 113.734 905.94 113.615 904.787 113.843C903.634 114.071 902.575 114.636 901.743 115.467C900.912 116.297 900.345 117.355 900.115 118.508C899.885 119.66 900.002 120.855 900.451 121.941C900.901 123.027 901.662 123.956 902.639 124.609C903.616 125.262 904.765 125.61 905.94 125.61C906.72 125.612 907.492 125.459 908.212 125.162C908.933 124.865 909.588 124.428 910.14 123.877C910.691 123.326 911.129 122.672 911.428 121.952C911.726 121.232 911.88 120.46 911.88 119.68V119.68Z" fill="white" stroke="#4A4A4A" stroke-width="2.5" stroke-linecap="round" stroke-linejoin="round"/>
<path d="M911.88 141.292C911.88 140.117 911.532 138.968 910.879 137.991C910.226 137.015 909.299 136.253 908.213 135.804C907.128 135.354 905.933 135.237 904.781 135.466C903.629 135.695 902.571 136.261 901.74 137.091C900.909 137.922 900.343 138.98 900.114 140.133C899.885 141.285 900.003 142.479 900.452 143.565C900.902 144.65 901.663 145.578 902.64 146.23C903.617 146.883 904.765 147.232 905.94 147.232C906.72 147.233 907.493 147.08 908.215 146.782C908.936 146.484 909.591 146.047 910.143 145.495C910.695 144.943 911.132 144.288 911.431 143.566C911.729 142.845 911.881 142.072 911.88 141.292V141.292Z" fill="white" stroke="#4A4A4A" stroke-width="2.5" stroke-linecap="round" stroke-linejoin="round"/>
<path d="M911.88 162.999C911.88 161.824 911.532 160.675 910.879 159.699C910.226 158.722 909.299 157.96 908.213 157.511C907.128 157.061 905.933 156.944 904.781 157.173C903.629 157.402 902.571 157.968 901.74 158.798C900.909 159.629 900.343 160.688 900.114 161.84C899.885 162.992 900.003 164.186 900.452 165.272C900.902 166.357 901.663 167.285 902.64 167.938C903.617 168.59 904.765 168.939 905.94 168.939C907.515 168.939 909.026 168.313 910.14 167.199C911.254 166.085 911.88 164.574 911.88 162.999V162.999Z" fill="white" stroke="#4A4A4A" stroke-width="2.5" stroke-linecap="round" stroke-linejoin="round"/>
<path d="M911.88 184.639C911.88 183.464 911.532 182.316 910.879 181.339C910.226 180.362 909.299 179.601 908.213 179.151C907.128 178.702 905.933 178.584 904.781 178.813C903.629 179.043 902.571 179.608 901.74 180.439C900.909 181.27 900.343 182.328 900.114 183.48C899.885 184.633 900.003 185.827 900.452 186.912C900.902 187.998 901.663 188.925 902.64 189.578C903.617 190.231 904.765 190.579 905.94 190.579C907.515 190.579 909.026 189.953 910.14 188.839C911.254 187.725 911.88 186.215 911.88 184.639V184.639Z" fill="white" stroke="#4A4A4A" stroke-width="2.5" stroke-linecap="round" stroke-linejoin="round"/>
<path d="M911.88 206.249C911.88 205.074 911.532 203.925 910.879 202.949C910.226 201.972 909.299 201.21 908.213 200.761C907.128 200.311 905.933 200.194 904.781 200.423C903.629 200.652 902.571 201.218 901.74 202.048C900.909 202.879 900.343 203.938 900.114 205.09C899.885 206.242 900.003 207.436 900.452 208.522C900.902 209.607 901.663 210.535 902.64 211.188C903.617 211.84 904.765 212.189 905.94 212.189C907.515 212.189 909.026 211.563 910.14 210.449C911.254 209.335 911.88 207.824 911.88 206.249V206.249Z" fill="white" stroke="#4A4A4A" stroke-width="2.5" stroke-linecap="round" stroke-linejoin="round"/>
<path d="M911.88 227.999C911.88 226.824 911.532 225.675 910.879 224.699C910.226 223.722 909.299 222.96 908.213 222.511C907.128 222.061 905.933 221.944 904.781 222.173C903.629 222.402 902.571 222.968 901.74 223.798C900.909 224.629 900.343 225.688 900.114 226.84C899.885 227.992 900.003 229.186 900.452 230.272C900.902 231.357 901.663 232.285 902.64 232.938C903.617 233.59 904.765 233.939 905.94 233.939C907.515 233.939 909.026 233.313 910.14 232.199C911.254 231.085 911.88 229.574 911.88 227.999V227.999Z" fill="white" stroke="#4A4A4A" stroke-width="2.5" stroke-linecap="round" stroke-linejoin="round"/>
<path d="M911.88 249.518C911.88 248.343 911.532 247.195 910.879 246.218C910.226 245.241 909.299 244.48 908.213 244.03C907.128 243.581 905.933 243.463 904.781 243.692C903.629 243.921 902.571 244.487 901.74 245.318C900.909 246.149 900.343 247.207 900.114 248.359C899.885 249.512 900.003 250.706 900.452 251.791C900.902 252.877 901.663 253.804 902.64 254.457C903.617 255.11 904.765 255.458 905.94 255.458C907.515 255.458 909.026 254.832 910.14 253.718C911.254 252.604 911.88 251.094 911.88 249.518V249.518Z" fill="white" stroke="#4A4A4A" stroke-width="2.5" stroke-linecap="round" stroke-linejoin="round"/>
<path d="M911.88 271.131C911.88 269.957 911.532 268.808 910.879 267.831C910.226 266.855 909.299 266.093 908.213 265.644C907.128 265.194 905.933 265.076 904.781 265.306C903.629 265.535 902.571 266.1 901.74 266.931C900.909 267.762 900.343 268.82 900.114 269.973C899.885 271.125 900.003 272.319 900.452 273.405C900.902 274.49 901.663 275.418 902.64 276.07C903.617 276.723 904.765 277.071 905.94 277.071C907.515 277.071 909.026 276.446 910.14 275.332C911.254 274.218 911.88 272.707 911.88 271.131V271.131Z" fill="white" stroke="#4A4A4A" stroke-width="2.5" stroke-linecap="round" stroke-linejoin="round"/>
<path d="M911.88 292.831C911.88 291.656 911.532 290.507 910.879 289.531C910.226 288.554 909.299 287.792 908.213 287.343C907.128 286.893 905.933 286.776 904.781 287.005C903.629 287.234 902.571 287.8 901.74 288.63C900.909 289.461 900.343 290.52 900.114 291.672C899.885 292.824 900.003 294.018 900.452 295.104C900.902 296.189 901.663 297.117 902.64 297.77C903.617 298.422 904.765 298.771 905.94 298.771C907.515 298.771 909.026 298.145 910.14 297.031C911.254 295.917 911.88 294.406 911.88 292.831V292.831Z" fill="white" stroke="#4A4A4A" stroke-width="2.5" stroke-linecap="round" stroke-linejoin="round"/>
<path d="M911.88 314.479C911.88 313.304 911.532 312.156 910.879 311.179C910.226 310.202 909.299 309.441 908.213 308.991C907.128 308.542 905.933 308.424 904.781 308.653C903.629 308.882 902.571 309.448 901.74 310.279C900.909 311.11 900.343 312.168 900.114 313.32C899.885 314.472 900.003 315.667 900.452 316.752C900.902 317.838 901.663 318.765 902.64 319.418C903.617 320.071 904.765 320.419 905.94 320.419C907.515 320.419 909.026 319.793 910.14 318.679C911.254 317.565 911.88 316.054 911.88 314.479V314.479Z" fill="white" stroke="#4A4A4A" stroke-width="2.5" stroke-linecap="round" stroke-linejoin="round"/>
<path d="M890.061 118.02H907.191" stroke="#4A4A4A" stroke-width="2.5" stroke-linecap="round" stroke-linejoin="round"/>
<path d="M890.061 121.609H907.191" stroke="#4A4A4A" stroke-width="2.5" stroke-linecap="round" stroke-linejoin="round"/>
<path d="M890.061 139.598H907.191" stroke="#4A4A4A" stroke-width="2.5" stroke-linecap="round" stroke-linejoin="round"/>
<path d="M890.061 143.191H907.191" stroke="#4A4A4A" stroke-width="2.5" stroke-linecap="round" stroke-linejoin="round"/>
<path d="M890.061 161.18H907.191" stroke="#4A4A4A" stroke-width="2.5" stroke-linecap="round" stroke-linejoin="round"/>
<path d="M890.061 164.77H907.191" stroke="#4A4A4A" stroke-width="2.5" stroke-linecap="round" stroke-linejoin="round"/>
<path d="M890.061 182.75H907.191" stroke="#4A4A4A" stroke-width="2.5" stroke-linecap="round" stroke-linejoin="round"/>
<path d="M890.061 186.348H907.191" stroke="#4A4A4A" stroke-width="2.5" stroke-linecap="round" stroke-linejoin="round"/>
<path d="M890.061 204.328H907.191" stroke="#4A4A4A" stroke-width="2.5" stroke-linecap="round" stroke-linejoin="round"/>
<path d="M890.061 207.918H907.191" stroke="#4A4A4A" stroke-width="2.5" stroke-linecap="round" stroke-linejoin="round"/>
<path d="M890.061 225.91H907.191" stroke="#4A4A4A" stroke-width="2.5" stroke-linecap="round" stroke-linejoin="round"/>
<path d="M890.061 229.5H907.191" stroke="#4A4A4A" stroke-width="2.5" stroke-linecap="round" stroke-linejoin="round"/>
<path d="M890.061 247.488H907.191" stroke="#4A4A4A" stroke-width="2.5" stroke-linecap="round" stroke-linejoin="round"/>
<path d="M890.061 251.078H907.191" stroke="#4A4A4A" stroke-width="2.5" stroke-linecap="round" stroke-linejoin="round"/>
<path d="M890.061 269.07H907.191" stroke="#4A4A4A" stroke-width="2.5" stroke-linecap="round" stroke-linejoin="round"/>
<path d="M890.061 272.66H907.191" stroke="#4A4A4A" stroke-width="2.5" stroke-linecap="round" stroke-linejoin="round"/>
<path d="M890.061 290.648H907.191" stroke="#4A4A4A" stroke-width="2.5" stroke-linecap="round" stroke-linejoin="round"/>
<path d="M890.061 294.238H907.191" stroke="#4A4A4A" stroke-width="2.5" stroke-linecap="round" stroke-linejoin="round"/>
<path d="M890.061 312.23H907.191" stroke="#4A4A4A" stroke-width="2.5" stroke-linecap="round" stroke-linejoin="round"/>
<path d="M890.061 315.82H907.191" stroke="#4A4A4A" stroke-width="2.5" stroke-linecap="round" stroke-linejoin="round"/>
<path d="M984.791 278.32H973.521V259.91C970.651 259.91 967.871 259.91 965.101 259.91C964.431 259.91 964.571 260.45 964.571 260.84C964.571 266.673 964.571 272.5 964.571 278.32H953.311V259.58H930.891C930.891 259.38 930.801 259.32 930.821 259.26C931.511 255.11 932.231 250.97 932.901 246.81C933.001 246.19 933.381 246.24 933.801 246.24H940.701C943.861 246.24 945.371 244.69 945.371 241.5V193.12C945.427 192.348 945.321 191.574 945.062 190.845C944.803 190.116 944.396 189.448 943.866 188.884C943.336 188.321 942.695 187.873 941.983 187.569C941.272 187.266 940.505 187.113 939.731 187.12C937.891 187.02 936.041 187.03 934.191 187H930.831V175H953.311V156.66H964.581C964.581 162.39 964.581 168.12 964.581 173.85C964.581 174.53 964.791 174.76 965.471 174.73C967.411 174.66 969.351 174.65 971.301 174.63H973.421C973.467 174.506 973.504 174.379 973.531 174.25C973.531 168.377 973.531 162.513 973.531 156.66H984.801C984.801 157.04 984.801 157.43 984.801 157.82C984.801 163 984.801 168.18 984.801 173.36C984.801 175.14 984.801 175.13 986.641 175.36C991.646 175.749 996.552 176.962 1001.16 178.95C1005.52 180.95 1008.92 183.95 1010.7 188.51C1011.91 191.77 1012.37 195.259 1012.05 198.72C1011.93 201.499 1011.1 204.2 1009.64 206.566C1008.18 208.931 1006.13 210.882 1003.7 212.23L1002.52 212.91L1003.11 213.19C1005.08 213.819 1007.01 214.553 1008.89 215.39C1013.39 217.66 1016.6 221.09 1017.89 226.11C1019.07 231.052 1018.98 236.212 1017.63 241.11C1016.67 245.377 1014.38 249.229 1011.09 252.11C1007.22 255.244 1002.6 257.312 997.691 258.11C993.801 258.87 989.811 259.17 985.861 259.6C985.011 259.69 984.761 259.97 984.791 260.78C984.861 262.27 984.791 263.78 984.791 265.25C984.778 269.597 984.778 273.953 984.791 278.32ZM964.791 246.26C968.271 246.26 971.571 246.34 974.861 246.26C979.331 246.243 983.768 245.503 988.001 244.07C990.671 243.07 993.181 241.8 994.711 239.25C995.425 238.09 995.898 236.798 996.105 235.451C996.311 234.105 996.245 232.731 995.911 231.41C995.578 230.089 994.983 228.848 994.162 227.761C993.341 226.674 992.31 225.763 991.131 225.08C987.511 223.028 983.441 221.902 979.281 221.8C974.851 221.6 970.421 221.65 965.991 221.54C964.991 221.54 964.741 221.79 964.741 222.78C964.741 230.23 964.741 237.67 964.741 245.11L964.791 246.26ZM964.791 199.02C964.791 202.493 964.791 205.957 964.791 209.41C964.791 209.95 964.791 210.33 965.541 210.34C971.211 210.43 976.871 210.43 982.411 208.94C985.246 208.296 987.768 206.684 989.541 204.38C992.211 200.72 991.301 194.68 987.791 191.75C984.948 189.55 981.484 188.301 977.891 188.18C973.891 187.86 969.751 187.94 965.681 187.82C964.891 187.82 964.781 188.17 964.791 188.82C964.811 192.22 964.801 195.62 964.801 199L964.791 199.02Z" fill="#FF9500"/>
<path d="M1193.05 465.953H1046.35C1042 465.953 1038.48 469.477 1038.48 473.823V699.463C1038.48 703.81 1042 707.333 1046.35 707.333H1193.05C1197.4 707.333 1200.92 703.81 1200.92 699.463V473.823C1200.92 469.477 1197.4 465.953 1193.05 465.953Z" fill="#EBEBEB" stroke="#4A4A4A" stroke-width="2.5" stroke-linecap="round" stroke-linejoin="round"/>
<path d="M1179.1 521.964L1194.4 509.664V660.454L1179.1 649.214V521.964Z" fill="white"/>
<path d="M1194.29 520.032L1185.86 527.492V566.092L1194.6 557.362V567.522L1185.86 575.102V608.912L1193.94 600.752L1194.29 608.162L1185.45 618.032V653.292L1179.1 649.322L1179.51 523.422L1194.29 508.492V520.032Z" fill="#EBEBEB"/>
<path d="M1200.92 504.555L1179.79 522.525V649.325L1200.36 664.925" stroke="#4A4A4A" stroke-width="2.5" stroke-linecap="round" stroke-linejoin="round"/>
<path d="M1194.29 510.504V556.084L1179.99 570.794" stroke="#4A4A4A" stroke-width="2.5" stroke-linecap="round" stroke-linejoin="round"/>
<path d="M1194.29 556.363V599.043L1179.99 613.753" stroke="#4A4A4A" stroke-width="2.5" stroke-linecap="round" stroke-linejoin="round"/>
<path d="M1194.29 599.043V659.473" stroke="#4A4A4A" stroke-width="2.5" stroke-linecap="round" stroke-linejoin="round"/>
<path d="M1056.85 486.881C1056.85 485.707 1056.5 484.558 1055.85 483.581C1055.2 482.605 1054.27 481.843 1053.18 481.394C1052.1 480.944 1050.9 480.826 1049.75 481.056C1048.6 481.285 1047.54 481.85 1046.71 482.681C1045.88 483.512 1045.31 484.57 1045.08 485.723C1044.86 486.875 1044.97 488.069 1045.42 489.155C1045.87 490.24 1046.63 491.168 1047.61 491.82C1048.59 492.473 1049.74 492.821 1050.91 492.821C1052.49 492.821 1054 492.196 1055.11 491.082C1056.22 489.968 1056.85 488.457 1056.85 486.881V486.881Z" fill="white" stroke="#4A4A4A" stroke-width="2.5" stroke-linecap="round" stroke-linejoin="round"/>
<path d="M1056.85 508.495C1056.85 507.32 1056.5 506.171 1055.85 505.195C1055.2 504.218 1054.27 503.456 1053.18 503.007C1052.1 502.557 1050.9 502.44 1049.75 502.669C1048.6 502.898 1047.54 503.464 1046.71 504.294C1045.88 505.125 1045.31 506.184 1045.08 507.336C1044.86 508.488 1044.97 509.682 1045.42 510.768C1045.87 511.853 1046.63 512.781 1047.61 513.434C1048.59 514.086 1049.74 514.435 1050.91 514.435C1051.69 514.435 1052.46 514.281 1053.18 513.983C1053.9 513.684 1054.56 513.246 1055.11 512.695C1055.66 512.143 1056.1 511.489 1056.4 510.768C1056.7 510.047 1056.85 509.275 1056.85 508.495V508.495Z" fill="white" stroke="#4A4A4A" stroke-width="2.5" stroke-linecap="round" stroke-linejoin="round"/>
<path d="M1056.85 530.194C1056.85 529.019 1056.5 527.871 1055.85 526.894C1055.2 525.917 1054.27 525.156 1053.18 524.706C1052.1 524.256 1050.9 524.139 1049.75 524.368C1048.6 524.597 1047.54 525.163 1046.71 525.994C1045.88 526.824 1045.31 527.883 1045.08 529.035C1044.86 530.187 1044.97 531.382 1045.42 532.467C1045.87 533.552 1046.63 534.48 1047.61 535.133C1048.59 535.786 1049.74 536.134 1050.91 536.134C1052.49 536.134 1054 535.508 1055.11 534.394C1056.22 533.28 1056.85 531.769 1056.85 530.194Z" fill="white" stroke="#4A4A4A" stroke-width="2.5" stroke-linecap="round" stroke-linejoin="round"/>
<path d="M1056.85 551.854C1056.85 550.679 1056.5 549.531 1055.85 548.554C1055.2 547.577 1054.27 546.816 1053.18 546.366C1052.1 545.917 1050.9 545.799 1049.75 546.028C1048.6 546.257 1047.54 546.823 1046.71 547.654C1045.88 548.485 1045.31 549.543 1045.08 550.695C1044.86 551.847 1044.97 553.042 1045.42 554.127C1045.87 555.213 1046.63 556.14 1047.61 556.793C1048.59 557.446 1049.74 557.794 1050.91 557.794C1052.49 557.794 1054 557.168 1055.11 556.054C1056.22 554.94 1056.85 553.429 1056.85 551.854Z" fill="white" stroke="#4A4A4A" stroke-width="2.5" stroke-linecap="round" stroke-linejoin="round"/>
<path d="M1056.85 573.463C1056.85 572.289 1056.5 571.14 1055.85 570.163C1055.2 569.187 1054.27 568.425 1053.18 567.976C1052.1 567.526 1050.9 567.408 1049.75 567.638C1048.6 567.867 1047.54 568.432 1046.71 569.263C1045.88 570.094 1045.31 571.152 1045.08 572.305C1044.86 573.457 1044.97 574.651 1045.42 575.737C1045.87 576.822 1046.63 577.75 1047.61 578.402C1048.59 579.055 1049.74 579.403 1050.91 579.403C1052.49 579.403 1054 578.778 1055.11 577.664C1056.22 576.55 1056.85 575.039 1056.85 573.463Z" fill="white" stroke="#4A4A4A" stroke-width="2.5" stroke-linecap="round" stroke-linejoin="round"/>
<path d="M1056.85 595.163C1056.85 593.988 1056.5 592.839 1055.85 591.863C1055.2 590.886 1054.27 590.124 1053.18 589.675C1052.1 589.225 1050.9 589.108 1049.75 589.337C1048.6 589.566 1047.54 590.132 1046.71 590.962C1045.88 591.793 1045.31 592.852 1045.08 594.004C1044.86 595.156 1044.97 596.35 1045.42 597.436C1045.87 598.521 1046.63 599.449 1047.61 600.102C1048.59 600.754 1049.74 601.103 1050.91 601.103C1052.49 601.103 1054 600.477 1055.11 599.363C1056.22 598.249 1056.85 596.738 1056.85 595.163Z" fill="white" stroke="#4A4A4A" stroke-width="2.5" stroke-linecap="round" stroke-linejoin="round"/>
<path d="M1056.85 616.721C1056.85 615.546 1056.5 614.398 1055.85 613.421C1055.2 612.444 1054.27 611.683 1053.18 611.233C1052.1 610.784 1050.9 610.666 1049.75 610.895C1048.6 611.125 1047.54 611.69 1046.71 612.521C1045.88 613.352 1045.31 614.41 1045.08 615.562C1044.86 616.715 1044.97 617.909 1045.42 618.994C1045.87 620.08 1046.63 621.007 1047.61 621.66C1048.59 622.313 1049.74 622.661 1050.91 622.661C1052.49 622.661 1054 622.035 1055.11 620.921C1056.22 619.807 1056.85 618.297 1056.85 616.721Z" fill="white" stroke="#4A4A4A" stroke-width="2.5" stroke-linecap="round" stroke-linejoin="round"/>
<path d="M1056.85 638.335C1056.85 637.16 1056.5 636.011 1055.85 635.034C1055.2 634.058 1054.27 633.296 1053.18 632.847C1052.1 632.397 1050.9 632.279 1049.75 632.509C1048.6 632.738 1047.54 633.304 1046.71 634.134C1045.88 634.965 1045.31 636.023 1045.08 637.176C1044.86 638.328 1044.97 639.522 1045.42 640.608C1045.87 641.693 1046.63 642.621 1047.61 643.273C1048.59 643.926 1049.74 644.275 1050.91 644.275C1052.49 644.275 1054 643.649 1055.11 642.535C1056.22 641.421 1056.85 639.91 1056.85 638.335Z" fill="white" stroke="#4A4A4A" stroke-width="2.5" stroke-linecap="round" stroke-linejoin="round"/>
<path d="M1056.85 660.003C1056.85 658.828 1056.5 657.679 1055.85 656.702C1055.2 655.726 1054.27 654.964 1053.18 654.515C1052.1 654.065 1050.9 653.947 1049.75 654.177C1048.6 654.406 1047.54 654.972 1046.71 655.802C1045.88 656.633 1045.31 657.691 1045.08 658.844C1044.86 659.996 1044.97 661.19 1045.42 662.276C1045.87 663.361 1046.63 664.289 1047.61 664.941C1048.59 665.594 1049.74 665.943 1050.91 665.943C1051.69 665.944 1052.46 665.791 1053.19 665.493C1053.91 665.195 1054.56 664.757 1055.11 664.206C1055.67 663.654 1056.1 662.998 1056.4 662.277C1056.7 661.556 1056.85 660.783 1056.85 660.003V660.003Z" fill="white" stroke="#4A4A4A" stroke-width="2.5" stroke-linecap="round" stroke-linejoin="round"/>
<path d="M1056.85 681.694C1056.85 680.519 1056.5 679.371 1055.85 678.394C1055.2 677.417 1054.27 676.656 1053.18 676.206C1052.1 675.756 1050.9 675.639 1049.75 675.868C1048.6 676.097 1047.54 676.663 1046.71 677.494C1045.88 678.324 1045.31 679.383 1045.08 680.535C1044.86 681.687 1044.97 682.882 1045.42 683.967C1045.87 685.052 1046.63 685.98 1047.61 686.633C1048.59 687.286 1049.74 687.634 1050.91 687.634C1051.69 687.634 1052.46 687.48 1053.18 687.182C1053.9 686.883 1054.56 686.446 1055.11 685.894C1055.66 685.343 1056.1 684.688 1056.4 683.967C1056.7 683.246 1056.85 682.474 1056.85 681.694Z" fill="white" stroke="#4A4A4A" stroke-width="2.5" stroke-linecap="round" stroke-linejoin="round"/>
<path d="M1035.03 485.223H1052.15" stroke="#4A4A4A" stroke-width="2.5" stroke-linecap="round" stroke-linejoin="round"/>
<path d="M1035.03 488.812H1052.15" stroke="#4A4A4A" stroke-width="2.5" stroke-linecap="round" stroke-linejoin="round"/>
<path d="M1035.03 506.801H1052.15" stroke="#4A4A4A" stroke-width="2.5" stroke-linecap="round" stroke-linejoin="round"/>
<path d="M1035.03 510.395H1052.15" stroke="#4A4A4A" stroke-width="2.5" stroke-linecap="round" stroke-linejoin="round"/>
<path d="M1035.03 528.383H1052.15" stroke="#4A4A4A" stroke-width="2.5" stroke-linecap="round" stroke-linejoin="round"/>
<path d="M1035.03 531.973H1052.15" stroke="#4A4A4A" stroke-width="2.5" stroke-linecap="round" stroke-linejoin="round"/>
<path d="M1035.03 549.961H1052.15" stroke="#4A4A4A" stroke-width="2.5" stroke-linecap="round" stroke-linejoin="round"/>
<path d="M1035.03 553.551H1052.15" stroke="#4A4A4A" stroke-width="2.5" stroke-linecap="round" stroke-linejoin="round"/>
<path d="M1035.03 571.543H1052.15" stroke="#4A4A4A" stroke-width="2.5" stroke-linecap="round" stroke-linejoin="round"/>
<path d="M1035.03 575.133H1052.15" stroke="#4A4A4A" stroke-width="2.5" stroke-linecap="round" stroke-linejoin="round"/>
<path d="M1035.03 593.121H1052.15" stroke="#4A4A4A" stroke-width="2.5" stroke-linecap="round" stroke-linejoin="round"/>
<path d="M1035.03 596.711H1052.15" stroke="#4A4A4A" stroke-width="2.5" stroke-linecap="round" stroke-linejoin="round"/>
<path d="M1035.03 614.703H1052.15" stroke="#4A4A4A" stroke-width="2.5" stroke-linecap="round" stroke-linejoin="round"/>
<path d="M1035.03 618.293H1052.15" stroke="#4A4A4A" stroke-width="2.5" stroke-linecap="round" stroke-linejoin="round"/>
<path d="M1035.03 636.281H1052.15" stroke="#4A4A4A" stroke-width="2.5" stroke-linecap="round" stroke-linejoin="round"/>
<path d="M1035.03 639.871H1052.15" stroke="#4A4A4A" stroke-width="2.5" stroke-linecap="round" stroke-linejoin="round"/>
<path d="M1035.03 657.862L1052.15 657.852" stroke="#4A4A4A" stroke-width="2.5" stroke-linecap="round" stroke-linejoin="round"/>
<path d="M1035.03 661.453H1052.15" stroke="#4A4A4A" stroke-width="2.5" stroke-linecap="round" stroke-linejoin="round"/>
<path d="M1035.03 679.434H1052.15" stroke="#4A4A4A" stroke-width="2.5" stroke-linecap="round" stroke-linejoin="round"/>
<path d="M1035.03 683.031H1052.15" stroke="#4A4A4A" stroke-width="2.5" stroke-linecap="round" stroke-linejoin="round"/>
<path d="M1129.76 645.533H1118.49V627.112H1110.07C1109.39 627.112 1109.54 627.642 1109.54 628.042C1109.54 633.862 1109.54 639.689 1109.54 645.523H1098.27V626.792H1075.85C1075.85 626.592 1075.76 626.522 1075.78 626.472C1076.47 622.322 1077.19 618.173 1077.86 614.023C1077.96 613.393 1078.33 613.443 1078.76 613.443H1085.66C1088.82 613.443 1090.33 611.903 1090.33 608.713V560.333C1090.39 559.56 1090.28 558.785 1090.02 558.055C1089.77 557.326 1089.36 556.658 1088.83 556.094C1088.3 555.529 1087.66 555.082 1086.94 554.779C1086.23 554.475 1085.46 554.324 1084.69 554.333C1082.84 554.233 1081 554.233 1079.15 554.213C1078.03 554.213 1076.91 554.213 1075.78 554.213V542.213H1098.27V523.812H1109.54C1109.54 529.552 1109.54 535.283 1109.54 541.013C1109.54 541.693 1109.74 541.913 1110.43 541.893C1112.37 541.823 1114.31 541.813 1116.26 541.783H1118.37C1118.42 541.659 1118.46 541.532 1118.49 541.403C1118.49 535.543 1118.49 529.679 1118.49 523.812H1129.76C1129.76 524.202 1129.76 524.592 1129.76 524.982V540.523C1129.76 542.303 1129.76 542.293 1131.59 542.523C1136.6 542.908 1141.51 544.121 1146.12 546.112C1150.48 548.112 1153.87 551.112 1155.66 555.672C1156.87 558.937 1157.33 562.435 1157 565.903C1156.89 568.681 1156.06 571.383 1154.6 573.748C1153.14 576.114 1151.09 578.065 1148.66 579.412L1147.48 580.093C1147.79 580.233 1147.93 580.312 1148.07 580.362C1150.03 580.999 1151.96 581.737 1153.85 582.573C1158.35 584.843 1161.56 588.272 1162.85 593.292C1164.03 598.235 1163.94 603.394 1162.59 608.292C1161.63 612.56 1159.33 616.412 1156.04 619.292C1152.18 622.432 1147.56 624.502 1142.64 625.292C1138.76 626.052 1134.77 626.362 1130.81 626.792C1129.97 626.882 1129.72 627.152 1129.75 627.972C1129.81 629.462 1129.75 630.973 1129.75 632.443C1129.73 636.816 1129.73 641.179 1129.76 645.533ZM1109.76 613.472C1113.25 613.472 1116.54 613.552 1119.84 613.472C1124.31 613.454 1128.75 612.721 1132.99 611.302C1135.66 610.302 1138.17 609.032 1139.71 606.482C1140.42 605.321 1140.9 604.029 1141.1 602.681C1141.31 601.334 1141.24 599.959 1140.91 598.637C1140.58 597.316 1139.98 596.074 1139.16 594.986C1138.34 593.898 1137.31 592.986 1136.13 592.302C1132.51 590.252 1128.44 589.126 1124.28 589.023C1119.85 588.823 1115.42 588.883 1110.99 588.763C1109.99 588.763 1109.73 589.023 1109.74 590.013C1109.74 597.453 1109.74 604.893 1109.74 612.343L1109.76 613.472ZM1109.76 566.232C1109.76 569.692 1109.76 573.162 1109.76 576.622C1109.76 577.162 1109.76 577.532 1110.51 577.552C1116.18 577.642 1121.83 577.633 1127.38 576.153C1130.22 575.509 1132.74 573.892 1134.51 571.583C1137.17 567.933 1136.27 561.893 1132.76 558.963C1129.92 556.755 1126.45 555.505 1122.86 555.393C1118.86 555.073 1114.72 555.153 1110.65 555.023C1109.86 555.023 1109.75 555.383 1109.76 556.023C1109.78 559.433 1109.77 562.832 1109.77 566.232H1109.76Z" fill="#FF9500"/>
<path d="M910.883 587.891H764.182C759.836 587.891 756.312 591.414 756.312 595.761V821.401C756.312 825.747 759.836 829.271 764.182 829.271H910.883C915.229 829.271 918.753 825.747 918.753 821.401V595.761C918.753 591.414 915.229 587.891 910.883 587.891Z" fill="#EBEBEB" stroke="#4A4A4A" stroke-width="2.5" stroke-linecap="round" stroke-linejoin="round"/>
<path d="M896.922 643.89L912.232 631.59V782.38L896.922 771.14V643.89Z" fill="white"/>
<path d="M912.122 641.972L903.692 649.422V688.022L912.432 679.292V689.452L903.692 697.032V730.852L911.772 722.682L912.122 730.092L903.282 739.962V775.222L896.922 771.252L897.342 645.362L912.122 630.422V641.972Z" fill="#EBEBEB"/>
<path d="M918.751 626.492L897.621 644.452V771.252L918.191 786.862" stroke="#4A4A4A" stroke-width="2.5" stroke-linecap="round" stroke-linejoin="round"/>
<path d="M912.122 632.43V678.02L897.822 692.73" stroke="#4A4A4A" stroke-width="2.5" stroke-linecap="round" stroke-linejoin="round"/>
<path d="M912.122 678.289V720.979L897.822 735.689" stroke="#4A4A4A" stroke-width="2.5" stroke-linecap="round" stroke-linejoin="round"/>
<path d="M912.121 720.98V781.41" stroke="#4A4A4A" stroke-width="2.5" stroke-linecap="round" stroke-linejoin="round"/>
<path d="M774.681 608.811C774.681 607.636 774.332 606.488 773.68 605.511C773.027 604.534 772.099 603.773 771.014 603.323C769.929 602.874 768.734 602.756 767.582 602.985C766.43 603.214 765.371 603.78 764.541 604.611C763.71 605.442 763.144 606.5 762.915 607.652C762.686 608.805 762.803 609.999 763.253 611.084C763.703 612.17 764.464 613.097 765.441 613.75C766.418 614.403 767.566 614.751 768.741 614.751C769.521 614.752 770.294 614.6 771.016 614.302C771.737 614.004 772.392 613.566 772.944 613.014C773.496 612.462 773.933 611.807 774.231 611.086C774.529 610.365 774.682 609.592 774.681 608.811V608.811Z" fill="white" stroke="#4A4A4A" stroke-width="2.5" stroke-linecap="round" stroke-linejoin="round"/>
<path d="M774.681 630.43C774.683 629.255 774.336 628.106 773.685 627.128C773.033 626.15 772.106 625.387 771.021 624.936C769.936 624.484 768.741 624.365 767.588 624.593C766.435 624.821 765.376 625.386 764.544 626.217C763.712 627.047 763.146 628.105 762.916 629.258C762.686 630.411 762.803 631.605 763.252 632.691C763.701 633.777 764.463 634.706 765.44 635.359C766.417 636.012 767.566 636.36 768.741 636.36C769.52 636.362 770.293 636.209 771.013 635.912C771.734 635.615 772.389 635.178 772.94 634.627C773.492 634.076 773.93 633.422 774.228 632.702C774.527 631.982 774.681 631.21 774.681 630.43V630.43Z" fill="white" stroke="#4A4A4A" stroke-width="2.5" stroke-linecap="round" stroke-linejoin="round"/>
<path d="M774.681 652.131C774.681 650.957 774.332 649.808 773.68 648.831C773.027 647.854 772.099 647.093 771.014 646.644C769.929 646.194 768.734 646.076 767.582 646.306C766.43 646.535 765.371 647.1 764.541 647.931C763.71 648.762 763.144 649.82 762.915 650.973C762.686 652.125 762.803 653.319 763.253 654.405C763.703 655.49 764.464 656.418 765.441 657.07C766.418 657.723 767.566 658.071 768.741 658.071C770.316 658.071 771.827 657.446 772.941 656.332C774.055 655.218 774.681 653.707 774.681 652.131V652.131Z" fill="white" stroke="#4A4A4A" stroke-width="2.5" stroke-linecap="round" stroke-linejoin="round"/>
<path d="M774.681 673.78C774.681 672.605 774.332 671.457 773.68 670.48C773.027 669.503 772.099 668.742 771.014 668.292C769.929 667.842 768.734 667.725 767.582 667.954C766.43 668.183 765.371 668.749 764.541 669.58C763.71 670.41 763.144 671.469 762.915 672.621C762.686 673.773 762.803 674.968 763.253 676.053C763.703 677.138 764.464 678.066 765.441 678.719C766.418 679.371 767.566 679.72 768.741 679.72C770.316 679.72 771.827 679.094 772.941 677.98C774.055 676.866 774.681 675.355 774.681 673.78V673.78Z" fill="white" stroke="#4A4A4A" stroke-width="2.5" stroke-linecap="round" stroke-linejoin="round"/>
<path d="M774.681 695.389C774.681 694.214 774.332 693.066 773.68 692.089C773.027 691.112 772.099 690.351 771.014 689.901C769.929 689.452 768.734 689.334 767.582 689.563C766.43 689.793 765.371 690.358 764.541 691.189C763.71 692.02 763.144 693.078 762.915 694.23C762.686 695.383 762.803 696.577 763.253 697.662C763.703 698.748 764.464 699.675 765.441 700.328C766.418 700.981 767.566 701.329 768.741 701.329C770.316 701.329 771.827 700.703 772.941 699.589C774.055 698.475 774.681 696.965 774.681 695.389V695.389Z" fill="white" stroke="#4A4A4A" stroke-width="2.5" stroke-linecap="round" stroke-linejoin="round"/>
<path d="M774.681 717.092C774.681 715.918 774.332 714.769 773.68 713.792C773.027 712.815 772.099 712.054 771.014 711.604C769.929 711.155 768.734 711.037 767.582 711.266C766.43 711.496 765.371 712.061 764.541 712.892C763.71 713.723 763.144 714.781 762.915 715.933C762.686 717.086 762.803 718.28 763.253 719.365C763.703 720.451 764.464 721.379 765.441 722.031C766.418 722.684 767.566 723.032 768.741 723.032C769.521 723.032 770.293 722.879 771.014 722.58C771.735 722.282 772.389 721.844 772.941 721.293C773.493 720.741 773.93 720.086 774.229 719.365C774.527 718.645 774.681 717.872 774.681 717.092V717.092Z" fill="white" stroke="#4A4A4A" stroke-width="2.5" stroke-linecap="round" stroke-linejoin="round"/>
<path d="M774.681 738.659C774.681 737.484 774.332 736.336 773.68 735.359C773.027 734.382 772.099 733.621 771.014 733.171C769.929 732.721 768.734 732.604 767.582 732.833C766.43 733.062 765.371 733.628 764.541 734.459C763.71 735.289 763.144 736.348 762.915 737.5C762.686 738.652 762.803 739.847 763.253 740.932C763.703 742.017 764.464 742.945 765.441 743.598C766.418 744.25 767.566 744.599 768.741 744.599C770.316 744.599 771.827 743.973 772.941 742.859C774.055 741.745 774.681 740.234 774.681 738.659V738.659Z" fill="white" stroke="#4A4A4A" stroke-width="2.5" stroke-linecap="round" stroke-linejoin="round"/>
<path d="M774.681 760.27C774.683 759.095 774.336 757.946 773.685 756.967C773.033 755.989 772.106 755.226 771.021 754.775C769.936 754.324 768.741 754.205 767.588 754.433C766.435 754.661 765.376 755.226 764.544 756.057C763.712 756.887 763.146 757.945 762.916 759.098C762.686 760.25 762.803 761.445 763.252 762.531C763.701 763.617 764.463 764.545 765.44 765.199C766.417 765.852 767.566 766.2 768.741 766.2C770.314 766.2 771.824 765.576 772.937 764.464C774.051 763.352 774.678 761.844 774.681 760.27V760.27Z" fill="white" stroke="#4A4A4A" stroke-width="2.5" stroke-linecap="round" stroke-linejoin="round"/>
<path d="M774.681 782.003C774.681 780.828 774.332 779.679 773.68 778.702C773.027 777.726 772.099 776.964 771.014 776.515C769.929 776.065 768.734 775.947 767.582 776.177C766.43 776.406 765.371 776.972 764.541 777.802C763.71 778.633 763.144 779.691 762.915 780.844C762.686 781.996 762.803 783.19 763.253 784.276C763.703 785.361 764.464 786.289 765.441 786.941C766.418 787.594 767.566 787.943 768.741 787.943C770.316 787.943 771.827 787.317 772.941 786.203C774.055 785.089 774.681 783.578 774.681 782.003V782.003Z" fill="white" stroke="#4A4A4A" stroke-width="2.5" stroke-linecap="round" stroke-linejoin="round"/>
<path d="M774.681 803.62C774.681 802.445 774.332 801.296 773.68 800.32C773.027 799.343 772.099 798.581 771.014 798.132C769.929 797.682 768.734 797.565 767.582 797.794C766.43 798.023 765.371 798.589 764.541 799.419C763.71 800.25 763.144 801.309 762.915 802.461C762.686 803.613 762.803 804.807 763.253 805.893C763.703 806.978 764.464 807.906 765.441 808.559C766.418 809.211 767.566 809.56 768.741 809.56C769.521 809.56 770.293 809.406 771.014 809.108C771.735 808.809 772.389 808.371 772.941 807.82C773.493 807.268 773.93 806.614 774.229 805.893C774.527 805.172 774.681 804.4 774.681 803.62V803.62Z" fill="white" stroke="#4A4A4A" stroke-width="2.5" stroke-linecap="round" stroke-linejoin="round"/>
<path d="M752.852 607.16H769.982" stroke="#4A4A4A" stroke-width="2.5" stroke-linecap="round" stroke-linejoin="round"/>
<path d="M752.852 610.75H769.982" stroke="#4A4A4A" stroke-width="2.5" stroke-linecap="round" stroke-linejoin="round"/>
<path d="M752.852 628.738H769.982" stroke="#4A4A4A" stroke-width="2.5" stroke-linecap="round" stroke-linejoin="round"/>
<path d="M752.852 632.332H769.982" stroke="#4A4A4A" stroke-width="2.5" stroke-linecap="round" stroke-linejoin="round"/>
<path d="M752.852 650.309H769.982" stroke="#4A4A4A" stroke-width="2.5" stroke-linecap="round" stroke-linejoin="round"/>
<path d="M752.852 653.91H769.982" stroke="#4A4A4A" stroke-width="2.5" stroke-linecap="round" stroke-linejoin="round"/>
<path d="M752.852 671.891H769.982" stroke="#4A4A4A" stroke-width="2.5" stroke-linecap="round" stroke-linejoin="round"/>
<path d="M752.852 675.48H769.982" stroke="#4A4A4A" stroke-width="2.5" stroke-linecap="round" stroke-linejoin="round"/>
<path d="M752.852 693.469H769.982" stroke="#4A4A4A" stroke-width="2.5" stroke-linecap="round" stroke-linejoin="round"/>
<path d="M752.852 697.059H769.982" stroke="#4A4A4A" stroke-width="2.5" stroke-linecap="round" stroke-linejoin="round"/>
<path d="M752.852 715.051H769.982" stroke="#4A4A4A" stroke-width="2.5" stroke-linecap="round" stroke-linejoin="round"/>
<path d="M752.852 718.641H769.982" stroke="#4A4A4A" stroke-width="2.5" stroke-linecap="round" stroke-linejoin="round"/>
<path d="M752.852 736.629H769.982" stroke="#4A4A4A" stroke-width="2.5" stroke-linecap="round" stroke-linejoin="round"/>
<path d="M752.852 740.219H769.982" stroke="#4A4A4A" stroke-width="2.5" stroke-linecap="round" stroke-linejoin="round"/>
<path d="M752.852 758.211H769.982" stroke="#4A4A4A" stroke-width="2.5" stroke-linecap="round" stroke-linejoin="round"/>
<path d="M752.852 761.801H769.982" stroke="#4A4A4A" stroke-width="2.5" stroke-linecap="round" stroke-linejoin="round"/>
<path d="M752.852 779.789H769.982" stroke="#4A4A4A" stroke-width="2.5" stroke-linecap="round" stroke-linejoin="round"/>
<path d="M752.852 783.379H769.982" stroke="#4A4A4A" stroke-width="2.5" stroke-linecap="round" stroke-linejoin="round"/>
<path d="M752.852 801.371H769.982" stroke="#4A4A4A" stroke-width="2.5" stroke-linecap="round" stroke-linejoin="round"/>
<path d="M752.852 804.961H769.982" stroke="#4A4A4A" stroke-width="2.5" stroke-linecap="round" stroke-linejoin="round"/>
<path d="M847.591 767.461H836.321V749.051H827.891C827.221 749.051 827.371 749.591 827.371 749.981C827.371 755.807 827.371 761.634 827.371 767.461H816.101V748.721H793.691C793.641 748.521 793.601 748.461 793.611 748.401C794.311 744.251 795.031 740.111 795.691 735.951C795.791 735.331 796.171 735.381 796.601 735.381H803.501C806.661 735.381 808.171 733.831 808.171 730.641V682.271C808.226 681.499 808.121 680.724 807.862 679.995C807.603 679.266 807.195 678.599 806.666 678.035C806.136 677.471 805.495 677.023 804.783 676.72C804.071 676.416 803.305 676.263 802.531 676.271C800.681 676.171 798.841 676.181 796.991 676.151H793.621V664.151H816.101V645.801H827.381C827.381 651.531 827.381 657.261 827.381 662.991C827.381 663.671 827.581 663.901 828.261 663.871C830.211 663.801 832.151 663.791 834.101 663.771H836.211C836.291 663.501 836.331 663.441 836.331 663.391C836.331 657.524 836.331 651.661 836.331 645.801H847.601C847.601 646.181 847.551 646.571 847.551 646.961V662.501C847.551 664.281 847.551 664.271 849.381 664.501C854.389 664.89 859.298 666.103 863.911 668.091C868.271 670.091 871.661 673.091 873.451 677.651C874.661 680.91 875.119 684.4 874.791 687.861C874.676 690.639 873.849 693.341 872.388 695.707C870.928 698.073 868.883 700.023 866.451 701.371L865.271 702.051L865.861 702.331C867.826 702.96 869.755 703.694 871.641 704.531C876.141 706.801 879.351 710.231 880.641 715.251C881.819 720.193 881.73 725.353 880.381 730.251C879.417 734.519 877.124 738.37 873.831 741.251C869.964 744.386 865.345 746.454 860.431 747.251C856.551 748.011 852.561 748.311 848.601 748.741C847.751 748.831 847.511 749.101 847.541 749.921C847.601 751.411 847.541 752.921 847.541 754.391C847.554 758.737 847.571 763.094 847.591 767.461ZM827.591 735.401C831.081 735.401 834.371 735.481 837.671 735.401C842.143 735.392 846.583 734.659 850.821 733.231C853.491 732.231 856.001 730.961 857.541 728.411C858.259 727.252 858.738 725.961 858.949 724.614C859.159 723.267 859.098 721.891 858.768 720.568C858.438 719.245 857.846 718.002 857.027 716.912C856.208 715.821 855.179 714.906 854.001 714.221C850.38 712.17 846.31 711.044 842.151 710.941C837.721 710.741 833.291 710.791 828.861 710.681C827.861 710.681 827.601 710.931 827.611 711.921C827.611 719.361 827.611 726.811 827.611 734.251L827.591 735.401ZM827.591 688.161C827.591 691.634 827.591 695.097 827.591 698.551C827.591 699.091 827.591 699.471 828.341 699.481C834.011 699.571 839.661 699.571 845.211 698.081C848.046 697.437 850.567 695.824 852.341 693.521C855.001 689.861 854.101 683.821 850.591 680.891C847.747 678.692 844.284 677.443 840.691 677.321C836.641 677.001 832.551 677.081 828.471 676.961C827.691 676.961 827.581 677.311 827.591 677.961C827.611 681.361 827.601 684.761 827.601 688.161H827.591Z" fill="#FF9500"/>
<path d="M606.07 576.941H459.37C455.024 576.941 451.5 580.465 451.5 584.811V810.451C451.5 814.798 455.024 818.321 459.37 818.321H606.07C610.416 818.321 613.94 814.798 613.94 810.451V584.811C613.94 580.465 610.416 576.941 606.07 576.941Z" fill="#EBEBEB" stroke="#4A4A4A" stroke-width="2.5" stroke-linecap="round" stroke-linejoin="round"/>
<path d="M592.121 632.941L607.421 620.641V771.431L592.121 760.191V632.941Z" fill="white"/>
<path d="M607.311 631.01L598.891 638.48V677.07L607.621 668.341V678.5L598.891 686.081V719.891L606.961 711.73L607.311 719.141L598.471 729.01V764.271L592.121 760.3L592.531 634.41L607.311 619.48V631.01Z" fill="#EBEBEB"/>
<path d="M613.941 615.543L592.811 633.503V760.303L613.381 775.913" stroke="#4A4A4A" stroke-width="2.5" stroke-linecap="round" stroke-linejoin="round"/>
<path d="M607.311 621.492V667.072L593.021 681.782" stroke="#4A4A4A" stroke-width="2.5" stroke-linecap="round" stroke-linejoin="round"/>
<path d="M607.311 667.34V710.03L593.021 724.74" stroke="#4A4A4A" stroke-width="2.5" stroke-linecap="round" stroke-linejoin="round"/>
<path d="M607.311 710.031V770.461" stroke="#4A4A4A" stroke-width="2.5" stroke-linecap="round" stroke-linejoin="round"/>
<path d="M469.88 597.862C469.882 596.685 469.535 595.533 468.882 594.553C468.229 593.573 467.3 592.809 466.212 592.357C465.124 591.906 463.927 591.787 462.772 592.016C461.617 592.245 460.556 592.812 459.723 593.645C458.89 594.478 458.324 595.539 458.094 596.694C457.865 597.849 457.984 599.046 458.435 600.134C458.887 601.222 459.651 602.151 460.631 602.804C461.611 603.457 462.763 603.804 463.94 603.802C465.516 603.802 467.027 603.177 468.141 602.063C469.255 600.949 469.88 599.438 469.88 597.862V597.862Z" fill="white" stroke="#4A4A4A" stroke-width="2.5" stroke-linecap="round" stroke-linejoin="round"/>
<path d="M469.88 619.482C469.884 618.304 469.539 617.151 468.887 616.17C468.235 615.188 467.306 614.423 466.219 613.969C465.132 613.516 463.934 613.396 462.778 613.624C461.622 613.852 460.56 614.419 459.727 615.251C458.893 616.083 458.325 617.144 458.095 618.3C457.865 619.455 457.983 620.653 458.434 621.741C458.886 622.829 459.65 623.759 460.63 624.412C461.61 625.066 462.762 625.414 463.94 625.412C464.72 625.413 465.492 625.261 466.213 624.963C466.933 624.666 467.588 624.229 468.14 623.678C468.692 623.128 469.129 622.473 469.428 621.753C469.727 621.033 469.88 620.261 469.88 619.482V619.482Z" fill="white" stroke="#4A4A4A" stroke-width="2.5" stroke-linecap="round" stroke-linejoin="round"/>
<path d="M469.88 641.183C469.882 640.005 469.535 638.853 468.882 637.873C468.229 636.893 467.3 636.129 466.212 635.677C465.124 635.226 463.927 635.107 462.772 635.336C461.617 635.566 460.556 636.133 459.723 636.965C458.89 637.798 458.324 638.859 458.094 640.014C457.865 641.169 457.984 642.367 458.435 643.454C458.887 644.542 459.651 645.471 460.631 646.124C461.611 646.777 462.763 647.125 463.94 647.123C465.515 647.12 467.024 646.493 468.138 645.38C469.251 644.267 469.878 642.757 469.88 641.183V641.183Z" fill="white" stroke="#4A4A4A" stroke-width="2.5" stroke-linecap="round" stroke-linejoin="round"/>
<path d="M469.88 662.831C469.882 661.653 469.535 660.502 468.882 659.522C468.229 658.542 467.3 657.778 466.212 657.326C465.124 656.874 463.927 656.756 462.772 656.985C461.617 657.214 460.556 657.781 459.723 658.614C458.89 659.447 458.324 660.508 458.094 661.663C457.865 662.818 457.984 664.015 458.435 665.103C458.887 666.19 459.651 667.119 460.631 667.773C461.611 668.426 462.763 668.773 463.94 668.771C465.515 668.768 467.024 668.142 468.138 667.028C469.251 665.915 469.878 664.406 469.88 662.831V662.831Z" fill="white" stroke="#4A4A4A" stroke-width="2.5" stroke-linecap="round" stroke-linejoin="round"/>
<path d="M469.88 684.44C469.882 683.263 469.535 682.111 468.882 681.131C468.229 680.151 467.3 679.387 466.212 678.935C465.124 678.484 463.927 678.365 462.772 678.594C461.617 678.824 460.556 679.39 459.723 680.223C458.89 681.056 458.324 682.117 458.094 683.272C457.865 684.427 457.984 685.624 458.435 686.712C458.887 687.8 459.651 688.729 460.631 689.382C461.611 690.035 462.763 690.382 463.94 690.38C465.515 690.378 467.024 689.751 468.138 688.638C469.251 687.524 469.878 686.015 469.88 684.44V684.44Z" fill="white" stroke="#4A4A4A" stroke-width="2.5" stroke-linecap="round" stroke-linejoin="round"/>
<path d="M469.88 706.14C469.882 704.962 469.535 703.81 468.882 702.83C468.229 701.85 467.3 701.086 466.212 700.635C465.124 700.183 463.927 700.064 462.772 700.294C461.617 700.523 460.556 701.09 459.723 701.922C458.89 702.755 458.324 703.816 458.094 704.971C457.865 706.127 457.984 707.324 458.435 708.411C458.887 709.499 459.651 710.428 460.631 711.081C461.611 711.734 462.763 712.082 463.94 712.08C465.515 712.077 467.024 711.45 468.138 710.337C469.251 709.224 469.878 707.714 469.88 706.14V706.14Z" fill="white" stroke="#4A4A4A" stroke-width="2.5" stroke-linecap="round" stroke-linejoin="round"/>
<path d="M469.88 727.71C469.882 726.532 469.535 725.381 468.882 724.401C468.229 723.421 467.3 722.656 466.212 722.205C465.124 721.753 463.927 721.635 462.772 721.864C461.617 722.093 460.556 722.66 459.723 723.493C458.89 724.325 458.324 725.387 458.094 726.542C457.865 727.697 457.984 728.894 458.435 729.982C458.887 731.069 459.651 731.998 460.631 732.651C461.611 733.304 462.763 733.652 463.94 733.65C465.515 733.647 467.024 733.021 468.138 731.907C469.251 730.794 469.878 729.285 469.88 727.71V727.71Z" fill="white" stroke="#4A4A4A" stroke-width="2.5" stroke-linecap="round" stroke-linejoin="round"/>
<path d="M469.88 749.323C469.882 748.146 469.535 746.994 468.882 746.014C468.229 745.034 467.3 744.27 466.212 743.818C465.124 743.366 463.927 743.248 462.772 743.477C461.617 743.706 460.556 744.273 459.723 745.106C458.89 745.939 458.324 747 458.094 748.155C457.865 749.31 457.984 750.507 458.435 751.595C458.887 752.683 459.651 753.612 460.631 754.265C461.611 754.918 462.763 755.265 463.94 755.263C465.515 755.261 467.024 754.634 468.138 753.521C469.251 752.407 469.878 750.898 469.88 749.323V749.323Z" fill="white" stroke="#4A4A4A" stroke-width="2.5" stroke-linecap="round" stroke-linejoin="round"/>
<path d="M469.88 771.003C469.882 769.825 469.535 768.674 468.882 767.694C468.229 766.714 467.3 765.949 466.212 765.498C465.124 765.046 463.927 764.928 462.772 765.157C461.617 765.386 460.556 765.953 459.723 766.786C458.89 767.618 458.324 768.68 458.094 769.835C457.865 770.99 457.984 772.187 458.435 773.275C458.887 774.362 459.651 775.291 460.631 775.944C461.611 776.597 462.763 776.945 463.94 776.943C465.515 776.94 467.024 776.314 468.138 775.2C469.251 774.087 469.878 772.578 469.88 771.003V771.003Z" fill="white" stroke="#4A4A4A" stroke-width="2.5" stroke-linecap="round" stroke-linejoin="round"/>
<path d="M469.88 792.671C469.882 791.493 469.535 790.342 468.882 789.362C468.229 788.382 467.3 787.617 466.212 787.166C465.124 786.714 463.927 786.596 462.772 786.825C461.617 787.054 460.556 787.621 459.723 788.454C458.89 789.286 458.324 790.347 458.094 791.503C457.865 792.658 457.984 793.855 458.435 794.943C458.887 796.03 459.651 796.959 460.631 797.612C461.611 798.265 462.763 798.613 463.94 798.611C465.515 798.608 467.024 797.982 468.138 796.868C469.251 795.755 469.878 794.245 469.88 792.671V792.671Z" fill="white" stroke="#4A4A4A" stroke-width="2.5" stroke-linecap="round" stroke-linejoin="round"/>
<path d="M448.051 596.211H465.181" stroke="#4A4A4A" stroke-width="2.5" stroke-linecap="round" stroke-linejoin="round"/>
<path d="M448.051 599.801H465.181" stroke="#4A4A4A" stroke-width="2.5" stroke-linecap="round" stroke-linejoin="round"/>
<path d="M448.051 617.789H465.181" stroke="#4A4A4A" stroke-width="2.5" stroke-linecap="round" stroke-linejoin="round"/>
<path d="M448.051 621.383H465.181" stroke="#4A4A4A" stroke-width="2.5" stroke-linecap="round" stroke-linejoin="round"/>
<path d="M448.051 639.359H465.181" stroke="#4A4A4A" stroke-width="2.5" stroke-linecap="round" stroke-linejoin="round"/>
<path d="M448.051 642.961H465.181" stroke="#4A4A4A" stroke-width="2.5" stroke-linecap="round" stroke-linejoin="round"/>
<path d="M448.051 660.941H465.181" stroke="#4A4A4A" stroke-width="2.5" stroke-linecap="round" stroke-linejoin="round"/>
<path d="M448.051 664.531H465.181" stroke="#4A4A4A" stroke-width="2.5" stroke-linecap="round" stroke-linejoin="round"/>
<path d="M448.051 682.52H465.181" stroke="#4A4A4A" stroke-width="2.5" stroke-linecap="round" stroke-linejoin="round"/>
<path d="M448.051 686.109H465.181" stroke="#4A4A4A" stroke-width="2.5" stroke-linecap="round" stroke-linejoin="round"/>
<path d="M448.051 704.102H465.181" stroke="#4A4A4A" stroke-width="2.5" stroke-linecap="round" stroke-linejoin="round"/>
<path d="M448.051 707.691H465.181" stroke="#4A4A4A" stroke-width="2.5" stroke-linecap="round" stroke-linejoin="round"/>
<path d="M448.051 725.68H465.181" stroke="#4A4A4A" stroke-width="2.5" stroke-linecap="round" stroke-linejoin="round"/>
<path d="M448.051 729.27H465.181" stroke="#4A4A4A" stroke-width="2.5" stroke-linecap="round" stroke-linejoin="round"/>
<path d="M448.051 747.262H465.181" stroke="#4A4A4A" stroke-width="2.5" stroke-linecap="round" stroke-linejoin="round"/>
<path d="M448.051 750.852H465.181" stroke="#4A4A4A" stroke-width="2.5" stroke-linecap="round" stroke-linejoin="round"/>
<path d="M448.051 768.84H465.181" stroke="#4A4A4A" stroke-width="2.5" stroke-linecap="round" stroke-linejoin="round"/>
<path d="M448.051 772.43H465.181" stroke="#4A4A4A" stroke-width="2.5" stroke-linecap="round" stroke-linejoin="round"/>
<path d="M448.051 790.422H465.181" stroke="#4A4A4A" stroke-width="2.5" stroke-linecap="round" stroke-linejoin="round"/>
<path d="M448.051 794.012H465.181" stroke="#4A4A4A" stroke-width="2.5" stroke-linecap="round" stroke-linejoin="round"/>
<path d="M542.781 756.512H531.511V738.102H523.091C522.421 738.102 522.561 738.642 522.561 739.032C522.561 744.865 522.561 750.692 522.561 756.512H511.301V737.772H488.881C488.842 737.669 488.818 737.561 488.811 737.452C489.501 733.302 490.221 729.162 490.891 725.002C490.991 724.382 491.371 724.432 491.791 724.432H498.691C501.851 724.432 503.361 722.882 503.361 719.692V671.312C503.416 670.54 503.311 669.765 503.052 669.036C502.792 668.307 502.385 667.64 501.855 667.076C501.325 666.512 500.684 666.064 499.973 665.761C499.261 665.457 498.494 665.304 497.721 665.312C495.881 665.212 494.031 665.222 492.181 665.192H488.821V653.192H511.301V634.852H522.571C522.571 640.582 522.571 646.312 522.571 652.042C522.571 652.722 522.781 652.952 523.461 652.922C525.401 652.852 527.351 652.842 529.291 652.822C530.021 652.822 530.751 652.822 531.411 652.822C531.457 652.698 531.493 652.571 531.521 652.442C531.521 646.568 531.521 640.705 531.521 634.852H542.791C542.791 635.232 542.791 635.622 542.791 636.012C542.791 641.192 542.791 646.372 542.791 651.552C542.791 653.332 542.791 653.322 544.621 653.552C549.625 653.941 554.531 655.154 559.141 657.142C563.501 659.142 566.901 662.142 568.681 666.702C569.874 669.954 570.326 673.432 570.001 676.882C569.882 679.66 569.052 682.361 567.59 684.727C566.128 687.093 564.083 689.043 561.651 690.392L560.471 691.072L561.061 691.352C563.025 691.98 564.955 692.715 566.841 693.552C571.341 695.822 574.561 699.252 575.841 704.272C577.019 709.214 576.929 714.373 575.581 719.272C574.617 723.537 572.328 727.388 569.041 730.272C565.173 733.405 560.554 735.473 555.641 736.272C551.751 737.032 547.761 737.332 543.811 737.762C542.961 737.852 542.711 738.122 542.741 738.942C542.811 740.432 542.741 741.942 542.741 743.412C542.754 747.805 542.767 752.172 542.781 756.512ZM522.781 724.452C526.261 724.452 529.561 724.532 532.851 724.452C537.323 724.435 541.764 723.696 546.001 722.262C548.671 721.262 551.181 719.992 552.711 717.442C553.424 716.282 553.899 714.991 554.106 713.644C554.312 712.298 554.248 710.924 553.915 709.603C553.582 708.283 552.988 707.042 552.168 705.955C551.348 704.867 550.319 703.955 549.141 703.272C545.521 701.228 541.456 700.105 537.301 700.002C532.881 699.802 528.441 699.852 524.011 699.742C523.011 699.742 522.761 699.992 522.761 700.982C522.761 708.422 522.761 715.872 522.761 723.312L522.781 724.452ZM522.781 677.212C522.781 680.682 522.781 684.142 522.781 687.602C522.781 688.142 522.781 688.522 523.531 688.532C529.201 688.622 534.851 688.622 540.391 687.132C543.225 686.488 545.747 684.875 547.521 682.572C550.191 678.912 549.281 672.872 545.771 669.942C542.927 667.742 539.464 666.493 535.871 666.372C531.871 666.052 527.731 666.132 523.661 666.012C522.871 666.012 522.761 666.362 522.771 667.012C522.801 670.412 522.791 673.812 522.791 677.212H522.781Z" fill="#FF9500"/>
<path d="M330.07 454.012H183.37C179.024 454.012 175.5 457.535 175.5 461.882V687.522C175.5 691.868 179.024 695.392 183.37 695.392H330.07C334.416 695.392 337.94 691.868 337.94 687.522V461.882C337.94 457.535 334.416 454.012 330.07 454.012Z" fill="#EBEBEB" stroke="#4A4A4A" stroke-width="2.5" stroke-linecap="round" stroke-linejoin="round"/>
<path d="M316.121 510.011L331.421 497.711V648.501L316.121 637.261V510.011Z" fill="white"/>
<path d="M331.311 508.083L322.891 515.543V554.143L331.621 545.413V555.573L322.891 563.153V596.963L330.961 588.803L331.311 596.213L322.471 606.083V641.343L316.121 637.373L316.531 511.483L331.311 496.543V508.083Z" fill="#EBEBEB"/>
<path d="M337.941 492.602L316.811 510.572V637.372L337.381 652.982" stroke="#4A4A4A" stroke-width="2.5" stroke-linecap="round" stroke-linejoin="round"/>
<path d="M331.311 498.551V544.131L317.021 558.851" stroke="#4A4A4A" stroke-width="2.5" stroke-linecap="round" stroke-linejoin="round"/>
<path d="M331.311 544.41V587.09L317.021 601.8" stroke="#4A4A4A" stroke-width="2.5" stroke-linecap="round" stroke-linejoin="round"/>
<path d="M331.311 587.09V647.52" stroke="#4A4A4A" stroke-width="2.5" stroke-linecap="round" stroke-linejoin="round"/>
<path d="M193.88 474.933C193.882 473.755 193.535 472.603 192.882 471.623C192.229 470.643 191.3 469.879 190.212 469.427C189.124 468.976 187.927 468.857 186.772 469.087C185.617 469.316 184.556 469.883 183.723 470.715C182.89 471.548 182.324 472.609 182.094 473.764C181.865 474.919 181.984 476.117 182.435 477.204C182.887 478.292 183.651 479.221 184.631 479.874C185.611 480.527 186.763 480.875 187.94 480.873C189.515 480.87 191.024 480.243 192.138 479.13C193.251 478.017 193.878 476.507 193.88 474.933V474.933Z" fill="white" stroke="#4A4A4A" stroke-width="2.5" stroke-linecap="round" stroke-linejoin="round"/>
<path d="M193.88 496.542C193.882 495.364 193.535 494.213 192.882 493.233C192.229 492.253 191.3 491.488 190.212 491.037C189.124 490.585 187.927 490.467 186.772 490.696C185.617 490.925 184.556 491.492 183.723 492.325C182.89 493.157 182.324 494.219 182.094 495.374C181.865 496.529 181.984 497.726 182.435 498.814C182.887 499.901 183.651 500.83 184.631 501.483C185.611 502.136 186.763 502.484 187.94 502.482C189.515 502.479 191.024 501.853 192.138 500.739C193.251 499.626 193.878 498.117 193.88 496.542V496.542Z" fill="white" stroke="#4A4A4A" stroke-width="2.5" stroke-linecap="round" stroke-linejoin="round"/>
<path d="M193.88 518.241C193.882 517.064 193.535 515.912 192.882 514.932C192.229 513.952 191.3 513.188 190.212 512.736C189.124 512.285 187.927 512.166 186.772 512.395C185.617 512.624 184.556 513.191 183.723 514.024C182.89 514.857 182.324 515.918 182.094 517.073C181.865 518.228 181.984 519.425 182.435 520.513C182.887 521.6 183.651 522.53 184.631 523.183C185.611 523.836 186.763 524.183 187.94 524.181C189.515 524.179 191.024 523.552 192.138 522.439C193.251 521.325 193.878 519.816 193.88 518.241V518.241Z" fill="white" stroke="#4A4A4A" stroke-width="2.5" stroke-linecap="round" stroke-linejoin="round"/>
<path d="M193.88 539.901C193.882 538.724 193.535 537.572 192.882 536.592C192.229 535.612 191.3 534.848 190.212 534.396C189.124 533.945 187.927 533.826 186.772 534.055C185.617 534.285 184.556 534.851 183.723 535.684C182.89 536.517 182.324 537.578 182.094 538.733C181.865 539.888 181.984 541.085 182.435 542.173C182.887 543.261 183.651 544.19 184.631 544.843C185.611 545.496 186.763 545.843 187.94 545.841C189.515 545.839 191.024 545.212 192.138 544.099C193.251 542.985 193.878 541.476 193.88 539.901V539.901Z" fill="white" stroke="#4A4A4A" stroke-width="2.5" stroke-linecap="round" stroke-linejoin="round"/>
<path d="M193.88 561.511C193.882 560.333 193.535 559.181 192.882 558.201C192.229 557.221 191.3 556.457 190.212 556.006C189.124 555.554 187.927 555.435 186.772 555.665C185.617 555.894 184.556 556.461 183.723 557.293C182.89 558.126 182.324 559.187 182.094 560.342C181.865 561.498 181.984 562.695 182.435 563.782C182.887 564.87 183.651 565.799 184.631 566.452C185.611 567.105 186.763 567.453 187.94 567.451C189.515 567.448 191.024 566.821 192.138 565.708C193.251 564.595 193.878 563.085 193.88 561.511V561.511Z" fill="white" stroke="#4A4A4A" stroke-width="2.5" stroke-linecap="round" stroke-linejoin="round"/>
<path d="M193.88 583.21C193.882 582.032 193.535 580.881 192.882 579.901C192.229 578.921 191.3 578.156 190.212 577.705C189.124 577.253 187.927 577.135 186.772 577.364C185.617 577.593 184.556 578.16 183.723 578.993C182.89 579.825 182.324 580.887 182.094 582.042C181.865 583.197 181.984 584.394 182.435 585.482C182.887 586.569 183.651 587.498 184.631 588.151C185.611 588.804 186.763 589.152 187.94 589.15C189.515 589.147 191.024 588.521 192.138 587.407C193.251 586.294 193.878 584.785 193.88 583.21V583.21Z" fill="white" stroke="#4A4A4A" stroke-width="2.5" stroke-linecap="round" stroke-linejoin="round"/>
<path d="M193.88 604.773C193.882 603.595 193.535 602.443 192.882 601.463C192.229 600.483 191.3 599.719 190.212 599.267C189.124 598.816 187.927 598.697 186.772 598.926C185.617 599.156 184.556 599.723 183.723 600.555C182.89 601.388 182.324 602.449 182.094 603.604C181.865 604.759 181.984 605.956 182.435 607.044C182.887 608.132 183.651 609.061 184.631 609.714C185.611 610.367 186.763 610.715 187.94 610.713C189.515 610.71 191.024 610.083 192.138 608.97C193.251 607.856 193.878 606.347 193.88 604.773Z" fill="white" stroke="#4A4A4A" stroke-width="2.5" stroke-linecap="round" stroke-linejoin="round"/>
<path d="M193.88 626.382C193.882 625.204 193.535 624.052 192.882 623.072C192.229 622.092 191.3 621.328 190.212 620.877C189.124 620.425 187.927 620.306 186.772 620.536C185.617 620.765 184.556 621.332 183.723 622.165C182.89 622.997 182.324 624.058 182.094 625.214C181.865 626.369 181.984 627.566 182.435 628.653C182.887 629.741 183.651 630.67 184.631 631.323C185.611 631.976 186.763 632.324 187.94 632.322C189.515 632.319 191.024 631.693 192.138 630.579C193.251 629.466 193.878 627.956 193.88 626.382V626.382Z" fill="white" stroke="#4A4A4A" stroke-width="2.5" stroke-linecap="round" stroke-linejoin="round"/>
<path d="M193.88 648.091C193.884 646.913 193.539 645.76 192.887 644.779C192.235 643.798 191.306 643.032 190.219 642.579C189.132 642.126 187.934 642.006 186.778 642.234C185.622 642.462 184.56 643.028 183.727 643.86C182.893 644.693 182.325 645.754 182.095 646.909C181.865 648.064 181.983 649.262 182.434 650.35C182.886 651.439 183.65 652.368 184.63 653.022C185.61 653.675 186.762 654.023 187.94 654.021C189.513 654.019 191.021 653.393 192.134 652.282C193.247 651.171 193.875 649.664 193.88 648.091V648.091Z" fill="white" stroke="#4A4A4A" stroke-width="2.5" stroke-linecap="round" stroke-linejoin="round"/>
<path d="M193.88 669.741C193.882 668.564 193.535 667.412 192.882 666.432C192.229 665.452 191.3 664.688 190.212 664.236C189.124 663.785 187.927 663.666 186.772 663.895C185.617 664.124 184.556 664.691 183.723 665.524C182.89 666.357 182.324 667.418 182.094 668.573C181.865 669.728 181.984 670.925 182.435 672.013C182.887 673.1 183.651 674.03 184.631 674.683C185.611 675.336 186.763 675.683 187.94 675.681C189.515 675.679 191.024 675.052 192.138 673.939C193.251 672.825 193.878 671.316 193.88 669.741Z" fill="white" stroke="#4A4A4A" stroke-width="2.5" stroke-linecap="round" stroke-linejoin="round"/>
<path d="M172.051 473.273H189.181" stroke="#4A4A4A" stroke-width="2.5" stroke-linecap="round" stroke-linejoin="round"/>
<path d="M172.051 476.875H189.181" stroke="#4A4A4A" stroke-width="2.5" stroke-linecap="round" stroke-linejoin="round"/>
<path d="M172.051 494.852H189.181" stroke="#4A4A4A" stroke-width="2.5" stroke-linecap="round" stroke-linejoin="round"/>
<path d="M172.051 498.445H189.181" stroke="#4A4A4A" stroke-width="2.5" stroke-linecap="round" stroke-linejoin="round"/>
<path d="M172.051 516.434H189.181" stroke="#4A4A4A" stroke-width="2.5" stroke-linecap="round" stroke-linejoin="round"/>
<path d="M172.051 520.023H189.181" stroke="#4A4A4A" stroke-width="2.5" stroke-linecap="round" stroke-linejoin="round"/>
<path d="M172.051 538.012H189.181" stroke="#4A4A4A" stroke-width="2.5" stroke-linecap="round" stroke-linejoin="round"/>
<path d="M172.051 541.602H189.181" stroke="#4A4A4A" stroke-width="2.5" stroke-linecap="round" stroke-linejoin="round"/>
<path d="M172.051 559.594H189.181" stroke="#4A4A4A" stroke-width="2.5" stroke-linecap="round" stroke-linejoin="round"/>
<path d="M172.051 563.184H189.181" stroke="#4A4A4A" stroke-width="2.5" stroke-linecap="round" stroke-linejoin="round"/>
<path d="M172.051 581.172H189.181" stroke="#4A4A4A" stroke-width="2.5" stroke-linecap="round" stroke-linejoin="round"/>
<path d="M172.051 584.762H189.181" stroke="#4A4A4A" stroke-width="2.5" stroke-linecap="round" stroke-linejoin="round"/>
<path d="M172.051 602.754H189.181" stroke="#4A4A4A" stroke-width="2.5" stroke-linecap="round" stroke-linejoin="round"/>
<path d="M172.051 606.344H189.181" stroke="#4A4A4A" stroke-width="2.5" stroke-linecap="round" stroke-linejoin="round"/>
<path d="M172.051 624.332H189.181" stroke="#4A4A4A" stroke-width="2.5" stroke-linecap="round" stroke-linejoin="round"/>
<path d="M172.051 627.922H189.181" stroke="#4A4A4A" stroke-width="2.5" stroke-linecap="round" stroke-linejoin="round"/>
<path d="M172.051 645.914H189.181" stroke="#4A4A4A" stroke-width="2.5" stroke-linecap="round" stroke-linejoin="round"/>
<path d="M172.051 649.504H189.181" stroke="#4A4A4A" stroke-width="2.5" stroke-linecap="round" stroke-linejoin="round"/>
<path d="M172.051 667.484H189.181" stroke="#4A4A4A" stroke-width="2.5" stroke-linecap="round" stroke-linejoin="round"/>
<path d="M172.051 671.082H189.181" stroke="#4A4A4A" stroke-width="2.5" stroke-linecap="round" stroke-linejoin="round"/>
<path d="M266.781 633.582H255.511V615.162H247.091C246.421 615.162 246.561 615.702 246.561 616.092C246.561 621.912 246.561 627.739 246.561 633.572H235.301V614.842H212.881C212.842 614.739 212.819 614.631 212.811 614.522C213.501 610.372 214.221 606.232 214.891 602.072C214.991 601.452 215.371 601.492 215.791 601.502H222.691C225.851 601.502 227.361 599.962 227.361 596.772V548.382C227.417 547.61 227.313 546.834 227.055 546.105C226.796 545.375 226.389 544.707 225.859 544.143C225.328 543.579 224.687 543.131 223.975 542.828C223.262 542.525 222.495 542.373 221.721 542.382C219.881 542.282 218.031 542.292 216.181 542.262C215.071 542.262 213.941 542.262 212.821 542.262V530.262H235.301V511.922H246.571C246.571 517.652 246.571 523.382 246.571 529.112C246.571 529.792 246.781 530.012 247.461 529.992C249.401 529.922 251.351 529.912 253.291 529.892H255.411C255.459 529.765 255.496 529.635 255.521 529.502C255.521 523.642 255.521 517.782 255.521 511.922H266.791C266.791 512.302 266.791 512.692 266.791 513.082C266.791 518.262 266.791 523.442 266.791 528.622C266.791 530.402 266.791 530.392 268.621 530.622C273.626 531.006 278.533 532.219 283.141 534.212C287.501 536.212 290.901 539.212 292.681 543.772C293.883 547.04 294.334 550.536 294.001 554.002C293.882 556.78 293.052 559.482 291.59 561.847C290.128 564.213 288.083 566.163 285.651 567.512L284.471 568.192C284.791 568.332 284.921 568.412 285.061 568.462C287.024 569.098 288.953 569.836 290.841 570.672C295.341 572.942 298.561 576.372 299.841 581.392C301.019 586.334 300.929 591.494 299.581 596.392C298.621 600.659 296.331 604.511 293.041 607.392C289.176 610.53 284.555 612.599 279.641 613.392C275.751 614.152 271.761 614.462 267.811 614.892C266.961 614.982 266.711 615.252 266.741 616.072C266.811 617.562 266.741 619.072 266.741 620.542C266.754 624.849 266.767 629.195 266.781 633.582ZM246.781 601.522C250.261 601.522 253.561 601.602 256.851 601.522C261.323 601.501 265.763 600.761 270.001 599.332C272.671 598.332 275.181 597.062 276.711 594.512C277.425 593.351 277.899 592.059 278.106 590.712C278.313 589.365 278.248 587.991 277.916 586.669C277.583 585.348 276.989 584.106 276.169 583.018C275.349 581.929 274.319 581.016 273.141 580.332C269.516 578.281 265.443 577.155 261.281 577.052C256.861 576.852 252.421 576.912 247.991 576.802C246.991 576.802 246.741 577.052 246.741 578.042C246.741 585.482 246.741 592.922 246.741 600.372L246.781 601.522ZM246.781 554.282C246.781 557.742 246.781 561.212 246.781 564.672C246.781 565.212 246.781 565.582 247.531 565.602C253.201 565.692 258.851 565.682 264.391 564.202C267.228 563.559 269.751 561.942 271.521 559.632C274.191 555.982 273.281 549.942 269.771 547.012C266.931 544.805 263.465 543.555 259.871 543.442C255.871 543.122 251.731 543.202 247.661 543.072C246.871 543.072 246.761 543.432 246.771 544.072C246.801 547.482 246.791 550.882 246.791 554.282H246.781Z" fill="#FF9500"/>
<path d="M498.812 242.984H542.722L552.682 252.944H589.682" stroke="#FF9500" stroke-width="2.5" stroke-linecap="round" stroke-linejoin="round"/>
<path d="M504.352 257.492H521.022" stroke="#FF9500" stroke-width="2.5" stroke-linecap="round" stroke-linejoin="round"/>
<path d="M504.352 296.895H552.352L581.482 326.025" stroke="#FF9500" stroke-width="2.5" stroke-linecap="round" stroke-linejoin="round"/>
<path d="M498.812 308.773H544.242L573.552 338.083H828.352L847.693 318.743H869.023" stroke="#FF9500" stroke-width="2.5" stroke-linecap="round" stroke-linejoin="round"/>
<path d="M789.021 233.035H869.021" stroke="#FF9500" stroke-width="2.5" stroke-linecap="round" stroke-linejoin="round"/>
<path d="M783.682 221.024H821.022L833.612 208.434H875.022" stroke="#FF9500" stroke-width="2.5" stroke-linecap="round" stroke-linejoin="round"/>
<path d="M837.531 221.375H866.351" stroke="#FF9500" stroke-width="2.5" stroke-linecap="round" stroke-linejoin="round"/>
<path d="M629.881 296.895V322.635" stroke="#FF9500" stroke-width="2.5" stroke-linecap="round" stroke-linejoin="round"/>
<path d="M623.942 347.285L604.482 366.755" stroke="#FF9500" stroke-width="2.5" stroke-linecap="round" stroke-linejoin="round"/>
<path d="M581.482 388.625L515.752 454.355" stroke="#FF9500" stroke-width="2.5" stroke-linecap="round" stroke-linejoin="round"/>
<path d="M475.382 490.875L428.551 537.715V549.905H404.732L376.861 577.775H365.021" stroke="#FF9500" stroke-width="2.5" stroke-linecap="round" stroke-linejoin="round"/>
<path d="M578.352 360.625L613.652 395.925H636.352L808.652 568.225" stroke="#FF9500" stroke-width="2.5" stroke-linecap="round" stroke-linejoin="round"/>
<path d="M683.912 300.652V324.482" stroke="#FF9500" stroke-width="2.5" stroke-linecap="round" stroke-linejoin="round"/>
<path d="M683.912 347.285V430.545" stroke="#FF9500" stroke-width="2.5" stroke-linecap="round" stroke-linejoin="round"/>
<path d="M683.912 454.355V464.425L790.012 570.515" stroke="#FF9500" stroke-width="2.5" stroke-linecap="round" stroke-linejoin="round"/>
<path d="M700.352 301.254V439.284L790.552 529.484H925.022L954.532 558.994H1013.02" stroke="#FF9500" stroke-width="2.5" stroke-linecap="round" stroke-linejoin="round"/>
<path d="M644.352 558.994L699.282 504.074" stroke="#FF9500" stroke-width="2.5" stroke-linecap="round" stroke-linejoin="round"/>
<path d="M743.021 459.955L768.981 433.995H866.351L918.571 381.775V360.625" stroke="#FF9500" stroke-width="2.5" stroke-linecap="round" stroke-linejoin="round"/>
<path d="M934.352 360.625V392.625L879.232 447.745V514.435" stroke="#FF9500" stroke-width="2.5" stroke-linecap="round" stroke-linejoin="round"/>
<path d="M879.232 538.703V565.573" stroke="#FF9500" stroke-width="2.5" stroke-linecap="round" stroke-linejoin="round"/>
<path d="M950.352 360.625V430.545L971.392 451.585" stroke="#FF9500" stroke-width="2.5" stroke-linecap="round" stroke-linejoin="round"/>
<path d="M964.732 360.625V421.485L991.442 448.195V470.975L1010 489.525" stroke="#FF9500" stroke-width="2.5" stroke-linecap="round" stroke-linejoin="round"/>
<path d="M644.352 296.895V350.135L617.242 377.245" stroke="#FF9500" stroke-width="2.5" stroke-linecap="round" stroke-linejoin="round"/>
<path d="M595.022 402.625L514.232 483.415" stroke="#FF9500" stroke-width="2.5" stroke-linecap="round" stroke-linejoin="round"/>
<path d="M444.352 357.012V430.122L488.732 474.502V500.602L507.392 519.272V552.132" stroke="#FF9500" stroke-width="2.5" stroke-linecap="round" stroke-linejoin="round"/>
<path d="M424.352 357.012V425.952L402.492 447.812" stroke="#FF9500" stroke-width="2.5" stroke-linecap="round" stroke-linejoin="round"/>
<path d="M404.732 354.625V412.625L382.022 435.335V475.285L354.402 502.905" stroke="#FF9500" stroke-width="2.5" stroke-linecap="round" stroke-linejoin="round"/>
<path d="M934.352 650.945H1010" stroke="#FF9500" stroke-width="2.5" stroke-linecap="round" stroke-linejoin="round"/>
<path d="M929.021 668.293H972.181L989.151 685.273H1018.35" stroke="#FF9500" stroke-width="2.5" stroke-linecap="round" stroke-linejoin="round"/>
<path d="M734.352 669.723H683.912L662.922 690.713H636.352" stroke="#FF9500" stroke-width="2.5" stroke-linecap="round" stroke-linejoin="round"/>
<path d="M636.352 658.504H661.692" stroke="#FF9500" stroke-width="2.5" stroke-linecap="round" stroke-linejoin="round"/>
<path d="M685.352 687.062H734.352" stroke="#FF9500" stroke-width="2.5" stroke-linecap="round" stroke-linejoin="round"/>
<path d="M347.682 662.395H387.682L395.932 670.645H438.682" stroke="#FF9500" stroke-width="2.5" stroke-linecap="round" stroke-linejoin="round"/>
<path d="M350.682 648.395H438.682" stroke="#FF9500" stroke-width="2.5" stroke-linecap="round" stroke-linejoin="round"/>
<path d="M358.682 675.395H381.182" stroke="#FF9500" stroke-width="2.5" stroke-linecap="round" stroke-linejoin="round"/>
</svg>
