<svg width="1422" height="870" viewBox="0 0 1422 870" fill="none" xmlns="http://www.w3.org/2000/svg">
<path d="M321.84 272.43C350.28 255.21 385.4 231.96 402.61 201.43C409.94 188.43 414.73 172.06 405.78 158.38C398.34 147.01 386.16 143.21 376.56 153.15C364.3 165.84 363.56 181 368.45 196.96C384.16 248.38 443.13 281.05 422.76 382.51C396.92 511.21 213.54 472 265 429.85C292.64 407.21 388.58 399.76 459.74 415.26" stroke="#FF9500" stroke-width="2.5" stroke-linecap="round" stroke-linejoin="round"/>
<path d="M477.459 402.062C487.219 395.402 483.529 381.562 472.029 381.872C461.919 382.142 451.319 391.252 450.839 402.462C450.219 416.682 463.38 417.542 472.51 412.722C482.2 407.612 485.85 397.922 488.67 387.792C488.67 387.792 487.859 386.592 487.839 386.532C483.929 389.602 482.269 405.232 487.959 408.312C495.719 412.522 508.619 392.982 511.519 387.752C522.979 366.981 531.526 344.733 536.919 321.632C539.908 309.427 542.027 297.026 543.259 284.522C543.749 278.782 546.099 268.722 542.469 264.262C536.469 270.262 537 289.092 536.14 297.452C534.27 315.732 531.25 333.852 529.02 352.052C526.44 373.132 520.85 397.112 522.02 418.292" stroke="#FF9500" stroke-width="2.5" stroke-linecap="round" stroke-linejoin="round"/>
<path d="M596.51 343C586.33 343.17 576.01 344.53 566.91 345.46C527.39 349.46 485.91 360.34 449.91 377.94" stroke="#FF9500" stroke-width="2.5" stroke-linecap="round" stroke-linejoin="round"/>
<path d="M666.7 330.801C666.049 331.737 665.65 332.825 665.54 333.961M672.91 380.781C666.44 383.971 658.52 387.691 656.81 378.781C655.42 371.541 657.24 361.041 659.28 354.351L672.91 380.781Z" stroke="#FF9500" stroke-width="2.5" stroke-linecap="round" stroke-linejoin="round"/>
<path d="M807.001 421.281C790.501 416.281 793.821 382.281 799.631 364.511C810.921 330.001 825.281 297.681 840.211 265.001C864.611 211.481 889.621 128.171 840.991 161.651C800.101 189.771 737.851 279.831 721.461 439.941C726.461 340.281 774.151 216.091 779.531 198.811C785.921 178.321 799.271 142.681 770.411 134.141C704.411 114.631 546.411 203.331 489.811 243.141" stroke="#FF9500" stroke-width="2.5" stroke-linecap="round" stroke-linejoin="round"/>
<path d="M844.081 362.903C843.151 344.183 806.151 364.443 818.211 382.683C827.361 396.543 849.751 367.963 845.481 355.863C842.241 359.713 837.211 378.033 840.331 382.813C844.781 389.633 854.081 378.813 857.241 374.883C872.531 356.063 881.801 328.653 889.241 305.293C889.561 304.293 913.531 228.933 908.491 227.213C904.611 225.903 880.631 320.443 879.951 323.013C874.791 342.713 869.691 363.493 865.061 382.743C867.991 370.543 875.731 358.393 885.391 371.833C889.191 377.133 890.591 382.023 897.911 381.463" stroke="#FF9500" stroke-width="2.5" stroke-linecap="round" stroke-linejoin="round"/>
<path d="M895.79 346.383C887.26 348.133 879.79 357.563 875.35 365.003" stroke="#FF9500" stroke-width="2.5" stroke-linecap="round" stroke-linejoin="round"/>
<path d="M929.541 327.9C973.841 317.29 1020.34 313.9 1065.78 310" stroke="#FF9500" stroke-width="2.5" stroke-linecap="round" stroke-linejoin="round"/>
<path d="M554.881 373.922C537.221 369.742 527.751 400.872 546.881 404.922C562.721 408.282 569.791 385.742 556.801 374.922C562.011 381.462 588.641 373.512 592.341 361.752C594.221 355.812 586.111 356.252 584.831 361.272C583.101 367.992 589.901 373.642 595.141 379.152C604.451 388.972 599.381 396.022 592.221 398.072C580.931 401.302 567.821 390.402 585.171 378.752C642.771 340.062 637.481 248.172 633.391 250.112C633.391 250.112 622.461 346.162 622.261 348.112C620.641 363.112 617.661 379.572 618.611 394.932C619.841 389.342 630.871 346.682 639.051 355.172C642.141 358.382 639.411 372.502 639.931 376.662C641.021 385.462 644.991 387.992 652.491 386.062" stroke="#FF9500" stroke-width="2.5" stroke-linecap="round" stroke-linejoin="round"/>
<path d="M1030.12 634.911C1030.12 649.636 1024.27 663.759 1013.86 674.173C1003.45 684.586 989.326 690.438 974.6 690.441H491.67C476.945 690.438 462.823 684.586 452.411 674.173C441.999 663.759 436.15 649.636 436.15 634.911V634.911C436.15 620.186 442 606.064 452.412 595.652C462.824 585.24 476.946 579.391 491.67 579.391H974.6C989.325 579.391 1003.45 585.24 1013.86 595.652C1024.27 606.064 1030.12 620.186 1030.12 634.911Z" fill="#EBEBEB"/>
<path d="M1030.12 614.911C1030.12 629.636 1024.27 643.759 1013.86 654.173C1003.45 664.586 989.326 670.438 974.6 670.441H491.67C476.945 670.438 462.823 664.586 452.411 654.173C441.999 643.759 436.15 629.636 436.15 614.911V614.911C436.15 600.186 442 586.064 452.412 575.652C462.824 565.24 476.946 559.391 491.67 559.391H974.6C989.325 559.391 1003.45 565.24 1013.86 575.652C1024.27 586.064 1030.12 600.186 1030.12 614.911Z" fill="white"/>
<path d="M1030.12 614.911C1030.12 629.636 1024.27 643.759 1013.86 654.173C1003.45 664.586 989.326 670.438 974.6 670.441H491.67C476.945 670.438 462.823 664.586 452.411 654.173C441.999 643.759 436.15 629.636 436.15 614.911V614.911C436.15 600.186 442 586.064 452.412 575.652C462.824 565.24 476.946 559.391 491.67 559.391H974.6C989.325 559.391 1003.45 565.24 1013.86 575.652C1024.27 586.064 1030.12 600.186 1030.12 614.911Z" stroke="#4A4A4A" stroke-width="4" stroke-linecap="round" stroke-linejoin="round"/>
<path d="M613.74 633.591C611.299 633.616 608.872 633.23 606.56 632.451C604.418 631.738 602.465 630.549 600.849 628.973C599.233 627.397 597.996 625.474 597.23 623.351C595.517 618.374 595.496 612.971 597.17 607.981C597.945 605.815 599.176 603.841 600.78 602.191C602.375 600.596 604.3 599.371 606.42 598.601C608.774 597.741 611.264 597.314 613.77 597.341C615.107 597.331 616.443 597.411 617.77 597.581C618.872 597.732 619.964 597.949 621.04 598.231C622.007 598.503 622.955 598.837 623.88 599.231C624.74 599.601 625.48 599.941 626.12 600.231V608.691H625.12C624.68 608.318 624.13 607.878 623.47 607.371C622.75 606.816 621.995 606.308 621.21 605.851C620.324 605.339 619.389 604.917 618.42 604.591C617.385 604.246 616.301 604.073 615.21 604.081C613.982 604.076 612.762 604.275 611.6 604.671C610.414 605.102 609.336 605.784 608.44 606.671C607.444 607.67 606.679 608.875 606.2 610.201C605.587 611.91 605.296 613.717 605.34 615.531C605.284 617.401 605.6 619.264 606.27 621.011C606.779 622.324 607.575 623.506 608.6 624.471C609.513 625.311 610.603 625.936 611.79 626.301C612.911 626.662 614.082 626.848 615.26 626.851C616.357 626.85 617.449 626.688 618.5 626.371C619.552 626.057 620.561 625.61 621.5 625.041C622.239 624.602 622.95 624.118 623.63 623.591C624.28 623.081 624.82 622.591 625.25 622.261H626.18V630.601C625.31 631.001 624.47 631.361 623.67 631.711C622.856 632.06 622.021 632.357 621.17 632.601C620.115 632.911 619.043 633.162 617.96 633.351C616.562 633.545 615.151 633.625 613.74 633.591Z" fill="#FF9500"/>
<path d="M657.781 632.922H634.48V626.822H641.841V608.382H634.48V602.682C635.564 602.683 636.646 602.616 637.72 602.482C638.612 602.39 639.482 602.157 640.3 601.792C641.036 601.464 641.667 600.938 642.12 600.272C642.553 599.562 642.797 598.753 642.831 597.922H650.581V626.822H657.781V632.922Z" fill="#FF9500"/>
<path d="M700.759 615.483C700.759 621.043 699.166 625.46 695.979 628.733C692.792 632.006 688.386 633.643 682.759 633.643C677.159 633.643 672.762 632.006 669.569 628.733C666.376 625.46 664.782 621.043 664.789 615.483C664.789 609.876 666.382 605.443 669.569 602.183C672.756 598.923 677.152 597.293 682.759 597.293C688.359 597.293 692.759 598.923 695.959 602.183C699.159 605.443 700.759 609.876 700.759 615.483ZM688.829 624.313C689.733 623.209 690.397 621.928 690.779 620.553C691.228 618.891 691.44 617.174 691.409 615.453C691.449 613.646 691.206 611.845 690.689 610.113C690.294 608.814 689.649 607.604 688.789 606.553C688.045 605.672 687.098 604.986 686.029 604.553C685 604.134 683.9 603.92 682.789 603.923C681.686 603.914 680.592 604.121 679.569 604.533C678.499 604.973 677.546 605.658 676.789 606.533C675.908 607.594 675.257 608.827 674.879 610.153C674.359 611.891 674.11 613.699 674.139 615.513C674.101 617.309 674.341 619.1 674.849 620.823C675.243 622.124 675.885 623.336 676.739 624.393C677.483 625.266 678.421 625.951 679.479 626.393C680.526 626.832 681.649 627.058 682.784 627.058C683.919 627.058 685.042 626.832 686.089 626.393C687.157 625.93 688.096 625.217 688.829 624.313V624.313Z" fill="#FF9500"/>
<path d="M734.159 621.104C734.175 622.822 733.834 624.524 733.159 626.104C732.482 627.651 731.455 629.021 730.159 630.104C728.686 631.311 726.986 632.208 725.159 632.744C723.083 633.341 720.929 633.628 718.769 633.594C716.392 633.622 714.019 633.397 711.689 632.924C710.071 632.591 708.488 632.109 706.959 631.484V623.774H707.959C709.41 624.637 710.949 625.344 712.549 625.884C714.125 626.433 715.78 626.717 717.449 626.724C718.524 626.716 719.596 626.602 720.649 626.384C721.654 626.231 722.598 625.805 723.379 625.154C723.859 624.733 724.268 624.236 724.589 623.684C724.905 622.953 725.046 622.159 724.999 621.364C725.016 620.626 724.826 619.898 724.449 619.264C724.092 618.687 723.606 618.201 723.029 617.844C722.09 617.31 721.052 616.97 719.979 616.844C718.909 616.693 717.83 616.613 716.749 616.604C715.407 616.602 714.069 616.723 712.749 616.964C711.459 617.204 710.329 617.444 709.369 617.674H708.369V598.004H733.199V604.684H716.799V610.374C717.279 610.374 717.889 610.314 718.639 610.294C719.389 610.274 720.029 610.294 720.639 610.294C722.372 610.274 724.101 610.462 725.789 610.854C727.16 611.159 728.476 611.675 729.689 612.384C731.076 613.212 732.224 614.387 733.019 615.794C733.845 617.438 734.237 619.266 734.159 621.104V621.104Z" fill="#FF9500"/>
<path d="M760.619 632.924H740.189V626.734H745.909V604.204H740.189V598.004H760.619V604.184H754.909V626.714H760.619V632.924Z" fill="#FF9500"/>
<path d="M794.49 613.503C794.514 616.262 794.137 619.011 793.37 621.663C792.708 624.006 791.537 626.174 789.94 628.013C788.261 629.892 786.145 631.331 783.78 632.203C781.028 633.182 778.121 633.653 775.2 633.593C773.947 633.587 772.696 633.517 771.45 633.383C770.56 633.31 769.676 633.187 768.8 633.013V626.143H769.74C770.389 626.425 771.057 626.659 771.74 626.843C772.901 627.129 774.095 627.256 775.29 627.223C776.498 627.224 777.702 627.07 778.87 626.763C779.958 626.493 780.979 626.003 781.87 625.323C782.8 624.608 783.573 623.709 784.14 622.683C784.774 621.499 785.178 620.206 785.33 618.873C784.126 619.584 782.861 620.186 781.55 620.673C780.145 621.12 778.675 621.33 777.2 621.293C775.931 621.298 774.667 621.137 773.44 620.813C772.273 620.506 771.167 620.002 770.17 619.323C768.853 618.376 767.785 617.123 767.06 615.673C766.229 613.887 765.832 611.931 765.9 609.963C765.845 608.246 766.166 606.538 766.842 604.959C767.517 603.38 768.531 601.968 769.81 600.823C772.646 598.385 776.305 597.122 780.04 597.293C781.998 597.262 783.947 597.552 785.81 598.153C787.435 598.69 788.921 599.581 790.16 600.763C791.63 602.191 792.732 603.955 793.37 605.903C794.16 608.357 794.538 610.925 794.49 613.503V613.503ZM785.49 612.193C785.532 610.604 785.346 609.018 784.94 607.483C784.671 606.426 784.153 605.449 783.43 604.633C783.001 604.151 782.463 603.781 781.86 603.553C781.261 603.332 780.628 603.22 779.99 603.223C779.392 603.221 778.799 603.33 778.24 603.543C777.634 603.786 777.088 604.158 776.64 604.633C776.109 605.21 775.704 605.891 775.45 606.633C775.128 607.568 774.972 608.553 774.99 609.543C774.963 610.487 775.133 611.427 775.49 612.303C775.779 613.005 776.248 613.619 776.85 614.083C777.421 614.517 778.079 614.821 778.78 614.973C780.334 615.326 781.947 615.326 783.5 614.973C784.154 614.841 784.796 614.657 785.42 614.423C785.42 614.243 785.42 614.003 785.42 613.673C785.42 613.343 785.51 612.833 785.51 612.193H785.49Z" fill="#FF9500"/>
<path d="M833.82 632.924H825.15L810.33 608.924V632.924H802.08V598.004H812.84L825.57 618.004V598.004H833.82V632.924Z" fill="#FF9500"/>
<path d="M866.58 616.563C867.335 617.198 867.957 617.976 868.41 618.853C868.906 619.947 869.139 621.142 869.09 622.343C869.095 623.931 868.754 625.5 868.09 626.943C867.413 628.393 866.381 629.648 865.09 630.593C863.694 631.62 862.126 632.389 860.46 632.863C858.354 633.425 856.179 633.688 854 633.643C851.503 633.684 849.008 633.456 846.56 632.963C844.833 632.615 843.142 632.106 841.51 631.443V623.773H842.43C843.943 624.666 845.558 625.375 847.24 625.883C848.89 626.442 850.617 626.742 852.36 626.773C853.364 626.77 854.366 626.697 855.36 626.553C856.322 626.432 857.243 626.09 858.05 625.553C858.608 625.186 859.08 624.702 859.43 624.133C859.822 623.396 860.002 622.565 859.95 621.733C860.005 620.888 859.757 620.051 859.25 619.373C858.761 618.808 858.118 618.398 857.4 618.193C856.502 617.921 855.568 617.783 854.63 617.783C853.55 617.783 852.55 617.783 851.63 617.783H849.71V611.553H851.71C852.93 611.553 854.01 611.553 854.94 611.433C855.764 611.384 856.574 611.202 857.34 610.893C857.954 610.653 858.488 610.244 858.88 609.713C859.271 609.06 859.453 608.302 859.4 607.543C859.429 606.93 859.237 606.327 858.86 605.843C858.488 605.411 858.023 605.069 857.5 604.843C856.814 604.542 856.085 604.353 855.34 604.283C854.633 604.199 853.922 604.152 853.21 604.143C851.588 604.165 849.978 604.421 848.43 604.903C846.679 605.424 845 606.16 843.43 607.093H842.56V599.523C844.261 598.888 846.01 598.39 847.79 598.033C849.992 597.561 852.238 597.323 854.49 597.323C856.435 597.297 858.377 597.488 860.28 597.893C861.716 598.199 863.098 598.718 864.38 599.433C865.558 600.1 866.544 601.061 867.24 602.223C867.885 603.398 868.209 604.722 868.18 606.063C868.2 607.951 867.56 609.786 866.37 611.253C865.185 612.766 863.496 613.803 861.61 614.173V614.503C862.478 614.631 863.329 614.852 864.15 615.163C865.039 615.476 865.863 615.951 866.58 616.563V616.563Z" fill="#FF9500"/>
<path d="M505.061 628.91C510.583 628.91 515.061 624.433 515.061 618.91C515.061 613.387 510.583 608.91 505.061 608.91C499.538 608.91 495.061 613.387 495.061 618.91C495.061 624.433 499.538 628.91 505.061 628.91Z" fill="#EBEBEB"/>
<path d="M505.061 624.91C510.583 624.91 515.061 620.433 515.061 614.91C515.061 609.387 510.583 604.91 505.061 604.91C499.538 604.91 495.061 609.387 495.061 614.91C495.061 620.433 499.538 624.91 505.061 624.91Z" fill="white" stroke="#4A4A4A" stroke-width="2.5" stroke-linecap="round" stroke-linejoin="round"/>
<path d="M957.061 628.91C962.583 628.91 967.061 624.433 967.061 618.91C967.061 613.387 962.583 608.91 957.061 608.91C951.538 608.91 947.061 613.387 947.061 618.91C947.061 624.433 951.538 628.91 957.061 628.91Z" fill="#EBEBEB"/>
<path d="M957.061 624.91C962.583 624.91 967.061 620.433 967.061 614.91C967.061 609.387 962.583 604.91 957.061 604.91C951.538 604.91 947.061 609.387 947.061 614.91C947.061 620.433 951.538 624.91 957.061 624.91Z" fill="white" stroke="#4A4A4A" stroke-width="2.5" stroke-linecap="round" stroke-linejoin="round"/>
<path d="M1225.74 576.773C1264.21 557.993 1298.34 523.173 1306.96 457.773C1307.87 464.716 1308.33 471.711 1308.33 478.713C1308.33 595.033 1224.89 635.143 1109.5 642.133V660.543C1109.51 661.801 1109.14 663.031 1108.44 664.078C1107.74 665.125 1106.75 665.94 1105.59 666.421C1104.43 666.902 1103.15 667.025 1101.92 666.776C1100.69 666.528 1099.55 665.917 1098.67 665.023L1055.92 622.083C1055.32 621.48 1054.84 620.761 1054.53 619.97C1054.21 619.179 1054.05 618.333 1054.07 617.48C1054.09 616.628 1054.27 615.788 1054.62 615.01C1054.97 614.232 1055.48 613.533 1056.1 612.953L1098.86 573.423C1099.76 572.583 1100.89 572.025 1102.11 571.819C1103.33 571.612 1104.58 571.766 1105.71 572.261C1106.84 572.756 1107.8 573.571 1108.48 574.606C1109.15 575.64 1109.51 576.849 1109.5 578.083V600.003C1124.17 599.233 1147.95 598.633 1174.09 593.533" fill="#EBEBEB"/>
<path d="M1225.74 576.773C1264.21 557.993 1298.34 523.173 1306.96 457.773C1307.87 464.716 1308.33 471.711 1308.33 478.713C1308.33 595.033 1224.89 635.143 1109.5 642.133V660.543C1109.51 661.801 1109.14 663.031 1108.44 664.078C1107.74 665.125 1106.75 665.94 1105.59 666.421C1104.43 666.902 1103.15 667.025 1101.92 666.776C1100.69 666.528 1099.55 665.917 1098.67 665.023L1055.92 622.083C1055.32 621.48 1054.84 620.761 1054.53 619.97C1054.21 619.179 1054.05 618.333 1054.07 617.48C1054.09 616.628 1054.27 615.788 1054.62 615.01C1054.97 614.232 1055.48 613.533 1056.1 612.953L1098.86 573.423C1099.76 572.583 1100.89 572.025 1102.11 571.819C1103.33 571.612 1104.58 571.766 1105.71 572.261C1106.84 572.756 1107.8 573.571 1108.48 574.606C1109.15 575.64 1109.51 576.849 1109.5 578.083V600.003C1124.17 599.233 1147.95 598.633 1174.09 593.533" stroke="#4A4A4A" stroke-width="2.5" stroke-linecap="round" stroke-linejoin="round"/>
<path d="M1171.81 313.492V355.352C1206.12 360.19 1237.91 376.121 1262.32 400.712C1286.72 425.304 1302.42 457.207 1307 491.552C1307.91 484.609 1308.37 477.615 1308.37 470.612C1308.37 432.362 1294.55 395.399 1269.46 366.529C1244.36 337.659 1209.69 318.824 1171.81 313.492Z" fill="white" stroke="#4A4A4A" stroke-width="4" stroke-linecap="round" stroke-linejoin="round"/>
<path d="M379.401 603.393V645.893C307.401 645.893 252.651 638.143 252.651 638.143C214.778 632.801 180.11 613.959 155.027 585.086C129.944 556.212 116.135 519.25 116.141 481.003C116.142 474 116.597 467.006 117.501 460.062C122.084 494.401 137.773 526.297 162.174 550.888C186.575 575.478 218.349 591.413 252.651 596.263C252.651 596.263 298.901 603.393 379.401 603.393Z" fill="#EBEBEB" stroke="#4A4A4A" stroke-width="2.5" stroke-linecap="round" stroke-linejoin="round"/>
<path d="M140.631 430.082C128.382 449.422 120.489 471.196 117.501 493.892C116.599 486.965 116.144 479.988 116.141 473.002C116.13 435.446 129.44 399.103 153.703 370.437C177.966 341.77 211.609 322.638 248.651 316.442V298.092C248.648 296.835 249.019 295.605 249.717 294.56C250.414 293.514 251.407 292.699 252.569 292.219C253.731 291.739 255.009 291.615 256.242 291.863C257.474 292.111 258.605 292.72 259.491 293.612L302.241 336.552C302.843 337.156 303.318 337.875 303.636 338.666C303.954 339.457 304.109 340.305 304.091 341.158C304.073 342.01 303.883 342.851 303.533 343.628C303.182 344.406 302.678 345.104 302.051 345.682L259.301 385.212C258.395 386.051 257.265 386.608 256.048 386.814C254.831 387.02 253.58 386.866 252.449 386.371C251.318 385.876 250.356 385.062 249.682 384.028C249.007 382.995 248.649 381.787 248.651 380.552V358.302C225.4 362.166 203.31 371.186 184.001 384.702" fill="white"/>
<path d="M140.631 430.082C128.382 449.422 120.489 471.196 117.501 493.892C116.599 486.965 116.144 479.988 116.141 473.002C116.13 435.446 129.44 399.103 153.703 370.437C177.966 341.77 211.609 322.638 248.651 316.442V298.092C248.648 296.835 249.019 295.605 249.717 294.56C250.414 293.514 251.407 292.699 252.569 292.219C253.731 291.739 255.009 291.615 256.242 291.863C257.474 292.111 258.605 292.72 259.491 293.612L302.241 336.552C302.843 337.156 303.318 337.875 303.636 338.666C303.954 339.457 304.109 340.305 304.091 341.158C304.073 342.01 303.883 342.851 303.533 343.628C303.182 344.406 302.678 345.104 302.051 345.682L259.301 385.212C258.395 386.051 257.265 386.608 256.048 386.814C254.831 387.02 253.58 386.866 252.449 386.371C251.318 385.876 250.356 385.062 249.682 384.028C249.007 382.995 248.649 381.787 248.651 380.552V358.302C225.4 362.166 203.31 371.186 184.001 384.702" stroke="#4A4A4A" stroke-width="4" stroke-linecap="round" stroke-linejoin="round"/>
<path d="M119.391 306.75C100.182 325.083 84.7875 347.031 74.0907 371.333C63.3939 395.636 57.6063 421.813 57.0605 448.36" stroke="#FF9500" stroke-width="2.5" stroke-linecap="round" stroke-linejoin="round"/>
<path d="M1198.16 697.153C1250.61 686.725 1296.82 656.025 1326.76 611.723" stroke="#FF9500" stroke-width="2.5" stroke-linecap="round" stroke-linejoin="round"/>
<path d="M926.441 357.12C927.121 348.42 916.771 349.95 908.931 355.85C891.401 369.07 905.131 388.13 916.321 377.85C923.801 371 930.221 355.6 930.971 350.85C930.141 356.04 925.971 358.64 927.361 365C928.461 370.24 931.711 373.73 936.751 374C947.351 374.51 962.261 357.33 962.221 346.42C956.321 354.04 957.101 368.17 953.791 376.65C957.221 367.71 963.071 346.08 972.891 342.56C986.191 337.78 975.251 367.02 975.001 372.56C976.461 366.74 984.851 337.41 993.461 340.28C1001.4 342.94 987.911 367.28 992.001 369.81C997.621 373.3 1002.48 359.6 1005 353.81C1010.89 339.94 1014.57 324.91 1018.28 310.26C1024.71 284.88 1029.22 257.75 1032.38 231.77C1028.07 262.05 1020.48 292.15 1014.89 322.29C1011.89 338.49 1012.38 362.29 1018.89 364.29C1026.56 366.67 1036.89 344.94 1031.14 343.69C1027.47 342.89 1025.93 350.09 1026.97 356.57C1029.3 371.12 1042.78 368.03 1047.16 360.15C1049.57 355.84 1050.03 349.86 1047.98 343.95C1047.21 342.033 1045.93 340.365 1044.28 339.13C1042.62 337.894 1040.66 337.14 1038.6 336.95C1034.32 336.77 1034.33 340.28 1037.89 340.95C1138.35 360.16 1116.35 398.83 954.401 420.95C773.861 445.57 527.681 456.88 386.131 568.95" stroke="#FF9500" stroke-width="2.5" stroke-linecap="round" stroke-linejoin="round"/>
</svg>
