<svg width="1422" height="870" viewBox="0 0 1422 870" fill="none" xmlns="http://www.w3.org/2000/svg">
<path d="M196.759 598.63C196.759 598.63 188.399 423.51 331.739 430C413.739 430 439.069 509.45 452.399 598.63H196.759Z" fill="white"/>
<path d="M1160.83 524.64C1160.67 525.265 1160.66 525.916 1160.8 526.545C1160.93 527.174 1161.21 527.764 1161.6 528.271C1162 528.778 1162.51 529.188 1163.08 529.47C1163.66 529.752 1164.3 529.899 1164.94 529.9H1219.12C1219.7 529.911 1220.28 529.784 1220.81 529.53C1221.34 529.276 1221.79 528.902 1222.15 528.438C1222.51 527.973 1222.75 527.432 1222.85 526.858C1222.96 526.283 1222.93 525.692 1222.77 525.13L1212.52 489.57H1169.52L1160.83 524.64Z" fill="#EBEBEB"/>
<path d="M1160.83 524.64C1160.67 525.265 1160.66 525.916 1160.8 526.545C1160.93 527.174 1161.21 527.764 1161.6 528.271C1162 528.778 1162.51 529.188 1163.08 529.47C1163.66 529.752 1164.3 529.899 1164.94 529.9H1219.12C1219.7 529.911 1220.28 529.784 1220.81 529.53C1221.34 529.276 1221.79 528.902 1222.15 528.438C1222.51 527.973 1222.75 527.432 1222.85 526.858C1222.96 526.283 1222.93 525.692 1222.77 525.13L1212.52 489.57H1169.52L1160.83 524.64Z" stroke="#4A4A4A" stroke-width="4" stroke-miterlimit="10"/>
<path d="M1182 499.57H1200.19C1219.19 499.57 1226.27 484.17 1226.27 465.16V336.39C1226.27 327.271 1222.64 318.527 1216.19 312.078C1209.74 305.63 1201 302.005 1191.88 302C1187.36 301.999 1182.89 302.888 1178.71 304.616C1174.53 306.345 1170.74 308.88 1167.54 312.075C1164.35 315.27 1161.81 319.064 1160.08 323.24C1158.35 327.415 1157.46 331.89 1157.46 336.41V465.16C1157.46 484.17 1163 499.57 1182 499.57Z" fill="#EBEBEB"/>
<path d="M1182 499.57H1200.19C1219.19 499.57 1226.27 484.17 1226.27 465.16V336.39C1226.27 327.271 1222.64 318.527 1216.19 312.078C1209.74 305.63 1201 302.005 1191.88 302C1187.36 301.999 1182.89 302.888 1178.71 304.616C1174.53 306.345 1170.74 308.88 1167.54 312.075C1164.35 315.27 1161.81 319.064 1160.08 323.24C1158.35 327.415 1157.46 331.89 1157.46 336.41V465.16C1157.46 484.17 1163 499.57 1182 499.57Z" stroke="#4A4A4A" stroke-width="4" stroke-miterlimit="10"/>
<path d="M1058.89 582V775.69H1049.37C1046.84 775.691 1044.33 776.192 1041.99 777.163C1039.65 778.135 1037.52 779.558 1035.73 781.351C1033.94 783.144 1032.52 785.273 1031.56 787.615C1030.59 789.957 1030.1 792.466 1030.1 795V804H1192.56V775.7V528.82L1194.3 524.64C1194.76 523.538 1195 522.355 1195 521.16V464.42L1198.67 457.79C1201.38 452.86 1202.8 447.325 1202.8 441.7V356.36C1202.8 344.133 1197.94 332.406 1189.3 323.759C1180.65 315.112 1168.93 310.253 1156.7 310.25H1070.84C1064.78 310.249 1058.79 311.44 1053.19 313.757C1047.6 316.074 1042.51 319.47 1038.23 323.752C1033.95 328.034 1030.55 333.118 1028.24 338.713C1025.92 344.308 1024.73 350.304 1024.73 356.36V524.92H1031.06V558.58C1031.06 561.657 1031.67 564.704 1032.85 567.547C1034.02 570.39 1035.75 572.973 1037.93 575.148C1040.1 577.323 1042.69 579.047 1045.53 580.223C1048.38 581.399 1051.42 582.003 1054.5 582H1058.89Z" fill="white"/>
<path d="M1119.39 310.25H1156.72C1162.77 310.25 1168.77 311.443 1174.36 313.76C1179.96 316.077 1185.04 319.474 1189.32 323.756C1193.6 328.038 1197 333.121 1199.31 338.715C1201.63 344.309 1202.82 350.305 1202.82 356.36V441.69C1202.82 447.317 1201.4 452.853 1198.68 457.78L1195.02 464.42V521.16C1195.02 522.355 1194.78 523.538 1194.32 524.64L1192.58 528.82V775.69H1058.89V524.92H1024.75V356.36C1024.75 350.305 1025.94 344.309 1028.26 338.715C1030.57 333.121 1033.97 328.038 1038.25 323.756C1042.53 319.474 1047.61 316.077 1053.21 313.76C1058.8 311.443 1064.8 310.25 1070.85 310.25H1119.39Z" stroke="#4A4A4A" stroke-width="4" stroke-linecap="round" stroke-linejoin="round"/>
<path d="M1058.89 582H1054.5C1048.29 582 1042.33 579.532 1037.94 575.14C1033.55 570.748 1031.08 564.791 1031.08 558.58V524.92H1058.89V582Z" stroke="#4A4A4A" stroke-width="2.5" stroke-linecap="round" stroke-linejoin="round"/>
<path d="M1052.56 377.58V523.43H1195.02" stroke="#4A4A4A" stroke-width="2.5" stroke-linecap="round" stroke-linejoin="round"/>
<path d="M1118.42 561.02V775.69" stroke="#4A4A4A" stroke-width="2.5" stroke-linecap="round" stroke-linejoin="round"/>
<path d="M1158.35 394.529V425.999C1158.35 429.59 1156.92 433.034 1154.39 435.574C1151.85 438.113 1148.4 439.539 1144.81 439.539H1122.13V474.999H1177.75C1185.13 474.999 1192.36 468.759 1194.87 463.689" stroke="#4A4A4A" stroke-width="2.5" stroke-linecap="round" stroke-linejoin="round"/>
<path d="M1122.13 445.401L1094.65 430.881C1093.27 430.157 1091.76 429.745 1090.21 429.676C1088.65 429.607 1087.11 429.882 1085.67 430.481C1084.24 431.081 1082.96 431.989 1081.91 433.142C1080.87 434.295 1080.1 435.664 1079.65 437.151L1074.89 452.881C1074.45 454.347 1074.33 455.891 1074.54 457.407C1074.76 458.923 1075.3 460.374 1076.13 461.659C1076.96 462.945 1078.06 464.034 1079.36 464.851C1080.65 465.668 1082.11 466.193 1083.63 466.391L1122.15 471.391" stroke="#4A4A4A" stroke-width="2.5" stroke-linecap="round" stroke-linejoin="round"/>
<path d="M1090.37 296.59C1102.37 303.91 1111.37 304.4 1123.79 296.59Z" fill="white"/>
<path d="M1090.37 296.59C1102.37 303.91 1111.37 304.4 1123.79 296.59" stroke="#4A4A4A" stroke-width="1.5" stroke-linecap="round" stroke-linejoin="round"/>
<path d="M1099.15 273.419C1099.19 271.982 1098.95 270.55 1098.43 269.21C1097.91 267.869 1097.13 266.646 1096.12 265.614C1095.12 264.582 1093.93 263.761 1092.6 263.201C1091.28 262.64 1089.85 262.352 1088.42 262.352C1086.98 262.352 1085.55 262.64 1084.23 263.201C1082.91 263.761 1081.71 264.582 1080.71 265.614C1079.71 266.646 1078.92 267.869 1078.4 269.21C1077.88 270.55 1077.64 271.982 1077.68 273.419" fill="white"/>
<path d="M1099.15 273.419C1099.19 271.982 1098.95 270.55 1098.43 269.21C1097.91 267.869 1097.13 266.646 1096.12 265.614C1095.12 264.582 1093.93 263.761 1092.6 263.201C1091.28 262.64 1089.85 262.352 1088.42 262.352C1086.98 262.352 1085.55 262.64 1084.23 263.201C1082.91 263.761 1081.71 264.582 1080.71 265.614C1079.71 266.646 1078.92 267.869 1078.4 269.21C1077.88 270.55 1077.64 271.982 1077.68 273.419" stroke="#4A4A4A" stroke-width="1.5" stroke-linecap="round" stroke-linejoin="round"/>
<path d="M1134.52 273.419C1134.56 271.982 1134.32 270.55 1133.8 269.21C1133.28 267.869 1132.5 266.646 1131.49 265.614C1130.49 264.582 1129.29 263.761 1127.97 263.201C1126.65 262.64 1125.22 262.352 1123.78 262.352C1122.35 262.352 1120.92 262.64 1119.6 263.201C1118.27 263.761 1117.08 264.582 1116.08 265.614C1115.07 266.646 1114.29 267.869 1113.77 269.21C1113.25 270.55 1113.01 271.982 1113.05 273.419" fill="white"/>
<path d="M1134.52 273.419C1134.56 271.982 1134.32 270.55 1133.8 269.21C1133.28 267.869 1132.5 266.646 1131.49 265.614C1130.49 264.582 1129.29 263.761 1127.97 263.201C1126.65 262.64 1125.22 262.352 1123.78 262.352C1122.35 262.352 1120.92 262.64 1119.6 263.201C1118.27 263.761 1117.08 264.582 1116.08 265.614C1115.07 266.646 1114.29 267.869 1113.77 269.21C1113.25 270.55 1113.01 271.982 1113.05 273.419" stroke="#4A4A4A" stroke-width="1.5" stroke-linecap="round" stroke-linejoin="round"/>
<path d="M1030.1 795.001V804.001H1105.23V795.001C1105.23 791.133 1106.39 787.355 1108.57 784.158C1110.75 780.96 1113.83 778.491 1117.43 777.071V775.721H1049.37C1044.26 775.723 1039.36 777.756 1035.74 781.371C1032.13 784.987 1030.1 789.889 1030.1 795.001V795.001Z" stroke="#4A4A4A" stroke-width="4" stroke-linecap="round" stroke-linejoin="round"/>
<path d="M1192.57 775.689H1124.51C1121.98 775.689 1119.47 776.189 1117.13 777.16C1114.78 778.131 1112.66 779.554 1110.87 781.347C1109.08 783.141 1107.66 785.27 1106.69 787.612C1105.72 789.955 1105.23 792.465 1105.23 794.999V803.999H1192.57V775.689Z" stroke="#4A4A4A" stroke-width="4" stroke-linecap="round" stroke-linejoin="round"/>
<path d="M1087.44 467L1082.83 466.41C1081.31 466.212 1079.86 465.687 1078.56 464.87C1077.27 464.053 1076.16 462.964 1075.33 461.678C1074.5 460.393 1073.96 458.942 1073.74 457.426C1073.53 455.91 1073.65 454.366 1074.09 452.9L1078.85 437.16C1079.3 435.674 1080.08 434.306 1081.12 433.154C1082.16 432.002 1083.44 431.095 1084.88 430.497C1086.31 429.899 1087.86 429.625 1089.41 429.694C1090.96 429.764 1092.48 430.176 1093.85 430.9L1105.52 437.06L1121.33 445.41" stroke="#4A4A4A" stroke-width="2.5" stroke-linecap="round" stroke-linejoin="round"/>
<path d="M1063.87 400.461L1068.16 462.521C1068.21 463.288 1068.41 464.037 1068.75 464.726C1069.1 465.415 1069.57 466.029 1070.15 466.534C1070.73 467.039 1071.4 467.424 1072.13 467.667C1072.86 467.91 1073.63 468.007 1074.4 467.951L1088.22 466.951L1083.61 466.361C1082.09 466.163 1080.63 465.638 1079.34 464.821C1078.05 464.004 1076.94 462.915 1076.11 461.629C1075.28 460.344 1074.74 458.893 1074.52 457.377C1074.31 455.861 1074.43 454.317 1074.87 452.851L1079.63 437.111C1080.08 435.625 1080.86 434.257 1081.9 433.105C1082.94 431.953 1084.22 431.046 1085.66 430.448C1087.09 429.85 1088.64 429.576 1090.19 429.645C1091.74 429.715 1093.26 430.127 1094.63 430.851L1106.3 437.011L1103.58 397.661C1103.47 396.112 1102.75 394.671 1101.58 393.653C1100.41 392.635 1098.88 392.124 1097.33 392.231L1069.33 394.231C1068.56 394.278 1067.81 394.477 1067.12 394.816C1066.43 395.155 1065.81 395.628 1065.3 396.207C1064.79 396.787 1064.41 397.461 1064.16 398.191C1063.91 398.921 1063.82 399.692 1063.87 400.461V400.461Z" fill="#FF9500"/>
<path d="M1063.87 400.461L1068.16 462.521C1068.21 463.288 1068.41 464.037 1068.75 464.726C1069.1 465.415 1069.57 466.029 1070.15 466.534C1070.73 467.039 1071.4 467.424 1072.13 467.667C1072.86 467.91 1073.63 468.007 1074.4 467.951L1088.22 466.951L1083.61 466.361C1082.09 466.163 1080.63 465.638 1079.34 464.821C1078.05 464.004 1076.94 462.915 1076.11 461.629C1075.28 460.344 1074.74 458.893 1074.52 457.377C1074.31 455.861 1074.43 454.317 1074.87 452.851L1079.63 437.111C1080.08 435.625 1080.86 434.257 1081.9 433.105C1082.94 431.953 1084.22 431.046 1085.66 430.448C1087.09 429.85 1088.64 429.576 1090.19 429.645C1091.74 429.715 1093.26 430.127 1094.63 430.851L1106.3 437.011L1103.58 397.661C1103.47 396.112 1102.75 394.671 1101.58 393.653C1100.41 392.635 1098.88 392.124 1097.33 392.231L1069.33 394.231C1068.56 394.278 1067.81 394.477 1067.12 394.816C1066.43 395.155 1065.81 395.628 1065.3 396.207C1064.79 396.787 1064.41 397.461 1064.16 398.191C1063.91 398.921 1063.82 399.692 1063.87 400.461V400.461Z" stroke="#4A4A4A" stroke-width="2.5" stroke-linecap="round" stroke-linejoin="round"/>
<path d="M1191.57 229.081C1191.57 190.481 1164.21 163.311 1125.57 163.311H1111.1C1072.5 163.311 1037.27 190.481 1037.27 229.081V302.411C1037.27 325.241 1072.41 345.111 1115 345.111C1157.59 345.111 1191.53 325.241 1191.53 302.411L1191.57 229.081Z" stroke="#4A4A4A" stroke-width="4" stroke-linecap="round" stroke-linejoin="round"/>
<path d="M1161.27 294.75C1161.27 312.93 1145.36 328.58 1127.18 328.58H1105.06C1086.88 328.58 1073.12 312.93 1073.12 294.75V246.68C1073.12 239.784 1075.86 233.171 1080.73 228.295C1085.61 223.419 1092.22 220.68 1099.12 220.68H1135.19C1142.08 220.68 1148.7 223.419 1153.57 228.295C1158.45 233.171 1161.19 239.784 1161.19 246.68L1161.27 294.75Z" fill="white"/>
<path d="M1161.27 261.1V294.75C1161.27 312.93 1145.36 328.58 1127.18 328.58H1105.06C1086.88 328.58 1073.12 312.93 1073.12 294.75V255.59" stroke="#4A4A4A" stroke-width="4" stroke-linecap="round" stroke-linejoin="round"/>
<path d="M1161.27 294.75C1161.27 312.93 1145.36 328.58 1127.18 328.58H1105.06C1086.88 328.58 1073.12 312.93 1073.12 294.75V246.68C1073.12 239.784 1075.86 233.171 1080.73 228.295C1085.61 223.419 1092.22 220.68 1099.12 220.68H1135.19C1142.08 220.68 1148.7 223.419 1153.57 228.295C1158.45 233.171 1161.19 239.784 1161.19 246.68L1161.27 294.75Z" stroke="#494949" stroke-width="4" stroke-linecap="round" stroke-linejoin="round"/>
<path d="M1161.27 261.1V294.75C1161.27 312.93 1145.36 328.58 1127.18 328.58H1105.06C1086.88 328.58 1073.12 312.93 1073.12 294.75V255.59" stroke="#494949" stroke-width="4" stroke-linecap="round" stroke-linejoin="round"/>
<path d="M1085.22 269.901C1085.3 267.517 1086.3 265.257 1088.02 263.599C1089.73 261.941 1092.02 261.014 1094.41 261.014C1096.79 261.014 1099.08 261.941 1100.8 263.599C1102.51 265.257 1103.51 267.517 1103.59 269.901" stroke="#4A4A4A" stroke-width="2.5" stroke-linecap="round" stroke-linejoin="round"/>
<path d="M1120 269.901C1120 268.695 1120.24 267.501 1120.7 266.388C1121.16 265.274 1121.84 264.262 1122.69 263.409C1123.54 262.557 1124.55 261.881 1125.67 261.419C1126.78 260.958 1127.97 260.721 1129.18 260.721C1130.39 260.721 1131.58 260.958 1132.69 261.419C1133.81 261.881 1134.82 262.557 1135.67 263.409C1136.52 264.262 1137.2 265.274 1137.66 266.388C1138.12 267.501 1138.36 268.695 1138.36 269.901" stroke="#4A4A4A" stroke-width="2.5" stroke-linecap="round" stroke-linejoin="round"/>
<path d="M1096 296.461C1114.68 313.941 1130.66 296.461 1130.66 296.461" stroke="#4A4A4A" stroke-width="2.5" stroke-linecap="round" stroke-linejoin="round"/>
<path d="M1129.3 186.86C1113.69 184.57 1103.3 188.21 1089.36 196.5C1078.55 202.93 1068.77 191.02 1068.77 191.02C1060.96 212.6 1067.61 254.08 1073.12 261.25V248.37C1073.12 239.31 1078.57 225.63 1086.6 227.26C1113.79 232.77 1117.41 213.35 1144.27 226.01C1151.27 229.33 1153.27 241.72 1155.01 251.89C1155.79 256.45 1160.3 264.79 1160.3 264.79V265.79C1165.87 257.52 1167.85 232.32 1165.39 219.17C1162.78 205.44 1152.88 190.33 1129.3 186.86Z" fill="#EBEBEB"/>
<path d="M1129.3 186.86C1113.69 184.57 1103.3 188.21 1089.36 196.5C1078.55 202.93 1068.77 191.02 1068.77 191.02C1060.96 212.6 1067.61 254.08 1073.12 261.25V248.37C1073.12 239.31 1078.57 225.63 1086.6 227.26C1113.79 232.77 1117.41 213.35 1144.27 226.01C1151.27 229.33 1153.27 241.72 1155.01 251.89C1155.79 256.45 1160.3 264.79 1160.3 264.79V265.79C1165.87 257.52 1167.85 232.32 1165.39 219.17C1162.78 205.44 1152.88 190.33 1129.3 186.86Z" stroke="#4A4A4A" stroke-width="4" stroke-linecap="round" stroke-linejoin="round"/>
<path d="M1129.3 186.86C1113.69 184.57 1103.3 188.21 1089.36 196.5C1078.55 202.93 1068.77 191.02 1068.77 191.02C1060.96 212.6 1067.61 254.08 1073.12 261.25V248.37C1073.12 239.31 1078.57 225.63 1086.6 227.26C1113.79 232.77 1117.41 213.35 1144.27 226.01C1151.27 229.33 1153.27 241.72 1155.01 251.89C1155.79 256.45 1160.3 264.79 1160.3 264.79V265.79C1165.87 257.52 1167.85 232.32 1165.39 219.17C1162.78 205.44 1152.88 190.33 1129.3 186.86Z" stroke="#494949" stroke-width="4" stroke-linecap="round" stroke-linejoin="round"/>
<path d="M1129.3 186.86C1113.69 184.57 1103.3 188.21 1089.36 196.5C1078.55 202.93 1068.77 191.02 1068.77 191.02C1060.96 212.6 1067.61 254.08 1073.12 261.25V248.37C1073.12 239.31 1078.57 225.63 1086.6 227.26C1113.79 232.77 1117.41 213.35 1144.27 226.01C1151.27 229.33 1153.27 241.72 1155.01 251.89C1155.79 256.45 1160.3 264.79 1160.3 264.79V265.79C1165.87 257.52 1167.85 232.32 1165.39 219.17C1162.78 205.44 1152.88 190.33 1129.3 186.86Z" stroke="#494949" stroke-width="4" stroke-linecap="round" stroke-linejoin="round"/>
<path d="M684.5 803.51L687.5 775.01L680.5 452.51C680.5 452.51 648.5 453.51 646 404.01C644.5 350.01 640 323.51 681 308.01C693.5 305.51 825 306.51 825 306.51C853.5 311.51 863 336.51 863.5 362.01C864 387.51 863 519.01 863 519.01L858.5 522.01L856.5 566.01L851 574.51L838.5 579H827L818.5 772.5L833.5 774.5L840.71 779.25L846.35 788.75L846 803L684.5 803.51Z" fill="white"/>
<path d="M771.32 435.721H808.69C812.717 435.721 815.98 432.457 815.98 428.431V366.461C815.98 362.435 812.717 359.171 808.69 359.171H771.32C767.294 359.171 764.03 362.435 764.03 366.461V428.431C764.03 432.457 767.294 435.721 771.32 435.721Z" fill="#EBEBEB" stroke="#4A4A4A" stroke-width="2.5" stroke-miterlimit="10"/>
<path d="M771.32 435.721H808.69C812.717 435.721 815.98 432.457 815.98 428.431V366.461C815.98 362.435 812.717 359.171 808.69 359.171H771.32C767.294 359.171 764.03 362.435 764.03 366.461V428.431C764.03 432.457 767.294 435.721 771.32 435.721Z" stroke="#4A4A4A" stroke-width="2.5" stroke-miterlimit="10"/>
<path d="M780.441 405.65H802.311V375.58H780.441V405.65Z" fill="white" stroke="#4A4A4A" stroke-width="2.5" stroke-linecap="round" stroke-linejoin="round"/>
<path d="M640.541 249.289L670.511 311.959L661.221 318.369L637.381 250.769L640.541 249.289Z" fill="#FF9500"/>
<path d="M644.31 243.071C644.312 244.759 643.813 246.409 642.877 247.814C641.94 249.218 640.608 250.313 639.049 250.96C637.49 251.606 635.774 251.776 634.118 251.447C632.463 251.119 630.942 250.306 629.748 249.112C628.555 247.919 627.742 246.398 627.413 244.742C627.085 243.087 627.254 241.371 627.901 239.812C628.548 238.253 629.643 236.921 631.047 235.984C632.452 235.048 634.102 234.549 635.79 234.551C636.909 234.549 638.018 234.769 639.052 235.197C640.086 235.624 641.026 236.252 641.818 237.043C642.609 237.835 643.236 238.774 643.664 239.809C644.092 240.843 644.311 241.952 644.31 243.071Z" fill="#FF9500"/>
<path d="M756.3 438.611L786.83 431.011C788.358 430.629 789.952 430.591 791.497 430.899C793.042 431.206 794.5 431.852 795.766 432.79C797.032 433.728 798.074 434.935 798.818 436.323C799.562 437.712 799.99 439.248 800.07 440.821L800.93 457.441C801.01 458.989 800.751 460.536 800.173 461.975C799.594 463.413 798.709 464.708 797.58 465.77C796.45 466.832 795.103 467.635 793.632 468.124C792.16 468.613 790.6 468.776 789.06 468.601L750 464.151L756.3 438.611Z" fill="white"/>
<path d="M756.3 438.611L786.83 431.011C788.358 430.629 789.952 430.591 791.497 430.899C793.042 431.206 794.5 431.852 795.766 432.79C797.032 433.728 798.074 434.935 798.818 436.323C799.562 437.712 799.99 439.248 800.07 440.821L800.93 457.441C801.01 458.989 800.751 460.536 800.173 461.975C799.594 463.413 798.709 464.708 797.58 465.77C796.45 466.832 795.103 467.635 793.632 468.124C792.16 468.613 790.6 468.776 789.06 468.601L750 464.151" stroke="#4A4A4A" stroke-width="2.5" stroke-linecap="round" stroke-linejoin="round"/>
<path d="M785.149 468.249L789.829 468.789C791.37 468.964 792.93 468.801 794.401 468.312C795.872 467.824 797.219 467.02 798.349 465.958C799.478 464.896 800.363 463.601 800.942 462.163C801.52 460.725 801.779 459.178 801.699 457.629L800.839 440.999C800.76 439.426 800.332 437.89 799.588 436.502C798.844 435.114 797.801 433.908 796.535 432.971C795.269 432.034 793.811 431.389 792.266 431.082C790.721 430.776 789.127 430.816 787.599 431.199L774.599 434.419L757.029 438.779" stroke="#4A4A4A" stroke-width="2.5" stroke-linecap="round" stroke-linejoin="round"/>
<path d="M824.48 408.59L805.19 468.59C804.954 469.333 804.573 470.021 804.07 470.617C803.567 471.212 802.95 471.701 802.257 472.057C801.564 472.413 800.807 472.628 800.03 472.691C799.253 472.753 798.471 472.661 797.73 472.42L784.38 468.11L789.06 468.65C790.601 468.825 792.161 468.662 793.632 468.173C795.103 467.684 796.45 466.881 797.58 465.819C798.709 464.757 799.594 463.462 800.173 462.024C800.751 460.585 801.01 459.038 800.93 457.49L800.08 440.87C799.999 439.296 799.57 437.76 798.825 436.372C798.079 434.984 797.036 433.778 795.769 432.841C794.502 431.904 793.044 431.26 791.498 430.953C789.953 430.647 788.358 430.687 786.83 431.07L773.83 434.29L786.05 396.29C786.549 394.803 787.61 393.571 789.006 392.857C790.402 392.143 792.023 392.004 793.52 392.47L820.61 401.21C822.099 401.679 823.342 402.719 824.067 404.102C824.792 405.485 824.941 407.098 824.48 408.59Z" fill="#FF9500"/>
<path d="M824.48 408.59L805.19 468.59C804.954 469.333 804.573 470.021 804.07 470.617C803.567 471.212 802.95 471.701 802.257 472.057C801.564 472.413 800.807 472.628 800.03 472.691C799.253 472.753 798.471 472.661 797.73 472.42L784.38 468.11L789.06 468.65C790.601 468.825 792.161 468.662 793.632 468.173C795.103 467.684 796.45 466.881 797.58 465.819C798.709 464.757 799.594 463.462 800.173 462.024C800.751 460.585 801.01 459.038 800.93 457.49L800.08 440.87C799.999 439.296 799.57 437.76 798.825 436.372C798.079 434.984 797.036 433.778 795.769 432.841C794.502 431.904 793.044 431.26 791.498 430.953C789.953 430.647 788.358 430.687 786.83 431.07L773.83 434.29L786.05 396.29C786.549 394.803 787.61 393.571 789.006 392.857C790.402 392.143 792.023 392.004 793.52 392.47L820.61 401.21C822.099 401.679 823.342 402.719 824.067 404.102C824.792 405.485 824.941 407.098 824.48 408.59Z" stroke="#4A4A4A" stroke-width="2.5" stroke-linecap="round" stroke-linejoin="round"/>
<path d="M716.629 306H694.089C666.469 306 644.699 328.6 644.699 356.22V406.07C644.699 417.285 648.615 428.147 655.77 436.783C662.925 445.418 672.87 451.285 683.889 453.37L750.739 466L756.619 433.45L715.939 417.87C710.239 415.685 705.335 411.824 701.875 406.794C698.415 401.765 696.562 395.805 696.559 389.7V372.7" stroke="#4A4A4A" stroke-width="4" stroke-linecap="round" stroke-linejoin="round"/>
<path d="M831.111 522H858.001V558.9C858.001 570.61 849.111 579.59 833.731 579.59H826.881" stroke="#4A4A4A" stroke-width="2.5" stroke-linecap="round" stroke-linejoin="round"/>
<path d="M863.42 419.5V356.26C863.357 342.931 858.026 330.167 848.59 320.752C839.155 311.337 826.379 306.034 813.05 306H792" stroke="#4A4A4A" stroke-width="4" stroke-linecap="round" stroke-linejoin="round"/>
<path d="M858.1 466.43H856.82C855.308 466.43 853.858 465.829 852.789 464.76C851.72 463.691 851.12 462.241 851.12 460.73V424.46C851.12 422.778 851.788 421.166 852.977 419.977C854.166 418.788 855.778 418.12 857.46 418.12H858.1C861.325 418.12 864.418 419.401 866.698 421.681C868.979 423.962 870.26 427.055 870.26 430.28V454.28C870.257 457.503 868.975 460.593 866.695 462.872C864.414 465.15 861.323 466.43 858.1 466.43V466.43Z" fill="#EBEAEA" stroke="#4A4A4A" stroke-width="2.5" stroke-miterlimit="10"/>
<path d="M830.449 522H857.999C860.939 522 863.459 520.66 863.459 517.73V466" stroke="#4A4A4A" stroke-width="4" stroke-linecap="round" stroke-linejoin="round"/>
<path d="M846.639 803.63H752.689L754.759 773.56H826.339C829.217 773.528 832.07 774.097 834.716 775.231C837.361 776.365 839.74 778.039 841.701 780.146C843.662 782.253 845.161 784.746 846.103 787.466C847.044 790.185 847.408 793.072 847.169 795.94L846.639 803.63Z" fill="#EBEAEA" stroke="#4A4A4A" stroke-width="4" stroke-linecap="round" stroke-linejoin="round"/>
<path d="M828.49 522.02L818.93 773.56H755.51" stroke="#4A4A4A" stroke-width="4" stroke-linecap="round" stroke-linejoin="round"/>
<path d="M788.74 700.921L818.74 700.541C822.498 700.434 826.073 698.89 828.726 696.225C831.379 693.561 832.909 689.98 833 686.221L834 649.071C834.093 647.256 833.813 645.441 833.179 643.739C832.544 642.036 831.567 640.481 830.309 639.169C829.051 637.858 827.538 636.818 825.863 636.113C824.188 635.408 822.387 635.054 820.57 635.071L801.57 635.311C784.71 635.521 770.67 649.681 770.2 666.941L769.81 681.141C769.45 692.211 778 701.051 788.74 700.921Z" fill="#EBEAEA" stroke="#4A4A4A" stroke-width="2.5" stroke-miterlimit="10"/>
<path d="M775.84 803.63H684.52L686.599 773.56H755.539C758.417 773.528 761.27 774.097 763.916 775.231C766.561 776.365 768.94 778.039 770.901 780.146C772.862 782.253 774.361 784.746 775.303 787.466C776.244 790.185 776.608 793.072 776.37 795.94L775.84 803.63Z" fill="#EBEAEA" stroke="#4A4A4A" stroke-width="4" stroke-linecap="round" stroke-linejoin="round"/>
<path d="M680.59 453.41L686.57 773.56H752.52L759.98 600.71" stroke="#4A4A4A" stroke-width="4" stroke-linecap="round" stroke-linejoin="round"/>
<path d="M717.939 700.921L747.939 700.541C751.687 700.419 755.247 698.868 757.887 696.205C760.528 693.542 762.049 689.97 762.139 686.221L763.139 649.071C763.231 647.256 762.95 645.442 762.315 643.74C761.68 642.038 760.703 640.484 759.446 639.172C758.188 637.861 756.675 636.821 755.001 636.116C753.327 635.411 751.526 635.055 749.709 635.071L730.709 635.311C713.849 635.521 699.809 649.681 699.339 666.941L698.949 681.141C698.649 692.211 707.149 701.051 717.939 700.921Z" fill="#EBEAEA" stroke="#4A4A4A" stroke-width="2.5" stroke-miterlimit="10"/>
<path d="M684.071 517.49H829.071V494.49L683.561 493.32L684.071 517.49Z" fill="#EBEAEA"/>
<path d="M829.25 519.671V394.891" stroke="#4A4A4A" stroke-width="2.5" stroke-miterlimit="10" stroke-linecap="round"/>
<path d="M829.251 493.32H807.381" stroke="#4A4A4A" stroke-width="2.5" stroke-miterlimit="10"/>
<path d="M807.381 517.92H829.251" stroke="#4A4A4A" stroke-width="2.5" stroke-miterlimit="10"/>
<path d="M732.029 517.92H794.449" stroke="#4A4A4A" stroke-width="2.5" stroke-miterlimit="10"/>
<path d="M682.561 517.92H732.031" stroke="#4A4A4A" stroke-width="2.5" stroke-linecap="round" stroke-linejoin="round"/>
<path d="M732.031 493.32H682.561" stroke="#4A4A4A" stroke-width="2.5" stroke-linecap="round" stroke-linejoin="round"/>
<path d="M794.449 493.32H732.029" stroke="#4A4A4A" stroke-width="2.5" stroke-miterlimit="10"/>
<path d="M801.16 548H809.36C812.381 548 814.83 545.551 814.83 542.53V479.65C814.83 476.629 812.381 474.18 809.36 474.18H801.16C798.139 474.18 795.69 476.629 795.69 479.65V542.53C795.69 545.551 798.139 548 801.16 548Z" fill="#EBEAEA" stroke="#4A4A4A" stroke-width="2.5" stroke-miterlimit="10"/>
<path d="M738.81 548H747.01C750.031 548 752.48 545.551 752.48 542.53V479.65C752.48 476.629 750.031 474.18 747.01 474.18H738.81C735.789 474.18 733.34 476.629 733.34 479.65V542.53C733.34 545.551 735.789 548 738.81 548Z" fill="#EBEAEA" stroke="#4A4A4A" stroke-width="2.5" stroke-miterlimit="10"/>
<path d="M677.501 226.411C677.501 188.091 704.661 161.131 742.971 161.131H757.331C795.651 161.131 830.611 188.131 830.611 226.411V299.201C830.611 321.851 795.741 341.581 753.461 341.581C711.181 341.581 677.461 321.851 677.461 299.201L677.501 226.411Z" stroke="#4A4A4A" stroke-width="4" stroke-linecap="round" stroke-linejoin="round"/>
<path d="M774.851 265.94C774.851 263.524 773.891 261.207 772.183 259.498C770.474 257.79 768.157 256.83 765.741 256.83C763.325 256.83 761.008 257.79 759.299 259.498C757.591 261.207 756.631 263.524 756.631 265.94" stroke="#4A5999" stroke-width="2.5" stroke-linecap="round" stroke-linejoin="round"/>
<path d="M739.309 265.94C739.35 264.717 739.144 263.499 738.704 262.358C738.264 261.217 737.599 260.175 736.749 259.296C735.898 258.417 734.88 257.718 733.754 257.241C732.628 256.764 731.417 256.518 730.194 256.518C728.971 256.518 727.761 256.764 726.635 257.241C725.508 257.718 724.49 258.417 723.64 259.296C722.789 260.175 722.124 261.217 721.684 262.358C721.244 263.499 721.039 264.717 721.079 265.94" stroke="#4A5999" stroke-width="2.5" stroke-linecap="round" stroke-linejoin="round"/>
<path d="M761 296.92C749.37 300.11 728.41 299.2 722.26 290.09" stroke="#4A5999" stroke-width="2.5" stroke-linecap="round" stroke-linejoin="round"/>
<path d="M800.899 260.919C799.699 257.969 799.789 245.869 799.599 238.699C799.409 231.529 797.469 230.269 795.159 226.079C792.849 221.889 787.509 217.609 781.999 217.999C776.489 218.389 767.749 223.999 765.759 226.629C763.769 229.259 760.469 228.799 750.759 225.859C741.049 222.919 741.879 220.519 732.529 220.609C723.179 220.699 719.589 223.869 714.849 230.609C710.109 237.349 712.379 271.009 712.379 271.009V289.619C712.379 307.669 728.379 323.179 746.379 323.179H768.379C786.379 323.179 799.989 307.669 799.989 289.619V268.869H800.989C800.989 268.869 802.099 263.879 800.899 260.919Z" fill="white" stroke="#4A5999" stroke-miterlimit="10"/>
<path d="M799.79 255.46V289.63C799.79 307.68 786.37 322.44 768.32 322.44H746.32C728.32 322.44 712.24 307.68 712.24 289.63V250" stroke="#4A4A4A" stroke-width="4" stroke-linecap="round" stroke-linejoin="round"/>
<path d="M764.28 180.27H746.05C722.49 180.27 706.83 197.49 706.83 221.05V230.62C706.83 239.8 706.83 249.26 712.29 256.38V243.6C712.29 234.6 714.99 227.18 721.43 222.21C727.87 217.24 738.77 217.1 744.83 222.56C748.325 225.402 752.685 226.968 757.19 227C761.63 227 766.19 225.7 769.19 222.9C775.13 217.35 781.42 216.39 788.61 220.19C795.44 223.81 799.77 232.19 799.77 242.38V259.9L800.88 260.9C806.41 252.7 807.97 241.2 807.97 231.28V221.72C808 198.08 787.93 180.27 764.28 180.27Z" fill="#EBEAEA" stroke="#4A4A4A" stroke-width="4" stroke-miterlimit="10"/>
<path d="M736.239 265.94C736.199 264.717 736.405 263.499 736.845 262.358C737.284 261.217 737.949 260.175 738.8 259.296C739.65 258.417 740.669 257.718 741.795 257.241C742.921 256.764 744.131 256.518 745.354 256.518C746.577 256.518 747.788 256.764 748.914 257.241C750.04 257.718 751.059 258.417 751.909 259.296C752.76 260.175 753.424 261.217 753.864 262.358C754.304 263.499 754.51 264.717 754.469 265.94" stroke="#4A4A4A" stroke-width="2.5" stroke-linecap="round" stroke-linejoin="round"/>
<path d="M771.78 265.94C771.74 264.717 771.946 263.499 772.385 262.358C772.825 261.217 773.49 260.175 774.341 259.296C775.191 258.417 776.21 257.718 777.336 257.241C778.462 256.764 779.672 256.518 780.895 256.518C782.118 256.518 783.329 256.764 784.455 257.241C785.581 257.718 786.6 258.417 787.45 259.296C788.3 260.175 788.965 261.217 789.405 262.358C789.845 263.499 790.051 264.717 790.01 265.94" stroke="#4A4A4A" stroke-width="2.5" stroke-linecap="round" stroke-linejoin="round"/>
<path d="M781.419 296.92C769.799 300.11 748.839 299.2 742.689 290.09" stroke="#4A4A4A" stroke-width="2.5" stroke-linecap="round" stroke-linejoin="round"/>
<path d="M648.47 412.86L647.23 413.17C640.65 414.43 636.93 423.24 641.55 431.4C646.849 440.724 654.518 448.483 663.78 453.89C671.88 458.61 680.78 454.98 682.07 448.43C682.13 448.22 682.18 448.01 682.24 447.81C682.602 446.213 682.402 444.539 681.673 443.073C680.944 441.606 679.732 440.436 678.24 439.76C673.111 437.597 668.467 434.429 664.583 430.442C660.698 426.456 657.65 421.733 655.62 416.55C655.052 415.193 654.024 414.079 652.716 413.404C651.409 412.729 649.905 412.537 648.47 412.86V412.86Z" fill="#EBEAEA"/>
<path d="M648.47 412.86L647.23 413.17C640.65 414.43 636.93 423.24 641.55 431.4C646.849 440.724 654.518 448.483 663.78 453.89C671.88 458.61 680.78 454.98 682.07 448.43C682.13 448.22 682.18 448.01 682.24 447.81C682.602 446.213 682.402 444.539 681.673 443.073C680.944 441.606 679.732 440.436 678.24 439.76C673.111 437.597 668.467 434.429 664.583 430.442C660.698 426.456 657.65 421.733 655.62 416.55C655.052 415.193 654.024 414.079 652.716 413.404C651.409 412.729 649.905 412.537 648.47 412.86V412.86Z" stroke="#4A4A4A" stroke-width="2.5" stroke-miterlimit="10"/>
<path d="M898.869 338.059C922.209 325.949 963.869 315.009 1011.65 351.439" stroke="#4A4A4A" stroke-width="2.5" stroke-linecap="round" stroke-linejoin="round"/>
<path d="M879.07 351.441C881.722 349.058 884.539 346.866 887.5 344.881" stroke="#4A4A4A" stroke-width="2.5" stroke-linecap="round" stroke-linejoin="round"/>
<path d="M1007.26 331.57L1013 352.66H990.83" stroke="#4A4A4A" stroke-width="2.5" stroke-linecap="round" stroke-linejoin="round"/>
<path d="M993.219 307.401C970.369 294.401 929.11 281.881 880.02 316.471" stroke="#4A4A4A" stroke-width="2.5" stroke-linecap="round" stroke-linejoin="round"/>
<path d="M1012.5 321.521C1009.94 319.039 1007.21 316.74 1004.33 314.641" stroke="#4A4A4A" stroke-width="2.5" stroke-linecap="round" stroke-linejoin="round"/>
<path d="M885.159 296.779L878.619 317.629L900.769 318.479" stroke="#4A4A4A" stroke-width="2.5" stroke-linecap="round" stroke-linejoin="round"/>
<path d="M483.77 280C483.775 263.169 480.464 246.502 474.027 230.951C467.59 215.4 458.152 201.269 446.252 189.366C434.353 177.463 420.225 168.02 404.676 161.578C389.127 155.136 372.46 151.82 355.63 151.82H296.41C279.579 151.82 262.913 155.136 247.363 161.578C231.814 168.02 217.686 177.463 205.787 189.366C193.887 201.269 184.449 215.4 178.012 230.951C171.575 246.502 168.264 263.169 168.27 280V598.63H483.77V280Z" stroke="#4A4A4A" stroke-width="2.5" stroke-linecap="round" stroke-linejoin="round"/>
<path d="M369 498.82L348 493.71C347.166 496.105 345.634 498.196 343.601 499.713C341.568 501.229 339.127 502.102 336.594 502.22C334.06 502.337 331.549 501.693 329.385 500.371C327.221 499.048 325.502 497.108 324.45 494.8L304 502.49L304.84 472.83L325 483.24C326.049 481.408 327.539 479.867 329.334 478.755C331.128 477.644 333.172 476.997 335.279 476.874C337.387 476.751 339.492 477.156 341.404 478.05C343.316 478.945 344.975 480.303 346.23 482L364.57 469.5L369 498.82Z" fill="#FF9500"/>
<path d="M324.47 494.8L304 502.49L304.84 472.83L325 483.24C324.009 484.988 323.446 486.946 323.356 488.953C323.265 490.96 323.65 492.96 324.48 494.79L324.47 494.8Z" stroke="#4A4A4A" stroke-width="2.5" stroke-linecap="round" stroke-linejoin="round"/>
<path d="M348.001 493.71C348.293 492.871 348.498 492.003 348.611 491.12C349.022 487.878 348.162 484.603 346.211 481.98L364.551 469.48L369.001 498.82L348.001 493.71Z" stroke="#4A4A4A" stroke-width="2.5" stroke-linecap="round" stroke-linejoin="round"/>
<path d="M348.631 491.12C348.947 488.628 348.518 486.098 347.396 483.85C346.274 481.602 344.511 479.737 342.33 478.492C340.148 477.246 337.646 476.675 335.14 476.852C332.634 477.028 330.237 477.944 328.251 479.483C326.266 481.022 324.781 483.116 323.986 485.498C323.19 487.881 323.119 490.447 323.782 492.87C324.444 495.293 325.811 497.465 327.708 499.112C329.605 500.759 331.948 501.805 334.441 502.12C337.781 502.539 341.15 501.617 343.81 499.554C346.471 497.492 348.204 494.459 348.631 491.12Z" stroke="#4A4A4A" stroke-width="2.5" stroke-linecap="round" stroke-linejoin="round"/>
<path d="M959.689 262.78L950.419 264.41C949.786 260.817 949.152 257.22 948.519 253.62L942.619 254.62L944.519 265.42L935.249 267.05C934.619 263.46 933.979 259.86 933.329 256.18L913.729 259.64C913.179 256.54 912.649 253.54 912.109 250.46L912.919 250.32C914.129 250.08 915.349 249.88 916.559 249.6C918.639 249.12 919.479 247.86 919.189 245.75C919.059 244.81 918.939 243.86 918.779 242.92C916.779 231.687 914.796 220.453 912.829 209.22C912.559 207.7 912.249 206.22 911.939 204.67C911.899 204.227 911.765 203.798 911.545 203.412C911.325 203.025 911.025 202.691 910.665 202.43C910.305 202.169 909.893 201.989 909.457 201.901C909.022 201.813 908.572 201.819 908.139 201.92C906.889 202.06 905.649 202.3 904.409 202.49L903.659 202.59C903.119 199.51 902.589 196.5 902.039 193.4L921.639 189.94C920.989 186.27 920.359 182.69 919.729 179.11L928.999 177.48C929.626 181.073 930.259 184.67 930.899 188.27L936.799 187.27L934.899 176.47L944.169 174.84C944.229 175.12 944.289 175.4 944.339 175.67C944.899 178.84 945.479 181.99 945.999 185.16C946.119 185.88 946.339 186.21 947.119 186.09C947.743 186.018 948.371 185.988 948.999 186C952.343 185.958 955.643 186.756 958.599 188.32C961.822 190.026 964.295 192.87 965.537 196.299C966.779 199.727 966.701 203.495 965.319 206.87C963.742 210.519 960.989 213.536 957.499 215.44C957.249 215.59 957.009 215.75 956.769 215.91C957.009 216.063 957.285 216.149 957.569 216.16C960.132 216.31 962.654 216.871 965.039 217.82C966.84 218.55 968.477 219.634 969.851 221.008C971.225 222.382 972.309 224.019 973.039 225.82C975.869 232.73 974.509 239 969.569 244.49C966.561 247.633 962.761 249.906 958.569 251.07C957.919 251.28 957.799 251.54 957.919 252.17C958.469 255.7 959.079 259.24 959.689 262.78ZM932.629 225.78C932.629 226 932.629 226.14 932.689 226.28C933.519 230.94 934.329 235.6 935.169 240.28C935.349 241.28 935.599 242.28 935.879 243.28C935.908 243.458 935.972 243.629 936.068 243.782C936.163 243.935 936.287 244.068 936.434 244.173C936.581 244.278 936.747 244.353 936.923 244.394C937.099 244.434 937.281 244.44 937.459 244.41C939.719 244.11 941.979 243.81 944.219 243.41C946.169 243.04 948.098 242.57 949.999 242C951.976 241.427 953.711 240.222 954.939 238.57C955.72 237.519 956.282 236.32 956.589 235.047C956.897 233.774 956.944 232.452 956.729 231.16C956.543 229.397 955.792 227.742 954.588 226.44C953.384 225.139 951.792 224.262 950.049 223.94C947.893 223.555 945.685 223.555 943.529 223.94C940.089 224.45 936.679 225.09 933.259 225.68C932.999 225.68 932.859 225.75 932.629 225.81V225.78ZM930.919 216C931.149 216 931.339 216 931.519 215.95C933.789 215.55 936.059 215.16 938.329 214.74C940.92 214.363 943.448 213.644 945.849 212.6C947.732 211.813 949.249 210.345 950.099 208.49C951.969 204.09 949.529 197.96 943.539 197.84C942.069 197.796 940.597 197.873 939.139 198.07C935.629 198.59 932.139 199.23 928.659 199.82C928.466 199.859 928.276 199.91 928.089 199.97C928.999 205.31 929.999 210.61 930.919 216Z" fill="#FF9500"/>
<path d="M561.24 117.711V808.991" stroke="#4A4A4A" stroke-width="2.5" stroke-linecap="round" stroke-linejoin="round"/>
<path d="M220.76 803.99H597.24" stroke="#4A4A4A" stroke-width="2.5" stroke-linecap="round" stroke-linejoin="round"/>
<path d="M593.18 803.99H1324.71" stroke="#4A4A4A" stroke-width="2.5" stroke-linecap="round" stroke-linejoin="round"/>
<path d="M141.77 803.99H168.76" stroke="#4A4A4A" stroke-width="2.5" stroke-linecap="round" stroke-linejoin="round"/>
<path d="M175.74 803.99H178.74" stroke="#4A4A4A" stroke-width="2.5" stroke-linecap="round" stroke-linejoin="round"/>
<path d="M503.77 196.65H561.24" stroke="#4A4A4A" stroke-width="2.5" stroke-linecap="round" stroke-linejoin="round"/>
<path d="M541.25 561.02H561.24" stroke="#4A4A4A" stroke-width="2.5" stroke-linecap="round" stroke-linejoin="round"/>
<path d="M526.189 561.02H531.189" stroke="#4A4A4A" stroke-width="2.5" stroke-linecap="round" stroke-linejoin="round"/>
<path d="M388.75 682.631H490.75" stroke="#4A4A4A" stroke-width="2.5" stroke-linecap="round" stroke-linejoin="round"/>
<path d="M465.25 765.131H561.24" stroke="#4A4A4A" stroke-width="2.5" stroke-linecap="round" stroke-linejoin="round"/>
<path d="M351.26 625.631V668.361" stroke="#4A4A4A" stroke-width="2.5" stroke-linecap="round" stroke-linejoin="round"/>
<path d="M427.961 682.631V727.631" stroke="#4A4A4A" stroke-width="2.5" stroke-linecap="round" stroke-linejoin="round"/>
<path d="M136.77 345.449V396.689" stroke="#4A4A4A" stroke-width="2.5" stroke-linecap="round" stroke-linejoin="round"/>
<path d="M136.77 410.1V421.34" stroke="#4A4A4A" stroke-width="2.5" stroke-linecap="round" stroke-linejoin="round"/>
<path d="M196.759 598.63C196.759 598.63 188.399 423.51 331.739 430C413.739 430 439.069 509.45 452.399 598.63" stroke="#4A4A4A" stroke-width="4" stroke-linecap="round" stroke-linejoin="round"/>
<path d="M374.37 425.12C374.45 432.531 371.589 439.671 366.413 444.976C361.238 450.281 354.17 453.317 346.76 453.42L308.71 453.88C301.299 453.96 294.159 451.099 288.854 445.924C283.549 440.748 280.513 433.681 280.41 426.27L279.74 371.92C279.66 364.509 282.521 357.369 287.696 352.064C292.872 346.759 299.939 343.723 307.35 343.62L345.35 343.15C352.761 343.07 359.901 345.931 365.206 351.107C370.511 356.282 373.547 363.35 373.65 370.76L374.37 425.12Z" fill="white"/>
<path d="M374.37 425.12C374.45 432.531 371.589 439.671 366.413 444.976C361.238 450.281 354.17 453.317 346.76 453.42L308.71 453.88C301.299 453.96 294.159 451.099 288.854 445.924C283.549 440.748 280.513 433.681 280.41 426.27L279.74 371.92C279.66 364.509 282.521 357.369 287.696 352.064C292.872 346.759 299.939 343.723 307.35 343.62L345.35 343.15C352.761 343.07 359.901 345.931 365.206 351.107C370.511 356.282 373.547 363.35 373.65 370.76L374.37 425.12Z" stroke="#4A4A4A" stroke-width="4" stroke-linecap="round" stroke-linejoin="round"/>
<path d="M307.539 424.419C317.779 425.639 321.329 404.469 344.669 421.479C369.099 407.559 369.879 422.959 381.669 425.479C370.559 434.569 359.509 437.669 352.049 430.879C344.589 424.089 338.999 429.499 335.279 432.099C330.999 435.069 317.569 435.549 307.539 424.419Z" fill="#EBEBEB"/>
<path d="M304.41 428.91C314.41 427.48 316.32 403.72 344.67 419.61C373.73 407.02 373.6 424.49 384.51 429.93C370.01 434.79 359.77 436.54 352.41 429.27C344.83 422 338.41 427.72 334.97 430.61C330.56 433.83 318.27 435.92 304.41 428.91Z" stroke="#4A4A4A" stroke-width="2.5" stroke-linecap="round" stroke-linejoin="round"/>
<path d="M281.16 429.63C288.3 431.27 299.36 428.92 305.56 390.51" stroke="#4A4A4A" stroke-width="2.5" stroke-linecap="round" stroke-linejoin="round"/>
<path d="M336.49 389.999C337.174 387.015 336.958 383.895 335.868 381.034C334.778 378.173 332.864 375.699 330.368 373.926C327.871 372.154 324.905 371.162 321.844 371.076C318.784 370.991 315.767 371.815 313.175 373.445C310.583 375.075 308.533 377.438 307.285 380.234C306.037 383.03 305.647 386.133 306.163 389.151C306.68 392.169 308.08 394.965 310.187 397.187C312.295 399.408 315.013 400.954 318 401.629C321.993 402.53 326.181 401.811 329.646 399.632C333.111 397.452 335.572 393.989 336.49 389.999V389.999Z" fill="#EBEBEB"/>
<path d="M336.49 389.999C337.174 387.015 336.958 383.895 335.868 381.034C334.778 378.173 332.864 375.699 330.368 373.926C327.871 372.154 324.905 371.162 321.844 371.076C318.784 370.991 315.767 371.815 313.175 373.445C310.583 375.075 308.533 377.438 307.285 380.234C306.037 383.03 305.647 386.133 306.163 389.151C306.68 392.169 308.08 394.965 310.187 397.187C312.295 399.408 315.013 400.954 318 401.629C321.993 402.53 326.181 401.811 329.646 399.632C333.111 397.452 335.572 393.989 336.49 389.999V389.999Z" stroke="#4A4A4A" stroke-width="1.5" stroke-linecap="round" stroke-linejoin="round"/>
<path d="M336.49 389.999C337.174 387.015 336.958 383.895 335.868 381.034C334.778 378.173 332.864 375.699 330.368 373.926C327.871 372.154 324.905 371.162 321.844 371.076C318.784 370.991 315.767 371.815 313.175 373.445C310.583 375.075 308.533 377.438 307.285 380.234C306.037 383.03 305.647 386.133 306.163 389.151C306.68 392.169 308.08 394.965 310.187 397.187C312.295 399.408 315.013 400.954 318 401.629C321.993 402.53 326.181 401.811 329.646 399.632C333.111 397.452 335.572 393.989 336.49 389.999V389.999Z" stroke="#494949" stroke-width="2.5" stroke-linecap="round" stroke-linejoin="round"/>
<path d="M336.49 389.999C337.174 387.015 336.958 383.895 335.868 381.034C334.778 378.173 332.864 375.699 330.368 373.926C327.871 372.154 324.905 371.162 321.844 371.076C318.784 370.991 315.767 371.815 313.175 373.445C310.583 375.075 308.533 377.438 307.285 380.234C306.037 383.03 305.647 386.133 306.163 389.151C306.68 392.169 308.08 394.965 310.187 397.187C312.295 399.408 315.013 400.954 318 401.629C321.993 402.53 326.181 401.811 329.646 399.632C333.111 397.452 335.572 393.989 336.49 389.999V389.999Z" stroke="#494949" stroke-width="2.5" stroke-linecap="round" stroke-linejoin="round"/>
<path d="M321.86 390.74H321.37C320.256 390.74 319.188 390.297 318.4 389.51C317.612 388.722 317.17 387.654 317.17 386.54C317.17 385.426 317.612 384.358 318.4 383.57C319.188 382.782 320.256 382.34 321.37 382.34H321.86C322.974 382.34 324.042 382.782 324.83 383.57C325.617 384.358 326.06 385.426 326.06 386.54C326.06 387.654 325.617 388.722 324.83 389.51C324.042 390.297 322.974 390.74 321.86 390.74V390.74Z" fill="#494949"/>
<path d="M354.61 390.74H354.12C353.006 390.74 351.938 390.297 351.15 389.51C350.362 388.722 349.92 387.654 349.92 386.54C349.92 385.426 350.362 384.358 351.15 383.57C351.938 382.782 353.006 382.34 354.12 382.34H354.61C355.724 382.34 356.792 382.782 357.58 383.57C358.367 384.358 358.81 385.426 358.81 386.54C358.81 387.654 358.367 388.722 357.58 389.51C356.792 390.297 355.724 390.74 354.61 390.74V390.74Z" fill="#494949"/>
<path d="M280.49 349L279.91 272.8L371.56 272.02L372.13 348.21L280.49 349ZM372.09 348.7L279.77 349.26L241.67 362.69L410.34 361.69L372.09 348.7Z" fill="white"/>
<path d="M309.05 348.671L280.5 349.001L279.92 272.801L308.46 272.471L309.05 348.671Z" fill="#F2F2F2"/>
<path d="M410.34 361.649L241.67 362.679L279.76 349.249L372.08 348.689L410.34 361.649Z" stroke="#4A4A4A" stroke-width="4" stroke-linecap="round" stroke-linejoin="round"/>
<path d="M372.13 348.2L280.5 348.99L279.92 272.8L371.56 272.01L372.13 348.2Z" stroke="#4A4A4A" stroke-width="4" stroke-linecap="round" stroke-linejoin="round"/>
<path d="M371.895 321.308L280.258 322.027L280.47 349.006L372.107 348.287L371.895 321.308Z" fill="#FF9500"/>
<path d="M371.895 321.308L280.258 322.027L280.47 349.006L372.107 348.287L371.895 321.308Z" stroke="#4A4A4A" stroke-width="4" stroke-linecap="round" stroke-linejoin="round"/>
<path d="M245.74 527.15L274.4 538.49" stroke="#4A4A4A" stroke-width="4" stroke-linecap="round" stroke-linejoin="round"/>
<path d="M316.42 550.82L381.71 571.15C381.71 571.15 372.13 585.15 381.71 597.63" stroke="#4A4A4A" stroke-width="4" stroke-linecap="round" stroke-linejoin="round"/>
<path d="M428 598.63C425.33 580.74 414.12 575.41 381.75 574.23" stroke="#4A4A4A" stroke-width="2.5" stroke-linecap="round" stroke-linejoin="round"/>
<path d="M321.41 550.821C321.07 542.491 285.74 514.181 269.07 548.001C265.07 557.151 269.07 561.821 274.4 564.491C277.609 565.84 280.919 566.934 284.3 567.761C288.423 568.867 292.777 568.762 296.842 567.458C300.906 566.155 304.51 563.708 307.22 560.411L315.57 550.231" stroke="#4A4A4A" stroke-width="2.5" stroke-linecap="round" stroke-linejoin="round"/>
<path d="M404.83 555.37C379.96 549.22 353.15 542.26 313.24 538.49" stroke="#4A4A4A" stroke-width="4" stroke-linecap="round" stroke-linejoin="round"/>
</svg>
