<svg width="1422" height="870" viewBox="0 0 1422 870" fill="none" xmlns="http://www.w3.org/2000/svg">
<path d="M623.539 308.592C623.539 308.592 624.989 293.932 646.409 289.792L910.029 238.792C910.029 238.792 940.689 234.382 945.539 275.102C944.679 276.342 942.189 276.532 942.189 276.532L649.899 299.242C649.899 299.242 625.079 300.872 623.899 319.352L623.539 308.592Z" fill="#EBEBEB"/>
<path d="M1043.35 565.61V626.15C1043.35 635.433 1039.66 644.335 1033.1 650.899C1026.54 657.463 1017.63 661.15 1008.35 661.15H658.57C649.288 661.15 640.385 657.463 633.822 650.899C627.258 644.335 623.57 635.433 623.57 626.15V314.32C623.57 335.49 639.25 342.67 658.57 342.67H1008.33C1015.48 342.65 1022.47 344.836 1028.33 348.93V348.93C1032.97 352.159 1036.75 356.462 1039.37 361.472C1041.98 366.482 1043.34 372.05 1043.33 377.7V446.7" fill="white"/>
<path d="M1043.35 377.7V626.15C1043.36 631.802 1042 637.371 1039.39 642.383C1036.77 647.395 1032.99 651.7 1028.35 654.93V348.93C1032.99 352.158 1036.77 356.462 1039.38 361.472C1042 366.482 1043.36 372.05 1043.35 377.7V377.7Z" fill="#EBEBEB"/>
<path d="M123 474.812C123 373.382 183.76 291.152 258.71 291.152C333.66 291.152 394.43 373.382 394.43 474.812C394.43 576.242 333.68 658.462 258.72 658.462C183.76 658.462 123 576.232 123 474.812Z" fill="white"/>
<path d="M123 474.812C123 567.812 174.09 644.682 240.37 656.812C234.323 657.923 228.188 658.482 222.04 658.482C147.11 658.482 86.3398 576.252 86.3398 474.842C86.3398 373.432 147.11 291.172 222.04 291.172C228.191 291.171 234.33 291.73 240.38 292.842V292.842C174.12 304.932 123 381.792 123 474.812Z" fill="#EBEBEB"/>
<path d="M993.651 340.281V312.001C993.651 302.001 991.491 292.411 984.171 285.571C980.539 282.2 976.253 279.611 971.579 277.965C966.906 276.319 961.944 275.65 957.001 276.001L643.071 297.671C638.463 297.991 634.08 299.781 630.566 302.778C627.052 305.775 624.593 309.821 623.551 314.321L628.651 339.321L993.651 340.281Z" fill="white"/>
<path d="M624.289 323.252L627.399 309.682L640.309 301.242L656.159 310.712C667.571 317.521 680.722 320.851 693.999 320.292L994.099 307.552L995.329 342.092L654.049 343.242C638.729 343.242 624.289 323.252 624.289 323.252Z" fill="#EBEBEB"/>
<path d="M123 474.812C123 373.382 183.76 291.152 258.71 291.152C333.66 291.152 394.43 373.382 394.43 474.812C394.43 576.242 333.68 658.462 258.72 658.462C183.76 658.462 123 576.232 123 474.812Z" stroke="#4A4A4A" stroke-width="4" stroke-linecap="round" stroke-linejoin="round"/>
<path d="M240.389 292.822C234.343 291.706 228.208 291.147 222.059 291.152C147.119 291.152 86.3594 373.382 86.3594 474.812C86.3594 576.242 147.119 658.462 222.059 658.462C228.207 658.463 234.343 657.904 240.389 656.792" stroke="#4A4A4A" stroke-width="4" stroke-linecap="round" stroke-linejoin="round"/>
<path d="M136.398 474.814C136.398 564.344 188.338 637.374 253.398 641.124C255.158 641.244 256.918 641.294 258.688 641.294C326.248 641.294 380.998 566.754 380.998 474.814C380.998 382.874 326.288 308.324 258.728 308.324C256.958 308.324 255.198 308.324 253.438 308.494C188.338 312.234 136.398 385.264 136.398 474.814Z" fill="#EBEBEB" stroke="#4A4A4A" stroke-width="2.5" stroke-linecap="round" stroke-linejoin="round"/>
<path d="M136.398 474.812C136.398 564.342 188.338 637.372 253.398 641.122C318.498 637.372 370.398 564.342 370.398 474.812C370.398 385.282 318.468 312.232 253.398 308.492C188.338 312.232 136.398 385.262 136.398 474.812Z" fill="white" stroke="#4A4A4A" stroke-width="4" stroke-linecap="round" stroke-linejoin="round"/>
<path d="M177.299 324.293H144.869" stroke="#4A4A4A" stroke-width="2.5" stroke-linecap="round" stroke-linejoin="round"/>
<path d="M161.789 341.914H129.359" stroke="#4A4A4A" stroke-width="2.5" stroke-linecap="round" stroke-linejoin="round"/>
<path d="M149.1 360.953H116.67" stroke="#4A4A4A" stroke-width="2.5" stroke-linecap="round" stroke-linejoin="round"/>
<path d="M135.35 555.184H102.92" stroke="#4A4A4A" stroke-width="2.5" stroke-linecap="round" stroke-linejoin="round"/>
<path d="M143.459 575.621H111.029" stroke="#4A4A4A" stroke-width="2.5" stroke-linecap="round" stroke-linejoin="round"/>
<path d="M151.92 592.191H119.49" stroke="#4A4A4A" stroke-width="2.5" stroke-linecap="round" stroke-linejoin="round"/>
<path d="M162.84 608.051H130.42" stroke="#4A4A4A" stroke-width="2.5" stroke-linecap="round" stroke-linejoin="round"/>
<path d="M174.129 621.453H141.699" stroke="#4A4A4A" stroke-width="2.5" stroke-linecap="round" stroke-linejoin="round"/>
<path d="M137.809 384.211H105.379" stroke="#4A4A4A" stroke-width="2.5" stroke-linecap="round" stroke-linejoin="round"/>
<path d="M129.36 413.121H96.9297" stroke="#4A4A4A" stroke-width="2.5" stroke-linecap="round" stroke-linejoin="round"/>
<path d="M122.309 442.023H89.8789" stroke="#4A4A4A" stroke-width="2.5" stroke-linecap="round" stroke-linejoin="round"/>
<path d="M121.25 470.934H88.8203" stroke="#4A4A4A" stroke-width="2.5" stroke-linecap="round" stroke-linejoin="round"/>
<path d="M120.19 499.832H87.7598" stroke="#4A4A4A" stroke-width="2.5" stroke-linecap="round" stroke-linejoin="round"/>
<path d="M126.18 528.742H93.75" stroke="#4A4A4A" stroke-width="2.5" stroke-linecap="round" stroke-linejoin="round"/>
<path d="M259.41 591.364L243.41 582.964C245.003 574.444 246.59 565.917 248.17 557.384L238.17 552.314C236.58 560.884 235.01 569.314 233.45 577.704L218 569.604C219.56 561.244 221.11 552.874 222.7 544.294L191.09 528.294C192.4 521.244 193.66 514.414 194.96 507.414C195.44 507.644 195.84 507.854 196.24 508.034C198.18 508.934 200.11 509.914 202.08 510.714C205.49 512.104 207.61 510.444 208.63 505.714C209.09 503.594 209.56 501.484 209.96 499.334C214.76 473.514 219.55 447.667 224.33 421.794C224.98 418.294 225.57 414.794 226.15 411.234C226.93 406.414 225.66 403.134 222.33 401.484C220.33 400.484 218.33 399.744 216.33 398.884C215.94 398.714 215.55 398.514 215.16 398.324C216.46 391.324 217.73 384.424 219.05 377.324L251.38 389.764C252.97 381.174 254.53 372.764 256.08 364.434L271.98 370.244C270.393 378.75 268.81 387.26 267.23 395.774L277.5 399.774C279.11 391.094 280.69 382.574 282.28 374.054L298.77 380.054C298.66 380.734 298.56 381.424 298.44 382.054C297.02 389.674 295.64 397.304 294.15 404.884C293.81 406.614 293.93 407.574 295.31 408.174C296.406 408.716 297.453 409.351 298.44 410.074C304.493 414.056 309.468 419.473 312.92 425.844C318.02 435.062 319.922 445.71 318.33 456.124C317.51 463.103 314.737 469.71 310.33 475.184C304.8 481.904 298.02 484.534 290.65 485.014C290.13 485.014 289.65 485.124 289.09 485.184C289.356 485.766 289.749 486.282 290.24 486.694C294.629 490.305 298.443 494.564 301.55 499.324C306.735 507.562 309.359 517.153 309.09 526.884C308.68 545.944 301.57 558.174 289.09 564.004C281.66 567.464 273.85 566.754 266.04 564.364C264.82 563.994 264.44 564.364 264.16 565.924C262.62 574.454 261 582.904 259.41 591.364ZM243.11 478.724C242.99 479.234 242.91 479.544 242.85 479.874C240.85 490.794 238.77 501.704 236.78 512.634C236.35 514.994 236.03 517.404 235.78 519.834C235.56 521.834 236.1 523.374 237.43 524.114C241.17 526.184 244.93 528.264 248.77 530.044C252.06 531.592 255.451 532.915 258.92 534.004C260.661 534.592 262.514 534.773 264.337 534.532C266.159 534.291 267.901 533.635 269.43 532.614C273.74 529.784 276.43 525.024 277.8 518.614C279.73 509.734 277.66 500.864 272.19 494.794C269.203 491.589 265.615 489.004 261.63 487.184C255.79 484.314 249.93 481.764 244.14 479.114C243.804 478.965 243.46 478.835 243.11 478.724V478.724ZM247.41 455.724C247.79 455.944 248.09 456.144 248.41 456.284C252.27 457.954 256.14 459.664 260.05 461.284C264.51 463.154 269.05 464.914 273.71 465.164C275.59 465.348 277.488 465.065 279.232 464.34C280.977 463.614 282.515 462.468 283.71 461.004C290.07 453.434 290.56 437.114 280.78 430.184C278.484 428.507 276.029 427.06 273.45 425.864C267.45 423.184 261.4 420.794 255.45 418.334C255.121 418.226 254.788 418.136 254.45 418.064C252.08 430.644 249.76 443.094 247.41 455.744V455.724Z" fill="#FF9500"/>
<path d="M1043.35 543.44V568.21H998.108C990.527 568.206 983.036 566.561 976.149 563.39C969.262 560.219 963.143 555.595 958.211 549.837C953.279 544.078 949.651 537.321 947.576 530.029C945.501 522.737 945.027 515.082 946.188 507.59L1043.35 543.44Z" fill="#EBEBEB"/>
<path d="M701.639 523.002C699.704 523.022 697.78 522.715 695.949 522.092C694.277 521.524 692.748 520.599 691.469 519.382C690.179 518.121 689.188 516.587 688.569 514.892C687.213 510.951 687.196 506.673 688.519 502.722C689.134 501.008 690.11 499.447 691.379 498.142C692.636 496.875 694.16 495.905 695.839 495.302C697.702 494.619 699.674 494.28 701.659 494.302C702.709 494.296 703.758 494.363 704.799 494.502C705.672 494.619 706.537 494.789 707.389 495.012C708.159 495.225 708.914 495.489 709.649 495.802C710.316 496.095 710.906 496.365 711.419 496.612V503.302H710.599C710.249 503.012 709.819 502.662 709.289 502.302C708.718 501.864 708.121 501.463 707.499 501.102C706.797 500.697 706.056 500.362 705.289 500.102C704.47 499.828 703.612 499.693 702.749 499.702C701.779 499.698 700.816 499.857 699.899 500.172C698.96 500.51 698.104 501.045 697.389 501.742C696.602 502.531 695.997 503.483 695.619 504.532C695.135 505.885 694.904 507.315 694.939 508.752C694.898 510.232 695.146 511.706 695.669 513.092C696.078 514.129 696.709 515.065 697.519 515.832C698.242 516.456 699.086 516.922 699.999 517.202C700.888 517.484 701.816 517.629 702.749 517.632C703.62 517.634 704.486 517.506 705.319 517.252C706.141 517.018 706.931 516.682 707.669 516.252C708.256 515.905 708.82 515.52 709.359 515.102C709.879 514.692 710.299 514.342 710.639 514.102H711.379V520.702L709.379 521.582C708.727 521.856 708.059 522.09 707.379 522.282C706.544 522.527 705.696 522.724 704.839 522.872C703.777 523.001 702.707 523.044 701.639 523.002V523.002Z" fill="#FF9500"/>
<path d="M736.499 522.442H718.059V517.622H723.889V503.002H718.059V498.502C718.914 498.504 719.769 498.454 720.619 498.352C721.309 498.272 721.984 498.086 722.619 497.802C723.205 497.542 723.707 497.123 724.069 496.592C724.411 496.034 724.604 495.397 724.629 494.742H730.769V517.622H736.459L736.499 522.442Z" fill="#FF9500"/>
<path d="M770.529 508.642C770.529 513.042 769.269 516.539 766.749 519.132C764.219 521.722 760.749 523.022 756.279 523.022C751.809 523.022 748.359 521.722 745.839 519.132C743.319 516.542 742.049 513.042 742.049 508.642C742.049 504.242 743.309 500.692 745.839 498.112C748.369 495.532 751.839 494.242 756.279 494.242C760.719 494.242 764.189 495.532 766.729 498.112C769.269 500.692 770.529 504.202 770.529 508.642ZM761.089 515.642C761.801 514.757 762.325 513.737 762.629 512.642C762.98 511.338 763.148 509.992 763.129 508.642C763.163 507.21 762.967 505.782 762.549 504.412C762.243 503.381 761.733 502.422 761.049 501.592C760.465 500.883 759.717 500.327 758.869 499.972C757.225 499.319 755.393 499.319 753.749 499.972C752.905 500.333 752.153 500.88 751.549 501.572C750.841 502.398 750.313 503.361 749.999 504.402C749.585 505.777 749.386 507.207 749.409 508.642C749.378 510.063 749.57 511.481 749.979 512.842C750.291 513.872 750.797 514.832 751.469 515.672C752.054 516.377 752.803 516.93 753.649 517.282C754.475 517.631 755.363 517.808 756.259 517.802C757.159 517.809 758.052 517.629 758.879 517.272C759.738 516.914 760.497 516.351 761.089 515.632V515.642Z" fill="#FF9500"/>
<path d="M796.998 513.093C797.009 514.467 796.737 515.828 796.198 517.093C795.663 518.31 794.86 519.39 793.848 520.253C792.69 521.204 791.354 521.914 789.918 522.343C788.294 522.812 786.609 523.042 784.918 523.023C783.035 523.039 781.155 522.862 779.308 522.492C778.029 522.231 776.777 521.849 775.568 521.352V515.242H776.348C777.495 515.927 778.712 516.486 779.978 516.912C781.225 517.352 782.537 517.578 783.858 517.583C784.708 517.575 785.556 517.485 786.388 517.312C787.185 517.179 787.931 516.834 788.548 516.312C788.944 515.98 789.281 515.585 789.548 515.143C789.799 514.563 789.908 513.932 789.868 513.302C789.886 512.719 789.737 512.144 789.438 511.643C789.155 511.189 788.772 510.806 788.318 510.522C787.576 510.088 786.752 509.813 785.898 509.712C785.051 509.588 784.195 509.521 783.338 509.513C782.265 509.511 781.194 509.608 780.138 509.802C779.138 509.992 778.228 510.182 777.458 510.372H776.648V494.812H796.288V500.103H783.218V504.612C783.608 504.612 784.088 504.563 784.678 504.543H786.228C787.597 504.524 788.963 504.669 790.298 504.973C791.385 505.219 792.427 505.63 793.388 506.193C794.491 506.844 795.402 507.776 796.028 508.893C796.707 510.186 797.041 511.632 796.998 513.093V513.093Z" fill="#FF9500"/>
<path d="M817.918 522.443H801.738V517.542H806.268V499.712H801.738V494.812H817.918V499.712H813.388V517.542H817.918V522.443Z" fill="#FF9500"/>
<path d="M844.728 507.071C844.749 509.256 844.45 511.433 843.838 513.531C843.315 515.377 842.39 517.085 841.128 518.531C839.797 520.017 838.121 521.154 836.248 521.841C834.071 522.621 831.77 522.997 829.458 522.951C828.456 522.946 827.455 522.889 826.458 522.781C825.756 522.726 825.058 522.625 824.368 522.481V517.051H825.108C825.62 517.274 826.148 517.458 826.688 517.601C827.61 517.828 828.559 517.929 829.508 517.901C830.463 517.902 831.414 517.781 832.338 517.541C833.208 517.33 834.025 516.942 834.738 516.401C835.476 515.836 836.088 515.124 836.538 514.311C837.038 513.379 837.357 512.361 837.478 511.311C836.523 511.876 835.519 512.355 834.478 512.741C833.366 513.093 832.204 513.258 831.038 513.231C830.026 513.236 829.017 513.108 828.038 512.851C827.115 512.604 826.24 512.205 825.448 511.671C824.405 510.922 823.561 509.93 822.988 508.781C822.33 507.368 822.015 505.819 822.068 504.261C822.025 502.902 822.279 501.55 822.812 500.299C823.346 499.048 824.147 497.93 825.158 497.021C827.404 495.093 830.301 494.095 833.258 494.231C834.809 494.203 836.353 494.433 837.828 494.911C839.118 495.336 840.296 496.044 841.278 496.981C842.441 498.109 843.313 499.502 843.818 501.041C844.452 502.987 844.76 505.025 844.728 507.071V507.071ZM837.628 506.071C837.659 504.816 837.51 503.564 837.188 502.351C836.974 501.513 836.563 500.738 835.988 500.091C835.65 499.708 835.225 499.413 834.748 499.231C834.274 499.059 833.773 498.971 833.268 498.971C832.794 498.971 832.323 499.056 831.878 499.221C831.399 499.419 830.966 499.715 830.608 500.091C830.193 500.542 829.873 501.073 829.668 501.651C829.412 502.39 829.29 503.169 829.308 503.951C829.286 504.7 829.419 505.446 829.698 506.141C829.929 506.694 830.301 507.177 830.778 507.541C831.23 507.888 831.752 508.13 832.308 508.251C832.939 508.387 833.583 508.454 834.228 508.451C834.841 508.445 835.451 508.374 836.048 508.241C836.567 508.139 837.075 507.991 837.568 507.801C837.568 507.671 837.568 507.471 837.568 507.221C837.568 506.971 837.628 506.541 837.628 506.001V506.071Z" fill="#FF9500"/>
<path d="M875.868 522.443H868.998L857.268 503.443V522.443H850.738V494.812H859.258L869.338 510.643V494.812H875.868V522.443Z" fill="#FF9500"/>
<path d="M901.808 509.49C902.399 510 902.888 510.617 903.248 511.31C903.644 512.174 903.829 513.12 903.788 514.07C903.796 515.324 903.533 516.566 903.018 517.71C902.488 518.857 901.676 519.851 900.658 520.6C899.552 521.412 898.309 522.018 896.988 522.39C895.324 522.844 893.603 523.056 891.878 523.02C889.901 523.05 887.927 522.869 885.988 522.48C884.62 522.204 883.28 521.799 881.988 521.27V515.2H882.708C883.911 515.906 885.193 516.466 886.528 516.87C887.834 517.312 889.2 517.552 890.578 517.58C891.362 517.575 892.143 517.515 892.918 517.4C893.68 517.317 894.41 517.053 895.048 516.63C895.489 516.338 895.864 515.956 896.148 515.51C896.45 514.924 896.588 514.268 896.548 513.61C896.593 512.941 896.398 512.278 895.998 511.74C895.611 511.291 895.099 510.968 894.528 510.81C893.819 510.593 893.081 510.481 892.338 510.48H889.968H888.448V505.55H889.998C890.998 505.55 891.818 505.55 892.558 505.46C893.21 505.414 893.851 505.269 894.458 505.03C894.944 504.835 895.366 504.51 895.678 504.09C895.983 503.574 896.126 502.978 896.088 502.38C896.115 501.892 895.962 501.412 895.658 501.03C895.367 500.682 895.002 500.405 894.588 500.22C894.045 499.984 893.468 499.836 892.878 499.78C892.318 499.709 891.753 499.672 891.188 499.67C889.906 499.689 888.633 499.891 887.408 500.27C886.008 500.678 884.664 501.259 883.408 502H882.728V496C884.071 495.495 885.452 495.101 886.858 494.82C888.604 494.449 890.384 494.261 892.168 494.26C893.707 494.239 895.243 494.389 896.748 494.71C897.888 494.948 898.984 495.359 899.998 495.93C900.94 496.435 901.721 497.196 902.252 498.124C902.782 499.053 903.041 500.111 902.998 501.18C903.009 502.673 902.504 504.125 901.568 505.29C900.627 506.484 899.29 507.303 897.798 507.6V507.86C898.482 507.958 899.153 508.133 899.798 508.38C900.53 508.626 901.211 509.002 901.808 509.49V509.49Z" fill="#FF9500"/>
<path d="M1043.35 454H998.108C991.209 454 984.377 455.359 978.002 457.999C971.628 460.64 965.836 464.51 960.957 469.389C956.078 474.267 952.208 480.059 949.568 486.434C946.927 492.808 945.568 499.64 945.568 506.54V506.54C945.59 520.461 951.134 533.804 960.985 543.64C970.836 553.476 984.188 559 998.108 559H1066.65V454H1043.35" fill="white"/>
<path d="M1066.65 453.961H1052.73V559.041H1066.65V453.961Z" fill="#EBEBEB"/>
<path d="M1043.35 565.61V626.15C1043.35 635.433 1039.66 644.335 1033.1 650.899C1026.53 657.463 1017.63 661.15 1008.35 661.15H658.568C649.286 661.15 640.383 657.463 633.82 650.899C627.256 644.335 623.568 635.433 623.568 626.15V314.32C623.568 335.49 639.248 342.67 658.568 342.67H1008.33C1015.48 342.65 1022.46 344.836 1028.33 348.93V348.93C1032.97 352.159 1036.75 356.462 1039.36 361.472C1041.98 366.482 1043.34 372.05 1043.33 377.7V446.7" stroke="#4A4A4A" stroke-width="4" stroke-linecap="round" stroke-linejoin="round"/>
<path d="M1043.35 454H998.108C991.209 454 984.377 455.359 978.002 457.999C971.628 460.64 965.836 464.51 960.957 469.389C956.078 474.267 952.208 480.059 949.568 486.434C946.927 492.808 945.568 499.64 945.568 506.54V506.54C945.59 520.461 951.134 533.804 960.985 543.64C970.836 553.476 984.188 559 998.108 559H1066.65V454H1043.35" stroke="#4A4A4A" stroke-width="4" stroke-linecap="round" stroke-linejoin="round"/>
<path d="M1018.54 512.5C1018.54 508.89 1017.47 505.361 1015.46 502.36C1013.46 499.358 1010.61 497.019 1007.27 495.638C1003.94 494.257 1000.27 493.896 996.725 494.601C993.185 495.306 989.933 497.046 987.381 499.599C984.829 502.152 983.092 505.405 982.389 508.946C981.685 512.487 982.048 516.156 983.431 519.491C984.814 522.825 987.155 525.675 990.157 527.679C993.16 529.683 996.689 530.752 1000.3 530.75C1002.7 530.75 1005.07 530.278 1007.28 529.361C1009.5 528.443 1011.51 527.099 1013.2 525.404C1014.89 523.709 1016.24 521.697 1017.15 519.483C1018.07 517.269 1018.54 514.896 1018.54 512.5Z" fill="#EBEBEB"/>
<path d="M1018.54 506.5C1018.54 502.89 1017.47 499.361 1015.46 496.36C1013.46 493.358 1010.61 491.019 1007.27 489.638C1003.94 488.257 1000.27 487.896 996.725 488.601C993.185 489.306 989.933 491.046 987.381 493.599C984.829 496.152 983.092 499.405 982.389 502.946C981.685 506.487 982.048 510.156 983.431 513.491C984.814 516.825 987.155 519.675 990.157 521.679C993.16 523.683 996.689 524.752 1000.3 524.75C1002.7 524.75 1005.07 524.278 1007.28 523.361C1009.5 522.443 1011.51 521.099 1013.2 519.404C1014.89 517.709 1016.24 515.697 1017.15 513.483C1018.07 511.269 1018.54 508.896 1018.54 506.5Z" fill="#FF9500"/>
<path d="M624.289 323.251C624.289 303.821 639.509 299.611 653.399 298.491L959.829 275.191C977.169 273.791 992.509 288.281 994.109 307.551L995.339 342.091" stroke="#4A4A4A" stroke-width="2.5" stroke-linecap="round" stroke-linejoin="round"/>
<path d="M623.539 321.4C623.539 305.99 626.399 293.99 642.929 290.46L909.999 238.79C925.079 235.65 940.529 248.45 944.509 267.38L945.669 276.38" stroke="#4A4A4A" stroke-width="2.5" stroke-linecap="round" stroke-linejoin="round"/>
<path d="M883.398 454.488H706.398C684.859 454.488 667.398 471.949 667.398 493.488V525.038C667.398 546.577 684.859 564.038 706.398 564.038H883.398C904.938 564.038 922.398 546.577 922.398 525.038V493.488C922.398 471.949 904.938 454.488 883.398 454.488Z" stroke="#4A4A4A" stroke-width="2.5" stroke-linecap="round" stroke-linejoin="round" stroke-dasharray="10.03 10.03"/>
<path d="M401.4 420.824H472.73" stroke="#FF9500" stroke-width="2.5" stroke-linecap="round" stroke-linejoin="round"/>
<path d="M408.391 445.302H472.731L497.971 420.062H564.061L583.311 400.812H607.001" stroke="#FF9500" stroke-width="2.5" stroke-linecap="round" stroke-linejoin="round"/>
<path d="M411.4 469.781H527.4" stroke="#FF9500" stroke-width="2.5" stroke-linecap="round" stroke-linejoin="round"/>
<path d="M472.73 494.262H538.06L560.24 469.082H607" stroke="#FF9500" stroke-width="2.5" stroke-linecap="round" stroke-linejoin="round"/>
<path d="M403.391 518.742H484.731L510.951 544.962" stroke="#FF9500" stroke-width="2.5" stroke-linecap="round" stroke-linejoin="round"/>
<path d="M510.73 445.301H618" stroke="#FF9500" stroke-width="2.5" stroke-linecap="round" stroke-linejoin="round" stroke-dasharray="20 15 2 20 15 2"/>
<path d="M519.4 544.961H607" stroke="#FF9500" stroke-width="2.5" stroke-linecap="round" stroke-linejoin="round"/>
<path d="M514.061 518.742H607.001" stroke="#FF9500" stroke-width="2.5" stroke-linecap="round" stroke-linejoin="round" stroke-dasharray="20 15 2 20 15 2"/>
<path d="M1091.8 405.21H1134.4L1176.55 363.06H1203.4L1318.71 247.75" stroke="#FF9500" stroke-width="2.5" stroke-linecap="round" stroke-linejoin="round"/>
<path d="M1091.8 427.69H1148.4L1194.27 381.82" stroke="#FF9500" stroke-width="2.5" stroke-linecap="round" stroke-linejoin="round"/>
<path d="M1194.27 343.241L1343.23 194.281" stroke="#FF9500" stroke-width="2.5" stroke-linecap="round" stroke-linejoin="round" stroke-dasharray="20 15 2 20 15 2"/>
<path d="M1141.8 451.822H1160.4L1232.89 375.332V368.402" stroke="#FF9500" stroke-width="2.5" stroke-linecap="round" stroke-linejoin="round"/>
<path d="M1226.4 300.493V276.493L1251.93 250.953" stroke="#FF9500" stroke-width="2.5" stroke-linecap="round" stroke-linejoin="round"/>
<path d="M1091.8 476.3H1168.4L1236.48 408.21H1259.4L1349.95 317.66" stroke="#FF9500" stroke-width="2.5" stroke-linecap="round" stroke-linejoin="round"/>
<path d="M1105.4 496.902L1125.86 515.372H1204.85L1257.13 461.082" stroke="#FF9500" stroke-width="2.5" stroke-linecap="round" stroke-linejoin="round"/>
<path d="M1138.4 492.902H1190.29L1237.43 445.763L1284.13 399.062" stroke="#FF9500" stroke-width="2.5" stroke-linecap="round" stroke-linejoin="round" stroke-dasharray="20 15 2 20 15 2"/>
<path d="M1252.55 362.911L1280.53 334.941" stroke="#FF9500" stroke-width="2.5" stroke-linecap="round" stroke-linejoin="round"/>
<path d="M1243.17 514.973L1219.98 540.163H1091.8" stroke="#FF9500" stroke-width="2.5" stroke-linecap="round" stroke-linejoin="round"/>
</svg>
